<svg width="38" height="32" viewBox="0 0 38 32" fill="none" xmlns="http://www.w3.org/2000/svg">
<path fill-rule="evenodd" clip-rule="evenodd" d="M12.1842 25.2121L18.0263 19.5103C17.2668 19.4327 16.7021 19.3939 16.0789 19.3939C10.8795 19.3939 0.5 21.9927 0.5 27.1515V31.0303H18.0263L12.1842 25.2121ZM16.0789 15.5152C20.3826 15.5152 23.8684 12.0436 23.8684 7.75758C23.8684 3.47152 20.3826 0 16.0789 0C11.7753 0 8.28947 3.47152 8.28947 7.75758C8.28947 12.0436 11.7753 15.5152 16.0789 15.5152Z" fill="#8958E1"/>
<path fill-rule="evenodd" clip-rule="evenodd" d="M24.7828 32L18.0254 25.2121L20.7517 22.4776L24.7828 26.5115L34.7728 16.4849L37.4991 19.2194L24.7828 32Z" fill="#8958E1" fill-opacity="0.4"/>
</svg>
