<svg width="117" height="34" viewBox="0 0 117 34" fill="black" xmlns="http://www.w3.org/2000/svg">
<path d="M0 9.71395V24.2849H9.64781V0C4.31963 0 0 4.34925 0 9.71395Z"/>
<path d="M19.2968 0C13.9686 0 9.64893 4.34925 9.64893 9.71395H33.7697V0H19.2968Z"/>
<path d="M33.7683 9.71387V24.2848H43.4163V19.4278C43.4163 14.0631 39.0966 9.71387 33.7683 9.71387Z"/>
<path d="M9.6479 34.0001H24.1196C29.4478 34.0001 33.7675 29.6508 33.7675 24.2861H9.64673V34.0001H9.6479Z"/>
<path d="M14.4717 17.0011V19.4302H19.2956V17.0011C19.2956 15.6593 18.2157 14.572 16.8831 14.572C15.5516 14.572 14.4717 15.6593 14.4717 17.0011Z"/>
<path d="M24.1206 17.0011V19.4302H28.9445V17.0011C28.9445 15.6593 27.8646 14.572 26.532 14.572C25.2005 14.572 24.1206 15.6593 24.1206 17.0011Z"/>
<path d="M53.0642 5.17334H56.793V15.5611C56.793 15.5611 58.1607 13.6209 60.957 13.6209C64.7794 13.6209 68.135 16.844 68.135 21.4123C68.135 25.9807 64.7782 29.2038 60.957 29.2038C57.7875 29.2038 56.5134 26.8878 56.5134 26.8878V28.828H53.0642V5.17334ZM56.7942 23.6341C56.7942 23.6341 57.8507 25.6991 60.3053 25.6991C62.822 25.6991 64.3453 23.8532 64.3453 21.4123C64.3453 18.9715 62.8232 17.1255 60.3053 17.1255C57.8507 17.1255 56.7942 19.1906 56.7942 19.1906V23.6341Z"/>
<path d="M69.6899 13.9951H73.4187V28.8264H69.6899V13.9951Z"/>
<path d="M74.9736 13.9971H77.8635V9.58545H81.5923V13.9971H86.036V17.3769H81.5923V23.353C81.5923 25.1683 82.5248 25.6996 83.5193 25.6996C84.3582 25.6996 85.0731 25.1683 85.0731 25.1683L86.4408 28.2347C86.4408 28.2347 85.0427 29.2042 82.898 29.2042C80.0386 29.2042 77.8635 27.1073 77.8635 23.9479V17.3769H74.9736V13.9971Z"/>
<path d="M86.9497 13.997H89.8712V10.3675C89.8712 6.23739 92.7611 4.79785 95.1538 4.79785C97.2048 4.79785 98.4169 5.58006 98.4169 5.58006L97.0187 8.74068C97.0187 8.74068 96.4595 8.30246 95.527 8.30246C94.8121 8.30246 93.6 8.70888 93.6 10.5548V13.997H97.2048V17.3767H93.6V28.8283H89.8712V17.3767H86.9497V13.997Z"/>
<path d="M98.4169 23.6007V13.9951H102.146V22.5687C102.146 24.7587 103.171 25.6976 105.067 25.6976C106.994 25.6976 107.989 23.8822 107.989 23.8822V13.9951H111.717V28.8264H108.237V26.6671C108.237 26.6671 106.839 29.201 103.823 29.201C100.996 29.2022 98.4169 27.1677 98.4169 23.6007Z"/>
<path d="M113.271 5.17334H117V28.828H113.271V5.17334Z"/>
</svg>
