<svg width="48" height="26" viewBox="0 0 48 26" fill="none" xmlns="http://www.w3.org/2000/svg">
<path d="M15.9998 9.99991H9.99985V4H5.99991V9.99991H0V13.9998H5.99991V19.9998H9.99985V13.9998H15.9998V9.99991Z" fill="#8958E1" fill-opacity="0.4"/>
<path d="M35.9982 11.9998C39.3982 11.9998 41.9981 9.39986 41.9981 5.99991C41.9981 2.59996 39.3982 0 35.9982 0C35.3982 0 34.7982 0.199997 34.1982 0.199997C35.3982 1.79997 35.9982 3.79994 35.9982 5.99991C35.9982 8.19988 35.3982 9.99985 34.1982 11.7998C34.7982 11.7998 35.3982 11.9998 35.9982 11.9998Z" fill="#8958E1"/>
<path d="M25.9999 11.9998C29.3999 11.9998 31.9998 9.39986 31.9998 5.99991C31.9998 2.59996 29.3999 0 25.9999 0C22.6 0 20 2.59996 20 5.99991C20 9.39986 22.6 11.9998 25.9999 11.9998Z" fill="#8958E1"/>
<path d="M39.1982 16.3999C40.7982 17.7999 41.9982 19.5999 41.9982 21.9998V25.9998H47.9981V21.9998C47.9981 18.9999 43.1982 16.9999 39.1982 16.3999Z" fill="#8958E1"/>
<path d="M25.9998 16C21.9999 16 14 18 14 21.9999V25.9998H37.9996V21.9999C37.9996 18 29.9998 16 25.9998 16Z" fill="#8958E1"/>
</svg>
