<svg width="121" height="26" viewBox="0 0 121 26" fill="none" xmlns="http://www.w3.org/2000/svg">
<g>
<path d="M32.3593 7.29363H35.1601V6.52449H33.1929V4.45115H34.9934V3.682H33.1929V1.79258H35.1601V1.02344H32.3593V7.29363Z"/>
<path d="M36.9781 7.29363V1.02344H36.1445V7.29363H36.9781Z"/>
<path d="M39.0457 7.29363V1.02344H38.2121V7.29363H39.0457Z"/>
<path d="M40.6966 2.20223C41.0216 2.20223 41.2467 1.95979 41.2467 1.6421C41.2467 1.32441 41.0216 1.09032 40.6966 1.09032C40.3798 1.09032 40.1464 1.32441 40.1464 1.6421C40.1464 1.95979 40.3798 2.20223 40.6966 2.20223ZM41.1133 7.29363V3.1135H40.2798V7.29363H41.1133Z"/>
<path d="M43.181 5.01128C43.181 4.18362 43.5644 3.7656 44.1896 3.7656C44.8148 3.7656 45.1982 4.18362 45.1982 5.01128V7.29363H46.0318V4.84408C46.0318 3.61512 45.3566 3.0299 44.448 3.0299C43.8978 3.0299 43.4394 3.28907 43.181 3.77396V3.1135H42.3474V7.29363H43.181V5.01128Z"/>
<path d="M51.1162 7.32708V3.1135H50.2826V3.74052C49.9575 3.29743 49.4741 3.0299 48.9156 3.0299C47.7736 3.0299 46.915 3.92445 46.915 5.20357C46.915 6.48269 47.7736 7.37724 48.9156 7.37724C49.4741 7.37724 49.9575 7.10971 50.2826 6.66661V7.32708C50.2826 8.12966 49.8325 8.69816 49.0656 8.69816C48.4154 8.69816 47.9653 8.28851 47.8569 7.66149H47.015C47.1651 8.73996 47.9736 9.4673 49.0656 9.4673C50.2076 9.4673 51.1162 8.59783 51.1162 7.32708ZM49.0156 6.60809C48.2904 6.60809 47.7486 6.04795 47.7486 5.20357C47.7486 4.35918 48.2904 3.79904 49.0156 3.79904C49.7408 3.79904 50.2826 4.35918 50.2826 5.20357C50.2826 6.04795 49.7408 6.60809 49.0156 6.60809Z"/>
<path d="M55.5694 6.11484C55.5694 4.40934 53.027 5.15341 53.027 4.22542C53.027 3.89101 53.3271 3.69872 53.7772 3.69872C54.2607 3.69872 54.6191 3.99133 54.6191 4.39262H55.486C55.486 3.62348 54.7525 3.0299 53.7772 3.0299C52.8769 3.0299 52.1851 3.49808 52.1851 4.25886C52.1851 5.93927 54.7108 5.13669 54.7108 6.14828C54.7108 6.52449 54.4107 6.71678 53.9022 6.71678C53.3687 6.71678 52.9686 6.45761 52.9686 5.94763H52.1017C52.1017 6.8589 52.8769 7.37724 53.9022 7.37724C54.8692 7.37724 55.5694 6.9007 55.5694 6.11484Z"/>
<path d="M60.3449 5.20357C60.3449 3.92445 59.478 3.0299 58.2943 3.0299C57.1107 3.0299 56.2438 3.92445 56.2438 5.20357C56.2438 6.48269 57.1107 7.37724 58.2943 7.37724C59.2529 7.37724 59.9781 6.9007 60.2365 6.03959H59.3363C59.1696 6.41581 58.8361 6.64153 58.3277 6.64153C57.6275 6.64153 57.1607 6.21516 57.0607 5.48782H60.3282C60.3366 5.39585 60.3449 5.30389 60.3449 5.20357ZM58.2943 3.7656C58.9612 3.7656 59.4196 4.18362 59.5197 4.88588H57.069C57.169 4.18362 57.6191 3.7656 58.2943 3.7656Z"/>
<path d="M62.1071 5.01128C62.1071 4.18362 62.4905 3.7656 63.1157 3.7656C63.7409 3.7656 64.1243 4.18362 64.1243 5.01128V7.29363H64.9579V4.84408C64.9579 3.61512 64.2827 3.0299 63.3741 3.0299C62.824 3.0299 62.3655 3.28907 62.1071 3.77396V3.1135H61.2735V7.29363H62.1071V5.01128Z"/>
<path d="M31.8906 12.3579H34.2169V22.1363H35.6986V12.3579H38.0249V10.9907H31.8906V12.3579Z"/>
<path d="M45.2672 18.4211C45.2672 16.1474 43.7263 14.5573 41.6223 14.5573C39.5183 14.5573 37.9773 16.1474 37.9773 18.4211C37.9773 20.6948 39.5183 22.2849 41.6223 22.2849C43.3262 22.2849 44.6153 21.4378 45.0746 19.9072H43.4744C43.1781 20.5759 42.5854 20.9771 41.6815 20.9771C40.4369 20.9771 39.6072 20.2192 39.4294 18.9263H45.2376C45.2524 18.7629 45.2672 18.5994 45.2672 18.4211ZM41.6223 15.865C42.8076 15.865 43.6226 16.6081 43.8004 17.8564H39.4442C39.622 16.6081 40.4221 15.865 41.6223 15.865Z"/>
<path d="M52.178 17.6632H53.719C53.5412 15.8056 52.015 14.5573 50.0592 14.5573C47.9403 14.5573 46.3697 16.1474 46.3697 18.4211C46.3697 20.6948 47.9403 22.2849 50.0592 22.2849C52.0743 22.2849 53.6301 20.9771 53.7486 19.0155H52.2076C52.0595 20.249 51.1408 20.9177 50.0592 20.9177C48.7997 20.9177 47.8514 19.922 47.8514 18.4211C47.8514 16.9201 48.7997 15.9245 50.0592 15.9245C51.126 15.9245 52.0298 16.5338 52.178 17.6632Z"/>
<path d="M56.8789 18.0793C56.8789 16.6081 57.5605 15.865 58.6718 15.865C59.783 15.865 60.4646 16.6081 60.4646 18.0793V22.1363H61.9463V17.7821C61.9463 15.5975 60.7461 14.5573 59.1311 14.5573C58.1532 14.5573 57.3382 15.018 56.8789 15.8799V10.9907H55.3972V22.1363H56.8789V18.0793Z"/>
<path d="M65.5463 18.0793C65.5463 16.6081 66.2279 15.865 67.3391 15.865C68.4504 15.865 69.132 16.6081 69.132 18.0793V22.1363H70.6137V17.7821C70.6137 15.5975 69.4135 14.5573 67.7985 14.5573C66.8205 14.5573 66.0056 15.018 65.5463 15.8799V14.7059H64.0646V22.1363H65.5463V18.0793Z"/>
<path d="M75.9324 22.2849C78.0809 22.2849 79.6811 20.6948 79.6811 18.4211C79.6811 16.1474 78.0809 14.5573 75.9324 14.5573C73.784 14.5573 72.1837 16.1474 72.1837 18.4211C72.1837 20.6948 73.784 22.2849 75.9324 22.2849ZM75.9324 20.9177C74.6433 20.9177 73.6654 19.922 73.6654 18.4211C73.6654 16.9201 74.6433 15.9245 75.9324 15.9245C77.2215 15.9245 78.1994 16.9201 78.1994 18.4211C78.1994 19.922 77.2215 20.9177 75.9324 20.9177Z"/>
<path d="M82.8087 22.1363V10.9907H81.327V22.1363H82.8087Z"/>
<path d="M88.2027 22.2849C90.3512 22.2849 91.9514 20.6948 91.9514 18.4211C91.9514 16.1474 90.3512 14.5573 88.2027 14.5573C86.0543 14.5573 84.454 16.1474 84.454 18.4211C84.454 20.6948 86.0543 22.2849 88.2027 22.2849ZM88.2027 20.9177C86.9137 20.9177 85.9357 19.922 85.9357 18.4211C85.9357 16.9201 86.9137 15.9245 88.2027 15.9245C89.4918 15.9245 90.4697 16.9201 90.4697 18.4211C90.4697 19.922 89.4918 20.9177 88.2027 20.9177Z"/>
<path d="M100.517 22.1957V14.7059H99.0351V15.8204C98.4573 15.0328 97.5979 14.5573 96.6051 14.5573C94.5752 14.5573 93.0491 16.1474 93.0491 18.4211C93.0491 20.6948 94.5752 22.2849 96.6051 22.2849C97.5979 22.2849 98.4573 21.8093 99.0351 21.0217V22.1957C99.0351 23.6223 98.235 24.6329 96.8718 24.6329C95.7161 24.6329 94.916 23.9047 94.7234 22.7901H93.2269C93.4936 24.7072 94.9308 26.0001 96.8718 26.0001C98.9018 26.0001 100.517 24.4545 100.517 22.1957ZM96.7829 20.9177C95.4939 20.9177 94.5308 19.922 94.5308 18.4211C94.5308 16.9201 95.4939 15.9245 96.7829 15.9245C98.072 15.9245 99.0351 16.9201 99.0351 18.4211C99.0351 19.922 98.072 20.9177 96.7829 20.9177Z"/>
<path d="M103.454 13.0861C104.032 13.0861 104.432 12.6551 104.432 12.0904C104.432 11.5257 104.032 11.1096 103.454 11.1096C102.891 11.1096 102.476 11.5257 102.476 12.0904C102.476 12.6551 102.891 13.0861 103.454 13.0861ZM104.195 22.1363V14.7059H102.713V22.1363H104.195Z"/>
<path d="M113.13 18.4211C113.13 16.1474 111.589 14.5573 109.485 14.5573C107.381 14.5573 105.84 16.1474 105.84 18.4211C105.84 20.6948 107.381 22.2849 109.485 22.2849C111.189 22.2849 112.478 21.4378 112.938 19.9072H111.337C111.041 20.5759 110.448 20.9771 109.545 20.9771C108.3 20.9771 107.47 20.2192 107.292 18.9263H113.101C113.115 18.7629 113.13 18.5994 113.13 18.4211ZM109.485 15.865C110.671 15.865 111.486 16.6081 111.663 17.8564H107.307C107.485 16.6081 108.285 15.865 109.485 15.865Z"/>
<path d="M120.5 20.0409C120.5 17.0093 115.981 18.3319 115.981 16.6824C115.981 16.0879 116.515 15.7461 117.315 15.7461C118.174 15.7461 118.811 16.2663 118.811 16.9796H120.352C120.352 15.6124 119.048 14.5573 117.315 14.5573C115.714 14.5573 114.485 15.3895 114.485 16.7418C114.485 19.7288 118.974 18.3022 118.974 20.1003C118.974 20.7691 118.441 21.1109 117.537 21.1109C116.589 21.1109 115.877 20.6502 115.877 19.7437H114.336C114.336 21.3635 115.714 22.2849 117.537 22.2849C119.256 22.2849 120.5 21.4378 120.5 20.0409Z"/>
<g clip-path="url(#clip0_371_39)">
<path d="M0.5 17.2651L15.9669 13.1538L24.5482 19.9973L9.08194 24.1086H9.08131L0.5 17.2651Z" fill="url(#paint0_linear_371_39)"/>
<path d="M0.5 10.6933L15.9669 6.58203L24.5482 13.4255L9.08194 17.5368H9.08131L0.5 10.6933Z" fill="url(#paint1_linear_371_39)"/>
<path d="M0.5 4.11129L15.9669 0L24.5482 6.84349L9.08194 10.9548H9.08131L0.5 4.11129Z" fill="url(#paint2_linear_371_39)"/>
<path d="M0.5 4.11133L9.08131 10.9548H9.08194V24.1193L0.5 17.2752"/>
</g>
</g>
<defs>
<linearGradient id="paint0_linear_371_39" x1="0.5" y1="17.2338" x2="24.5482" y2="17.2338" gradientUnits="userSpaceOnUse">
<stop/>
<stop offset="1" stop-color="#E9E9E9"/>
</linearGradient>
<linearGradient id="paint1_linear_371_39" x1="15.1364" y1="17.5294" x2="15.1364" y2="6.58947" gradientUnits="userSpaceOnUse">
<stop/>
<stop offset="1" stop-color="#E9E9E9"/>
</linearGradient>
<linearGradient id="paint2_linear_371_39" x1="0.5" y1="4.07994" x2="24.5482" y2="4.07994" gradientUnits="userSpaceOnUse">
<stop offset="0.386714"/>
<stop offset="1" stop-color="#E9E9E9"/>
</linearGradient>
<clipPath id="clip0_371_39">
<rect width="24.0482" height="24.1193" fill="white" transform="translate(0.5)"/>
</clipPath>
</defs>
</svg>
