<svg width="16" height="20" viewBox="0 0 16 20" fill="none" xmlns="http://www.w3.org/2000/svg">
<path opacity="0.4" d="M0.000309944 2.1787L4.57562 4.27557L6.29033 3.98525L14.2567 2.6372L15.9717 2.34687L11.3964 0.25L9.68137 0.540323L1.71502 1.88838L0.000309944 2.1787Z" fill="white"/>
<path opacity="0.8" d="M10.2877 11.0486L4.60394 19.75L6.31865 19.4597L14.285 18.1116L16 17.8213L10.2877 11.0486Z" fill="white"/>
<path opacity="0.4" d="M10.2881 11.0486L5.71278 8.95142L0.0290661 17.6528L4.60437 19.75L10.2881 11.0486Z" fill="white"/>
<path opacity="0.8" d="M4.57562 4.27562L10.288 11.0486L15.9717 2.34692L14.2567 2.63725L6.29033 3.9853L4.57562 4.27562Z" fill="white"/>
<path opacity="0.2" d="M0.000435829 2.17871L5.71278 8.95143L10.2881 11.0486L4.57574 4.27558L0.000435829 2.17871Z" fill="white"/>
</svg>
