<svg width="140" height="18" viewBox="0 0 140 18" fill="black" xmlns="http://www.w3.org/2000/svg">
<g clip-path="url(#clip0)">
<path d="M22.0357 6.6431C22.0357 12.7633 17.0909 17.7241 10.9908 17.7241H0V13.3026H10.9815C14.6475 13.3026 17.6193 10.3212 17.6193 6.6431H22.0357Z"/>
<path d="M15.2973 6.6431C15.2973 9.09449 13.3167 11.0815 10.8733 11.0815H6.62671C6.62671 8.63009 8.60722 6.6431 11.0506 6.6431H15.2973Z"/>
<path d="M15.2972 4.26662V4.42394H11.0561C7.39003 4.42394 4.41834 7.40536 4.41834 11.0835H0C0 4.96329 4.94474 0.000488281 11.0468 0.000488281C13.395 0.000488281 15.2972 1.9107 15.2972 4.26662Z"/>
<path d="M38.0553 8.7743C38.0553 6.08878 36.2185 4.21228 33.7173 4.21228C31.2159 4.21228 29.3792 6.08878 29.3792 8.7743C29.3792 11.4598 31.2159 13.3363 33.7173 13.3363C35.7817 13.3363 37.3031 12.3531 37.8275 10.5291H35.554C35.274 11.1434 34.7327 11.4936 33.8049 11.4936C32.5114 11.4936 31.6714 10.7556 31.4436 9.47656H38.0198C38.0385 9.24814 38.0553 9.01963 38.0553 8.7743ZM31.4623 7.98587C31.69 6.75735 32.4946 6.05507 33.7191 6.05507C34.9436 6.05507 35.7482 6.75735 35.9758 7.98587H31.4623Z"/>
<path d="M39.1044 0.000427246V13.1602H41.2043V1.26453L39.1044 0.000427246Z"/>
<path d="M42.733 0.000427246V13.1602H44.833V1.26453L42.733 0.000427246Z"/>
<path d="M46.3821 4.3884V13.1622H48.4802V4.3884H46.3821Z"/>
<path d="M54.6366 4.21228C53.5521 4.21228 52.6598 4.72167 52.1185 5.65055V4.38645H50.0186V13.1603H52.1185V8.33608C52.1185 6.86222 52.8185 6.05507 53.9552 6.05507C55.092 6.05507 55.792 6.86222 55.792 8.33608V13.1622H57.8901V7.91471C57.8901 5.44081 56.4901 4.21228 54.6366 4.21228Z"/>
<path d="M65.6703 4.38832V5.49324C65.0226 4.68609 64.0967 4.21228 63.0477 4.21228C60.6509 4.21228 58.8496 6.08878 58.8496 8.77431C58.8496 11.4598 60.6509 13.3363 63.0477 13.3363C64.0967 13.3363 65.0245 12.8625 65.6703 12.0553V13.1603C65.6703 14.7053 64.8304 15.7934 63.3967 15.7934C62.1909 15.7934 61.3342 15.0199 61.14 13.8626H59.0233C59.3387 16.1604 61.0691 17.7242 63.3949 17.7242C65.8085 17.7242 67.7684 15.8459 67.7684 13.1603V4.38645H65.6703V4.38832ZM63.3091 11.4074C61.9613 11.4074 60.9477 10.3549 60.9477 8.77618C60.9477 7.19744 61.9613 6.14496 63.3091 6.14496C64.6567 6.14496 65.6703 7.19744 65.6703 8.77618C65.6703 10.3549 64.6567 11.4074 63.3091 11.4074Z"/>
<path d="M71.1412 6.7742C71.1412 6.21238 71.6658 5.87903 72.4535 5.87903C73.3103 5.87903 73.9394 6.44085 73.9394 7.17872H76.127C76.127 5.51197 74.5535 4.21228 72.4535 4.21228C70.5122 4.21228 69.0245 5.22918 69.0245 6.86222C69.0245 10.4429 74.1148 8.86232 74.1148 10.722C74.1148 11.3718 73.5903 11.6864 72.7148 11.6864C71.7703 11.6864 71.0535 11.2127 71.0535 10.265H68.8677C68.8677 12.2127 70.529 13.3363 72.7148 13.3363C74.7607 13.3363 76.2838 12.3007 76.2838 10.634C76.2838 7.01953 71.1412 8.45781 71.1412 6.7742Z"/>
<path d="M85.4454 8.7743C85.4454 6.08878 83.6086 4.21228 81.1073 4.21228C78.6061 4.21228 76.7693 6.08878 76.7693 8.7743C76.7693 11.4598 78.6061 13.3363 81.1073 13.3363C83.1719 13.3363 84.6932 12.3531 85.2176 10.5291H82.9441C82.6641 11.1434 82.1228 11.4936 81.1951 11.4936C79.8996 11.4936 79.0615 10.7556 78.8337 9.47656H85.41C85.4286 9.24814 85.4454 9.01963 85.4454 8.7743ZM78.8505 7.98587C79.0783 6.75735 79.8828 6.05507 81.1073 6.05507C82.3319 6.05507 83.1364 6.75735 83.3641 7.98587H78.8505Z"/>
<path d="M91.0926 4.21228C90.0076 4.21228 89.1156 4.72167 88.5742 5.65055V4.38645H86.4742V13.1603H88.5742V8.33608C88.5742 6.86222 89.2742 6.05507 90.4106 6.05507C91.5476 6.05507 92.2476 6.86222 92.2476 8.33608V13.1622H94.3458V7.91471C94.3458 5.44081 92.9476 4.21228 91.0926 4.21228Z"/>
<path d="M101.965 4.38831V5.51197C101.318 4.68796 100.409 4.21414 99.3409 4.21414C96.9627 4.21414 95.2656 6.04008 95.2656 8.77617C95.2656 11.4973 96.9627 13.3382 99.3409 13.3382C100.373 13.3382 101.265 12.8831 101.913 12.1097V13.2858C101.913 14.6716 101.18 15.6192 99.9027 15.6192C98.8347 15.6192 98.0656 14.917 97.9095 13.8644H95.4415C95.7565 16.1979 97.5056 17.726 99.9547 17.726C102.456 17.726 104.45 15.9357 104.45 13.2502V4.38831H101.965ZM99.8318 11.0741C98.6427 11.0741 97.7677 10.162 97.7677 8.77617C97.7677 7.39033 98.6427 6.47831 99.8318 6.47831C101.04 6.47831 101.913 7.3922 101.913 8.77617C101.913 10.162 101.04 11.0741 99.8318 11.0741Z"/>
<path d="M111.032 4.21228C109.791 4.21228 108.792 4.82654 108.215 5.91461V4.38832H105.766V13.1622H108.303V8.72374C108.303 7.42592 109.124 6.70491 110.56 6.70491C110.911 6.70491 111.224 6.75735 111.471 6.84537V4.24786C111.364 4.21228 111.189 4.21228 111.032 4.21228Z"/>
<path d="M116.086 4.21228C113.481 4.21228 111.54 6.07192 111.54 8.7743C111.54 11.4767 113.481 13.3363 116.086 13.3363C118.692 13.3363 120.633 11.4767 120.633 8.7743C120.633 6.07192 118.692 4.21228 116.086 4.21228ZM116.086 11.0741C114.898 11.0741 114.005 10.1433 114.005 8.77617C114.005 7.39034 114.898 6.47831 116.086 6.47831C117.294 6.47831 118.168 7.39221 118.168 8.77617C118.168 10.1433 117.294 11.0741 116.086 11.0741Z"/>
<path d="M126.961 4.38829V9.23122C126.961 10.5477 126.401 11.2313 125.44 11.2313C124.479 11.2313 123.9 10.5477 123.9 9.23122V4.38829H121.364V9.80992C121.364 12.1621 122.711 13.3363 124.512 13.3363C125.007 13.3363 125.459 13.2315 125.856 13.031C126.332 12.7914 126.728 12.413 127.014 11.9148V13.1603H129.498V4.38641H126.961V4.38829Z"/>
<path d="M135.94 4.21228C134.872 4.21228 133.963 4.68608 133.318 5.49324V4.38832H130.817V16.02L133.353 17.5481V12.1078C134.001 12.8813 134.893 13.3363 135.942 13.3363C138.303 13.3363 140 11.4935 140 8.77431C139.998 6.03821 138.301 4.21228 135.94 4.21228ZM135.432 11.0741C134.243 11.0741 133.351 10.162 133.351 8.77618C133.351 7.39034 134.243 6.47831 135.432 6.47831C136.621 6.47831 137.514 7.39221 137.514 8.77618C137.514 10.162 136.621 11.0741 135.432 11.0741Z"/>
</g>
<defs>
<clipPath id="clip0">
<rect width="140" height="18" fill="white"/>
</clipPath>
</defs>
</svg>
