<svg width="18" height="18" viewBox="0 0 18 18" fill="none" xmlns="http://www.w3.org/2000/svg">
<path d="M9 18C13.9706 18 18 13.9706 18 9C18 4.02944 13.9706 0 9 0C4.02944 0 0 4.02944 0 9C0 13.9706 4.02944 18 9 18Z" fill="#616161"/>
<path d="M9 14.7271C5.83658 14.7271 3.27292 12.1634 3.27292 9C3.27292 5.83658 5.83658 3.27292 9 3.27292C10.581 3.27292 12.0126 3.91402 13.0496 4.95036L15.3638 2.63618C13.735 1.00733 11.4846 0 9 0C4.02933 0 0 4.02933 0 9C0 13.9707 4.02933 18 9 18C11.4853 18 13.735 16.9927 15.3645 15.3645L13.0504 13.0504C12.0126 14.086 10.581 14.7271 9 14.7271Z" fill="#9E9E9E"/>
<path d="M14.7271 9.00001H11.8632C11.8632 7.41903 10.581 6.13611 8.99925 6.13611C7.41754 6.13611 6.13608 7.4183 6.13608 9.00001C6.13608 9.77019 6.44067 10.4686 6.936 10.9842L6.93382 10.9864L10.4794 14.532L10.4802 14.5327C12.9256 13.88 14.7271 11.6507 14.7271 9.00001Z" fill="#424242"/>
<path d="M17.9992 9H14.7262C14.7262 11.6507 12.9241 13.88 10.4801 14.5327L13.0075 17.0601C15.9664 15.5857 17.9992 12.5304 17.9992 9Z" fill="#616161"/>
<path d="M9 17.897C4.04674 17.897 0.0290089 13.8952 0.000725224 8.94849C0.000725224 8.96589 0 8.98257 0 8.99998C0 13.9706 4.02933 18 9 18C13.9707 18 18 13.9706 18 8.99998C18 8.98257 17.9993 8.96589 17.9993 8.94849C17.971 13.8952 13.9525 17.897 9 17.897Z" fill="#212121" fill-opacity="0.1"/>
<path d="M10.481 14.5327L10.5607 14.6125C12.9641 13.9337 14.7271 11.7247 14.7271 9.10226V9C14.7271 11.6507 12.925 13.88 10.481 14.5327Z" fill="white" fill-opacity="0.05"/>
<path d="M16.3635 8.18164H8.99957C8.54776 8.18164 8.18152 8.54788 8.18152 8.99969C8.18152 9.4515 8.54776 9.81774 8.99957 9.81774H16.3627C16.8146 9.81774 17.1808 9.4515 17.1808 8.99969C17.1815 8.54788 16.8153 8.18164 16.3635 8.18164Z" fill="#9E9E9E"/>
<path opacity="0.5" d="M16.3635 8.18164H8.99957C8.54776 8.18164 8.18152 8.54788 8.18152 8.99969C8.18152 9.4515 8.54776 9.81774 8.99957 9.81774H16.3627C16.8146 9.81774 17.1808 9.4515 17.1808 8.99969C17.1815 8.54788 16.8153 8.18164 16.3635 8.18164Z" fill="#BDBDBD"/>
<path d="M1.63604 9.61349C1.97489 9.61349 2.24958 9.3388 2.24958 8.99995C2.24958 8.6611 1.97489 8.38641 1.63604 8.38641C1.2972 8.38641 1.02251 8.6611 1.02251 8.99995C1.02251 9.3388 1.2972 9.61349 1.63604 9.61349Z" fill="#BDBDBD"/>
<path d="M8.99997 2.2496C9.33881 2.2496 9.6135 1.97491 9.6135 1.63606C9.6135 1.29721 9.33881 1.02252 8.99997 1.02252C8.66112 1.02252 8.38643 1.29721 8.38643 1.63606C8.38643 1.97491 8.66112 2.2496 8.99997 2.2496Z" fill="#BDBDBD"/>
<path d="M8.99997 16.9766C9.33881 16.9766 9.6135 16.702 9.6135 16.3631C9.6135 16.0243 9.33881 15.7496 8.99997 15.7496C8.66112 15.7496 8.38643 16.0243 8.38643 16.3631C8.38643 16.702 8.66112 16.9766 8.99997 16.9766Z" fill="#BDBDBD"/>
<path d="M3.7841 4.4064C4.12295 4.4064 4.39764 4.13171 4.39764 3.79286C4.39764 3.45401 4.12295 3.17932 3.7841 3.17932C3.44525 3.17932 3.17056 3.45401 3.17056 3.79286C3.17056 4.13171 3.44525 4.4064 3.7841 4.4064Z" fill="#BDBDBD"/>
<path d="M3.7841 14.8292C4.12295 14.8292 4.39764 14.5546 4.39764 14.2157C4.39764 13.8769 4.12295 13.6022 3.7841 13.6022C3.44525 13.6022 3.17056 13.8769 3.17056 14.2157C3.17056 14.5546 3.44525 14.8292 3.7841 14.8292Z" fill="#BDBDBD"/>
<path d="M14.2157 14.8293C14.5546 14.8293 14.8292 14.5546 14.8292 14.2158C14.8292 13.8769 14.5546 13.6022 14.2157 13.6022C13.8769 13.6022 13.6022 13.8769 13.6022 14.2158C13.6022 14.5546 13.8769 14.8293 14.2157 14.8293Z" fill="#757575"/>
<path d="M9.00001 8.2842H16.3632C16.7976 8.2842 17.153 8.62361 17.1783 9.05149C17.1791 9.03408 17.1812 9.0174 17.1812 9C17.1812 8.54818 16.815 8.18195 16.3632 8.18195H9.00001C8.5482 8.18195 8.18196 8.54818 8.18196 9C8.18196 9.0174 8.18269 9.03408 8.18486 9.05149C8.21024 8.62361 8.56488 8.2842 9.00001 8.2842Z" fill="white" fill-opacity="0.2"/>
<path d="M17.1783 9.05078C17.1515 9.47794 16.7969 9.81807 16.3632 9.81807H9.00001C8.5656 9.81807 8.21024 9.47866 8.18486 9.05078C8.18269 9.06819 8.18196 9.08487 8.18196 9.10155C8.18196 9.55336 8.5482 9.9196 9.00001 9.9196H16.3632C16.815 9.9196 17.1812 9.55336 17.1812 9.10155C17.1812 9.08487 17.1805 9.06819 17.1783 9.05078Z" fill="#212121" fill-opacity="0.2"/>
<path d="M8.9999 3.37516C10.5809 3.37516 12.0125 4.01626 13.0495 5.0526L15.4138 2.68693C15.3964 2.66952 15.3797 2.65212 15.363 2.63544L13.0495 4.94962C12.0125 3.91328 10.5809 3.27218 8.9999 3.27218C5.83649 3.27218 3.27283 5.83584 3.27283 8.99926C3.27283 9.01666 3.27355 9.03334 3.27355 9.05075C3.30111 5.91126 5.85389 3.37516 8.9999 3.37516Z" fill="#212121" fill-opacity="0.1"/>
<path d="M9 18C13.9706 18 18 13.9706 18 9C18 4.02944 13.9706 0 9 0C4.02944 0 0 4.02944 0 9C0 13.9706 4.02944 18 9 18Z" fill="url(#paint0_radial)"/>
<defs>
<radialGradient id="paint0_radial" cx="0" cy="0" r="1" gradientUnits="userSpaceOnUse" gradientTransform="translate(2.63931 2.61881) scale(17.9689)">
<stop stop-color="white" stop-opacity="0.1"/>
<stop offset="1" stop-color="white" stop-opacity="0"/>
</radialGradient>
</defs>
</svg>
