<?xml version="1.0" encoding="utf-8"?>
<!-- Generator: Adobe Illustrator 24.2.0, SVG Export Plug-In . SVG Version: 6.00 Build 0)  -->
<svg version="1.1" id="Layer_1" xmlns="http://www.w3.org/2000/svg" xmlns:xlink="http://www.w3.org/1999/xlink" x="0px" y="0px"
	 viewBox="0 0 50.5 38" style="enable-background:new 0 0 50.5 38;" xml:space="preserve">
<style type="text/css">
	.st0{}
	.st1{fill-opacity:0.5;}
	.st2{fill-opacity:0.75;}
</style>
<g>
	<path class="st0" d="M50.5,12.7c0,13.9-11.3,25.1-25.2,25.1C11.3,37.8,0,26.6,0,12.7h12.6c0,6.9,5.6,12.6,12.6,12.6
		c7,0,12.6-5.6,12.6-12.6H50.5z"/>
	<path class="st1" d="M28.4,12.7c0.6-0.7,1-1.7,1-2.7c0-1.2-0.5-2.2-1.2-3c-0.8-0.8-1.8-1.2-3-1.2C22.9,5.8,21,7.7,21,10
		c0,1,0.4,2,1,2.7h-9.4c0-6.9,5.6-12.6,12.6-12.6c7,0,12.6,5.6,12.6,12.6H28.4z"/>
	<path class="st2" d="M37.8,12.7c0,6.9-5.6,12.6-12.6,12.6c-7,0-12.6-5.6-12.6-12.6H22L19.5,19h11.4l-2.5-6.3H37.8z"/>
</g>
</svg>
