<svg width="101" height="100" viewBox="0 0 101 100" fill="none" xmlns="http://www.w3.org/2000/svg">
<path fill-rule="evenodd" clip-rule="evenodd" d="M62.7455 64.9387L49.0322 51.1636L54.565 45.6141L62.7455 53.8005L83.019 33.4526L88.5517 39.0021L62.7455 64.9387Z" fill="#8958E1" fill-opacity="0.4"/>
<path d="M96.332 23.0027C96.332 48.4023 75.7333 69.0002 50.3327 69.0002C24.9322 69.0002 4.3335 48.4023 4.3335 23.0027H27.3357C27.3357 35.7051 37.6351 46.004 50.3379 46.004C63.0408 46.004 73.3401 35.7051 73.3401 23.0027H96.332Z" fill="white"/>
<path d="M56.1568 23.0013C57.3093 21.6465 57.9997 19.9334 57.9997 18.018C57.9997 15.8948 57.1328 13.9794 55.752 12.5986C54.3451 11.1918 52.4555 10.3509 50.3323 10.3509C46.0911 10.3509 42.6649 13.7769 42.6649 18.018C42.6649 19.9334 43.3554 21.6465 44.5026 23.0013H27.3301C27.3301 10.2989 37.6294 0 50.3323 0C63.0352 0 73.3345 10.2989 73.3345 23.0013H56.1568Z" fill="white" fill-opacity="0.5"/>
<path d="M73.325 23.01C73.325 35.7124 63.0256 46.0114 50.3228 46.0114C37.6199 46.0114 27.3206 35.7124 27.3206 23.01H44.4931L39.8936 34.5081H60.7467L56.1474 23.01H73.325Z" fill="white" fill-opacity="0.75"/>
<path d="M0 99.055V83.7784H2.03576L2.27208 85.4204C2.61375 84.9213 3.08639 84.4817 3.68715 84.0989C4.28792 83.716 5.05667 83.5232 6.00195 83.5232C7.02979 83.5232 7.93805 83.7642 8.72104 84.2492C9.50687 84.7341 10.1247 85.3948 10.5746 86.2342C11.0244 87.0736 11.2494 88.0265 11.2494 89.0927C11.2494 90.159 11.0244 91.109 10.5746 91.9399C10.1247 92.7708 9.50687 93.4259 8.72104 93.9023C7.93521 94.3787 7.02125 94.6169 5.97917 94.6169C5.15063 94.6169 4.41889 94.4524 3.78396 94.1263C3.14903 93.8002 2.64507 93.338 2.27493 92.7396V99.055H0ZM5.59194 92.6545C6.56285 92.6545 7.36292 92.3227 7.99215 91.662C8.62139 91.0013 8.93458 90.1363 8.93458 89.0701C8.93458 88.3724 8.79222 87.7542 8.5075 87.2126C8.22278 86.671 7.82986 86.2484 7.32875 85.9421C6.82764 85.6359 6.24965 85.4827 5.59479 85.4827C4.62389 85.4827 3.82667 85.8174 3.20597 86.4866C2.58528 87.1559 2.27493 88.0151 2.27493 89.0672C2.27493 90.1335 2.58528 90.9984 3.20597 91.6592C3.82382 92.3227 4.62104 92.6545 5.59194 92.6545Z" fill="white"/>
<path d="M12.7014 94.3617V83.7784H14.7372L14.9308 85.7833C15.3009 85.0857 15.8191 84.5356 16.4825 84.1301C17.1459 83.7245 17.9488 83.5232 18.8913 83.5232V85.8911H18.2706C17.6413 85.8911 17.0804 85.9932 16.5879 86.2002C16.0953 86.4072 15.7024 86.756 15.4091 87.2466C15.1159 87.7372 14.9707 88.4178 14.9707 89.2827V94.3617H12.7014Z" fill="white"/>
<path d="M24.6741 94.617C23.6605 94.617 22.7493 94.3844 21.9436 93.9222C21.1378 93.46 20.4972 92.8134 20.0274 91.9797C19.5548 91.1488 19.3213 90.1761 19.3213 89.0673C19.3213 87.9585 19.5605 86.9858 20.0388 86.1549C20.5171 85.324 21.1634 84.6746 21.9777 84.2124C22.792 83.7501 23.6975 83.5176 24.6968 83.5176C25.7105 83.5176 26.6216 83.7501 27.4273 84.2124C28.2331 84.6746 28.8766 85.3212 29.3549 86.1549C29.8332 86.9858 30.0724 87.9585 30.0724 89.0673C30.0724 90.1761 29.8332 91.1488 29.3549 91.9797C28.8766 92.8106 28.2302 93.46 27.4159 93.9222C26.6016 94.3844 25.6877 94.617 24.6741 94.617ZM24.6741 92.6744C25.2179 92.6744 25.719 92.5383 26.1831 92.2689C26.6472 91.9995 27.023 91.5968 27.3077 91.0637C27.5925 90.5306 27.7348 89.867 27.7348 89.0701C27.7348 88.2733 27.5953 87.6097 27.3163 87.0765C27.0373 86.5434 26.6671 86.1407 26.203 85.8713C25.7389 85.6019 25.235 85.4658 24.694 85.4658C24.1502 85.4658 23.6491 85.6019 23.185 85.8713C22.7209 86.1407 22.345 86.5434 22.0603 87.0765C21.7756 87.6097 21.6332 88.2761 21.6332 89.0701C21.6332 89.867 21.7756 90.5306 22.0603 91.0637C22.345 91.5968 22.718 91.9995 23.1736 92.2689C23.632 92.5412 24.1331 92.6744 24.6741 92.6744Z" fill="white"/>
<path d="M31.5273 99.055V83.7784H33.5631L33.7994 85.4204C34.1411 84.9213 34.6137 84.4817 35.2145 84.0989C35.8153 83.716 36.584 83.5232 37.5293 83.5232C38.5571 83.5232 39.4654 83.7642 40.2484 84.2492C41.0342 84.7341 41.6521 85.3948 42.1019 86.2342C42.5518 87.0736 42.7767 88.0265 42.7767 89.0927C42.7767 90.159 42.5518 91.109 42.1019 91.9399C41.6521 92.7708 41.0342 93.4259 40.2484 93.9023C39.4625 94.3787 38.5486 94.6169 37.5065 94.6169C36.678 94.6169 35.9462 94.4524 35.3113 94.1263C34.6764 93.8002 34.1724 93.338 33.8023 92.7396V99.055H31.5273ZM37.1193 92.6545C38.0902 92.6545 38.8903 92.3227 39.5195 91.662C40.1487 91.0013 40.4619 90.1363 40.4619 89.0701C40.4619 88.3724 40.3196 87.7542 40.0348 87.2126C39.7501 86.671 39.3572 86.2484 38.8561 85.9421C38.355 85.6359 37.777 85.4827 37.1221 85.4827C36.1512 85.4827 35.354 85.8174 34.7333 86.4866C34.1126 87.1559 33.8023 88.0151 33.8023 89.0672C33.8023 90.1335 34.1126 90.9984 34.7333 91.6592C35.3512 92.3227 36.1484 92.6545 37.1193 92.6545Z" fill="white"/>
<path d="M49.143 94.6168C48.1009 94.6168 47.1756 94.3843 46.3698 93.9221C45.564 93.4598 44.9319 92.8161 44.4735 91.9909C44.0151 91.1656 43.7874 90.2071 43.7874 89.1097C43.7874 88.0009 44.0123 87.0253 44.4621 86.1859C44.912 85.3465 45.5412 84.6915 46.347 84.2235C47.1528 83.7528 48.0924 83.5203 49.1629 83.5203C50.205 83.5203 51.1133 83.7528 51.882 84.215C52.6536 84.6773 53.2544 85.2927 53.6815 86.0612C54.1086 86.8297 54.325 87.6747 54.325 88.5992C54.325 88.741 54.3221 88.8941 54.3136 89.0586C54.305 89.2231 54.2965 89.4046 54.2822 89.6031H46.0139C46.0851 90.6268 46.4239 91.4067 47.0304 91.9398C47.6368 92.473 48.3401 92.7395 49.1401 92.7395C49.7836 92.7395 50.3217 92.5949 50.7574 92.3028C51.193 92.0107 51.5176 91.6165 51.7311 91.1174H54.0004C53.7156 92.1128 53.1462 92.9465 52.2977 93.613C51.4521 94.2822 50.3986 94.6168 49.143 94.6168ZM49.143 85.3777C48.3856 85.3777 47.7137 85.6018 47.13 86.0498C46.5435 86.4979 46.1876 87.17 46.0594 88.0661H52.0586C52.0159 87.2409 51.7226 86.5858 51.1816 86.1037C50.6349 85.6216 49.9545 85.3777 49.143 85.3777Z" fill="white"/>
<path d="M55.7314 94.3617V83.7784H57.7672L57.9608 85.7833C58.3309 85.0857 58.8491 84.5356 59.5125 84.1301C60.1759 83.7245 60.9788 83.5232 61.9213 83.5232V85.8911H61.3006C60.6713 85.8911 60.1104 85.9932 59.6179 86.2002C59.1253 86.4072 58.7324 86.756 58.4391 87.2466C58.1459 87.7372 58.0007 88.4178 58.0007 89.2827V94.3617H55.7314Z" fill="white"/>
<path d="M63.9543 94.3616V85.6784H62.4338V83.7784H63.9543V82.2413C63.9543 81.09 64.2447 80.2619 64.8227 79.7572C65.4007 79.2524 66.2178 79 67.2741 79H68.3874V80.9199H67.6158C67.1147 80.9199 66.7588 81.0219 66.5452 81.229C66.3317 81.436 66.2235 81.7791 66.2235 82.264V83.7784H68.6664V85.6784H66.2235V94.3616H63.9543Z" fill="white"/>
<path d="M73.2334 94.6168C72.3337 94.6168 71.5906 94.4665 71.0069 94.1688C70.4204 93.871 69.9848 93.474 69.7 92.9834C69.4153 92.4928 69.2729 91.9568 69.2729 91.3727C69.2729 90.3489 69.6716 89.5379 70.4716 88.9395C71.2717 88.3412 72.4134 88.0434 73.8997 88.0434H76.6843V87.8506C76.6843 87.0253 76.4593 86.4071 76.0095 85.9931C75.5596 85.5819 74.9788 85.3749 74.2641 85.3749C73.6349 85.3749 73.0882 85.528 72.6241 85.8343C72.16 86.1406 71.8781 86.5915 71.7785 87.1898H69.5093C69.5804 86.4213 69.8424 85.7634 70.2922 85.2161C70.7421 84.6688 71.3144 84.2491 72.0063 83.957C72.6982 83.6649 73.4584 83.5203 74.2869 83.5203C75.7731 83.5203 76.9206 83.9088 77.7349 84.683C78.5492 85.4571 78.9563 86.5149 78.9563 87.8506V94.3588H76.9861L76.7925 92.5467C76.4935 93.1309 76.0579 93.6215 75.4856 94.0185C74.9104 94.4183 74.1616 94.6168 73.2334 94.6168ZM73.6833 92.7821C74.2983 92.7821 74.8136 92.6374 75.235 92.3453C75.6564 92.0533 75.9838 91.6676 76.2202 91.1827C76.4565 90.7006 76.6017 90.1646 76.6586 89.5833H74.1303C73.2306 89.5833 72.59 89.7392 72.2141 90.054C71.8354 90.3659 71.6475 90.7573 71.6475 91.228C71.6475 91.713 71.8297 92.093 72.1942 92.3709C72.5586 92.6488 73.0541 92.7821 73.6833 92.7821Z" fill="white"/>
<path d="M80.7786 94.3616V83.7783H82.7915L82.9624 85.6357C83.2898 84.9807 83.7738 84.4674 84.4088 84.0902C85.0437 83.713 85.7754 83.5259 86.604 83.5259C87.8881 83.5259 88.8988 83.9229 89.6363 84.7198C90.3708 85.5166 90.7381 86.7048 90.7381 88.2816V94.3616H88.4888V88.5169C88.4888 86.4695 87.6461 85.4457 85.9605 85.4457C85.1177 85.4457 84.4202 85.7435 83.8706 86.3418C83.3211 86.9402 83.0449 87.7938 83.0449 88.9026V94.3644H80.7786V94.3616Z" fill="white"/>
<path d="M96.6775 94.6168C95.3336 94.6168 94.2289 94.2907 93.3577 93.6356C92.4864 92.9805 91.9882 92.1127 91.8572 91.0323H94.1492C94.2631 91.5172 94.5336 91.9313 94.9635 92.2801C95.3906 92.6289 95.9572 92.8019 96.6548 92.8019C97.341 92.8019 97.8392 92.6601 98.1552 92.3765C98.4684 92.0929 98.6279 91.7639 98.6279 91.3953C98.6279 90.8536 98.4086 90.4878 97.9759 90.2978C97.5402 90.105 96.9366 89.932 96.165 89.776C95.5643 89.6484 94.9692 89.4783 94.377 89.2627C93.7848 89.0501 93.2922 88.7466 92.8993 88.3553C92.5064 87.9639 92.3099 87.4336 92.3099 86.7672C92.3099 85.8427 92.6658 85.0714 93.3805 84.4532C94.0951 83.835 95.0945 83.5259 96.3786 83.5259C97.563 83.5259 98.5254 83.8095 99.26 84.3795C99.9946 84.9495 100.427 85.752 100.555 86.7899H98.3716C98.3005 86.3362 98.0898 85.9789 97.7396 85.7236C97.3894 85.4684 96.9224 85.3408 96.3359 85.3408C95.7636 85.3408 95.3223 85.4571 95.0091 85.6924C94.6959 85.9278 94.5364 86.2284 94.5364 86.5999C94.5364 86.9686 94.7528 87.2607 95.1884 87.4733C95.6241 87.686 96.1992 87.8789 96.9139 88.049C97.6285 88.205 98.2891 88.3865 98.8955 88.5935C99.502 88.8005 99.9917 89.1011 100.362 89.501C100.732 89.898 100.92 90.4821 100.92 91.2507C100.934 92.2177 100.558 93.0202 99.7953 93.6611C99.0322 94.2963 97.993 94.6168 96.6775 94.6168Z" fill="white"/>
</svg>
