<svg width="60" height="45" viewBox="0 0 60 45" fill="none" xmlns="http://www.w3.org/2000/svg">
<path d="M45.472 14.3354C45.224 10.5459 43.584 7.02532 40.816 4.35127C37.896 1.54272 34.056 0 30 0C25.944 0 22.104 1.54272 19.184 4.35127C16.416 7.02532 14.776 10.5459 14.528 14.3354H0V15.3323C0 31.693 13.456 45 30 45C46.544 45 60 31.693 60 15.3323V14.3354H45.472ZM30 43.0142C22.608 43.0142 15.632 40.182 10.352 35.0316C5.224 30.0237 2.28 23.4019 2.024 16.3291H14.504H14.528C14.528 16.3528 14.528 16.3766 14.536 16.4003C14.536 16.4161 14.536 16.4399 14.544 16.4557C14.544 16.4557 14.544 16.4557 14.544 16.4636C14.544 16.4636 14.544 16.4636 14.544 16.4715C14.552 16.6297 14.568 16.7959 14.584 16.9462C14.608 17.1756 14.64 17.413 14.68 17.6582C14.72 17.9272 14.776 18.212 14.84 18.5127C14.864 18.6076 14.88 18.7025 14.904 18.7816C14.96 19.019 15.024 19.2642 15.088 19.4858C15.12 19.6044 15.16 19.7152 15.192 19.8418C15.264 20.0712 15.344 20.3085 15.432 20.5459C15.464 20.6329 15.496 20.7278 15.528 20.807C15.72 21.2975 15.936 21.7801 16.168 22.2389C16.216 22.3339 16.264 22.4209 16.304 22.5C16.416 22.7136 16.544 22.943 16.704 23.1962L16.712 23.212C16.76 23.2832 16.8 23.3623 16.848 23.4256C16.96 23.5997 17.08 23.7816 17.192 23.9478C17.248 24.0348 17.304 24.1139 17.368 24.193C17.44 24.2959 17.512 24.3908 17.584 24.4858C17.752 24.7152 17.92 24.9209 18.08 25.1028C18.144 25.182 18.208 25.2532 18.272 25.3323C18.288 25.356 18.304 25.3718 18.32 25.3877C18.384 25.4668 18.456 25.538 18.52 25.6092C18.536 25.625 18.552 25.6408 18.568 25.6646C18.64 25.7437 18.72 25.8228 18.792 25.9019C18.872 25.981 18.944 26.0601 19.024 26.1392C19.048 26.163 19.072 26.1867 19.096 26.2104C19.16 26.2816 19.232 26.3449 19.288 26.4003C19.304 26.4161 19.32 26.432 19.336 26.4478C19.408 26.519 19.488 26.5823 19.56 26.6535C19.576 26.6693 19.6 26.693 19.624 26.7089C19.688 26.7722 19.76 26.8275 19.824 26.8829C19.856 26.9146 19.88 26.9383 19.912 26.962C19.984 27.0253 20.048 27.0807 20.12 27.1361L20.176 27.1835C20.24 27.2389 20.312 27.2943 20.392 27.3576L20.424 27.3813C20.448 27.3972 20.472 27.4209 20.496 27.4367C20.568 27.4921 20.64 27.5475 20.704 27.5949C20.72 27.6108 20.736 27.6187 20.744 27.6187C20.84 27.6899 20.936 27.7611 21.032 27.8244C21.112 27.8797 21.2 27.943 21.28 27.9984C21.32 28.0222 21.36 28.0538 21.4 28.0775C21.456 28.1171 21.52 28.1566 21.576 28.1962C21.664 28.2516 21.752 28.307 21.84 28.3623C21.912 28.4098 21.992 28.4573 22.064 28.4968C22.096 28.5206 22.128 28.5364 22.168 28.5522C22.24 28.5918 22.304 28.6313 22.368 28.6709C22.568 28.7896 22.776 28.8924 22.984 29.0032C23.056 29.0427 23.128 29.0744 23.2 29.106L23.248 29.1297C23.264 29.1377 23.28 29.1456 23.296 29.1535L23.312 29.1614C23.384 29.193 23.464 29.2326 23.528 29.2642C23.68 29.3354 23.84 29.4066 24 29.4699C24.072 29.5016 24.152 29.5332 24.224 29.557C24.296 29.5886 24.36 29.6123 24.416 29.6361C24.52 29.6756 24.624 29.7152 24.728 29.7547L24.752 29.7627C24.848 29.7943 24.944 29.8259 25.04 29.8576C25.12 29.8892 25.208 29.913 25.288 29.9367C25.36 29.9604 25.432 29.9842 25.504 30.0079C25.608 30.0396 25.712 30.0712 25.816 30.0949L25.832 30.1028C25.856 30.1108 25.888 30.1187 25.912 30.1266C26.008 30.1503 26.104 30.182 26.184 30.1978C26.296 30.2294 26.4 30.2532 26.496 30.2769C26.576 30.2927 26.664 30.3165 26.744 30.3323C26.832 30.3481 26.912 30.3718 26.984 30.3797C27.088 30.4035 27.192 30.4193 27.288 30.4351C27.4 30.4589 27.512 30.4747 27.64 30.4905C27.768 30.5063 27.888 30.5301 28 30.538C28.072 30.5459 28.152 30.5617 28.224 30.5617C28.296 30.5696 28.368 30.5775 28.424 30.5854C28.68 30.6092 28.936 30.6329 29.176 30.6408C29.288 30.6487 29.4 30.6487 29.512 30.6566C29.824 30.6646 30.136 30.6646 30.456 30.6566C30.568 30.6566 30.68 30.6487 30.776 30.6408C31.024 30.625 31.288 30.6092 31.52 30.5854C31.592 30.5775 31.664 30.5696 31.736 30.5617C31.808 30.5538 31.888 30.5459 31.944 30.538C32.072 30.5222 32.2 30.5063 32.336 30.4826C32.448 30.4668 32.56 30.4509 32.672 30.4272C32.76 30.4114 32.848 30.3956 32.944 30.3797L33.192 30.3323C33.288 30.3165 33.384 30.2927 33.472 30.269C33.584 30.2453 33.688 30.2215 33.784 30.1978C33.872 30.1741 33.952 30.1582 34.016 30.1345C34.232 30.0791 34.448 30.0158 34.656 29.9525C34.752 29.9209 34.848 29.8892 34.944 29.8576C35.04 29.8259 35.128 29.7943 35.224 29.7627C35.32 29.731 35.416 29.6915 35.504 29.6598C35.584 29.6282 35.656 29.5965 35.72 29.5728C35.816 29.5332 35.912 29.5016 36 29.462L36.128 29.4066C36.2 29.375 36.272 29.3434 36.328 29.3196L36.416 29.2801C36.504 29.2405 36.584 29.201 36.664 29.1693C36.688 29.1535 36.72 29.1456 36.744 29.1297C36.84 29.0823 36.928 29.0427 37.016 28.9953C37.032 28.9873 37.048 28.9794 37.064 28.9715C37.16 28.9241 37.256 28.8766 37.344 28.8291C37.44 28.7816 37.536 28.7263 37.616 28.6788C37.696 28.6392 37.768 28.5918 37.84 28.5522L37.928 28.5047C37.992 28.4652 38.048 28.4335 38.112 28.394L38.168 28.3544C38.216 28.3228 38.264 28.2911 38.312 28.2595C38.328 28.2516 38.336 28.2437 38.344 28.2358C38.44 28.1725 38.536 28.1092 38.64 28.0459C38.72 27.9905 38.8 27.9351 38.88 27.8797C38.912 27.856 38.944 27.8323 38.976 27.8085C39.072 27.7453 39.16 27.674 39.248 27.6108C39.352 27.5396 39.448 27.4604 39.544 27.3892C39.648 27.3101 39.744 27.231 39.84 27.1519C39.936 27.0728 40.04 26.9937 40.128 26.9146C40.224 26.8354 40.32 26.7484 40.408 26.6693C40.504 26.5823 40.592 26.5032 40.68 26.4161C40.768 26.3291 40.856 26.2421 40.944 26.163L40.952 26.1551C41.12 25.9889 41.28 25.8228 41.44 25.6487C41.448 25.6408 41.448 25.6408 41.456 25.6329C41.456 25.6329 41.456 25.6329 41.464 25.625C41.544 25.538 41.632 25.443 41.704 25.356C41.776 25.2769 41.848 25.1899 41.928 25.1028L41.984 25.0396C42.056 24.9525 42.12 24.8655 42.192 24.7864C42.2 24.7785 42.2 24.7785 42.2 24.7706C42.36 24.5728 42.504 24.3829 42.632 24.2009C42.632 24.2009 42.632 24.193 42.64 24.193C42.704 24.106 42.768 24.019 42.824 23.932C42.976 23.7184 43.12 23.4968 43.264 23.2516C43.312 23.1804 43.352 23.1013 43.392 23.038C43.496 22.8718 43.592 22.6978 43.688 22.5079C43.736 22.4209 43.784 22.3259 43.832 22.231L43.84 22.2073C43.896 22.1044 43.944 22.0016 43.992 21.8987C44.04 21.7959 44.096 21.693 44.136 21.5902C44.144 21.5744 44.152 21.5585 44.168 21.5269L44.176 21.5111C44.216 21.4161 44.256 21.3212 44.296 21.2421C44.344 21.1313 44.392 21.0127 44.44 20.894C44.488 20.7832 44.528 20.6646 44.576 20.5459C44.72 20.1661 44.848 19.7706 44.952 19.375L45.024 19.1218C45.056 19.0032 45.088 18.8766 45.112 18.7579C45.136 18.6709 45.152 18.5839 45.168 18.4968C45.176 18.4415 45.192 18.394 45.2 18.3386C45.224 18.2278 45.24 18.125 45.264 18.0301C45.304 17.8165 45.336 17.5949 45.368 17.3813L45.384 17.3418V17.2468C45.392 17.1756 45.4 17.1044 45.408 17.0332V17.0095C45.432 16.8196 45.448 16.6297 45.464 16.4399C45.464 16.4003 45.472 16.3687 45.472 16.3291H57.976C57.728 23.4019 54.784 30.0237 49.648 35.0316C44.368 40.174 37.392 43.0142 30 43.0142ZM27.096 14.6915C27.064 14.6519 27.024 14.6123 26.992 14.5649C26.456 13.8924 26.176 13.0854 26.176 12.231C26.176 10.1424 27.896 8.44937 30 8.44937C31.024 8.44937 31.984 8.84494 32.704 9.55696C33.424 10.269 33.824 11.2263 33.824 12.231C33.824 13.0854 33.544 13.8924 33.008 14.5728C32.976 14.6203 32.936 14.6598 32.904 14.6994L32.512 15.1503L35.088 21.5111H24.912L27.488 15.1503L27.096 14.6915ZM21.944 23.4968H38.056L35.152 16.3291H43.448C43.448 16.3608 43.44 16.3924 43.44 16.4241V16.4399C43.432 16.5348 43.424 16.6297 43.416 16.7326C43.392 16.9462 43.368 17.1598 43.328 17.3813C43.296 17.5712 43.264 17.7611 43.224 17.9509L43.2 18.0063V18.0775C43.168 18.2278 43.128 18.3782 43.096 18.5285C43.008 18.8924 42.896 19.2722 42.76 19.644C42.728 19.731 42.696 19.818 42.664 19.9051C42.632 19.9921 42.6 20.087 42.56 20.182C42.52 20.2769 42.48 20.3718 42.44 20.4747C42.376 20.6171 42.32 20.7595 42.248 20.9019C42.216 20.9652 42.184 21.0285 42.152 21.0997C42.112 21.1788 42.072 21.2579 42.032 21.337C41.992 21.4241 41.944 21.5111 41.896 21.5902C41.888 21.606 41.88 21.6218 41.872 21.6377C41.832 21.7168 41.784 21.7959 41.736 21.8829C41.68 21.9778 41.624 22.0807 41.568 22.1756L41.448 22.3734C41.376 22.4921 41.296 22.6028 41.216 22.7294C41.184 22.7769 41.152 22.8323 41.104 22.8877C41.072 22.9351 41.04 22.9826 41 23.038C40.952 23.1092 40.904 23.1725 40.848 23.2437L40.832 23.2595C40.792 23.307 40.76 23.3623 40.712 23.4177C40.656 23.4889 40.608 23.5522 40.544 23.6313C40.504 23.6788 40.464 23.7263 40.416 23.7816C40.368 23.8449 40.32 23.9003 40.264 23.9636C40.2 24.0348 40.136 24.106 40.08 24.1772L40.056 24.2089L40.064 24.2009L40.032 24.2326C39.968 24.3038 39.904 24.3671 39.848 24.4383C39.776 24.5095 39.712 24.5886 39.632 24.6598L39.616 24.6756C39.544 24.7468 39.472 24.818 39.392 24.8972C39.32 24.9684 39.248 25.0396 39.168 25.1108C39.104 25.174 39.04 25.2294 38.96 25.2927C38.904 25.3402 38.848 25.3956 38.784 25.443L38.712 25.5063C38.68 25.5301 38.656 25.5538 38.632 25.5696C38.584 25.6092 38.536 25.6487 38.48 25.6883C38.36 25.7832 38.248 25.8703 38.128 25.9652C38.08 25.9968 38.032 26.0364 37.992 26.068L37.96 26.0918C37.944 26.0997 37.936 26.1076 37.92 26.1155L37.896 26.1313C37.84 26.1788 37.776 26.2184 37.712 26.2658C37.6 26.3449 37.48 26.4241 37.352 26.5111C37.304 26.5427 37.264 26.5744 37.208 26.606C37.144 26.6456 37.088 26.6851 37.024 26.7168L36.96 26.7563C36.904 26.788 36.848 26.8275 36.776 26.8671C36.576 26.9858 36.4 27.0807 36.24 27.1598L36.224 27.1677C36.168 27.1994 36.112 27.2231 36.048 27.2547L35.992 27.2785C35.92 27.3101 35.856 27.3497 35.768 27.3892C35.688 27.4288 35.608 27.4684 35.528 27.5L35.496 27.5158C35.44 27.5396 35.384 27.5633 35.328 27.587L35.296 27.6028C35.232 27.6345 35.16 27.6582 35.088 27.6899L35.064 27.6978C35 27.7294 34.936 27.7532 34.864 27.7769C34.728 27.8323 34.592 27.8797 34.448 27.9272C34.384 27.9509 34.32 27.9747 34.256 27.9905L34.192 28.0142C34.128 28.038 34.064 28.0538 33.992 28.0775C33.888 28.1092 33.792 28.1408 33.672 28.1725C33.592 28.1962 33.512 28.2199 33.424 28.2437C33.296 28.2753 33.168 28.307 33.032 28.3386C32.944 28.3623 32.856 28.3782 32.76 28.394C32.632 28.4177 32.504 28.4494 32.36 28.4731C32.312 28.481 32.264 28.4889 32.208 28.4968L32.168 28.5047C32.112 28.5127 32.056 28.5206 31.984 28.5364C31.888 28.5522 31.792 28.568 31.68 28.576C31.624 28.5839 31.56 28.5918 31.504 28.5997H31.48C31.432 28.6076 31.384 28.6155 31.328 28.6155C30.448 28.7025 29.512 28.7025 28.616 28.6155C28.568 28.6076 28.52 28.6076 28.472 28.5997H28.448C28.384 28.5918 28.328 28.5839 28.264 28.576C28.168 28.5601 28.064 28.5522 27.96 28.5364C27.904 28.5285 27.848 28.5206 27.784 28.5047L27.744 28.4968C27.696 28.4889 27.648 28.481 27.576 28.4731C27.44 28.4494 27.312 28.4256 27.184 28.394C27.104 28.3782 27.016 28.3623 26.928 28.3386C26.84 28.3228 26.752 28.299 26.672 28.2753L26.648 28.2674C26.6 28.2595 26.552 28.2437 26.512 28.2278L26.488 28.2199C26.424 28.2041 26.36 28.1883 26.296 28.1646L26.28 28.1566C26.176 28.1329 26.072 28.1013 25.96 28.0617C25.88 28.038 25.792 28.0063 25.712 27.9826L25.504 27.9114C25.368 27.8639 25.232 27.8165 25.096 27.7611C25.024 27.7373 24.96 27.7057 24.88 27.674C24.808 27.6424 24.736 27.6187 24.664 27.587L24.648 27.5791C24.584 27.5554 24.512 27.5237 24.448 27.4921L24.4 27.4684C24.344 27.4446 24.288 27.413 24.216 27.3813C24.128 27.3418 24.032 27.2943 23.928 27.2389C23.872 27.2152 23.824 27.1835 23.768 27.1598C23.696 27.1203 23.632 27.0886 23.56 27.049C23.44 26.9858 23.32 26.9146 23.208 26.8513C23.136 26.8117 23.064 26.7642 22.984 26.7168C22.896 26.6693 22.816 26.6139 22.72 26.5506L22.68 26.5269C22.6 26.4794 22.528 26.432 22.456 26.3766L22.432 26.3608C22.384 26.3291 22.328 26.2896 22.28 26.2579L22.256 26.2421C22.2 26.2025 22.136 26.163 22.08 26.1155L22.056 26.0997C22.04 26.0839 22.016 26.0759 21.984 26.0522C21.936 26.0206 21.888 25.981 21.832 25.9415C21.712 25.8544 21.6 25.7674 21.48 25.6725L21.464 25.6646C21.416 25.6329 21.376 25.5934 21.32 25.5459C21.272 25.5063 21.224 25.4668 21.168 25.4193C21.112 25.3718 21.056 25.3244 20.992 25.269L20.976 25.2532C20.928 25.2136 20.88 25.1661 20.832 25.1266L20.816 25.1108C20.792 25.087 20.768 25.0712 20.752 25.0554L20.696 25C20.664 24.9684 20.64 24.9446 20.6 24.9051C20.424 24.7389 20.24 24.549 20.048 24.3513C20 24.3038 19.96 24.2563 19.92 24.2089L19.864 24.1456C19.816 24.0981 19.776 24.0506 19.728 23.9873C19.672 23.9241 19.616 23.8528 19.552 23.7816C19.488 23.7025 19.424 23.6234 19.36 23.5443C19.312 23.481 19.256 23.4098 19.2 23.3386C19.12 23.2358 19.04 23.125 18.96 23.0142C18.912 22.9509 18.872 22.8877 18.824 22.8244L18.792 22.7848C18.784 22.7769 18.784 22.769 18.776 22.7611L18.76 22.7453C18.712 22.6741 18.664 22.6028 18.616 22.5316L18.608 22.5158C18.544 22.4209 18.48 22.318 18.416 22.2152C18.376 22.1519 18.336 22.0807 18.296 22.0095L18.288 21.9937C18.264 21.9541 18.24 21.9146 18.208 21.8592C18.16 21.7801 18.112 21.693 18.072 21.6139C18.04 21.5506 18.008 21.4873 17.976 21.432L17.944 21.3687C17.896 21.2737 17.848 21.1867 17.808 21.0918C17.776 21.0285 17.744 20.9731 17.712 20.894C17.648 20.7516 17.584 20.6092 17.52 20.4589C17.48 20.3639 17.44 20.269 17.4 20.1661C17.368 20.0791 17.328 19.9921 17.296 19.8972C17.216 19.6915 17.152 19.4778 17.08 19.2722C17 19.0348 16.936 18.7816 16.864 18.5127C16.824 18.3623 16.792 18.212 16.76 18.0538V17.9668L16.736 17.9114C16.696 17.7294 16.664 17.5396 16.64 17.3497C16.608 17.1282 16.576 16.9066 16.552 16.693C16.544 16.5981 16.536 16.5032 16.528 16.3924C16.528 16.3608 16.52 16.3291 16.52 16.2975H24.816L21.944 23.4968ZM35.432 14.3354C35.696 13.6709 35.832 12.9509 35.832 12.2231C35.832 10.6804 35.224 9.23259 34.12 8.14082C33.016 7.04905 31.552 6.44778 29.992 6.44778C26.776 6.44778 24.152 9.03481 24.152 12.2231C24.152 12.9509 24.288 13.6709 24.552 14.3354H16.544C16.784 11.0839 18.208 8.06171 20.592 5.76741C23.128 3.3307 26.464 1.98576 29.992 1.98576C33.52 1.98576 36.864 3.3307 39.392 5.76741C41.776 8.06171 43.2 11.0839 43.448 14.3354H35.432Z" fill="white"/>
</svg>
