<svg width="167" height="93" viewBox="0 0 167 93" fill="none" xmlns="http://www.w3.org/2000/svg">
<path d="M145.833 46.2585C145.833 59.0205 136.495 69.3879 125 69.3879C113.505 69.3879 104.167 59.0205 104.167 46.2585H83.3335C83.3335 71.8097 101.985 92.5173 125 92.5173C148.015 92.5173 166.667 71.8097 166.667 46.2585H145.833Z" fill="black"/>
<path d="M115.564 57.8235H134.461L130.294 46.2589C131.324 44.8984 131.961 43.1569 131.961 41.2522C131.961 37.0073 128.848 33.5515 125.025 33.5515C121.201 33.5515 118.088 37.0073 118.088 41.2522C118.088 43.1569 118.726 44.9256 119.755 46.2589L115.564 57.8235Z" fill="black"/>
<path d="M20.8333 46.2588C20.8333 33.4968 30.1716 23.1294 41.6667 23.1294C53.1618 23.1294 62.5 33.4968 62.5 46.2588H83.3334C83.3334 20.7076 64.6814 0 41.6667 0C18.652 0 0 20.7076 0 46.2588H20.8333Z" fill="black"/>
<path d="M51.103 34.6938H32.2061L36.3727 46.2584C35.3433 47.619 34.7061 49.3604 34.7061 51.2652C34.7061 55.51 37.8188 58.9658 41.6423 58.9658C45.4658 58.9658 48.5786 55.51 48.5786 51.2652C48.5786 49.3604 47.9413 47.5917 46.9119 46.2584L51.103 34.6938Z" fill="black"/>
</svg>
