<svg width="164" height="38" viewBox="0 0 164 38" fill="none" xmlns="http://www.w3.org/2000/svg">
<g clip-path="url(#clip0_1247_6864)">
<path d="M63.043 29.1252V13.706H65.0838L65.3164 15.366C65.6902 14.827 66.173 14.3737 66.7332 14.0358C67.4316 13.617 68.2368 13.4135 69.049 13.4506C70.0057 13.431 70.9481 13.6856 71.7664 14.1848C72.5496 14.6734 73.1886 15.3642 73.6168 16.1854C74.0721 17.0765 74.301 18.0673 74.2829 19.0691C74.3024 20.0644 74.0733 21.0486 73.6168 21.9317C73.188 22.7468 72.5488 23.4306 71.7664 23.9109C70.934 24.4032 69.9824 24.6537 69.0172 24.6346C68.2596 24.6464 67.5098 24.4787 66.8285 24.1451C66.2049 23.8268 65.6814 23.3405 65.3164 22.7404V29.1252H63.043ZM68.6366 22.6766C69.0841 22.6898 69.5294 22.6074 69.9431 22.435C70.3568 22.2626 70.7296 22.004 71.0368 21.6763C71.6792 20.9657 72.0174 20.029 71.9779 19.0691C71.9899 18.4183 71.8409 17.7747 71.5444 17.1963C71.2797 16.6656 70.8733 16.2197 70.3707 15.9087C69.847 15.5949 69.2459 15.4363 68.6366 15.4512C68.1852 15.4419 67.7373 15.5324 67.3244 15.7162C66.9115 15.9001 66.5437 16.1729 66.2469 16.5153C65.6453 17.2492 65.3162 18.1709 65.3162 19.1223C65.3162 20.0738 65.6453 20.9955 66.2469 21.7295C66.5594 22.0424 66.9333 22.2864 67.3448 22.4458C67.7562 22.6052 68.1962 22.6765 68.6366 22.6553V22.6766Z" fill="black"/>
<path d="M75.7422 24.3793V13.7381H77.7724L77.9627 15.7599C78.3184 15.0727 78.8565 14.4981 79.5171 14.0999C80.247 13.67 81.0825 13.456 81.9278 13.4827V15.8663H81.304C80.7279 15.8564 80.1558 15.9651 79.6228 16.1856C79.1212 16.3932 78.7065 16.7692 78.4491 17.2497C78.1209 17.8819 77.9675 18.5912 78.005 19.3035V24.422L75.7422 24.3793Z" fill="black"/>
<path d="M87.7007 24.6346C86.7452 24.6504 85.8031 24.4078 84.9725 23.9323C84.1682 23.4686 83.5062 22.7912 83.0587 21.9743C82.5915 21.0667 82.3477 20.0595 82.3477 19.0373C82.3477 18.0151 82.5915 17.0079 83.0587 16.1003C83.5172 15.2845 84.1856 14.6081 84.9937 14.1423C85.8281 13.6812 86.7646 13.4395 87.7165 13.4395C88.6684 13.4395 89.6049 13.6812 90.4392 14.1423C91.2474 14.6081 91.9158 15.2845 92.3742 16.1003C92.8414 17.0079 93.0853 18.0151 93.0853 19.0373C93.0853 20.0595 92.8414 21.0667 92.3742 21.9743C91.912 22.7909 91.24 23.4671 90.4287 23.9323C89.5968 24.4044 88.6556 24.6468 87.7007 24.6346ZM87.7007 22.6766C88.248 22.6855 88.7864 22.537 89.2528 22.2486C89.7192 21.9602 90.0941 21.5438 90.3335 21.0484C90.6405 20.428 90.7895 19.7407 90.7671 19.0479C90.7885 18.3531 90.6434 17.6633 90.3441 17.0367C90.0994 16.5293 89.7137 16.1042 89.2338 15.813C88.7734 15.5479 88.2522 15.4085 87.7218 15.4085C87.1914 15.4085 86.6701 15.5479 86.2097 15.813C85.7314 16.1094 85.3436 16.5329 85.0888 17.0367C84.8099 17.6682 84.6657 18.3516 84.6657 19.0426C84.6657 19.7337 84.8099 20.417 85.0888 21.0484C85.3253 21.5448 85.6906 21.9677 86.1462 22.2722C86.6178 22.5475 87.1555 22.6873 87.7007 22.6766Z" fill="black"/>
<path d="M94.5508 29.1253V13.7061H96.581L96.8242 15.3661C97.1966 14.8297 97.6754 14.3768 98.2305 14.0359C98.9305 13.6211 99.7345 13.4179 100.546 13.4507C101.486 13.4297 102.412 13.6749 103.22 14.1585C104.028 14.6421 104.684 15.3445 105.114 16.1855C105.578 17.0739 105.811 18.0659 105.791 19.0692C105.812 20.0659 105.579 21.0513 105.114 21.9318C104.688 22.7491 104.048 23.4336 103.264 23.911C102.436 24.4045 101.487 24.6552 100.525 24.6347C99.7674 24.6465 99.0175 24.4788 98.3362 24.1452C97.7126 23.8269 97.1892 23.3406 96.8242 22.7405V29.1253H94.5508ZM100.134 22.6767C100.581 22.6899 101.027 22.6075 101.44 22.4351C101.854 22.2627 102.227 22.0041 102.534 21.6764C102.854 21.3258 103.102 20.9149 103.263 20.4675C103.425 20.02 103.497 19.5448 103.475 19.0692C103.49 18.4193 103.345 17.7758 103.052 17.1964C102.788 16.6657 102.381 16.2198 101.878 15.9088C101.354 15.5966 100.753 15.4381 100.144 15.4513C99.693 15.442 99.245 15.5325 98.8321 15.7163C98.4192 15.9002 98.0515 16.173 97.7547 16.5154C97.1531 17.2493 96.8239 18.171 96.8239 19.1224C96.8239 20.0739 97.1531 20.9956 97.7547 21.7296C98.0632 22.045 98.4349 22.2907 98.8451 22.4503C99.2553 22.6099 99.6947 22.6798 100.134 22.6554V22.6767Z" fill="black"/>
<path d="M112.157 24.6346C111.188 24.6539 110.231 24.4113 109.387 23.9323C108.588 23.4695 107.93 22.7962 107.483 21.9849C107.015 21.0906 106.782 20.0905 106.806 19.0799C106.785 18.0572 107.014 17.0449 107.473 16.1322C107.908 15.3079 108.564 14.6224 109.365 14.1529C110.224 13.6709 111.195 13.4285 112.178 13.4506C113.131 13.4282 114.071 13.6713 114.895 14.1529C115.647 14.5987 116.268 15.2377 116.693 16.0045C117.122 16.7899 117.344 17.6728 117.338 18.5691C117.338 18.7074 117.338 18.867 117.338 19.0267C117.338 19.1863 117.338 19.3778 117.338 19.58H109.069C109.079 20.0234 109.178 20.4602 109.36 20.8643C109.542 21.2683 109.802 21.6314 110.127 21.9317C110.704 22.4618 111.46 22.7509 112.241 22.7405C112.808 22.7583 113.368 22.6065 113.849 22.3042C114.287 22.0124 114.627 21.5929 114.822 21.1017H117.095C116.813 22.1053 116.215 22.99 115.392 23.6237C114.466 24.3333 113.32 24.6913 112.157 24.6346ZM112.157 15.3235C111.431 15.3089 110.721 15.5455 110.148 15.9939C109.846 16.2443 109.596 16.5533 109.415 16.9024C109.233 17.2515 109.123 17.6337 109.09 18.0264H115.086C115.083 17.6534 115.004 17.285 114.853 16.9443C114.702 16.6037 114.482 16.2982 114.208 16.0471C113.645 15.5413 112.911 15.2711 112.157 15.2916V15.3235Z" fill="black"/>
<path d="M118.723 24.3787V13.7374H120.753L120.943 15.7592C121.299 15.072 121.837 14.4974 122.497 14.0992C123.227 13.6676 124.063 13.4536 124.908 13.482V15.8656H124.284C123.708 15.8557 123.136 15.9644 122.603 16.1849C122.1 16.3949 121.683 16.77 121.419 17.249C121.1 17.8841 120.95 18.5919 120.985 19.3028V24.4213L118.723 24.3787Z" fill="black"/>
<path d="M126.96 24.3789V15.6212H125.438V13.7057H126.96V12.1627C126.917 11.706 126.972 11.2453 127.122 10.8119C127.271 10.3786 127.512 9.98273 127.827 9.65142C128.521 9.10525 129.391 8.83617 130.27 8.89586H131.412V10.8219H130.64C130.26 10.786 129.88 10.9005 129.582 11.1412C129.456 11.2853 129.362 11.4546 129.305 11.638C129.249 11.8213 129.232 12.0147 129.255 12.2053V13.727H131.697V15.6425H129.255V24.4002L126.96 24.3789Z" fill="black"/>
<path d="M136.232 24.6351C135.464 24.6632 134.7 24.5101 134.001 24.1881C133.476 23.9319 133.034 23.5307 132.727 23.0315C132.42 22.5322 132.261 21.9553 132.267 21.3682C132.252 20.8904 132.354 20.4163 132.565 19.9876C132.775 19.559 133.087 19.1889 133.472 18.91C134.486 18.2423 135.689 17.9248 136.898 18.0055H139.679V17.814C139.706 17.4712 139.659 17.1267 139.543 16.8037C139.426 16.4806 139.242 16.1864 139.003 15.9411C138.524 15.5113 137.898 15.2861 137.258 15.3133C136.677 15.3018 136.107 15.4649 135.619 15.7815C135.39 15.9354 135.197 16.1364 135.051 16.3712C134.905 16.606 134.81 16.8692 134.773 17.1436H132.468C132.517 16.4146 132.791 15.7192 133.25 15.1536C133.71 14.5973 134.298 14.1625 134.963 13.8873C135.683 13.587 136.457 13.4385 137.237 13.4511C138.494 13.371 139.732 13.7914 140.684 14.6216C141.1 15.0369 141.424 15.536 141.635 16.086C141.847 16.6361 141.941 17.225 141.91 17.814V24.3796H139.933L139.743 22.5493C139.44 23.1451 138.993 23.654 138.442 24.0285C137.783 24.4499 137.013 24.6613 136.232 24.6351ZM136.697 22.7409C137.247 22.7572 137.789 22.6051 138.252 22.3046C138.676 22.0085 139.016 21.6047 139.235 21.134C139.474 20.6252 139.621 20.0774 139.669 19.5165H137.142C136.468 19.4548 135.794 19.6235 135.228 19.9954C135.05 20.1353 134.907 20.3147 134.809 20.5197C134.712 20.7246 134.663 20.9495 134.667 21.1766C134.657 21.3979 134.701 21.6181 134.795 21.8184C134.889 22.0187 135.03 22.1928 135.206 22.3258C135.644 22.6275 136.168 22.7735 136.697 22.7409Z" fill="black"/>
<path d="M143.773 24.3794V13.7381H145.782L145.952 15.611C146.271 14.9604 146.775 14.4198 147.4 14.0574C148.063 13.6664 148.821 13.4675 149.589 13.4827C150.151 13.4538 150.712 13.5461 151.236 13.7535C151.759 13.9609 152.232 14.2786 152.624 14.6852C153.41 15.7092 153.787 16.9922 153.681 18.282V24.4113H151.503V18.4841C151.503 16.4197 150.668 15.3876 148.976 15.3876C148.579 15.3723 148.183 15.4453 147.818 15.6017C147.452 15.7581 147.126 15.9938 146.861 16.292C146.271 17.0178 145.976 17.9419 146.036 18.8779V24.3794H143.773Z" fill="black"/>
<path d="M159.655 24.6346C158.473 24.6868 157.307 24.3382 156.345 23.6449C155.923 23.3397 155.571 22.9473 155.312 22.494C155.053 22.0407 154.894 21.537 154.844 21.0166H157.128C157.252 21.5178 157.538 21.9633 157.942 22.2829C158.428 22.6503 159.026 22.8348 159.634 22.8043C160.169 22.8518 160.703 22.7003 161.135 22.3786C161.282 22.2587 161.4 22.108 161.482 21.937C161.565 21.766 161.608 21.5789 161.611 21.389C161.628 21.1646 161.573 20.9408 161.455 20.7496C161.337 20.5584 161.162 20.4097 160.955 20.3248C160.372 20.0864 159.766 19.9081 159.147 19.7928C158.541 19.6635 157.944 19.4929 157.36 19.282C156.805 19.0915 156.3 18.7789 155.88 18.3669C155.678 18.1541 155.522 17.9014 155.422 17.6248C155.322 17.3483 155.28 17.0538 155.298 16.76C155.29 16.3167 155.38 15.877 155.563 15.4737C155.746 15.0703 156.017 14.7134 156.356 14.4296C157.207 13.7619 158.271 13.429 159.348 13.4932C160.376 13.4438 161.391 13.7477 162.224 14.3551C162.595 14.6477 162.902 15.0142 163.126 15.4317C163.35 15.8492 163.486 16.3086 163.525 16.7813H161.347C161.282 16.3567 161.054 15.9745 160.712 15.7172C160.296 15.442 159.803 15.3077 159.306 15.3341C158.838 15.3038 158.373 15.4311 157.984 15.6959C157.836 15.7943 157.714 15.9287 157.631 16.0868C157.548 16.2449 157.506 16.4215 157.508 16.6004C157.515 16.7972 157.582 16.9872 157.699 17.1451C157.816 17.3029 157.978 17.421 158.164 17.4836C158.716 17.7414 159.293 17.9377 159.887 18.0689C160.555 18.2163 161.215 18.3975 161.865 18.6116C162.422 18.7903 162.927 19.1046 163.334 19.5267C163.735 20.0236 163.931 20.6554 163.884 21.2932C163.901 21.758 163.808 22.22 163.613 22.6417C163.418 23.0634 163.127 23.4326 162.764 23.7194C161.869 24.3885 160.766 24.7132 159.655 24.6346Z" fill="black"/>
<path d="M50.4266 12.6631C50.2914 19.3027 47.5757 25.6246 42.862 30.2722C38.1483 34.9198 31.8123 37.5228 25.2133 37.5228C18.6144 37.5228 12.2783 34.9198 7.56457 30.2722C2.85087 25.6246 0.135116 19.3027 0 12.6631H12.6146C12.7096 15.965 14.0798 19.0996 16.4341 21.4013C18.7884 23.703 21.9415 24.9906 25.2239 24.9906C28.5063 24.9906 31.6593 23.703 34.0136 21.4013C36.368 19.0996 37.7381 15.965 37.8332 12.6631H50.4266Z" fill="#FD8DDD"/>
<path d="M28.4133 12.6635C29.0682 11.9014 29.4252 10.9255 29.4178 9.91802C29.4131 8.80137 28.9727 7.7313 28.1913 6.93848C27.4031 6.27566 26.4021 5.92412 25.3752 5.94956C24.3484 5.975 23.3658 6.37565 22.611 7.07669C21.8561 7.77773 21.3805 8.73125 21.273 9.75929C21.1655 10.7873 21.4334 11.8197 22.0267 12.6635H12.6055C12.7005 9.36158 14.0706 6.22695 16.4249 3.92523C18.7793 1.6235 21.9324 0.335938 25.2147 0.335938C28.4971 0.335938 31.6502 1.6235 34.0046 3.92523C36.3589 6.22695 37.729 9.36158 37.824 12.6635H28.4133Z" fill="#00ECD2"/>
<path d="M37.824 12.6738C37.729 15.9757 36.3589 19.1104 34.0046 21.4121C31.6502 23.7138 28.4971 25.0014 25.2147 25.0014C21.9324 25.0014 18.7793 23.7138 16.4249 21.4121C14.0706 19.1104 12.7005 15.9757 12.6055 12.6738H22.0161L19.4996 19.0586H30.9616L28.4345 12.6738H37.824Z" fill="#8958E1"/>
<g opacity="0.5">
<path opacity="0.5" d="M139.68 35.9782V28.7528H142.577C143.052 28.737 143.524 28.824 143.962 29.0082C144.298 29.1482 144.585 29.3852 144.787 29.6892C144.974 29.9765 145.07 30.3142 145.062 30.6576C145.069 30.9209 145.007 31.1815 144.882 31.4131C144.765 31.616 144.597 31.7847 144.396 31.9026C144.191 32.0325 143.966 32.1261 143.73 32.1793V32.2431C144 32.2651 144.264 32.345 144.501 32.4773C144.753 32.6278 144.967 32.8354 145.125 33.0838C145.298 33.372 145.383 33.7051 145.368 34.0415C145.37 34.3907 145.275 34.7335 145.093 35.0311C144.874 35.3425 144.569 35.5828 144.216 35.7228C143.734 35.9092 143.22 35.996 142.704 35.9782H139.68ZM140.875 31.8813H142.471C142.718 31.8869 142.963 31.8398 143.19 31.743C143.394 31.6542 143.572 31.5151 143.708 31.3386C143.836 31.1667 143.903 30.9571 143.899 30.7427C143.902 30.5984 143.872 30.4552 143.811 30.3243C143.751 30.1933 143.661 30.078 143.55 29.9872C143.247 29.757 142.871 29.6472 142.492 29.6786H140.927L140.875 31.8813ZM140.875 35.0737H142.587C143.018 35.1135 143.449 35.0087 143.814 34.7757C143.931 34.6882 144.025 34.5742 144.09 34.4428C144.154 34.3115 144.186 34.1666 144.184 34.0202C144.186 33.7977 144.124 33.5795 144.004 33.3924C143.871 33.1916 143.684 33.033 143.465 32.9348C143.204 32.8131 142.918 32.7547 142.63 32.7645H140.927L140.875 35.0737Z" fill="black"/>
<path opacity="0.5" d="M146.141 35.9783V28.7529H151.1V29.6894H147.335V31.8921H150.835V32.8285H147.335V35.0419H151.142V35.9783H146.141Z" fill="black"/>
<path opacity="0.5" d="M151.66 29.6894V28.7529H157.772V29.6894H155.308V35.9783H154.124V29.6894H151.66Z" fill="black"/>
<path opacity="0.5" d="M158.206 35.9783H156.938L159.782 28.7529H161.156L164.001 35.9783H162.743L160.501 30.0724L158.206 35.9783ZM158.418 33.1478H162.521V34.0736H158.418V33.1478Z" fill="black"/>
</g>
</g>
<defs>
<clipPath id="clip0_1247_6864">
<rect width="164" height="38" fill="white"/>
</clipPath>
</defs>
</svg>
