<svg width="16" height="12" viewBox="0 0 16 12" fill="none" xmlns="http://www.w3.org/2000/svg">
<path d="M16 4.00034C16 8.41771 12.4176 12 8 12C3.58244 12 0 8.41771 0 4.00034H4.00045C4.00045 6.20948 5.79167 8.00062 8.0009 8.00062C10.2101 8.00062 12.0014 6.20948 12.0014 4.00034H16Z" fill="black" fill-opacity="0.2"/>
<path d="M9.01319 4.00029C9.21362 3.76466 9.33369 3.46673 9.33369 3.1336C9.33369 2.76436 9.18292 2.43123 8.94277 2.19108C8.69811 1.94643 8.36947 1.80017 8.00021 1.80017C7.26259 1.80017 6.66672 2.39602 6.66672 3.1336C6.66672 3.46673 6.78681 3.76466 6.98634 4.00029H3.99976C3.99976 1.79115 5.79098 0 8.00021 0C10.2094 0 12.0007 1.79115 12.0007 4.00029H9.01319Z" fill="black" fill-opacity="0.2"/>
<path d="M11.9987 4.00212C11.9987 6.21126 10.2075 8.00241 7.99825 8.00241C5.78902 8.00241 3.9978 6.21126 3.9978 4.00212H6.98437L6.18446 6.00181H9.81114L9.01124 4.00212H11.9987Z" fill="black" fill-opacity="0.3"/>
</svg>
