<svg width="51" height="38" viewBox="0 0 51 38" fill="none" xmlns="http://www.w3.org/2000/svg">
<path d="M50.4585 12.8151C50.4585 26.6907 39.1607 37.9433 25.2292 37.9433C11.2978 37.9433 0 26.6907 0 12.8151H12.616C12.616 19.7543 18.2649 25.3806 25.2321 25.3806C32.1992 25.3806 37.8481 19.7543 37.8481 12.8151H50.4585Z" fill="#FD8DDD"/>
<path d="M28.4238 12.8151C29.0559 12.0749 29.4346 11.1391 29.4346 10.0927C29.4346 8.93282 28.9591 7.88641 28.2018 7.13208C27.4302 6.36357 26.3937 5.90417 25.2292 5.90417C22.9031 5.90417 21.0239 7.77581 21.0239 10.0927C21.0239 11.1391 21.4026 12.0749 22.0318 12.8151H12.6132C12.6132 5.87581 18.2621 0.249542 25.2292 0.249542C32.1964 0.249542 37.8453 5.87581 37.8453 12.8151H28.4238Z" fill="#00ECD2"/>
<path d="M37.8396 12.8207C37.8396 19.76 32.1907 25.3863 25.2236 25.3863C18.2564 25.3863 12.6075 19.76 12.6075 12.8207H22.0261L19.5035 19.1021H30.9408L28.4182 12.8207H37.8396Z" fill="#8958E1"/>
</svg>
