<svg width="35" height="38" viewBox="0 0 35 38" fill="none" xmlns="http://www.w3.org/2000/svg">
<path d="M34.5539 8.44727C34.4613 12.997 32.6004 17.3289 29.3704 20.5136C26.1404 23.6983 21.7988 25.482 17.277 25.482C12.7552 25.482 8.41346 23.6983 5.18348 20.5136C1.95351 17.3289 0.0925861 12.997 0 8.44727H8.64395C8.70906 10.7098 9.6479 12.8577 11.2612 14.435C12.8744 16.0122 15.035 16.8945 17.2842 16.8945C19.5334 16.8945 21.694 16.0122 23.3072 14.435C24.9205 12.8577 25.8594 10.7098 25.9245 8.44727H34.5539Z" fill="#FD8DDD"/>
<path d="M19.4688 8.44723C19.9175 7.92502 20.1622 7.25634 20.1571 6.56595C20.1539 5.80078 19.852 5.06754 19.3166 4.52427C18.7765 4.07009 18.0906 3.8292 17.387 3.84663C16.6833 3.86406 16.0101 4.1386 15.4928 4.61898C14.9756 5.09935 14.6496 5.75273 14.576 6.45718C14.5023 7.16163 14.6859 7.86901 15.0925 8.44723H8.63672C8.70183 6.18466 9.64067 4.03671 11.2539 2.45949C12.8672 0.882279 15.0278 0 17.277 0C19.5262 0 21.6868 0.882279 23.3001 2.45949C24.9133 4.03671 25.8522 6.18466 25.9173 8.44723H19.4688Z" fill="#00ECD2"/>
<path d="M25.9173 8.4541C25.8522 10.7167 24.9133 12.8646 23.3001 14.4418C21.6868 16.0191 19.5262 16.9013 17.277 16.9013C15.0278 16.9013 12.8672 16.0191 11.2539 14.4418C9.64067 12.8646 8.70183 10.7167 8.63672 8.4541H15.0852L13.3608 12.8291H21.2149L19.4832 8.4541H25.9173Z" fill="#8958E1"/>
<path d="M5.54688 37.571V30.4832H8.38903C8.85457 30.4677 9.31792 30.5531 9.74774 30.7338C10.0771 30.8711 10.3586 31.1036 10.5568 31.4018C10.7404 31.6836 10.8345 32.0149 10.8265 32.3517C10.8334 32.6101 10.7725 32.8657 10.6501 33.0929C10.5352 33.2919 10.3708 33.4574 10.173 33.573C9.97226 33.7004 9.75123 33.7923 9.51958 33.8444V33.9071C9.78532 33.9286 10.0434 34.007 10.2767 34.1367C10.524 34.2844 10.7335 34.4881 10.8887 34.7317C11.0582 35.0145 11.1412 35.3412 11.1272 35.6712C11.129 36.0138 11.0356 36.35 10.8575 36.642C10.642 36.9474 10.343 37.1831 9.99667 37.3205C9.52395 37.5033 9.0196 37.5885 8.51349 37.571H5.54688ZM6.71896 33.5522H8.2852C8.5272 33.5577 8.76765 33.5114 8.99058 33.4165C9.19041 33.3293 9.36519 33.1929 9.49882 33.0198C9.62364 32.8511 9.68936 32.6455 9.68558 32.4353C9.68844 32.2936 9.65906 32.1532 9.59973 32.0248C9.5404 31.8963 9.45263 31.7832 9.34321 31.6941C9.04618 31.4683 8.67693 31.3606 8.30597 31.3914H6.77087L6.71896 33.5522ZM6.71896 36.6838H8.39928C8.82142 36.7228 9.24454 36.62 9.60252 36.3915C9.71696 36.3056 9.80961 36.1937 9.87271 36.0649C9.93582 35.936 9.96756 35.7939 9.96552 35.6503C9.96779 35.4321 9.90657 35.218 9.78927 35.0344C9.65864 34.8375 9.47521 34.6819 9.26027 34.5856C9.00389 34.4661 8.72318 34.4089 8.44081 34.4185H6.77087L6.71896 36.6838Z" />
<path d="M11.8828 37.5702V30.4824H16.7474V31.401H13.0549V33.5617H16.4881V34.4803H13.0549V36.6516H16.7889V37.5702H11.8828Z" />
<path d="M17.2969 31.401V30.4824H23.2922V31.401H20.8753V37.5702H19.7136V31.401H17.2969Z" />
<path d="M23.7134 37.5702H22.4688L25.2589 30.4824H26.6073L29.3975 37.5702H28.1632L25.9642 31.7768L23.7134 37.5702ZM23.9209 34.7936H27.9454V35.7017H23.9209V34.7936Z" />
</svg>
