<svg width="164" height="38" viewBox="0 0 164 38" fill="black" xmlns="http://www.w3.org/2000/svg">
<g clip-path="url(#clip0)">
<path d="M63.0802 29.1239V13.8473H65.116L65.3523 15.4893C65.6939 14.9902 66.1666 14.5506 66.7674 14.1678C67.3681 13.7849 68.1369 13.5921 69.0821 13.5921C70.11 13.5921 71.0183 13.8331 71.8012 14.3181C72.5871 14.803 73.2049 15.4637 73.6548 16.3031C74.1046 17.1425 74.3296 18.0954 74.3296 19.1617C74.3296 20.2279 74.1046 21.1779 73.6548 22.0088C73.2049 22.8397 72.5871 23.4948 71.8012 23.9712C71.0154 24.4476 70.1015 24.6858 69.0594 24.6858C68.2308 24.6858 67.4991 24.5214 66.8642 24.1952C66.2292 23.8691 65.7253 23.4069 65.3551 22.8085V29.1239H63.0802ZM68.6721 22.7234C69.643 22.7234 70.4431 22.3917 71.0724 21.7309C71.7016 21.0702 72.0148 20.2052 72.0148 19.139C72.0148 18.4414 71.8724 17.8231 71.5877 17.2815C71.303 16.7399 70.9101 16.3173 70.4089 16.0111C69.9078 15.7048 69.3299 15.5517 68.675 15.5517C67.7041 15.5517 66.9069 15.8863 66.2862 16.5555C65.6655 17.2248 65.3551 18.084 65.3551 19.1361C65.3551 20.2024 65.6655 21.0673 66.2862 21.7281C66.904 22.3917 67.7012 22.7234 68.6721 22.7234Z"/>
<path d="M75.7817 24.4306V13.8473H77.8174L78.011 15.8523C78.3812 15.1546 78.8994 14.6045 79.5628 14.199C80.2262 13.7934 81.0291 13.5921 81.9715 13.5921V15.96H81.3508C80.7216 15.96 80.1607 16.0621 79.6681 16.2691C79.1756 16.4761 78.7827 16.8249 78.4894 17.3155C78.1961 17.8061 78.0509 18.4867 78.0509 19.3517V24.4306H75.7817Z"/>
<path d="M87.7542 24.6858C86.7406 24.6858 85.8295 24.4533 85.0237 23.9911C84.218 23.5288 83.5774 22.8822 83.1076 22.0485C82.6349 21.2176 82.4015 20.2449 82.4015 19.1361C82.4015 18.0273 82.6406 17.0546 83.119 16.2237C83.5973 15.3928 84.2436 14.7434 85.0579 14.2812C85.8722 13.819 86.7776 13.5864 87.777 13.5864C88.7906 13.5864 89.7017 13.819 90.5075 14.2812C91.3133 14.7434 91.9567 15.39 92.4351 16.2237C92.9134 17.0546 93.1526 18.0273 93.1526 19.1361C93.1526 20.2449 92.9134 21.2176 92.4351 22.0485C91.9567 22.8794 91.3104 23.5288 90.4961 23.9911C89.6818 24.4533 88.7678 24.6858 87.7542 24.6858ZM87.7542 22.7433C88.2981 22.7433 88.7992 22.6072 89.2633 22.3378C89.7274 22.0684 90.1032 21.6657 90.3879 21.1325C90.6726 20.5994 90.815 19.9358 90.815 19.139C90.815 18.3421 90.6755 17.6785 90.3965 17.1454C90.1174 16.6122 89.7473 16.2096 89.2832 15.9402C88.8191 15.6708 88.3151 15.5346 87.7742 15.5346C87.2303 15.5346 86.7292 15.6708 86.2651 15.9402C85.801 16.2096 85.4252 16.6122 85.1405 17.1454C84.8558 17.6785 84.7134 18.3449 84.7134 19.139C84.7134 19.9358 84.8558 20.5994 85.1405 21.1325C85.4252 21.6657 85.7982 22.0684 86.2537 22.3378C86.7122 22.61 87.2133 22.7433 87.7542 22.7433Z"/>
<path d="M94.6075 29.1239V13.8473H96.6433L96.8796 15.4893C97.2213 14.9902 97.6939 14.5506 98.2947 14.1678C98.8954 13.7849 99.6642 13.5921 100.609 13.5921C101.637 13.5921 102.546 13.8331 103.329 14.3181C104.114 14.803 104.732 15.4637 105.182 16.3031C105.632 17.1425 105.857 18.0954 105.857 19.1617C105.857 20.2279 105.632 21.1779 105.182 22.0088C104.732 22.8397 104.114 23.4948 103.329 23.9712C102.543 24.4476 101.629 24.6858 100.587 24.6858C99.7581 24.6858 99.0264 24.5214 98.3915 24.1952C97.7565 23.8691 97.2526 23.4069 96.8824 22.8085V29.1239H94.6075ZM100.199 22.7234C101.17 22.7234 101.97 22.3917 102.6 21.7309C103.229 21.0702 103.542 20.2052 103.542 19.139C103.542 18.4414 103.4 17.8231 103.115 17.2815C102.83 16.7399 102.437 16.3173 101.936 16.0111C101.435 15.7048 100.857 15.5517 100.202 15.5517C99.2314 15.5517 98.4342 15.8863 97.8135 16.5555C97.1928 17.2248 96.8824 18.084 96.8824 19.1361C96.8824 20.2024 97.1928 21.0673 97.8135 21.7281C98.4313 22.3917 99.2286 22.7234 100.199 22.7234Z"/>
<path d="M112.223 24.6858C111.181 24.6858 110.256 24.4533 109.45 23.9911C108.644 23.5288 108.012 22.8851 107.554 22.0599C107.095 21.2346 106.868 20.2761 106.868 19.1787C106.868 18.0699 107.093 17.0943 107.542 16.2549C107.992 15.4155 108.622 14.7605 109.427 14.2925C110.233 13.8218 111.173 13.5893 112.243 13.5893C113.285 13.5893 114.194 13.8218 114.962 14.284C115.734 14.7463 116.335 15.3617 116.762 16.1302C117.189 16.8987 117.405 17.7437 117.405 18.6682C117.405 18.81 117.402 18.9631 117.394 19.1276C117.385 19.2921 117.377 19.4736 117.363 19.6721H109.094C109.165 20.6958 109.504 21.4757 110.111 22.0088C110.717 22.542 111.42 22.8085 112.22 22.8085C112.864 22.8085 113.402 22.6639 113.838 22.3718C114.273 22.0797 114.598 21.6855 114.811 21.1864H117.081C116.796 22.1818 116.226 23.0155 115.378 23.682C114.532 24.3512 113.479 24.6858 112.223 24.6858ZM112.223 15.4467C111.466 15.4467 110.794 15.6708 110.21 16.1188C109.624 16.5669 109.268 17.239 109.14 18.1351H115.139C115.096 17.3099 114.803 16.6548 114.262 16.1727C113.715 15.6906 113.035 15.4467 112.223 15.4467Z"/>
<path d="M118.812 24.4306V13.8473H120.848L121.041 15.8523C121.411 15.1546 121.929 14.6045 122.593 14.199C123.256 13.7934 124.059 13.5921 125.002 13.5921V15.96H124.381C123.752 15.96 123.191 16.0621 122.698 16.2691C122.206 16.4761 121.813 16.8249 121.519 17.3155C121.226 17.8061 121.081 18.4867 121.081 19.3517V24.4306H118.812Z"/>
<path d="M127.035 24.4306V15.7473H125.514V13.8473H127.035V12.3103C127.035 11.159 127.325 10.3309 127.903 9.82613C128.481 9.32136 129.298 9.06897 130.354 9.06897H131.468V10.9888H130.696C130.195 10.9888 129.839 11.0909 129.625 11.2979C129.412 11.5049 129.304 11.8481 129.304 12.333V13.8473H131.747V15.7473H129.304V24.4306H127.035Z"/>
<path d="M136.314 24.6858C135.414 24.6858 134.671 24.5355 134.087 24.2378C133.501 23.94 133.065 23.543 132.78 23.0524C132.496 22.5618 132.353 22.0258 132.353 21.4417C132.353 20.4179 132.752 19.6069 133.552 19.0085C134.352 18.4102 135.494 18.1124 136.98 18.1124H139.764V17.9196C139.764 17.0943 139.54 16.4761 139.09 16.0621C138.64 15.6509 138.059 15.4439 137.344 15.4439C136.715 15.4439 136.168 15.597 135.704 15.9033C135.24 16.2096 134.958 16.6605 134.859 17.2588H132.589C132.661 16.4903 132.923 15.8324 133.372 15.2851C133.822 14.7378 134.395 14.3181 135.086 14.026C135.778 13.7339 136.539 13.5893 137.367 13.5893C138.853 13.5893 140.001 13.9778 140.815 14.752C141.629 15.5261 142.037 16.5839 142.037 17.9196V24.4278H140.066L139.873 22.6157C139.574 23.1999 139.138 23.6905 138.566 24.0875C137.991 24.4873 137.242 24.6858 136.314 24.6858ZM136.763 22.8511C137.378 22.8511 137.894 22.7064 138.315 22.4143C138.737 22.1223 139.064 21.7366 139.3 21.2517C139.537 20.7696 139.682 20.2336 139.739 19.6523H137.211C136.311 19.6523 135.67 19.8082 135.294 20.123C134.916 20.4349 134.728 20.8263 134.728 21.297C134.728 21.782 134.91 22.162 135.274 22.4399C135.639 22.7178 136.134 22.8511 136.763 22.8511Z"/>
<path d="M143.859 24.4306V13.8473H145.872L146.043 15.7048C146.37 15.0497 146.854 14.5364 147.489 14.1592C148.124 13.7821 148.856 13.5949 149.684 13.5949C150.968 13.5949 151.979 13.9919 152.716 14.7888C153.451 15.5857 153.818 16.7739 153.818 18.3506V24.4306H151.569V18.586C151.569 16.5385 150.726 15.5148 149.041 15.5148C148.198 15.5148 147.5 15.8125 146.951 16.4109C146.401 17.0092 146.125 17.8628 146.125 18.9716V24.4334H143.859V24.4306Z"/>
<path d="M159.758 24.6858C158.414 24.6858 157.309 24.3597 156.438 23.7046C155.567 23.0495 155.068 22.1818 154.937 21.1013H157.229C157.343 21.5863 157.614 22.0003 158.044 22.3491C158.471 22.6979 159.037 22.8709 159.735 22.8709C160.421 22.8709 160.919 22.7291 161.235 22.4455C161.549 22.1619 161.708 21.833 161.708 21.4643C161.708 20.9227 161.489 20.5569 161.056 20.3669C160.62 20.174 160.017 20.001 159.245 19.8451C158.644 19.7174 158.049 19.5473 157.457 19.3318C156.865 19.1191 156.372 18.8157 155.979 18.4243C155.586 18.033 155.39 17.5027 155.39 16.8363C155.39 15.9118 155.746 15.1404 156.461 14.5222C157.175 13.904 158.175 13.5949 159.459 13.5949C160.643 13.5949 161.606 13.8785 162.34 14.4485C163.075 15.0185 163.507 15.821 163.636 16.8589H161.452C161.381 16.4052 161.17 16.0479 160.82 15.7927C160.469 15.5374 160.003 15.4098 159.416 15.4098C158.844 15.4098 158.402 15.5261 158.089 15.7615C157.776 15.9969 157.617 16.2974 157.617 16.6689C157.617 17.0376 157.833 17.3297 158.269 17.5424C158.704 17.7551 159.279 17.9479 159.994 18.118C160.709 18.274 161.369 18.4555 161.976 18.6625C162.582 18.8695 163.072 19.1701 163.442 19.57C163.812 19.967 164 20.5512 164 21.3197C164.014 22.2867 163.638 23.0892 162.875 23.7301C162.112 24.3654 161.073 24.6858 159.758 24.6858Z"/>
<path d="M50.4585 12.8151C50.4585 26.6907 39.1607 37.9433 25.2292 37.9433C11.2978 37.9433 0 26.6907 0 12.8151H12.616C12.616 19.7543 18.2649 25.3806 25.2321 25.3806C32.1992 25.3806 37.8481 19.7543 37.8481 12.8151H50.4585Z" fill="#FD8DDD"/>
<path d="M28.4238 12.8151C29.0559 12.0749 29.4346 11.1391 29.4346 10.0927C29.4346 8.93282 28.9591 7.88641 28.2018 7.13208C27.4302 6.36357 26.3937 5.90417 25.2292 5.90417C22.9031 5.90417 21.0239 7.77581 21.0239 10.0927C21.0239 11.1391 21.4026 12.0749 22.0318 12.8151H12.6132C12.6132 5.87581 18.2621 0.249542 25.2292 0.249542C32.1964 0.249542 37.8453 5.87581 37.8453 12.8151H28.4238Z" fill="#00ECD2"/>
<path d="M37.8396 12.8207C37.8396 19.76 32.1907 25.3863 25.2236 25.3863C18.2564 25.3863 12.6075 19.76 12.6075 12.8207H22.0261L19.5035 19.1021H30.9408L28.4182 12.8207H37.8396Z" fill="#8958E1"/>
</g>
<defs>
<clipPath id="clip0">
<rect width="164" height="38" fill="white"/>
</clipPath>
</defs>
</svg>
