<svg width="148" height="34" viewBox="0 0 148 34" fill="black" xmlns="http://www.w3.org/2000/svg">
<path d="M56.9259 26.0446V12.2651H58.763L58.9763 13.7462C59.2846 13.296 59.7111 12.8995 60.2533 12.5542C60.7954 12.2089 61.4892 12.0349 62.3422 12.0349C63.2698 12.0349 64.0895 12.2523 64.7961 12.6897C65.5052 13.1271 66.0628 13.7231 66.4688 14.4803C66.8747 15.2374 67.0777 16.0969 67.0777 17.0587C67.0777 18.0204 66.8747 18.8773 66.4688 19.6268C66.0628 20.3763 65.5052 20.9672 64.7961 21.3969C64.0869 21.8266 63.2621 22.0415 62.3217 22.0415C61.574 22.0415 60.9136 21.8931 60.3407 21.599C59.7677 21.3048 59.3129 20.8879 58.9789 20.3482V26.0446H56.9259ZM61.9722 20.2714C62.8484 20.2714 63.5704 19.9721 64.1383 19.3761C64.7061 18.7801 64.9888 18 64.9888 17.0382C64.9888 16.409 64.8603 15.8513 64.6033 15.3628C64.3464 14.8742 63.9918 14.4931 63.5396 14.2168C63.0874 13.9406 62.5658 13.8024 61.9748 13.8024C61.0986 13.8024 60.3792 14.1043 59.8191 14.7079C59.2589 15.3116 58.9789 16.0867 58.9789 17.0356C58.9789 17.9974 59.2589 18.7776 59.8191 19.3736C60.3766 19.9721 61.0961 20.2714 61.9722 20.2714Z"/>
<path d="M68.3882 21.8113V12.2651H70.2253L70.4 14.0736C70.734 13.4443 71.2017 12.9481 71.8004 12.5823C72.399 12.2165 73.1236 12.0349 73.9741 12.0349V14.1708H73.414C72.8461 14.1708 72.3399 14.2629 71.8954 14.4496C71.4509 14.6363 71.0963 14.9509 70.8317 15.3935C70.567 15.836 70.436 16.4499 70.436 17.23V21.8113H68.3882Z"/>
<path d="M79.1926 22.0417C78.2779 22.0417 77.4557 21.832 76.7285 21.415C76.0014 20.9981 75.4233 20.4149 74.9993 19.6629C74.5728 18.9134 74.3621 18.036 74.3621 17.0359C74.3621 16.0357 74.5779 15.1584 75.0096 14.4089C75.4413 13.6594 76.0245 13.0737 76.7594 12.6567C77.4942 12.2398 78.3113 12.03 79.2132 12.03C80.1279 12.03 80.9501 12.2398 81.6773 12.6567C82.4044 13.0737 82.9851 13.6569 83.4168 14.4089C83.8485 15.1584 84.0643 16.0357 84.0643 17.0359C84.0643 18.036 83.8485 18.9134 83.4168 19.6629C82.9851 20.4123 82.4019 20.9981 81.667 21.415C80.9321 21.832 80.1074 22.0417 79.1926 22.0417ZM79.1926 20.2896C79.6834 20.2896 80.1356 20.1668 80.5544 19.9238C80.9733 19.6808 81.3124 19.3175 81.5694 18.8367C81.8263 18.3558 81.9548 17.7572 81.9548 17.0384C81.9548 16.3197 81.8289 15.7211 81.5771 15.2402C81.3253 14.7593 80.9912 14.3961 80.5724 14.1531C80.1536 13.9101 79.6988 13.7873 79.2106 13.7873C78.7199 13.7873 78.2676 13.9101 77.8488 14.1531C77.43 14.3961 77.0908 14.7593 76.8339 15.2402C76.5769 15.7211 76.4485 16.3222 76.4485 17.0384C76.4485 17.7572 76.5769 18.3558 76.8339 18.8367C77.0908 19.3175 77.4274 19.6808 77.8385 19.9238C78.2522 20.1693 78.7044 20.2896 79.1926 20.2896Z"/>
<path d="M85.3773 26.0446V12.2651H87.2144L87.4277 13.7462C87.736 13.296 88.1625 12.8995 88.7047 12.5542C89.2468 12.2089 89.9406 12.0349 90.7936 12.0349C91.7212 12.0349 92.5408 12.2523 93.2474 12.6897C93.9566 13.1271 94.5142 13.7231 94.9201 14.4803C95.3261 15.2374 95.5291 16.0969 95.5291 17.0587C95.5291 18.0204 95.3261 18.8773 94.9201 19.6268C94.5142 20.3763 93.9566 20.9672 93.2474 21.3969C92.5383 21.8266 91.7135 22.0415 90.7731 22.0415C90.0254 22.0415 89.365 21.8931 88.792 21.599C88.2191 21.3048 87.7643 20.8879 87.4302 20.3482V26.0446H85.3773ZM90.4236 20.2714C91.2998 20.2714 92.0218 19.9721 92.5897 19.3761C93.1575 18.7801 93.4401 18 93.4401 17.0382C93.4401 16.409 93.3117 15.8513 93.0547 15.3628C92.7978 14.8742 92.4432 14.4931 91.991 14.2168C91.5388 13.9406 91.0172 13.8024 90.4262 13.8024C89.55 13.8024 88.8306 14.1043 88.2704 14.7079C87.7103 15.3116 87.4302 16.0867 87.4302 17.0356C87.4302 17.9974 87.7103 18.7776 88.2704 19.3736C88.828 19.9721 89.5475 20.2714 90.4236 20.2714Z"/>
<path d="M101.274 22.0416C100.334 22.0416 99.4989 21.8319 98.7718 21.4149C98.0446 20.998 97.4742 20.4173 97.0605 19.673C96.6468 18.9286 96.4413 18.064 96.4413 17.0741C96.4413 16.074 96.6443 15.1941 97.0502 14.4369C97.4562 13.6798 98.0241 13.0889 98.7512 12.6668C99.4784 12.2422 100.326 12.0325 101.292 12.0325C102.233 12.0325 103.052 12.2422 103.746 12.6592C104.443 13.0761 104.985 13.6312 105.37 14.3244C105.756 15.0176 105.951 15.7798 105.951 16.6137C105.951 16.7416 105.948 16.8797 105.941 17.0281C105.933 17.1764 105.925 17.3402 105.912 17.5192H98.4506C98.5148 18.4426 98.8206 19.146 99.3679 19.6269C99.9152 20.1078 100.55 20.3483 101.272 20.3483C101.853 20.3483 102.338 20.2178 102.731 19.9543C103.124 19.6909 103.417 19.3353 103.61 18.8851H105.658C105.401 19.783 104.887 20.535 104.121 21.1361C103.358 21.7398 102.408 22.0416 101.274 22.0416ZM101.274 13.7079C100.591 13.7079 99.9845 13.91 99.4578 14.3141C98.9285 14.7183 98.6073 15.3245 98.4917 16.1328H103.906C103.867 15.3885 103.602 14.7976 103.114 14.3627C102.621 13.9279 102.007 13.7079 101.274 13.7079Z"/>
<path d="M107.22 21.8113V12.2651H109.057L109.232 14.0736C109.566 13.4443 110.034 12.9481 110.632 12.5823C111.231 12.2165 111.956 12.0349 112.806 12.0349V14.1708H112.246C111.678 14.1708 111.172 14.2629 110.727 14.4496C110.283 14.6363 109.928 14.9509 109.664 15.3935C109.399 15.836 109.268 16.4499 109.268 17.23V21.8113H107.22Z"/>
<path d="M114.641 21.8113V13.979H113.268V12.2652H114.641V10.8788C114.641 9.84027 114.903 9.09335 115.424 8.63804C115.946 8.18273 116.683 7.95508 117.637 7.95508H118.641V9.68679H117.945C117.493 9.68679 117.171 9.77888 116.979 9.9656C116.786 10.1523 116.688 10.4618 116.688 10.8992V12.2652H118.893V13.979H116.688V21.8113H114.641Z"/>
<path d="M123.014 22.0416C122.202 22.0416 121.532 21.906 121.005 21.6375C120.476 21.3689 120.083 21.0108 119.826 20.5682C119.569 20.1257 119.44 19.6423 119.44 19.1154C119.44 18.1919 119.8 17.4604 120.522 16.9207C121.244 16.3809 122.274 16.1124 123.616 16.1124H126.129V15.9384C126.129 15.1941 125.926 14.6364 125.52 14.263C125.114 13.8921 124.589 13.7054 123.945 13.7054C123.377 13.7054 122.883 13.8435 122.465 14.1197C122.046 14.396 121.791 14.8027 121.701 15.3424H119.654C119.718 14.6492 119.954 14.0558 120.36 13.5621C120.766 13.0684 121.283 12.6899 121.907 12.4264C122.531 12.1629 123.217 12.0325 123.965 12.0325C125.306 12.0325 126.342 12.3829 127.077 13.0812C127.812 13.7795 128.179 14.7336 128.179 15.9384V21.8088H126.401L126.226 20.1743C125.956 20.7013 125.563 21.1438 125.047 21.5019C124.528 21.8626 123.852 22.0416 123.014 22.0416ZM123.42 20.3866C123.975 20.3866 124.44 20.2562 124.821 19.9927C125.201 19.7293 125.496 19.3814 125.71 18.944C125.923 18.5091 126.054 18.0257 126.105 17.5013H123.824C123.012 17.5013 122.434 17.642 122.095 17.9259C121.753 18.2073 121.583 18.5603 121.583 18.9849C121.583 19.4223 121.748 19.7651 122.077 20.0157C122.405 20.2664 122.853 20.3866 123.42 20.3866Z"/>
<path d="M129.823 21.8114V12.2653H131.64L131.794 13.9407C132.09 13.3498 132.526 12.8868 133.099 12.5466C133.672 12.2064 134.333 12.0376 135.08 12.0376C136.239 12.0376 137.151 12.3957 137.817 13.1145C138.48 13.8333 138.811 14.905 138.811 16.3272V21.8114H136.781V16.5395C136.781 14.6927 136.021 13.7693 134.5 13.7693C133.739 13.7693 133.11 14.0379 132.614 14.5776C132.118 15.1173 131.869 15.8873 131.869 16.8874V21.814H129.823V21.8114Z"/>
<path d="M144.171 22.0416C142.958 22.0416 141.961 21.7475 141.175 21.1566C140.389 20.5657 139.939 19.783 139.821 18.8084H141.89C141.992 19.2458 142.236 19.6193 142.624 19.9339C143.01 20.2485 143.521 20.4046 144.151 20.4046C144.77 20.4046 145.22 20.2767 145.505 20.0209C145.787 19.7651 145.931 19.4684 145.931 19.1358C145.931 18.6473 145.733 18.3173 145.343 18.1459C144.95 17.972 144.405 17.8159 143.709 17.6753C143.167 17.5601 142.63 17.4067 142.095 17.2123C141.561 17.0204 141.116 16.7467 140.762 16.3937C140.407 16.0407 140.23 15.5624 140.23 14.9613C140.23 14.1274 140.551 13.4317 141.196 12.874C141.841 12.3164 142.743 12.0376 143.901 12.0376C144.97 12.0376 145.839 12.2934 146.502 12.8075C147.165 13.3217 147.555 14.0456 147.671 14.9818H145.7C145.636 14.5725 145.446 14.2502 145.13 14.02C144.814 13.7898 144.392 13.6747 143.863 13.6747C143.346 13.6747 142.948 13.7795 142.665 13.9918C142.383 14.2042 142.239 14.4753 142.239 14.8104C142.239 15.1429 142.434 15.4064 142.827 15.5982C143.22 15.7901 143.74 15.964 144.384 16.1175C145.029 16.2582 145.625 16.4219 146.173 16.6086C146.72 16.7953 147.162 17.0665 147.496 17.4271C147.83 17.7852 148 18.3122 148 19.0054C148.012 19.8776 147.673 20.6015 146.985 21.1796C146.296 21.7526 145.358 22.0416 144.171 22.0416Z"/>
<path d="M45.5356 11.3342C45.5356 23.8501 35.34 33.9999 22.7678 33.9999C10.1955 33.9999 0 23.8501 0 11.3342H11.3852C11.3852 17.5935 16.4829 22.6684 22.7704 22.6684C29.0578 22.6684 34.1555 17.5935 34.1555 11.3342H45.5356Z" fill-opacity="0.4"/>
<path d="M25.6507 11.3341C26.2211 10.6665 26.5628 9.82241 26.5628 8.87854C26.5628 7.83235 26.1337 6.88848 25.4503 6.20807C24.754 5.51487 23.8187 5.10049 22.7678 5.10049C20.6685 5.10049 18.9727 6.78872 18.9727 8.87854C18.9727 9.82241 19.3145 10.6665 19.8823 11.3341H11.3826C11.3826 5.07491 16.4804 0 22.7678 0C29.0552 0 34.153 5.07491 34.153 11.3341H25.6507Z"/>
<path d="M34.1478 11.3394C34.1478 17.5986 29.0501 22.6735 22.7627 22.6735C16.4752 22.6735 11.3775 17.5986 11.3775 11.3394H19.8772L17.6007 17.0052H27.9221L25.6456 11.3394H34.1478Z"/>
</svg>
