<svg width="1000" height="1000" viewBox="0 0 1000 1000" fill="none" xmlns="http://www.w3.org/2000/svg">
<path d="M500 0C223.86 0 0 223.86 0 500C0 776.14 223.86 1000 500 1000C776.14 1000 1000 776.14 1000 500C1000 223.86 776.14 0 500 0ZM500 850C306.7 850 150 693.3 150 500C150 306.7 306.7 150 500 150C693.3 150 850 306.7 850 500C850 693.3 693.3 850 500 850Z" />
<path d="M500 200C334.31 200 200 334.31 200 500C200 665.69 334.31 800 500 800C665.69 800 800 665.69 800 500C800 334.31 665.69 200 500 200ZM364 650L424 500C411.577 485.473 403.577 467.689 400.949 448.755C398.322 429.822 401.175 410.532 409.173 393.17C417.17 375.808 429.976 361.103 446.073 350.794C462.17 340.486 480.885 335.008 500 335.008C519.115 335.008 537.83 340.486 553.927 350.794C570.024 361.103 582.83 375.808 590.827 393.17C598.825 410.532 601.678 429.822 599.05 448.755C596.423 467.689 588.423 485.473 576 500L636 650H364Z" />
</svg>
