<svg width="150" height="24" viewBox="0 0 150 24" fill="none" xmlns="http://www.w3.org/2000/svg">
<path d="M0 24V0.399722H3.11947L3.48451 2.9313C4.01549 2.16516 4.72898 1.4823 5.65819 0.88272C6.5708 0.299792 7.74889 0 9.19248 0C10.7688 0 12.1626 0.366412 13.3573 1.11589C14.5686 1.86537 15.5144 2.88133 16.1947 4.18043C16.8916 5.47953 17.2235 6.94518 17.2235 8.59403C17.2235 10.2429 16.875 11.7085 16.1947 12.991C15.4978 14.2734 14.552 15.2894 13.3573 16.0222C12.146 16.755 10.7522 17.1214 9.15929 17.1214C7.88164 17.1214 6.76991 16.8716 5.79093 16.3553C4.81195 15.8557 4.04867 15.1395 3.46792 14.2068V23.9667H0V24ZM8.57854 14.1069C10.0719 14.1069 11.2998 13.5906 12.2622 12.5746C13.2246 11.5586 13.7058 10.2096 13.7058 8.56072C13.7058 7.47814 13.49 6.5288 13.042 5.69604C12.6106 4.86329 11.9967 4.21374 11.2334 3.73074C10.4701 3.2644 9.57411 3.01457 8.57854 3.01457C7.08518 3.01457 5.87389 3.53088 4.9115 4.5635C3.96571 5.59611 3.48451 6.92852 3.48451 8.56072C3.48451 10.2096 3.96571 11.542 4.9115 12.5746C5.8573 13.6072 7.08518 14.1069 8.57854 14.1069Z"/>
<path d="M96.4878 24V0.399722H99.6073L99.9723 2.9313C100.503 2.16516 101.217 1.4823 102.146 0.88272C103.059 0.283137 104.253 0 105.697 0C107.273 0 108.667 0.366412 109.862 1.11589C111.073 1.86537 112.019 2.88133 112.699 4.18043C113.396 5.47953 113.728 6.94518 113.728 8.59403C113.728 10.2429 113.379 11.7085 112.699 12.991C112.002 14.2734 111.056 15.2894 109.862 16.0222C108.65 16.755 107.257 17.1214 105.664 17.1214C104.386 17.1214 103.274 16.8716 102.295 16.3553C101.316 15.8557 100.553 15.1395 99.9723 14.2068V23.9667H96.4878V24ZM105.05 14.1069C106.543 14.1069 107.771 13.5906 108.733 12.5746C109.696 11.5586 110.177 10.2096 110.177 8.56072C110.177 7.47814 109.961 6.5288 109.513 5.69604C109.082 4.86329 108.468 4.21374 107.705 3.73074C106.941 3.2644 106.045 3.01457 105.05 3.01457C103.556 3.01457 102.345 3.53088 101.383 4.5635C100.437 5.59611 99.9557 6.92852 99.9557 8.56072C99.9557 10.2096 100.437 11.542 101.383 12.5746C102.345 13.6072 103.573 14.1069 105.05 14.1069Z"/>
<path d="M19.48 16.755V0.399669H22.5994L22.8981 3.49752C23.4623 2.41494 24.2587 1.56553 25.2875 0.949287C26.2997 0.316393 27.5441 0.0166016 28.9877 0.0166016V3.68072H28.0419C27.0795 3.68072 26.2167 3.84727 25.47 4.16372C24.7067 4.48017 24.1094 5.01313 23.6614 5.77927C23.2134 6.5454 22.9811 7.59467 22.9811 8.92708V16.7716H19.48V16.755Z"/>
<path d="M37.8483 17.1381C36.2885 17.1381 34.8947 16.7883 33.6669 16.0722C32.4224 15.356 31.4434 14.3567 30.7299 13.0743C29.9998 11.7918 29.6514 10.2929 29.6514 8.57738C29.6514 6.8619 30.0164 5.36294 30.7465 4.0805C31.4766 2.79806 32.4722 1.79875 33.7166 1.08258C34.9445 0.349757 36.3383 0 37.8649 0C39.4246 0 40.8184 0.349757 42.0463 1.06593C43.2907 1.7821 44.2697 2.7814 44.9998 4.06384C45.7299 5.34629 46.0949 6.84525 46.0949 8.56072C46.0949 10.2762 45.7299 11.7752 44.9998 13.0576C44.2697 14.34 43.2741 15.3393 42.0297 16.0555C40.8018 16.7883 39.3914 17.1381 37.8483 17.1381ZM37.8483 14.1402C38.6779 14.1402 39.4578 13.9237 40.1713 13.5073C40.8848 13.0909 41.4655 12.4747 41.8969 11.6419C42.3284 10.8258 42.5607 9.7932 42.5607 8.56072C42.5607 7.32824 42.3449 6.29563 41.9135 5.47953C41.4821 4.66343 40.918 4.03053 40.2045 3.61416C39.491 3.19778 38.7277 2.98126 37.8815 2.98126C37.0518 2.98126 36.2719 3.19778 35.5584 3.61416C34.8449 4.03053 34.2642 4.64677 33.8328 5.47953C33.4014 6.29563 33.1691 7.32824 33.1691 8.56072C33.1691 9.7932 33.3848 10.8258 33.8328 11.6419C34.2642 12.458 34.8449 13.0909 35.5419 13.5073C36.2388 13.9403 37.002 14.1402 37.8483 14.1402Z"/>
<path d="M48.3521 24V0.399722H51.4715L51.8366 2.9313C52.3675 2.16516 53.081 1.4823 54.0102 0.88272C54.9228 0.299792 56.1009 0 57.5445 0C59.1209 0 60.5147 0.366412 61.7094 1.11589C62.9206 1.86537 63.8664 2.88133 64.5467 4.18043C65.2436 5.47953 65.5755 6.94518 65.5755 8.59403C65.5755 10.2429 65.2271 11.7085 64.5467 12.991C63.8498 14.2734 62.904 15.2894 61.7094 16.0222C60.4981 16.755 59.1043 17.1214 57.5113 17.1214C56.2337 17.1214 55.122 16.8716 54.143 16.3553C53.164 15.8557 52.4007 15.1395 51.82 14.2068V23.9667H48.3521V24ZM56.9306 14.1069C58.424 14.1069 59.6518 13.5906 60.6142 12.5746C61.5766 11.5586 62.0578 10.2096 62.0578 8.56072C62.0578 7.47814 61.8421 6.5288 61.3941 5.69604C60.9627 4.86329 60.3487 4.21374 59.5855 3.73074C58.8222 3.2644 57.9262 3.01457 56.9306 3.01457C55.4372 3.01457 54.2259 3.53088 53.2636 4.5635C52.3178 5.59611 51.8366 6.92852 51.8366 8.56072C51.8366 10.2096 52.3178 11.542 53.2636 12.5746C54.2094 13.6072 55.4372 14.1069 56.9306 14.1069Z"/>
<path d="M75.3654 17.138C73.7724 17.138 72.3455 16.7883 71.1176 16.0721C69.8731 15.3559 68.9107 14.3566 68.2138 13.0909C67.5169 11.8084 67.1685 10.3261 67.1685 8.64394C67.1685 6.92847 67.5169 5.42951 68.1972 4.13041C68.8941 2.83131 69.8565 1.81535 71.0844 1.09918C72.3289 0.366359 73.7558 0.0166016 75.3985 0.0166016C76.9915 0.0166016 78.3853 0.366359 79.5634 1.08253C80.7415 1.7987 81.6707 2.74804 82.3178 3.93055C82.9649 5.11306 83.2968 6.42882 83.2968 7.86115C83.2968 8.07767 83.2968 8.31084 83.2802 8.57732C83.2636 8.82715 83.247 9.11029 83.2304 9.41008H70.5534C70.6696 10.9923 71.1839 12.1915 72.1131 13.0242C73.0424 13.8403 74.1209 14.2567 75.3488 14.2567C76.3278 14.2567 77.1574 14.0235 77.8211 13.5739C78.4848 13.1242 78.9826 12.5079 79.3145 11.7418H82.799C82.3676 13.2741 81.4881 14.5732 80.1939 15.6058C78.8997 16.6217 77.2901 17.138 75.3654 17.138ZM75.3654 2.86462C74.2039 2.86462 73.1751 3.21438 72.2791 3.89724C71.3831 4.59675 70.8355 5.62937 70.6364 7.01174H79.8289C79.7625 5.7293 79.3145 4.72999 78.4848 3.98052C77.6552 3.24769 76.6098 2.86462 75.3654 2.86462Z"/>
<path d="M85.4702 16.755V0.399669H88.5897L88.8884 3.49752C89.4525 2.41494 90.249 1.56553 91.2777 0.949287C92.2899 0.316393 93.5344 0.0166016 94.978 0.0166016V3.68072H94.0322C93.0698 3.68072 92.2069 3.84727 91.4603 4.16372C90.697 4.48017 90.0996 5.01313 89.6516 5.77927C89.2036 6.5454 88.9713 7.59467 88.9713 8.92708V16.7716H85.4702V16.755Z"/>
<path d="M121.327 17.1381C119.95 17.1381 118.805 16.9049 117.909 16.4386C117.013 15.9722 116.35 15.3727 115.902 14.6065C115.47 13.8404 115.238 13.0243 115.238 12.1249C115.238 10.5427 115.852 9.29355 117.08 8.36086C118.307 7.44483 120.05 6.97849 122.34 6.97849H126.604V6.67869C126.604 5.39625 126.255 4.44691 125.575 3.81402C124.878 3.18112 123.999 2.86468 122.904 2.86468C121.941 2.86468 121.095 3.09785 120.398 3.58085C119.685 4.04719 119.253 4.7467 119.104 5.67939H115.619C115.736 4.49688 116.134 3.48092 116.814 2.63151C117.511 1.7821 118.374 1.13255 119.436 0.682859C120.498 0.233171 121.659 0 122.937 0C125.21 0 126.986 0.599584 128.23 1.79875C129.475 2.99792 130.105 4.63012 130.105 6.69535V16.755H127.085L126.77 13.9403C126.305 14.8397 125.642 15.6058 124.762 16.2221C123.899 16.8383 122.754 17.1381 121.327 17.1381ZM122.008 14.3067C122.954 14.3067 123.75 14.0736 124.397 13.6239C125.044 13.1742 125.542 12.5746 125.907 11.8251C126.272 11.0756 126.488 10.2595 126.587 9.36017H122.705C121.327 9.36017 120.348 9.60999 119.768 10.093C119.187 10.576 118.905 11.1756 118.905 11.9084C118.905 12.6579 119.187 13.2408 119.734 13.6738C120.282 14.0902 121.045 14.3067 122.008 14.3067Z"/>
<path d="M135.813 23.9001L139.712 15.306H138.767L132.329 0.299805H136.112L141.106 12.4081L146.333 0.299805H150L139.48 23.9167H135.813V23.9001Z"/>
</svg>
