<svg width="164" height="38" viewBox="0 0 164 38" fill="none" xmlns="http://www.w3.org/2000/svg">
<g clip-path="url(#clip0)">
<path d="M63.0803 29.1238V13.8473H65.1161L65.3524 15.4892C65.6941 14.9901 66.1667 14.5505 66.7675 14.1677C67.3682 13.7849 68.137 13.592 69.0823 13.592C70.1101 13.592 71.0184 13.8331 71.8014 14.318C72.5872 14.8029 73.205 15.4637 73.6549 16.3031C74.1048 17.1425 74.3297 18.0953 74.3297 19.1616C74.3297 20.2279 74.1048 21.1779 73.6549 22.0088C73.205 22.8397 72.5872 23.4947 71.8014 23.9711C71.0155 24.4476 70.1016 24.6858 69.0595 24.6858C68.2309 24.6858 67.4992 24.5213 66.8643 24.1952C66.2293 23.8691 65.7254 23.4068 65.3553 22.8085V29.1238H63.0803ZM68.6723 22.7234C69.6432 22.7234 70.4432 22.3916 71.0725 21.7308C71.7017 21.0701 72.0149 20.2052 72.0149 19.1389C72.0149 18.4413 71.8725 17.8231 71.5878 17.2814C71.3031 16.7398 70.9102 16.3173 70.4091 16.011C69.908 15.7047 69.33 15.5516 68.6751 15.5516C67.7042 15.5516 66.907 15.8862 66.2863 16.5555C65.6656 17.2247 65.3553 18.084 65.3553 19.1361C65.3553 20.2023 65.6656 21.0673 66.2863 21.728C66.9041 22.3916 67.7014 22.7234 68.6723 22.7234Z" fill="white"/>
<path d="M75.7817 24.4305V13.8473H77.8175L78.0111 15.8522C78.3812 15.1546 78.8994 14.6044 79.5628 14.1989C80.2263 13.7934 81.0292 13.592 81.9716 13.592V15.96H81.3509C80.7217 15.96 80.1608 16.062 79.6682 16.2691C79.1756 16.4761 78.7827 16.8249 78.4894 17.3155C78.1962 17.8061 78.051 18.4867 78.051 19.3516V24.4305H75.7817Z" fill="white"/>
<path d="M87.7541 24.6858C86.7405 24.6858 85.8294 24.4533 85.0237 23.9911C84.2179 23.5288 83.5773 22.8822 83.1075 22.0485C82.6348 21.2176 82.4014 20.2449 82.4014 19.1361C82.4014 18.0273 82.6405 17.0546 83.1189 16.2237C83.5972 15.3928 84.2435 14.7434 85.0578 14.2812C85.8721 13.819 86.7775 13.5864 87.7769 13.5864C88.7905 13.5864 89.7016 13.819 90.5074 14.2812C91.3132 14.7434 91.9566 15.39 92.435 16.2237C92.9133 17.0546 93.1525 18.0273 93.1525 19.1361C93.1525 20.2449 92.9133 21.2176 92.435 22.0485C91.9566 22.8794 91.3103 23.5288 90.496 23.9911C89.6817 24.4533 88.7678 24.6858 87.7541 24.6858ZM87.7541 22.7433C88.298 22.7433 88.7991 22.6072 89.2632 22.3378C89.7273 22.0684 90.1031 21.6657 90.3878 21.1325C90.6725 20.5994 90.8149 19.9358 90.8149 19.139C90.8149 18.3421 90.6754 17.6785 90.3964 17.1454C90.1173 16.6122 89.7472 16.2096 89.2831 15.9402C88.819 15.6708 88.315 15.5346 87.7741 15.5346C87.2303 15.5346 86.7291 15.6708 86.265 15.9402C85.801 16.2096 85.4251 16.6122 85.1404 17.1454C84.8557 17.6785 84.7133 18.3449 84.7133 19.139C84.7133 19.9358 84.8557 20.5994 85.1404 21.1325C85.4251 21.6657 85.7981 22.0684 86.2537 22.3378C86.7121 22.61 87.2132 22.7433 87.7541 22.7433Z" fill="white"/>
<path d="M94.6074 29.1238V13.8473H96.6432L96.8795 15.4892C97.2212 14.9901 97.6938 14.5505 98.2946 14.1677C98.8953 13.7849 99.6641 13.592 100.609 13.592C101.637 13.592 102.545 13.8331 103.328 14.318C104.114 14.8029 104.732 15.4637 105.182 16.3031C105.632 17.1425 105.857 18.0953 105.857 19.1616C105.857 20.2279 105.632 21.1779 105.182 22.0088C104.732 22.8397 104.114 23.4947 103.328 23.9711C102.543 24.4476 101.629 24.6858 100.587 24.6858C99.758 24.6858 99.0263 24.5213 98.3914 24.1952C97.7564 23.8691 97.2525 23.4068 96.8823 22.8085V29.1238H94.6074ZM100.199 22.7234C101.17 22.7234 101.97 22.3916 102.6 21.7308C103.229 21.0701 103.542 20.2052 103.542 19.1389C103.542 18.4413 103.4 17.8231 103.115 17.2814C102.83 16.7398 102.437 16.3173 101.936 16.011C101.435 15.7047 100.857 15.5516 100.202 15.5516C99.2313 15.5516 98.4341 15.8862 97.8134 16.5555C97.1927 17.2247 96.8823 18.084 96.8823 19.1361C96.8823 20.2023 97.1927 21.0673 97.8134 21.728C98.4312 22.3916 99.2285 22.7234 100.199 22.7234Z" fill="white"/>
<path d="M112.223 24.6858C111.181 24.6858 110.256 24.4533 109.45 23.991C108.644 23.5288 108.012 22.8851 107.554 22.0598C107.095 21.2346 106.868 20.2761 106.868 19.1786C106.868 18.0698 107.093 17.0943 107.542 16.2549C107.992 15.4155 108.622 14.7604 109.427 14.2925C110.233 13.8218 111.173 13.5892 112.243 13.5892C113.285 13.5892 114.194 13.8218 114.962 14.284C115.734 14.7462 116.335 15.3616 116.762 16.1301C117.189 16.8986 117.405 17.7437 117.405 18.6682C117.405 18.81 117.402 18.9631 117.394 19.1276C117.385 19.2921 117.377 19.4736 117.363 19.6721H109.094C109.165 20.6958 109.504 21.4757 110.111 22.0088C110.717 22.5419 111.42 22.8085 112.22 22.8085C112.864 22.8085 113.402 22.6639 113.838 22.3718C114.273 22.0797 114.598 21.6855 114.811 21.1864H117.081C116.796 22.1818 116.227 23.0155 115.378 23.6819C114.532 24.3512 113.479 24.6858 112.223 24.6858ZM112.223 15.4467C111.466 15.4467 110.794 15.6707 110.21 16.1188C109.624 16.5668 109.268 17.2389 109.14 18.1351H115.139C115.096 17.3098 114.803 16.6548 114.262 16.1727C113.715 15.6906 113.035 15.4467 112.223 15.4467Z" fill="white"/>
<path d="M118.812 24.4305V13.8473H120.848L121.041 15.8522C121.411 15.1546 121.929 14.6044 122.593 14.1989C123.256 13.7934 124.059 13.592 125.002 13.592V15.96H124.381C123.752 15.96 123.191 16.062 122.698 16.2691C122.206 16.4761 121.813 16.8249 121.519 17.3155C121.226 17.8061 121.081 18.4867 121.081 19.3516V24.4305H118.812Z" fill="white"/>
<path d="M127.035 24.4306V15.7473H125.514V13.8473H127.035V12.3103C127.035 11.159 127.325 10.3309 127.903 9.82613C128.481 9.32136 129.298 9.06897 130.354 9.06897H131.468V10.9888H130.696C130.195 10.9888 129.839 11.0909 129.626 11.2979C129.412 11.5049 129.304 11.8481 129.304 12.333V13.8473H131.747V15.7473H129.304V24.4306H127.035Z" fill="white"/>
<path d="M136.314 24.6858C135.414 24.6858 134.671 24.5355 134.087 24.2377C133.5 23.94 133.065 23.543 132.78 23.0524C132.495 22.5618 132.353 22.0258 132.353 21.4416C132.353 20.4179 132.752 19.6068 133.552 19.0085C134.352 18.4101 135.494 18.1124 136.98 18.1124H139.764V17.9195C139.764 17.0943 139.539 16.4761 139.09 16.0621C138.64 15.6509 138.059 15.4439 137.344 15.4439C136.715 15.4439 136.168 15.597 135.704 15.9033C135.24 16.2095 134.958 16.6604 134.859 17.2588H132.589C132.661 16.4903 132.922 15.8324 133.372 15.2851C133.822 14.7377 134.394 14.318 135.086 14.026C135.778 13.7339 136.538 13.5892 137.367 13.5892C138.853 13.5892 140.001 13.9777 140.815 14.7519C141.629 15.5261 142.036 16.5839 142.036 17.9195V24.4277H140.066L139.873 22.6157C139.574 23.1998 139.138 23.6904 138.566 24.0874C137.991 24.4873 137.242 24.6858 136.314 24.6858ZM136.763 22.851C137.378 22.851 137.894 22.7064 138.315 22.4143C138.736 22.1222 139.064 21.7365 139.3 21.2516C139.537 20.7695 139.682 20.2336 139.739 19.6522H137.21C136.311 19.6522 135.67 19.8082 135.294 20.123C134.916 20.4349 134.728 20.8262 134.728 21.297C134.728 21.7819 134.91 22.1619 135.274 22.4398C135.639 22.7177 136.134 22.851 136.763 22.851Z" fill="white"/>
<path d="M143.859 24.4306V13.8474H145.872L146.043 15.7048C146.37 15.0497 146.854 14.5365 147.489 14.1593C148.124 13.7821 148.856 13.595 149.684 13.595C150.968 13.595 151.979 13.992 152.717 14.7889C153.451 15.5857 153.818 16.7739 153.818 18.3506V24.4306H151.569V18.586C151.569 16.5386 150.726 15.5148 149.041 15.5148C148.198 15.5148 147.5 15.8126 146.951 16.4109C146.401 17.0093 146.125 17.8629 146.125 18.9717V24.4335H143.859V24.4306Z" fill="white"/>
<path d="M159.758 24.6859C158.414 24.6859 157.309 24.3597 156.438 23.7047C155.566 23.0496 155.068 22.1818 154.937 21.1014H157.229C157.343 21.5863 157.614 22.0003 158.044 22.3492C158.471 22.698 159.037 22.8709 159.735 22.8709C160.421 22.8709 160.919 22.7292 161.235 22.4456C161.549 22.162 161.708 21.833 161.708 21.4644C161.708 20.9227 161.489 20.5569 161.056 20.3669C160.62 20.1741 160.017 20.0011 159.245 19.8451C158.644 19.7175 158.049 19.5474 157.457 19.3318C156.865 19.1192 156.372 18.8157 155.979 18.4244C155.586 18.033 155.39 17.5027 155.39 16.8363C155.39 15.9118 155.746 15.1405 156.461 14.5223C157.175 13.9041 158.175 13.595 159.459 13.595C160.643 13.595 161.605 13.8786 162.34 14.4486C163.075 15.0186 163.507 15.8211 163.636 16.859H161.452C161.381 16.4053 161.17 16.048 160.82 15.7927C160.469 15.5375 160.002 15.4099 159.416 15.4099C158.844 15.4099 158.402 15.5262 158.089 15.7615C157.776 15.9969 157.617 16.2975 157.617 16.669C157.617 17.0377 157.833 17.3297 158.269 17.5424C158.704 17.7551 159.279 17.948 159.994 18.1181C160.709 18.2741 161.369 18.4556 161.976 18.6626C162.582 18.8696 163.072 19.1702 163.442 19.57C163.812 19.9671 164 20.5512 164 21.3197C164.014 22.2868 163.638 23.0893 162.875 23.7302C162.112 24.3654 161.073 24.6859 159.758 24.6859Z" fill="white"/>
<path d="M50.4585 12.8151C50.4585 26.6907 39.1607 37.9433 25.2292 37.9433C11.2978 37.9433 0 26.6907 0 12.8151H12.616C12.616 19.7543 18.2649 25.3806 25.2321 25.3806C32.1992 25.3806 37.8481 19.7543 37.8481 12.8151H50.4585Z" fill="white"/>
<path d="M28.4239 12.815C29.056 12.0749 29.4347 11.1391 29.4347 10.0926C29.4347 8.93279 28.9592 7.88638 28.2019 7.13205C27.4303 6.36354 26.3938 5.90414 25.2293 5.90414C22.9031 5.90414 21.024 7.77578 21.024 10.0926C21.024 11.1391 21.4027 12.0749 22.0319 12.815H12.6133C12.6133 5.87578 18.2622 0.249512 25.2293 0.249512C32.1965 0.249512 37.8454 5.87578 37.8454 12.815H28.4239Z" fill="white" fill-opacity="0.5"/>
<path d="M37.8395 12.8208C37.8395 19.7601 32.1906 25.3863 25.2235 25.3863C18.2563 25.3863 12.6074 19.7601 12.6074 12.8208H22.026L19.5034 19.1021H30.9407L28.4181 12.8208H37.8395Z" fill="white" fill-opacity="0.75"/>
</g>
<defs>
<clipPath id="clip0">
<rect width="164" height="38" fill="white"/>
</clipPath>
</defs>
</svg>
