<svg width="335" height="162" viewBox="0 0 335 162" fill="none" xmlns="http://www.w3.org/2000/svg">
<g opacity="0.03">
<path d="M335 79H0V83H335V79Z" fill="black"/>
<path d="M169.5 0H165.5V162H169.5V0Z" fill="black"/>
<path d="M167.1 84.1999L143.1 108.2C142.3 109 141.1 109 140.3 108.2C139.5 107.4 139.5 106.2 140.3 105.4L164.3 81.3999L167.1 84.1999Z" fill="black"/>
<path d="M167.9 84.1999L191.9 108.2C192.7 109 193.9 109 194.7 108.2C195.5 107.4 195.5 106.2 194.7 105.4L170.7 81.3999L167.9 84.1999Z" fill="black"/>
<path d="M163.365 77.9048C168.051 73.2185 165.519 63.088 157.708 55.2776C149.898 47.4671 139.767 44.9345 135.081 49.6208C130.395 54.307 132.928 64.4375 140.738 72.248C148.548 80.0584 158.679 82.591 163.365 77.9048Z" stroke="black" stroke-width="4" stroke-miterlimit="9.9999"/>
<path d="M194.199 72.2576C202.009 64.4472 204.542 54.3166 199.855 49.6304C195.169 44.9442 185.039 47.4768 177.228 55.2872C169.418 63.0976 166.885 73.2282 171.571 77.9144C176.258 82.6006 186.388 80.068 194.199 72.2576Z" stroke="black" stroke-width="4" stroke-miterlimit="9.9999"/>
<path d="M170.9 77.6001H164.1V84.4001H170.9V77.6001Z" fill="black"/>
</g>
</svg>
