<svg width="36" height="12" viewBox="0 0 36 12" fill="none" xmlns="http://www.w3.org/2000/svg">
<path d="M25.8595 2.88362C26.6751 2.88362 27.3369 2.23853 27.3369 1.44314C27.3369 0.64642 26.6751 0 25.8595 0C25.0438 0 24.3833 0.64642 24.3833 1.44181C24.3833 2.2372 25.0438 2.88362 25.8595 2.88362ZM14.5423 3.66172C14.4754 3.82532 13.9954 5.14875 12.8348 6.51873V0.65573L9.74209 1.25294V11.8803H12.8348V8.59499C13.7306 9.90645 14.1732 11.8803 14.1732 11.8803H17.877C17.5106 10.3933 15.9074 7.65329 15.9074 7.65329C17.3462 5.87364 17.9773 3.97695 18.0789 3.66305H14.5423V3.66172ZM22.6718 3.54999C19.9014 3.63644 18.4961 4.84948 18.4961 7.26092V11.879H21.5179V8.1135C21.5179 6.67036 21.7118 6.05054 23.4674 5.99202V3.59255C23.1719 3.53137 22.6718 3.54999 22.6718 3.54999ZM4.55683 4.83086C4.17843 4.80692 3.30129 4.75105 3.30129 3.98094C3.30129 3.05121 4.56351 3.05121 5.03684 3.05121C5.86986 3.05121 6.94756 3.29062 7.71772 3.51674C7.71772 3.51674 8.14693 3.66438 8.5133 3.81601L8.54806 3.82532V3.79073V1.27821L8.50126 1.26491C7.59204 0.954999 6.53573 0.65573 4.57688 0.65573C1.1967 0.65573 0 2.57637 0 4.22168C0 5.17003 0.417174 7.40191 4.2854 7.65994C4.61298 7.67989 5.48343 7.72778 5.48343 8.5245C5.48343 9.18156 4.77076 9.56994 3.57272 9.56994C2.25969 9.56994 0.98544 9.24274 0.211261 8.93283V11.5558C1.36919 11.8524 2.67553 12 4.20651 12C7.50914 12 8.9893 10.1831 8.9893 8.38218C8.9893 6.33917 7.33398 5.01308 4.55683 4.83086ZM24.3606 11.879H27.3583V3.67103H24.3606V11.879ZM33.0022 1.17978V11.8803H36V0.65573L33.0022 1.17978ZM28.6286 1.17978L31.6237 0.657061V11.8803H28.6286V1.17978Z"/>
</svg>
