<svg width="46" height="48" viewBox="0 0 46 48" fill="none" xmlns="http://www.w3.org/2000/svg">
<path d="M45.2439 23.1802C43.7716 22.9179 42.3524 22.5507 41.0127 22.1179C31.1972 18.8523 25.6528 10.9311 23.8356 0.727864C23.6632 -0.242621 22.2572 -0.242621 22.0848 0.727864C20.4002 10.1442 15.5986 17.3704 7.58708 21.0687C7.54729 21.0818 7.5075 21.1081 7.4677 21.1212C7.34833 21.1736 7.22895 21.2261 7.12284 21.2786C7.05652 21.3048 6.9902 21.331 6.92387 21.3572C6.81776 21.3966 6.72491 21.4491 6.6188 21.4884C6.52595 21.5277 6.4331 21.5671 6.34025 21.5933C6.26067 21.6327 6.18108 21.6589 6.08824 21.6851C5.9158 21.7507 5.7301 21.8163 5.55767 21.8818C5.54441 21.8818 5.53114 21.8949 5.51788 21.8949C5.34544 21.9605 5.17301 22.0261 4.98731 22.0786C4.94752 22.0917 4.89446 22.1048 4.85467 22.1179C4.70877 22.1704 4.56286 22.2097 4.43022 22.2622C4.37716 22.2753 4.32411 22.3015 4.27105 22.3146C4.13841 22.354 3.9925 22.3933 3.85986 22.4458C3.8068 22.4589 3.74048 22.4851 3.68743 22.4982C3.55479 22.5376 3.40888 22.5769 3.27624 22.6163C3.22318 22.6294 3.15686 22.6425 3.10381 22.6687C2.97116 22.7081 2.82526 22.7474 2.69262 22.7736C2.63956 22.7867 2.58651 22.7999 2.52018 22.813C2.37428 22.8523 2.22837 22.8785 2.08247 22.9179C2.02941 22.931 1.97636 22.9441 1.9233 22.9572C1.76413 22.9966 1.60496 23.0228 1.43253 23.0622C1.39273 23.0753 1.36621 23.0753 1.32641 23.0884C1.12745 23.1277 0.928489 23.1671 0.729527 23.2064C0.252018 23.2982 0 23.6785 0 24.072C0 24.4654 0.238754 24.8458 0.729527 24.9376C12.7866 27.1408 19.9758 35.508 22.0848 47.2718C22.2174 48.0063 23.0133 48.0194 22.9602 47.9931C23.3979 47.9931 23.7693 47.6784 23.8356 47.2587C23.8356 47.2587 23.8356 47.2587 23.8356 47.2456C23.8754 47.0489 23.9152 46.8391 23.955 46.6292C23.955 46.6161 23.955 46.5899 23.9683 46.5768C24.0081 46.38 24.0479 46.1833 24.0877 45.9866C24.0877 45.9735 24.1009 45.9473 24.1009 45.9341C24.1407 45.7243 24.1938 45.5276 24.2468 45.3178C24.2468 45.3046 24.2468 45.3046 24.2601 45.2915C24.9366 42.3932 26.0905 39.167 28.0006 36.1375C29.8973 33.1211 32.5369 30.2883 36.2376 28.1507C38.8772 26.6162 41.9279 25.5277 45.2705 24.9244C45.6949 24.8458 46 24.4785 46 24.0589C45.9735 23.6261 45.6684 23.2589 45.2439 23.1802Z"/>
</svg>
