<svg width="187" height="34" viewBox="0 0 187 34" fill="black" xmlns="http://www.w3.org/2000/svg">
<path d="M27.131 4.00714L21.3512 9.78155C19.8179 8.24967 17.7383 7.38908 15.5699 7.38908C13.4015 7.38908 11.3219 8.24967 9.7886 9.78155C8.2553 11.3134 7.3939 13.3911 7.3939 15.5575C7.3939 17.7239 8.2553 19.8015 9.7886 21.3334L4.01111 27.1055L0.0652674 12.3933C-0.0217367 12.069 -0.0217561 11.7276 0.065211 11.4033C0.152178 11.0789 0.323067 10.7832 0.560699 10.5458L10.5582 0.559938C10.7956 0.322918 11.0912 0.152423 11.4153 0.0655485C11.7395 -0.0213262 12.0809 -0.0215269 12.4051 0.0649665L27.131 4.00714Z"/>
<path d="M24.2411 6.89453L28.1862 21.6044C28.2732 21.9287 28.2732 22.2702 28.1862 22.5945C28.0993 22.9188 27.9284 23.2146 27.6908 23.452L17.6941 33.4402C17.4564 33.6776 17.1604 33.8483 16.8358 33.9352C16.5112 34.0221 16.1694 34.0221 15.8448 33.9351L1.12122 29.993L6.901 24.2185C8.4343 25.7504 10.5139 26.611 12.6823 26.611C14.8507 26.611 16.9303 25.7504 18.4636 24.2185C19.9969 22.6867 20.8583 20.609 20.8583 18.4426C20.8583 16.2762 19.9969 14.1985 18.4636 12.6667L24.2411 6.89453Z"/>
<path d="M40.7374 26.3619C37.6553 26.3619 35.3121 24.7852 35.3121 22.0502H38.395C38.395 23.3806 39.4058 24.0454 40.7374 24.0454C41.9702 24.0454 42.7099 23.6024 42.7099 22.6905C42.7099 20.0795 35.5342 22.2965 35.5342 17.2711C35.5342 14.9798 37.63 13.5508 40.3675 13.5508C43.3264 13.5508 45.5455 15.3738 45.5455 17.714H42.4657C42.4657 16.6797 41.5782 15.891 40.3698 15.891C39.2603 15.891 38.5206 16.3592 38.5206 17.1479C38.5206 19.5126 45.7698 17.493 45.7698 22.5674C45.7698 24.9083 43.625 26.3619 40.7374 26.3619Z"/>
<path d="M53.3131 23.6514C53.774 23.6502 54.2319 23.5753 54.6692 23.4295V26.0658C54.0373 26.2571 53.3813 26.3568 52.7211 26.3619C50.28 26.3619 48.5043 25.401 48.5043 22.0992V16.3837H46.5317V13.7971H48.5043V10.1021H51.4638V13.7971H54.6692V16.3837H51.4638V21.9025C51.4638 23.1098 52.0305 23.6514 53.3131 23.6514Z"/>
<path d="M59.4014 26.115H56.4418V13.7981H59.4014V15.794C60.2889 14.3405 61.7438 13.5518 63.544 13.5518C63.7653 13.5518 64.0119 13.5518 64.1566 13.6015V16.8307C63.7431 16.6937 63.3096 16.627 62.874 16.6333C60.6794 16.6333 59.3975 17.767 59.3975 19.8364L59.4014 26.115Z"/>
<path d="M76.9681 20.9418H67.6958C68.0167 22.7404 69.2005 23.7724 71.0252 23.7724C72.3316 23.7724 73.0966 23.2797 73.4909 22.4175H76.6963C75.9566 24.9796 73.8118 26.3597 70.902 26.3597C67.3796 26.3597 64.786 23.7234 64.786 19.9541C64.786 16.1849 67.3757 13.5486 70.902 13.5486C74.4282 13.5486 77.0171 16.1849 77.0171 19.9541C77.0171 20.3015 76.9926 20.6212 76.9681 20.9418ZM67.7211 18.8479H74.0828C73.762 17.1235 72.6279 16.1374 70.902 16.1374C69.176 16.1374 68.0412 17.1235 67.7211 18.8479Z"/>
<path d="M86.1899 24.2917C85.4004 25.7452 83.9693 26.3618 82.2693 26.3618C80.1483 26.3618 78.1267 25.3023 78.1267 22.8137C78.1267 17.5174 86.1409 19.8821 86.1409 17.4187C86.1409 16.4578 85.1539 15.8886 83.872 15.8886C82.5159 15.8886 81.5748 16.6032 81.5748 17.9833H78.4927C78.4927 14.7801 81.1062 13.5461 83.8682 13.5461C86.5804 13.5461 89.0959 14.6547 89.0959 17.5373V26.1147H86.1861L86.1899 24.2917ZM82.8858 23.8977C84.6117 23.8977 86.1899 22.9123 86.1899 21.0403V20.4734C84.2174 21.2867 81.1598 21.0403 81.1598 22.6155C81.1598 23.4792 81.8995 23.8977 82.8858 23.8977Z"/>
<path d="M94.492 26.115H91.5332V13.7981H94.492V15.3993C95.2072 14.2173 96.391 13.5518 97.7962 13.5518C99.4731 13.5518 100.878 14.3168 101.593 15.8185C102.333 14.365 103.738 13.5518 105.441 13.5518C107.931 13.5518 109.781 15.2027 109.781 18.5038V26.1158H106.82V19.0944C106.82 17.1726 105.933 16.1375 104.478 16.1375C103.023 16.1375 102.136 17.1726 102.136 19.0944V26.115H99.1768V19.0944C99.1768 17.1726 98.2885 16.1375 96.8336 16.1375C95.3787 16.1375 94.492 17.1726 94.492 19.0944V26.115Z"/>
<path d="M123.71 20.9418H114.438C114.759 22.7404 115.943 23.7724 117.767 23.7724C119.074 23.7724 119.835 23.2797 120.233 22.4175H123.437C122.697 24.9796 120.552 26.3597 117.643 26.3597C114.12 26.3597 111.527 23.7234 111.527 19.9541C111.527 16.1849 114.116 13.5486 117.643 13.5486C121.169 13.5486 123.758 16.1849 123.758 19.9541C123.759 20.3015 123.735 20.6212 123.71 20.9418ZM114.463 18.8479H120.825C120.504 17.1235 119.37 16.1374 117.644 16.1374C115.918 16.1374 114.784 17.1235 114.463 18.8479Z"/>
<path d="M128.541 26.115H125.581V13.7981H128.541V15.794C129.428 14.3405 130.883 13.5518 132.683 13.5518C132.905 13.5518 133.152 13.5518 133.296 13.6015V16.8307C132.882 16.6937 132.449 16.627 132.013 16.6333C129.819 16.6333 128.537 17.767 128.537 19.8364L128.541 26.115Z"/>
<path d="M141.023 23.3333C141.484 23.3316 141.942 23.2567 142.379 23.1114V26.0675C141.706 26.2555 141.011 26.3551 140.311 26.3635C137.697 26.3635 135.774 25.3529 135.774 21.9042V16.6775H133.999V13.7972H135.774V10.1511H139.35V13.7972H142.383V16.6775H139.35V21.703C139.346 22.8391 139.864 23.3333 141.023 23.3333Z"/>
<path d="M142.958 19.9563C142.958 16.1626 145.695 13.5508 149.369 13.5508C153.043 13.5508 155.781 16.1626 155.781 19.9563C155.781 23.7501 153.043 26.3619 149.369 26.3619C145.695 26.3619 142.958 23.7501 142.958 19.9563ZM152.3 19.9563C152.3 18.0101 151.067 16.7287 149.366 16.7287C147.689 16.7287 146.431 18.0101 146.431 19.9563C146.431 21.8781 147.689 23.1832 149.366 23.1832C151.071 23.1802 152.305 21.8796 152.305 19.9563H152.3Z"/>
<path d="M156.623 19.9563C156.623 16.1626 159.361 13.5508 163.035 13.5508C166.709 13.5508 169.446 16.1626 169.446 19.9563C169.446 23.7501 166.709 26.3619 163.035 26.3619C159.361 26.3619 156.623 23.7501 156.623 19.9563ZM165.965 19.9563C165.965 18.0101 164.732 16.7287 163.031 16.7287C161.354 16.7287 160.097 18.0101 160.097 19.9563C160.097 21.8781 161.354 23.1832 163.031 23.1832C164.736 23.1802 165.969 21.8796 165.969 19.9563H165.965Z"/>
<path d="M171.021 26.1148V7.63794H174.597V26.1148H171.021Z"/>
<path d="M181.775 26.3619C178.594 26.3619 176.177 24.7852 176.177 22.0502H179.63C179.63 23.2574 180.542 23.8488 181.75 23.8488C182.835 23.8488 183.501 23.4548 183.501 22.6661C183.501 20.2516 176.399 22.4197 176.399 17.3445C176.399 14.9798 178.569 13.5508 181.405 13.5508C184.462 13.5508 186.78 15.3738 186.78 17.714H183.328C183.328 16.7784 182.514 16.0639 181.429 16.0639C180.468 16.0639 179.802 16.4824 179.802 17.1724C179.802 19.365 187 17.3698 187 22.4694C187.002 24.9083 184.759 26.3619 181.775 26.3619Z"/>
</svg>
