<svg width="64" height="64" viewBox="0 0 64 64" fill="none" xmlns="http://www.w3.org/2000/svg">
<path d="M32 64C49.8286 64 64 49.8286 64 32C64 28.8 63.5429 25.6 62.6286 22.4C58.5143 9.6 46.1714 0 32 0C14.1714 0 0 14.1714 0 32C0 35.2 0.457143 38.4 1.37143 41.6C5.48571 54.4 17.8286 64 32 64ZM21.4857 25.1429C21.4857 19.2 26.0571 14.6286 32 14.6286C34.7429 14.6286 37.4857 16 39.3143 17.8286C41.1429 19.6571 42.5143 22.4 42.5143 25.1429C42.5143 27.8857 41.6 30.1714 39.7714 32L46.1714 48H17.3714L23.7714 32C22.4 30.1714 21.4857 27.8857 21.4857 25.1429Z" fill="black"/>
</svg>
