<svg width="240" height="160" viewBox="0 0 240 160" fill="none" xmlns="http://www.w3.org/2000/svg">
<rect x="0.5" y="0.5" width="239" height="159" rx="3.5" fill="black" stroke="#E0E0E0"/>
<rect x="32" y="16" width="176" height="14" rx="2" fill="white" fill-opacity="0.1"/>
<rect x="35" y="20" width="26" height="6" rx="2" fill="#8958E1"/>
<rect x="179" y="21" width="26" height="4" rx="2" fill="white" fill-opacity="0.1"/>
<rect x="67" y="21" width="20" height="4" rx="2" fill="white" fill-opacity="0.1"/>
<rect x="90" y="21" width="20" height="4" rx="2" fill="white" fill-opacity="0.1"/>
<rect x="113" y="21" width="20" height="4" rx="2" fill="white" fill-opacity="0.1"/>
<rect x="32" y="38" width="26" height="15" rx="2" fill="white" fill-opacity="0.1"/>
<rect x="32" y="61" width="52" height="83" rx="2" fill="white" fill-opacity="0.1"/>
<circle cx="40" cy="72" r="4" fill="white" fill-opacity="0.22"/>
<circle cx="172" cy="23" r="4" fill="white" fill-opacity="0.22"/>
<circle cx="40" cy="84" r="4" fill="white" fill-opacity="0.22"/>
<circle cx="40" cy="96" r="4" fill="white" fill-opacity="0.22"/>
<circle cx="40" cy="108" r="4" fill="white" fill-opacity="0.22"/>
<circle cx="40" cy="120" r="4" fill="white" fill-opacity="0.22"/>
<rect x="36" y="132" width="44" height="8" rx="2" fill="white" fill-opacity="0.1"/>
<rect x="48" y="68" width="32" height="8" rx="2" fill="white" fill-opacity="0.1"/>
<rect x="48" y="80" width="32" height="8" rx="2" fill="white" fill-opacity="0.1"/>
<rect x="48" y="92" width="32" height="8" rx="2" fill="white" fill-opacity="0.1"/>
<rect x="48" y="104" width="32" height="8" rx="2" fill="white" fill-opacity="0.1"/>
<rect x="48" y="116" width="32" height="8" rx="2" fill="white" fill-opacity="0.1"/>
<rect x="92" y="61" width="116" height="39" rx="2" fill="white" fill-opacity="0.1"/>
<circle cx="150" cy="77" r="8" fill="white" fill-opacity="0.22"/>
<rect x="92" y="106" width="116" height="38" rx="2" fill="white" fill-opacity="0.1"/>
<rect x="92" y="38" width="26" height="15" rx="2" fill="white" fill-opacity="0.1"/>
<rect x="152" y="38" width="26" height="15" rx="2" fill="white" fill-opacity="0.1"/>
<rect x="62" y="38" width="26" height="15" rx="2" fill="white" fill-opacity="0.1"/>
<rect x="122" y="38" width="26" height="15" rx="2" fill="white" fill-opacity="0.1"/>
<rect x="182" y="38" width="26" height="15" rx="2" fill="white" fill-opacity="0.1"/>
<rect x="132" y="88" width="36" height="4" rx="2" fill="white" fill-opacity="0.1"/>
<rect x="95" y="109" width="20" height="4" rx="2" fill="white" fill-opacity="0.1"/>
<rect x="95" y="118" width="54" height="10" rx="2" fill="white" fill-opacity="0.22"/>
<rect x="95" y="131" width="54" height="10" rx="2" fill="white" fill-opacity="0.22"/>
<rect x="152" y="118" width="53" height="10" rx="2" fill="white" fill-opacity="0.22"/>
<rect x="152" y="131" width="53" height="10" rx="2" fill="white" fill-opacity="0.22"/>
</svg>
