<svg id="_4_ULT" data-name="4 ULT" xmlns="http://www.w3.org/2000/svg" xmlns:xlink="http://www.w3.org/1999/xlink" viewBox="0 0 1508.55 1753.63"><defs><style>.cls-1{fill:#1d1744;}.cls-2{fill:none;}.cls-3{fill:url(#linear-gradient);}.cls-4{fill:url(#linear-gradient-2);}.cls-5{fill:url(#linear-gradient-3);}.cls-6{fill:url(#linear-gradient-4);}.cls-7{clip-path:url(#clip-path);}.cls-8{fill:#060611;}.cls-9{fill:#3b226b;}.cls-10{fill:url(#linear-gradient-5);}.cls-11{fill:url(#linear-gradient-6);}.cls-12{clip-path:url(#clip-path-2);}.cls-13{fill:#b15af8;}</style><linearGradient id="linear-gradient" x1="532.38" y1="1852.81" x2="806.19" y2="1265.63" gradientUnits="userSpaceOnUse"><stop offset="0" stop-color="#00ecd2"/><stop offset="0.09" stop-color="#2abed7"/><stop offset="0.19" stop-color="#5392db"/><stop offset="0.27" stop-color="#7072de"/><stop offset="0.35" stop-color="#835fe0"/><stop offset="0.4" stop-color="#8958e1"/></linearGradient><linearGradient id="linear-gradient-2" x1="1466.95" y1="1852.81" x2="1193.15" y2="1265.63" xlink:href="#linear-gradient"/><linearGradient id="linear-gradient-3" x1="999.67" y1="1729.45" x2="999.67" y2="220.91" gradientUnits="userSpaceOnUse"><stop offset="0" stop-color="#060611"/><stop offset="0.79" stop-color="#3b226b"/></linearGradient><linearGradient id="linear-gradient-4" x1="1287.63" y1="1287.63" x2="220.92" y2="220.92" gradientUnits="userSpaceOnUse"><stop offset="0" stop-color="#b35af9"/><stop offset="0.25" stop-color="#8958e1"/><stop offset="0.75" stop-color="#b35af9"/><stop offset="1" stop-color="#8958e1"/></linearGradient><clipPath id="clip-path" transform="translate(-245.39 -176.38)"><circle class="cls-1" cx="999.67" cy="930.66" r="620.7" transform="translate(-365.28 979.45) rotate(-45)"/></clipPath><linearGradient id="linear-gradient-5" x1="754.28" y1="1245.6" x2="754.28" y2="262.95" xlink:href="#linear-gradient-3"/><linearGradient id="linear-gradient-6" x1="1312.5" y1="1243.49" x2="686.84" y2="617.83" gradientTransform="translate(950.87 -434.29) rotate(45)" gradientUnits="userSpaceOnUse"><stop offset="0.09" stop-color="#8958e1"/><stop offset="1" stop-color="#b35af9"/></linearGradient><clipPath id="clip-path-2" transform="translate(-245.39 -176.38)"><path class="cls-2" d="M1161.89,1010.34C1211,966,1242.08,902,1242.08,830.58c0-133.88-108.53-242.41-242.41-242.41S757.26,696.7,757.26,830.58c0,71.41,31.06,135.4,80.19,179.76L715.1,1227.57h569.14Z"/></clipPath></defs><path class="cls-3" d="M813.08,1268.89h0c-100.83-49.3-222.55-7.53-271.86,93.3l-184.5,377.29a21.36,21.36,0,0,0,15.49,30.41l174.32,30.6a21.34,21.34,0,0,1,10.64,5.21l131.2,118.79a21.34,21.34,0,0,0,33.5-6.44l184.5-377.3C955.68,1439.91,913.91,1318.19,813.08,1268.89Z" transform="translate(-245.39 -176.38)"/><path class="cls-4" d="M1186.25,1268.89h0c100.84-49.3,222.55-7.53,271.86,93.3l184.5,377.29a21.35,21.35,0,0,1-15.49,30.41l-174.32,30.6a21.38,21.38,0,0,0-10.64,5.21L1311,1924.48a21.35,21.35,0,0,1-33.51-6.44L1093,1540.74C1043.65,1439.91,1085.42,1318.19,1186.25,1268.89Z" transform="translate(-245.39 -176.38)"/><path class="cls-5" d="M1752.6,930.66c-23-395.85-351.31-709.75-752.93-709.75S269.78,534.81,246.73,930.66h-1.34v36.25c0,435.87,365.13,787.31,800.21,761.17,395.18-23.74,708.34-351.75,708.34-752.9V930.66Z" transform="translate(-245.39 -176.38)"/><circle class="cls-6" cx="754.27" cy="754.27" r="754.27"/><circle class="cls-1" cx="999.67" cy="930.66" r="620.7" transform="translate(-610.67 803.07) rotate(-45)"/><g class="cls-7"><circle class="cls-8" cx="999.67" cy="930.66" r="620.7" transform="translate(-610.67 803.07) rotate(-45)"/><circle class="cls-9" cx="999.67" cy="975.18" r="620.7" transform="translate(-642.15 816.11) rotate(-45)"/></g><ellipse class="cls-10" cx="754.27" cy="754.27" rx="442.61" ry="491.33"/><circle class="cls-11" cx="999.67" cy="930.66" r="442.61" transform="translate(-610.67 803.07) rotate(-45)"/><g class="cls-12"><path class="cls-8" d="M1161.89,1010.34C1211,966,1242.08,902,1242.08,830.58c0-133.88-108.53-242.41-242.41-242.41S757.26,696.7,757.26,830.58c0,71.41,31.06,135.4,80.19,179.76L715.1,1227.57h569.14Z" transform="translate(-245.39 -176.38)"/><path class="cls-9" d="M1161.89,1010.34C1211,966,1242.08,955.42,1242.08,884c0-133.88-108.53-242.41-242.41-242.41S757.26,750.13,757.26,884c0,71.41,31.06,82,80.19,126.33L759.62,1281h480.1Z" transform="translate(-245.39 -176.38)"/></g><path class="cls-8" d="M1084.4,830.58a95.68,95.68,0,0,0-169.46,0h-11V875.1a95.75,95.75,0,0,0,191.5,0V830.58Z" transform="translate(-245.39 -176.38)"/><path class="cls-13" d="M999.67,926.33a95.75,95.75,0,1,1,95.75-95.75A95.75,95.75,0,0,1,999.67,926.33Z" transform="translate(-245.39 -176.38)"/></svg>