<svg width="26" height="26" viewBox="0 0 26 26" fill="none" xmlns="http://www.w3.org/2000/svg">
<path d="M10.1552 15.9431C8.618 15.193 6.76232 15.8286 6.01056 17.3624L3.19795 23.102C3.11833 23.2624 3.1857 23.4579 3.348 23.5358C3.37556 23.5496 3.40465 23.5587 3.43527 23.5633L6.09324 24.0293C6.15295 24.04 6.2096 24.0675 6.25553 24.1087L8.25513 25.916C8.38834 26.0367 8.5935 26.026 8.71446 25.8931C8.73436 25.8702 8.75274 25.8457 8.76499 25.8182L11.5776 20.0786C12.3294 18.5448 11.6924 16.6933 10.1552 15.9431Z" fill="url(#paint0_linear_511_1898)"/>
<path d="M15.8447 15.9431C17.382 15.193 19.2376 15.8286 19.9894 17.3624L22.802 23.102C22.8816 23.2624 22.8143 23.4579 22.652 23.5358C22.6244 23.5496 22.5953 23.5587 22.5647 23.5633L19.9067 24.0293C19.847 24.04 19.7904 24.0675 19.7444 24.1087L17.7433 25.916C17.6101 26.0367 17.4049 26.026 17.284 25.8931C17.2641 25.8702 17.2457 25.8457 17.2334 25.8182L14.4224 20.0786C13.6706 18.5448 14.3075 16.6933 15.8447 15.9431Z" fill="url(#paint1_linear_511_1898)"/>
<path d="M13 22.9491C19.3513 22.9491 24.5 17.8118 24.5 11.4746C24.5 5.13734 19.3513 0 13 0C6.64873 0 1.5 5.13734 1.5 11.4746C1.5 17.8118 6.64873 22.9491 13 22.9491Z" fill="url(#paint2_linear_511_1898)"/>
<path d="M13 20.9173C18.2267 20.9173 22.4637 16.6897 22.4637 11.4746C22.4637 6.25951 18.2267 2.03186 13 2.03186C7.7734 2.03186 3.53638 6.25951 3.53638 11.4746C3.53638 16.6897 7.7734 20.9173 13 20.9173Z" fill="url(#paint3_linear_511_1898)"/>
<path d="M13 22.06C18.8938 22.06 23.6717 17.2927 23.6717 11.4119C23.6717 5.5311 18.8938 0.763794 13 0.763794C7.10618 0.763794 2.32831 5.5311 2.32831 11.4119C2.32831 17.2927 7.10618 22.06 13 22.06Z" fill="#303030"/>
<path d="M13 18.2087C16.7274 18.2087 19.749 15.1937 19.749 11.4746C19.749 7.75544 16.7274 4.74048 13 4.74048C9.27262 4.74048 6.25098 7.75544 6.25098 11.4746C6.25098 15.1937 9.27262 18.2087 13 18.2087Z" fill="url(#paint4_linear_511_1898)"/>
<path d="M14.0442 6.32922H11.9558C10.0986 6.32922 9.17078 7.25501 9.17078 9.10811V9.31588L11.3985 9.4549V9.10811C11.3985 8.55203 11.5838 8.27399 11.9558 8.27399H14.0442C14.4163 8.27399 14.6015 8.55203 14.6015 9.10811V9.38616C14.6015 9.94224 14.4163 10.2203 14.0442 10.2203H11.9558C10.0986 10.2203 9.17078 11.1461 9.17078 12.9992V16.0561H16.8308V13.0679L14.6031 12.9289V14.1098H11.3985V12.9976C11.3985 12.4416 11.5838 12.1635 11.9558 12.1635H14.0442C15.9014 12.1635 16.8293 11.2377 16.8293 9.38463V9.10811C16.8308 7.25501 15.9014 6.32922 14.0442 6.32922Z" fill="#303030"/>
<defs>
<linearGradient id="paint0_linear_511_1898" x1="5.8757" y1="24.8262" x2="10.0349" y2="15.887" gradientUnits="userSpaceOnUse">
<stop offset="0.06" stop-color="#A031F7"/>
<stop offset="0.55" stop-color="#53059E"/>
</linearGradient>
<linearGradient id="paint1_linear_511_1898" x1="20.1248" y1="24.8266" x2="15.9654" y2="15.8869" gradientUnits="userSpaceOnUse">
<stop offset="0.06" stop-color="#A031F7"/>
<stop offset="0.55" stop-color="#53059E"/>
</linearGradient>
<linearGradient id="paint2_linear_511_1898" x1="13.0003" y1="22.9498" x2="13.0003" y2="0" gradientUnits="userSpaceOnUse">
<stop stop-color="#9D9D9C"/>
<stop offset="1" stop-color="#EDEDED"/>
</linearGradient>
<linearGradient id="paint3_linear_511_1898" x1="3.53643" y1="11.4749" x2="22.464" y2="11.4749" gradientUnits="userSpaceOnUse">
<stop stop-color="#BF3413"/>
<stop offset="1" stop-color="#EA4E00"/>
</linearGradient>
<linearGradient id="paint4_linear_511_1898" x1="13.0002" y1="18.2084" x2="13.0002" y2="4.74141" gradientUnits="userSpaceOnUse">
<stop stop-color="#9D9D9C"/>
<stop offset="1" stop-color="#EDEDED"/>
</linearGradient>
</defs>
</svg>
