<svg width="26" height="26" viewBox="0 0 26 26" fill="none" xmlns="http://www.w3.org/2000/svg">
<path d="M10.1552 15.9431C8.61803 15.193 6.76235 15.8285 6.01059 17.3623L3.19798 23.1019C3.11836 23.2623 3.18573 23.4579 3.34803 23.5358C3.37559 23.5495 3.40468 23.5587 3.4353 23.5633L6.09327 24.0292C6.15298 24.0399 6.20963 24.0674 6.25556 24.1087L8.25516 25.9159C8.38837 26.0366 8.59353 26.0259 8.71449 25.893C8.73439 25.8701 8.75277 25.8457 8.76502 25.8182L11.5776 20.0786C12.3294 18.5448 11.6925 16.6932 10.1552 15.9431Z" fill="url(#paint0_linear_511_1910)"/>
<path d="M15.8448 15.9431C17.382 15.193 19.2377 15.8285 19.9894 17.3623L22.802 23.1019C22.8817 23.2623 22.8143 23.4579 22.652 23.5358C22.6244 23.5495 22.5953 23.5587 22.5647 23.5633L19.9067 24.0292C19.847 24.0399 19.7904 24.0674 19.7445 24.1087L17.7433 25.9159C17.6101 26.0366 17.405 26.0259 17.284 25.893C17.2641 25.8701 17.2457 25.8457 17.2335 25.8182L14.4224 20.0786C13.6706 18.5448 14.3076 16.6932 15.8448 15.9431Z" fill="url(#paint1_linear_511_1910)"/>
<path d="M13 22.9491C19.3513 22.9491 24.5 17.8118 24.5 11.4746C24.5 5.13734 19.3513 0 13 0C6.64873 0 1.5 5.13734 1.5 11.4746C1.5 17.8118 6.64873 22.9491 13 22.9491Z" fill="url(#paint2_linear_511_1910)"/>
<path d="M13 20.9173C18.2266 20.9173 22.4637 16.6897 22.4637 11.4746C22.4637 6.25951 18.2266 2.03186 13 2.03186C7.77337 2.03186 3.53635 6.25951 3.53635 11.4746C3.53635 16.6897 7.77337 20.9173 13 20.9173Z" fill="url(#paint3_linear_511_1910)"/>
<path d="M13 22.06C18.8938 22.06 23.6717 17.2927 23.6717 11.4119C23.6717 5.53116 18.8938 0.763855 13 0.763855C7.10618 0.763855 2.32831 5.53116 2.32831 11.4119C2.32831 17.2927 7.10618 22.06 13 22.06Z" fill="#7F1800"/>
<path d="M13 18.2087C16.7274 18.2087 19.749 15.1937 19.749 11.4746C19.749 7.75544 16.7274 4.74048 13 4.74048C9.27262 4.74048 6.25098 7.75544 6.25098 11.4746C6.25098 15.1937 9.27262 18.2087 13 18.2087Z" fill="url(#paint4_linear_511_1910)"/>
<path d="M16.8308 9.39077C16.8308 7.53767 15.9029 6.61188 14.0457 6.61188H11.9558C10.0986 6.61188 9.17075 7.53767 9.17075 9.39077V9.59854L11.3985 9.73756V9.39077C11.3985 8.83468 11.5837 8.55664 11.9558 8.55664H14.0442C14.4163 8.55664 14.6015 8.83468 14.6015 9.39077V9.66881C14.6015 10.2249 14.4163 10.5029 14.0442 10.5029H11.9558V12.4477H14.0442C14.4163 12.4477 14.6015 12.7257 14.6015 13.2818V13.5599C14.6015 14.116 14.4163 14.394 14.0442 14.394H11.9558C11.5837 14.394 11.3985 14.116 11.3985 13.5599V13.2131L9.17075 13.3506V13.5583C9.17075 15.4114 10.0986 16.3372 11.9558 16.3372H14.0442C15.9014 16.3372 16.8292 15.4114 16.8292 13.5583V13.2803C16.8292 12.5256 16.6731 11.9237 16.3623 11.4746C16.6731 11.0254 16.8292 10.4235 16.8292 9.66881V9.39077H16.8308Z" fill="#7F1800"/>
<defs>
<linearGradient id="paint0_linear_511_1910" x1="5.87573" y1="24.8262" x2="10.035" y2="15.8869" gradientUnits="userSpaceOnUse">
<stop offset="0.06" stop-color="#A031F7"/>
<stop offset="0.55" stop-color="#53059E"/>
</linearGradient>
<linearGradient id="paint1_linear_511_1910" x1="20.1248" y1="24.8265" x2="15.9654" y2="15.8868" gradientUnits="userSpaceOnUse">
<stop offset="0.06" stop-color="#A031F7"/>
<stop offset="0.55" stop-color="#53059E"/>
</linearGradient>
<linearGradient id="paint2_linear_511_1910" x1="13.0003" y1="22.9498" x2="13.0003" y2="0" gradientUnits="userSpaceOnUse">
<stop stop-color="#FF8500"/>
<stop offset="1" stop-color="#F9CF00"/>
</linearGradient>
<linearGradient id="paint3_linear_511_1910" x1="3.5364" y1="11.4749" x2="22.464" y2="11.4749" gradientUnits="userSpaceOnUse">
<stop stop-color="#BF3413"/>
<stop offset="1" stop-color="#EA4E00"/>
</linearGradient>
<linearGradient id="paint4_linear_511_1910" x1="13.0002" y1="18.2084" x2="13.0002" y2="4.74141" gradientUnits="userSpaceOnUse">
<stop stop-color="#FF8500"/>
<stop offset="1" stop-color="#FFE757"/>
</linearGradient>
</defs>
</svg>
