<svg width="26" height="26" viewBox="0 0 26 26" fill="none" xmlns="http://www.w3.org/2000/svg">
<path d="M10.1552 15.9431C8.61803 15.193 6.76235 15.8285 6.01059 17.3623L3.19798 23.1019C3.11836 23.2623 3.18573 23.4579 3.34803 23.5358C3.37559 23.5495 3.40468 23.5587 3.4353 23.5633L6.09327 24.0292C6.15298 24.0399 6.20963 24.0674 6.25556 24.1087L8.25516 25.9159C8.38837 26.0366 8.59353 26.0259 8.71449 25.893C8.73439 25.8701 8.75277 25.8457 8.76502 25.8182L11.5776 20.0786C12.3294 18.5448 11.6925 16.6932 10.1552 15.9431Z" fill="url(#paint0_linear_285_461)"/>
<path d="M15.8447 15.9431C17.382 15.193 19.2376 15.8285 19.9894 17.3623L22.802 23.1019C22.8816 23.2623 22.8143 23.4579 22.652 23.5358C22.6244 23.5495 22.5953 23.5587 22.5647 23.5633L19.9067 24.0292C19.847 24.0399 19.7904 24.0674 19.7444 24.1087L17.7433 25.9159C17.6101 26.0366 17.4049 26.0259 17.284 25.893C17.2641 25.8701 17.2457 25.8457 17.2334 25.8182L14.4224 20.0786C13.6706 18.5448 14.3075 16.6932 15.8447 15.9431Z" fill="url(#paint1_linear_285_461)"/>
<path d="M13 22.9491C19.3513 22.9491 24.5 17.8118 24.5 11.4746C24.5 5.13734 19.3513 0 13 0C6.64873 0 1.5 5.13734 1.5 11.4746C1.5 17.8118 6.64873 22.9491 13 22.9491Z" fill="url(#paint2_linear_285_461)"/>
<path d="M13 20.9173C18.2266 20.9173 22.4636 16.6896 22.4636 11.4746C22.4636 6.2595 18.2266 2.03185 13 2.03185C7.77337 2.03185 3.53635 6.2595 3.53635 11.4746C3.53635 16.6896 7.77337 20.9173 13 20.9173Z" fill="url(#paint3_linear_285_461)"/>
<path d="M13 22.06C18.8938 22.06 23.6717 17.2927 23.6717 11.4119C23.6717 5.53115 18.8938 0.76384 13 0.76384C7.10621 0.76384 2.32834 5.53115 2.32834 11.4119C2.32834 17.2927 7.10621 22.06 13 22.06Z" fill="#3A1F1B"/>
<path d="M13 18.2087C16.7274 18.2087 19.749 15.1937 19.749 11.4746C19.749 7.75544 16.7274 4.74048 13 4.74048C9.27262 4.74048 6.25098 7.75544 6.25098 11.4746C6.25098 15.1937 9.27262 18.2087 13 18.2087Z" fill="url(#paint4_linear_285_461)"/>
<path d="M10.5518 8.34888H11.8946V16.6871H14.2815V6.26357H12.6417C11.4873 6.26357 10.5518 7.19699 10.5518 8.34888Z" fill="#3A1F1B"/>
<defs>
<linearGradient id="paint0_linear_285_461" x1="5.87573" y1="24.8262" x2="10.035" y2="15.8869" gradientUnits="userSpaceOnUse">
<stop offset="0.06" stop-color="#A031F7"/>
<stop offset="0.55" stop-color="#53059E"/>
</linearGradient>
<linearGradient id="paint1_linear_285_461" x1="20.1248" y1="24.8265" x2="15.9654" y2="15.8868" gradientUnits="userSpaceOnUse">
<stop offset="0.06" stop-color="#A031F7"/>
<stop offset="0.55" stop-color="#53059E"/>
</linearGradient>
<linearGradient id="paint2_linear_285_461" x1="13.0003" y1="22.9498" x2="13.0003" y2="0" gradientUnits="userSpaceOnUse">
<stop stop-color="#B8623C"/>
<stop offset="1" stop-color="#E6BF99"/>
</linearGradient>
<linearGradient id="paint3_linear_285_461" x1="3.5364" y1="11.4749" x2="22.464" y2="11.4749" gradientUnits="userSpaceOnUse">
<stop stop-color="#BF3413"/>
<stop offset="1" stop-color="#EA4E00"/>
</linearGradient>
<linearGradient id="paint4_linear_285_461" x1="13.0002" y1="18.2084" x2="13.0002" y2="4.74141" gradientUnits="userSpaceOnUse">
<stop stop-color="#B8623C"/>
<stop offset="1" stop-color="#E6BF99"/>
</linearGradient>
</defs>
</svg>
