<svg width="10" height="10" viewBox="0 0 10 10" fill="none" xmlns="http://www.w3.org/2000/svg">
<path d="M4.69602 0.0852194L0.150568 3.06015C0.0539773 3.12419 0 3.21303 0 3.30599V4.6695C0 4.79966 0.105114 4.91742 0.269886 4.97113C0.434659 5.02484 0.625 5.00212 0.758523 4.91535L5 2.13875L9.24148 4.91535C9.375 5.00212 9.56818 5.02484 9.73011 4.97113C9.89489 4.91742 10 4.79966 10 4.6695V3.30599C10 3.21303 9.94318 3.12419 9.84943 3.06015L5.30398 0.0852194C5.13068 -0.0284065 4.86932 -0.0284065 4.69602 0.0852194Z"/>
<path d="M4.69602 5.08522L0.150568 8.06015C0.0539773 8.12419 0 8.21303 0 8.30599V9.6695C0 9.79966 0.105114 9.91742 0.269886 9.97113C0.434659 10.0248 0.625 10.0021 0.758523 9.91535L5 7.13875L9.24148 9.91535C9.375 10.0021 9.56818 10.0248 9.73011 9.97113C9.89489 9.91742 10 9.79966 10 9.6695V8.30599C10 8.21303 9.94318 8.12419 9.84943 8.06015L5.30398 5.08522C5.13068 4.97159 4.86932 4.97159 4.69602 5.08522Z"/>
</svg>
