<svg width="601" height="598" viewBox="0 0 601 598" fill="none" xmlns="http://www.w3.org/2000/svg">
<path d="M376.983 298.659C392.01 281.09 401.013 258.876 401.013 234.037C401.013 206.505 389.709 181.666 371.704 163.76C353.36 145.518 328.721 134.613 301.036 134.613C245.734 134.613 201.06 179.04 201.06 234.037C201.06 258.876 210.063 281.09 225.022 298.659H1.10645C1.10645 133.939 135.401 0.386719 301.036 0.386719C466.671 0.386719 600.966 133.939 600.966 298.659H376.983Z" fill="#00ECD2"/>
<path d="M600.825 298.794C600.825 463.514 466.53 597.067 300.896 597.067C135.261 597.067 0.96582 463.514 0.96582 298.794H224.881L164.908 447.897H436.815L376.843 298.794H600.825Z" fill="#8958E1"/>
</svg>
