<svg width="82" height="18" viewBox="0 0 82 18" fill="none" xmlns="http://www.w3.org/2000/svg">
<path fill-rule="evenodd" clip-rule="evenodd" d="M6.41799 15.673C7.03247 15.673 7.64696 15.5361 8.19317 15.3308L9.35387 17.1103C8.32973 17.6578 7.2373 17.9316 6.0766 17.9316C2.59451 17.9316 0 15.6046 0 11.9087C0.0682764 8.21293 2.73106 5.88593 6.14488 5.88593C7.37386 5.88593 8.26145 6.1597 9.21732 6.63878L8.1249 8.48669C7.57868 8.28137 6.9642 8.14449 6.34971 8.14449C4.30142 8.14449 2.66278 9.44487 2.66278 11.9087C2.66278 14.2357 4.23314 15.673 6.41799 15.673ZM15.2939 5.88593C18.7077 5.88593 21.234 8.34981 21.234 11.9087C21.234 15.4677 18.776 17.9316 15.2939 17.9316C11.8801 17.9316 9.42215 15.4677 9.42215 11.9087C9.35387 8.34981 11.8801 5.88593 15.2939 5.88593ZM15.2939 8.07605C13.3822 8.07605 11.9484 9.58175 11.9484 11.9087C11.9484 14.2357 13.3139 15.7414 15.2939 15.7414C17.2739 15.7414 18.6395 14.2357 18.6395 11.9772C18.6395 9.58175 17.2057 8.07605 15.2939 8.07605ZM22.8043 17.6578V6.1597H25.3988V17.6578H22.8043ZM22.4629 2.60076C22.5312 1.71103 23.2823 1.02662 24.1699 1.09506C24.9892 1.1635 25.6037 1.77947 25.6719 2.60076C25.6719 3.49049 24.9892 4.24335 24.1016 4.24335C23.214 4.24335 22.5312 3.49049 22.4629 2.60076ZM27.652 6.91255C29.3589 6.29658 31.1341 5.95437 32.9092 5.95437C35.8451 5.95437 37.6886 7.04943 37.6886 10.3346V17.7262H35.1624V10.4715C35.1624 8.8289 34.1382 8.21293 32.7044 8.21293C31.8168 8.21293 30.8609 8.34981 30.1782 8.55513V17.6578H27.5837L27.652 6.91255ZM39.8734 0H42.3997V6.43346C42.9459 6.1597 43.97 5.88593 44.9942 5.88593C48.3397 5.88593 50.7977 8.00761 50.7977 11.7034C50.7977 15.3992 48.3397 17.9316 44.1066 17.9316C42.4679 17.9316 40.9659 17.5894 39.8052 17.1787V0H39.8734ZM42.3997 15.4677C42.8776 15.6046 43.5604 15.7414 44.1749 15.7414C46.4963 15.7414 48.2032 14.4411 48.2032 11.7719C48.2032 9.51331 46.6328 8.21293 44.6528 8.21293C43.6286 8.21293 42.8776 8.48669 42.3314 8.76046C42.3997 8.76046 42.3997 15.4677 42.3997 15.4677ZM58.2398 9.92395C58.2398 8.69202 57.2839 8.07605 56.055 8.07605C54.7577 8.07605 53.7336 8.48669 52.7777 9.03422V6.84411C53.9384 6.22814 55.2356 5.88593 56.5329 5.88593C59.0591 5.88593 60.8343 6.91255 60.8343 9.78707V17.384C59.7419 17.6578 58.1715 17.8631 56.8743 17.8631C53.8701 17.8631 51.6853 16.9734 51.6853 14.3726C51.6853 12.0456 53.6653 10.8821 57.0108 10.8821H58.3081L58.2398 9.92395ZM58.2398 12.5932H57.1474C55.3722 12.5932 54.2115 13.1407 54.2115 14.3042C54.2115 15.4677 55.3039 15.9468 56.8743 15.9468C57.2839 15.9468 57.8301 15.8783 58.3081 15.8099L58.2398 12.5932ZM62.6095 14.5779C63.6336 15.3992 64.8626 15.8099 66.0916 15.8783C67.2523 15.8783 68.0033 15.4677 68.0033 14.5779C68.0033 13.6198 67.3206 13.2776 65.8185 12.9354C63.4288 12.3878 62.4047 11.4297 62.4047 9.44487C62.4047 7.11787 64.1798 5.95437 66.5013 5.95437C67.7985 5.95437 68.8226 6.22814 69.7785 6.84411V9.1711C68.8909 8.41825 67.7302 8.0076 66.5695 8.0076C65.4771 8.0076 64.8626 8.55513 64.8626 9.30799C64.8626 10.0608 65.3405 10.4715 66.7061 10.8137C69.3006 11.3612 70.4613 12.3878 70.4613 14.4411C70.4613 16.8365 68.6178 17.9316 66.1599 17.9316C64.9309 17.9316 63.7019 17.6578 62.6095 16.9734V14.5779ZM74.0117 12.5247C74.1482 14.6464 75.9234 15.7414 77.6986 15.7414C79.2689 15.7414 80.4296 15.3992 81.5903 14.6464V16.9049C80.5662 17.6578 78.9958 18 77.562 18C74.0117 18 71.5537 15.7414 71.5537 12.1141C71.5537 8.41825 73.9434 6.02281 77.0841 6.02281C80.4296 6.02281 82 8.14449 82 11.2928V12.5932L74.0117 12.5247ZM79.6103 10.8137C79.542 9.03422 78.6544 8.0076 77.0158 8.0076C75.5137 8.0076 74.4213 9.03422 74.1482 10.8137H79.6103Z"/>
</svg>
