<svg width="100" height="20" viewBox="0 0 100 20" fill="none" xmlns="http://www.w3.org/2000/svg">
<path d="M0 19.9998V4.76526H2.01719L2.25136 6.40268C2.58991 5.90495 3.05824 5.46661 3.65352 5.08483C4.2488 4.70305 5.01054 4.51074 5.9472 4.51074C6.96567 4.51074 7.86565 4.75112 8.64149 5.23471C9.42016 5.7183 10.0324 6.37723 10.4781 7.21432C10.9239 8.05141 11.1468 9.00162 11.1468 10.065C11.1468 11.1283 10.9239 12.0757 10.4781 12.9043C10.0324 13.7329 9.42016 14.3862 8.64149 14.8613C7.86282 15.3364 6.95721 15.5739 5.92463 15.5739C5.10364 15.5739 4.37858 15.4099 3.74944 15.0847C3.1203 14.7595 2.62094 14.2985 2.25418 13.7018V19.9998H0ZM5.54094 13.6169C6.50298 13.6169 7.29575 13.2861 7.91925 12.6271C8.54275 11.9682 8.85308 11.1057 8.85308 10.0423C8.85308 9.34664 8.71202 8.73014 8.4299 8.18999C8.14777 7.64983 7.75844 7.22846 7.2619 6.92304C6.76536 6.61761 6.19265 6.4649 5.54376 6.4649C4.58171 6.4649 3.79176 6.7986 3.17673 7.46601C2.56169 8.13343 2.25418 8.99031 2.25418 10.0395C2.25418 11.1028 2.56169 11.9654 3.17673 12.6243C3.78894 13.2861 4.57889 13.6169 5.54094 13.6169Z"/>
<path d="M12.5854 15.3194V4.76526H14.6026L14.7945 6.76467C15.1612 6.06898 15.6747 5.52034 16.3321 5.11594C16.9894 4.71153 17.785 4.51074 18.7188 4.51074V6.87213H18.1038C17.4803 6.87213 16.9245 6.97394 16.4365 7.18039C15.9484 7.38683 15.5591 7.73468 15.2685 8.22392C14.9779 8.71317 14.834 9.39189 14.834 10.2544V15.3194H12.5854Z"/>
<path d="M24.449 15.5742C23.4446 15.5742 22.5418 15.3423 21.7434 14.8813C20.945 14.4204 20.3102 13.7756 19.8447 12.9442C19.3764 12.1156 19.145 11.1455 19.145 10.0398C19.145 8.93404 19.382 7.96403 19.856 7.13542C20.3299 6.30681 20.9704 5.6592 21.7772 5.19823C22.5841 4.73727 23.4813 4.50537 24.4715 4.50537C25.4759 4.50537 26.3787 4.73727 27.1771 5.19823C27.9755 5.6592 28.6131 6.30399 29.0871 7.13542C29.5611 7.96403 29.7981 8.93404 29.7981 10.0398C29.7981 11.1455 29.5611 12.1156 29.0871 12.9442C28.6131 13.7728 27.9727 14.4204 27.1658 14.8813C26.359 15.3423 25.4533 15.5742 24.449 15.5742ZM24.449 13.637C24.9878 13.637 25.4844 13.5013 25.9442 13.2326C26.4041 12.964 26.7765 12.5624 27.0586 12.0307C27.3408 11.499 27.4818 10.8373 27.4818 10.0426C27.4818 9.24795 27.3436 8.58619 27.0671 8.05453C26.7906 7.52286 26.4238 7.12128 25.964 6.85262C25.5041 6.58396 25.0048 6.44822 24.4687 6.44822C23.9299 6.44822 23.4333 6.58396 22.9735 6.85262C22.5136 7.12128 22.1412 7.52286 21.8591 8.05453C21.5769 8.58619 21.4359 9.25078 21.4359 10.0426C21.4359 10.8373 21.5769 11.499 21.8591 12.0307C22.1412 12.5624 22.5108 12.964 22.9622 13.2326C23.4164 13.5041 23.9129 13.637 24.449 13.637Z"/>
<path d="M31.2397 19.9998V4.76526H33.2569L33.4911 6.40268C33.8297 5.90495 34.298 5.46661 34.8933 5.08483C35.4885 4.70305 36.2503 4.51074 37.1869 4.51074C38.2054 4.51074 39.1054 4.75112 39.8812 5.23471C40.6599 5.7183 41.2721 6.37723 41.7179 7.21432C42.1636 8.05141 42.3865 9.00162 42.3865 10.065C42.3865 11.1283 42.1636 12.0757 41.7179 12.9043C41.2721 13.7329 40.6599 14.3862 39.8812 14.8613C39.1026 15.3364 38.1969 15.5739 37.1644 15.5739C36.3434 15.5739 35.6183 15.4099 34.9892 15.0847C34.36 14.7595 33.8607 14.2985 33.4939 13.7018V19.9998H31.2397ZM36.7807 13.6169C37.7427 13.6169 38.5355 13.2861 39.159 12.6271C39.7825 11.9682 40.0928 11.1057 40.0928 10.0423C40.0928 9.34664 39.9518 8.73014 39.6696 8.18999C39.3875 7.64983 38.9982 7.22846 38.5016 6.92304C38.0051 6.61761 37.4324 6.4649 36.7835 6.4649C35.8214 6.4649 35.0315 6.7986 34.4165 7.46601C33.8014 8.13343 33.4939 8.99031 33.4939 10.0395C33.4939 11.1028 33.8014 11.9654 34.4165 12.6243C35.0287 13.2861 35.8186 13.6169 36.7807 13.6169Z"/>
<path d="M48.695 15.5743C47.6624 15.5743 46.7455 15.3424 45.9471 14.8814C45.1487 14.4205 44.5223 13.7785 44.0681 12.9556C43.6139 12.1326 43.3882 11.1768 43.3882 10.0823C43.3882 8.97656 43.6111 8.00372 44.0568 7.16663C44.5026 6.32954 45.1261 5.67627 45.9245 5.20965C46.7229 4.7402 47.6539 4.5083 48.7147 4.5083C49.7473 4.5083 50.6473 4.7402 51.409 5.20116C52.1736 5.66213 52.7689 6.27581 53.1921 7.0422C53.6152 7.80859 53.8297 8.65134 53.8297 9.57327C53.8297 9.71467 53.8268 9.86738 53.8184 10.0314C53.8099 10.1954 53.8015 10.3764 53.7873 10.5744H45.5944C45.6649 11.5953 46.0007 12.373 46.6016 12.9047C47.2025 13.4363 47.8994 13.7022 48.6922 13.7022C49.3298 13.7022 49.863 13.5579 50.2946 13.2667C50.7263 12.9754 51.0479 12.5823 51.2595 12.0845H53.508C53.2259 13.0772 52.6617 13.9086 51.8209 14.5732C50.983 15.2406 49.9391 15.5743 48.695 15.5743ZM48.695 6.36065C47.9445 6.36065 47.2787 6.58406 46.7003 7.03089C46.1192 7.47771 45.7665 8.14795 45.6396 9.0416H51.5839C51.5416 8.21865 51.251 7.56538 50.715 7.08462C50.1733 6.60386 49.499 6.36065 48.695 6.36065Z"/>
<path d="M55.2231 15.3194V4.76526H57.2403L57.4322 6.76467C57.7989 6.06898 58.3124 5.52034 58.9697 5.11594C59.6271 4.71153 60.4227 4.51074 61.3565 4.51074V6.87213H60.7415C60.118 6.87213 59.5622 6.97394 59.0741 7.18039C58.586 7.38683 58.1967 7.73468 57.9061 8.22392C57.6155 8.71317 57.4717 9.39189 57.4717 10.2544V15.3194H55.2231Z"/>
<path d="M63.3713 15.3193V6.65997H61.8647V4.7652H63.3713V3.23242C63.3713 2.08424 63.6591 1.25847 64.2318 0.75508C64.8045 0.251694 65.6142 0 66.6609 0H67.764V1.91456H66.9994C66.5029 1.91456 66.1502 2.01637 65.9386 2.22282C65.727 2.42926 65.6198 2.77145 65.6198 3.25504V4.7652H68.0405V6.65997H65.6198V15.3193H63.3713Z"/>
<path d="M72.5655 15.5743C71.674 15.5743 70.9376 15.4244 70.3593 15.1275C69.7781 14.8305 69.3464 14.4346 69.0643 13.9454C68.7822 13.4561 68.6411 12.9216 68.6411 12.3391C68.6411 11.3182 69.0361 10.5093 69.8289 9.91263C70.6216 9.31592 71.7529 9.01898 73.2256 9.01898H75.9848V8.82668C75.9848 8.00372 75.7619 7.38722 75.3162 6.97433C74.8704 6.56427 74.2949 6.35782 73.5868 6.35782C72.9633 6.35782 72.4216 6.51053 71.9617 6.81596C71.5019 7.12139 71.2226 7.57104 71.1238 8.16775H68.8753C68.9458 7.40136 69.2054 6.74526 69.6511 6.19945C70.0969 5.65365 70.6639 5.2351 71.3495 4.94381C72.0351 4.65253 72.7883 4.5083 73.6093 4.5083C75.082 4.5083 76.219 4.89574 77.0259 5.66779C77.8327 6.43983 78.2362 7.49468 78.2362 8.82668V15.317H76.2839L76.092 13.5099C75.7958 14.0924 75.3641 14.5817 74.7971 14.9776C74.2272 15.3764 73.4852 15.5743 72.5655 15.5743ZM73.0112 13.7446C73.6206 13.7446 74.1313 13.6004 74.5488 13.3091C74.9663 13.0178 75.2908 12.6332 75.525 12.1496C75.7591 11.6688 75.903 11.1343 75.9594 10.5546H73.4542C72.5626 10.5546 71.9279 10.7101 71.5555 11.024C71.1802 11.3351 70.994 11.7254 70.994 12.1948C70.994 12.6784 71.1746 13.0574 71.5357 13.3345C71.8968 13.6117 72.3877 13.7446 73.0112 13.7446Z"/>
<path d="M80.042 15.319V4.76488H82.0366L82.2059 6.61723C82.5303 5.96395 83.0099 5.45208 83.6391 5.07596C84.2682 4.69983 84.9933 4.51318 85.8143 4.51318C87.0866 4.51318 88.0882 4.90911 88.8189 5.70378C89.5468 6.49845 89.9107 7.68339 89.9107 9.25576V15.319H87.6819V9.49049C87.6819 7.44866 86.8468 6.42775 85.1767 6.42775C84.3416 6.42775 83.6504 6.72469 83.1059 7.3214C82.5614 7.91811 82.2877 8.76934 82.2877 9.8751V15.3218H80.042V15.319Z"/>
<path d="M95.7959 15.5735C94.4643 15.5735 93.3696 15.2483 92.5063 14.595C91.643 13.9418 91.1493 13.0764 91.0195 11.9989H93.2906C93.4035 12.4825 93.6715 12.8954 94.0975 13.2433C94.5207 13.5911 95.0822 13.7636 95.7734 13.7636C96.4533 13.7636 96.947 13.6222 97.2602 13.3394C97.5705 13.0566 97.7285 12.7286 97.7285 12.3609C97.7285 11.8208 97.5112 11.456 97.0824 11.2665C96.6508 11.0742 96.0527 10.9017 95.2881 10.7461C94.6928 10.6189 94.1032 10.4492 93.5164 10.2343C92.9295 10.0222 92.4415 9.71956 92.0521 9.32929C91.6628 8.93902 91.4681 8.41018 91.4681 7.7456C91.4681 6.82367 91.8208 6.05445 92.5289 5.43794C93.2371 4.82144 94.2273 4.51318 95.4997 4.51318C96.6733 4.51318 97.6269 4.79599 98.3548 5.36442C99.0827 5.93285 99.5115 6.73317 99.6385 7.76823H97.4746C97.404 7.31574 97.1953 6.95941 96.8483 6.70489C96.5012 6.45037 96.0386 6.32311 95.4574 6.32311C94.8903 6.32311 94.453 6.43906 94.1427 6.67379C93.8323 6.90851 93.6743 7.20828 93.6743 7.57875C93.6743 7.94639 93.8888 8.23768 94.3204 8.44978C94.7521 8.66188 95.322 8.85418 96.0301 9.02386C96.7382 9.1794 97.3928 9.3604 97.9937 9.56684C98.5946 9.77329 99.0799 10.0731 99.4466 10.4718C99.8134 10.8677 99.9996 11.4503 99.9996 12.2167C100.014 13.181 99.6413 13.9814 98.8852 14.6205C98.1291 15.254 97.0993 15.5735 95.7959 15.5735Z"/>
</svg>
