<svg width="58" height="24" viewBox="0 0 58 24" fill="none" xmlns="http://www.w3.org/2000/svg">
<path d="M4.07611 9.40454C4.07611 8.77971 4.59167 8.53939 5.44556 8.53939C6.67 8.53939 8.21667 8.90788 9.44111 9.56475V5.79973C8.10389 5.27103 6.78278 5.06275 5.44556 5.06275C2.175 5.06275 0 6.76101 0 9.5968C0 14.0187 6.12222 13.3138 6.12222 15.2203C6.12222 15.9573 5.47778 16.1976 4.57556 16.1976C3.23833 16.1976 1.53056 15.6529 0.177222 14.9159V18.729C1.67556 19.3698 3.19 19.6422 4.57556 19.6422C7.92667 19.6422 10.2306 17.992 10.2306 15.1242C10.2144 10.3498 4.07611 11.1989 4.07611 9.40454ZM14.9672 1.85848L11.0361 2.69159L11.02 15.5247C11.02 17.8959 12.8083 19.6422 15.1928 19.6422C16.5139 19.6422 17.4806 19.4019 18.0122 19.1135V15.8611C17.4967 16.0694 14.9511 16.8064 14.9511 14.4352V8.74766H18.0122V5.33511H14.9511L14.9672 1.85848ZM23.0228 6.52069L22.765 5.33511H19.285V19.3538H23.3128V9.85314C24.2633 8.61949 25.8744 8.84379 26.3739 9.02003V5.33511C25.8583 5.14286 23.9733 4.79039 23.0228 6.52069ZM27.3567 5.33511H31.4006V19.3538H27.3567V5.33511ZM27.3567 4.11749L31.4006 3.25234V0L27.3567 0.849132V4.11749ZM39.8106 5.06275C38.2317 5.06275 37.2167 5.79973 36.6528 6.31242L36.4433 5.31909H32.8989V24L36.9267 23.1509L36.9428 18.6168C37.5228 19.0334 38.3767 19.6262 39.7944 19.6262C42.6783 19.6262 45.3044 17.3191 45.3044 12.2403C45.2883 7.59413 42.63 5.06275 39.8106 5.06275ZM38.8439 16.1015C37.8933 16.1015 37.3294 15.765 36.9428 15.3485L36.9267 9.40454C37.3456 8.93992 37.9256 8.61949 38.8439 8.61949C40.31 8.61949 41.325 10.2537 41.325 12.3525C41.325 14.4993 40.3261 16.1015 38.8439 16.1015ZM58 12.4005C58 8.29907 56.0022 5.06275 52.1839 5.06275C48.3494 5.06275 46.0294 8.29907 46.0294 12.3685C46.0294 17.1909 48.7683 19.6262 52.6994 19.6262C54.6167 19.6262 56.0667 19.1936 57.1622 18.5848V15.3805C56.0667 15.9252 54.81 16.2617 53.215 16.2617C51.6522 16.2617 50.2667 15.717 50.0894 13.8264H57.9678C57.9678 13.6182 58 12.785 58 12.4005ZM50.0411 10.8785C50.0411 9.06809 51.1528 8.31509 52.1678 8.31509C53.1506 8.31509 54.1978 9.06809 54.1978 10.8785H50.0411Z"/>
</svg>
