<svg width="70" height="18" viewBox="0 0 70 18" fill="none" xmlns="http://www.w3.org/2000/svg">
<path d="M3.52026 0.356934L6.51092 9.18375L9.43927 0.356934H12.8972L7.73626 13.4555H5.16097L0 0.356934H3.52026Z"/>
<path d="M20.6959 11.3773C22.8663 11.3773 24.0916 10.3067 25.265 8.77439C25.9088 7.94523 26.7292 7.76681 27.3211 8.23911C27.913 8.71141 27.9649 9.60354 27.3211 10.4327C25.6181 12.6893 23.4478 14.0432 20.6959 14.0432C17.7053 14.0432 15.0677 12.3849 13.2505 9.4776C12.7209 8.71141 12.8351 7.88226 13.427 7.46243C14.0085 7.04261 14.8912 7.22104 15.4208 8.05019C16.7084 10.0129 18.4633 11.3773 20.6959 11.3773ZM24.7354 4.09334C24.7354 5.16389 23.9151 5.8671 22.9805 5.8671C22.0459 5.8671 21.2255 5.1534 21.2255 4.09334C21.2255 3.03328 22.0459 2.30908 22.9805 2.30908C23.9151 2.30908 24.7354 3.08576 24.7354 4.09334Z"/>
<path d="M33.0112 0.356851V2.13061C33.8835 0.892128 35.2335 0 37.2272 0C39.7506 0 42.679 2.13061 42.679 6.69621C42.679 11.4927 39.8648 13.8017 36.9365 13.8017C35.41 13.8017 34.0081 13.214 32.9489 11.7236V18H29.7817V0.356851H33.0112ZM33.0112 6.87464C33.0112 9.54052 34.5377 10.9679 36.2407 10.9679C37.8814 10.9679 39.5222 9.66647 39.5222 6.87464C39.5222 4.14577 37.8814 2.84432 36.2407 2.84432C34.6 2.84432 33.0112 4.09329 33.0112 6.87464Z"/>
<path d="M48.245 0.356851V2.13061C49.1277 0.892128 50.4776 0 52.4714 0C54.9947 0 57.9231 2.13061 57.9231 6.69621C57.9231 11.4927 55.109 13.8017 52.1806 13.8017C50.6541 13.8017 49.2523 13.214 48.1931 11.7236V18H45.0259V0.356851H48.245ZM48.245 6.87464C48.245 9.54052 49.7715 10.9679 51.4745 10.9679C53.1152 10.9679 54.7559 9.66647 54.7559 6.87464C54.7559 4.14577 53.1152 2.84432 51.4745 2.84432C49.7715 2.84432 48.245 4.09329 48.245 6.87464Z"/>
<path d="M64.6624 0C67.3 0 69.1795 1.24898 69.9999 4.3242L67.1234 4.7965C67.0611 3.25364 66.1265 2.71837 64.7247 2.71837C63.6655 2.71837 62.8451 3.19067 62.8451 3.96735C62.8451 4.5551 63.2605 5.15335 64.4858 5.38426L66.6561 5.80408C68.7641 6.22391 69.9376 7.64082 69.9376 9.54053C69.9376 12.3848 67.4142 13.8017 65.0154 13.8017C62.4921 13.8017 59.6779 12.5003 59.2729 9.29913L62.1494 8.82682C62.3259 10.4851 63.3228 11.0834 64.9635 11.0834C66.1992 11.0834 67.0196 10.6111 67.0196 9.8344C67.0196 9.1207 66.6042 8.58542 65.2647 8.35452L63.2709 7.99767C61.1629 7.57784 59.8752 6.09796 59.8752 4.20875C59.9168 1.24898 62.5544 0 64.6624 0Z"/>
</svg>
