<svg width="16" height="16" viewBox="0 0 16 16" fill="none" xmlns="http://www.w3.org/2000/svg">
<path d="M0.175 9.29525V6.70485L2.66875 7.52696V8.47313L0.175 9.29525Z" fill="white" stroke="#F0F0F0" stroke-width="0.35"/>
<path d="M10.4876 15.3027L9.67385 12.8614L12.8614 9.67385L15.3027 10.4876L10.4876 15.3027Z" fill="white" stroke="#F0F0F0" stroke-width="0.35"/>
<path d="M5.51241 15.3027L0.697262 10.4876L3.13859 9.67385L6.32616 12.8614L5.51241 15.3027Z" fill="white" stroke="#F0F0F0" stroke-width="0.35"/>
<path d="M6.32616 3.13871L3.13859 6.32628L0.697262 5.51258L5.51235 0.697494L6.32616 3.13871Z" fill="white" stroke="#F0F0F0" stroke-width="0.35"/>
<path d="M9.29537 0.175L8.47314 2.66875H7.52696L6.70462 0.175H9.29537Z" fill="white" stroke="#F0F0F0" stroke-width="0.35"/>
<path d="M6.70461 15.825L7.52684 13.3312H8.47302L9.29524 15.825H6.70461Z" fill="white" stroke="#F0F0F0" stroke-width="0.35"/>
<path d="M15.825 9.2953L13.3312 8.47313V7.52696L15.825 6.70485V9.2953Z" fill="white" stroke="#F0F0F0" stroke-width="0.35"/>
<path d="M10.4876 0.697012L15.3028 5.51216L12.8614 6.32586L9.67385 3.13828L10.4876 0.697012Z" fill="white" stroke="#F0F0F0" stroke-width="0.35"/>
<path d="M8.67092 3.95625L12.0437 7.32908V8.67092L8.67092 12.0437H7.32908L3.95625 8.67092V7.32908L7.32908 3.95625H8.67092Z" fill="white" stroke="#F0F0F0" stroke-width="0.35"/>
</svg>
