<svg id="Layer_1" data-name="Layer 1" xmlns="http://www.w3.org/2000/svg" viewBox="0 0 41 39"><defs><style>.cls-1{fill:#5938b2;}.cls-2{fill:#7544e0;}.cls-3{fill:#9169e6;}.cls-4{fill:#6640cc;}.cls-5{fill:#8958e1;}.cls-6{fill:#fff;}.cls-7{fill:#a179e7;}</style></defs><ellipse class="cls-1" cx="20" cy="25" rx="10" ry="5"/><path class="cls-2" d="M30,29c0,2.76-4.48,5-10,5s-10-2.24-10-5V25c0,2.76,4.48,5,10,5s10-2.24,10-5Z"/><path class="cls-3" d="M20,30v4a18,18,0,0,1-5-.67v-4A18,18,0,0,0,20,30Z"/><path class="cls-4" d="M30,25v4c0,1.85-2,3.46-5,4.33v-4C28,28.46,30,26.85,30,25Z"/><ellipse class="cls-1" cx="20" cy="20" rx="10" ry="5"/><path class="cls-2" d="M30,24c0,2.76-4.48,5-10,5s-10-2.24-10-5V20c0,2.76,4.48,5,10,5s10-2.24,10-5Z"/><path class="cls-3" d="M20,25v4a18,18,0,0,1-5-.67v-4A18,18,0,0,0,20,25Z"/><path class="cls-4" d="M30,20v4c0,1.85-2,3.46-5,4.33v-4C28,23.46,30,21.85,30,20Z"/><ellipse class="cls-1" cx="20" cy="10" rx="10" ry="5"/><ellipse class="cls-1" cx="20" cy="15" rx="10" ry="5"/><ellipse class="cls-5" cx="19" cy="5" rx="10" ry="5"/><ellipse class="cls-6" cx="19" cy="5" rx="7" ry="3.5"/><ellipse class="cls-5" cx="19" cy="5" rx="6" ry="3"/><path class="cls-7" d="M20.21,8.44,19,10a18,18,0,0,1-5-.67l1.14-1.41A12.28,12.28,0,0,0,19,8.5,12,12,0,0,0,20.21,8.44Z"/><path class="cls-7" d="M25.75,1.32,24.54,2.87a9.45,9.45,0,0,0-4.28-1.31L21.39.15A14.54,14.54,0,0,1,25.75,1.32Z"/><path class="cls-2" d="M29,9c0,2.76-4.48,5-10,5S9,11.76,9,9V5c0,2.76,4.48,5,10,5S29,7.76,29,5Z"/><path class="cls-7" d="M24.11,3.43,20.65,7.88A11,11,0,0,1,19,8a10.49,10.49,0,0,1-3.48-.56L19.87,2A7.76,7.76,0,0,1,24.11,3.43Z"/><path class="cls-3" d="M19,10v4a18,18,0,0,1-5-.67v-4A18,18,0,0,0,19,10Z"/><path class="cls-6" d="M17.48,5h0A.8.8,0,0,1,17,4.35c0-.55.9-1,2-1s2,.45,2,1a.8.8,0,0,1-.48.65h0l1.2,1.5H16.28Z"/><path class="cls-4" d="M29,5V9c0,1.85-2,3.46-5,4.33v-4C27,8.46,29,6.85,29,5Z"/><path class="cls-2" d="M30,14c0,2.76-4.48,5-10,5s-10-2.24-10-5V10c0,2.76,4.48,5,10,5s10-2.24,10-5Z"/><path class="cls-3" d="M20,15v4a18,18,0,0,1-5-.67v-4A18,18,0,0,0,20,15Z"/><path class="cls-4" d="M30,10v4c0,1.85-2,3.46-5,4.33v-4C28,13.46,30,11.85,30,10Z"/><path class="cls-2" d="M30,19c0,2.76-4.48,5-10,5s-10-2.24-10-5V15c0,2.76,4.48,5,10,5s10-2.24,10-5Z"/><path class="cls-3" d="M20,20v4a18,18,0,0,1-5-.67v-4A18,18,0,0,0,20,20Z"/><path class="cls-4" d="M30,15v4c0,1.85-2,3.46-5,4.33v-4C28,18.46,30,16.85,30,15Z"/><ellipse class="cls-1" cx="31" cy="25" rx="10" ry="5"/><ellipse class="cls-1" cx="30" cy="30" rx="10" ry="5"/><ellipse class="cls-5" cx="31" cy="20" rx="10" ry="5"/><ellipse class="cls-6" cx="31" cy="20" rx="7" ry="3.5"/><ellipse class="cls-5" cx="31" cy="20" rx="6" ry="3"/><path class="cls-7" d="M32.21,23.44,31,25a18,18,0,0,1-5-.67l1.14-1.41A12.28,12.28,0,0,0,31,23.5,12,12,0,0,0,32.21,23.44Z"/><path class="cls-7" d="M37.75,16.32l-1.21,1.55a9.45,9.45,0,0,0-4.28-1.31l1.13-1.41A14.54,14.54,0,0,1,37.75,16.32Z"/><path class="cls-2" d="M41,24c0,2.76-4.48,5-10,5s-10-2.24-10-5V20c0,2.76,4.48,5,10,5s10-2.24,10-5Z"/><path class="cls-7" d="M36.11,18.43l-3.46,4.45A11,11,0,0,1,31,23a10.49,10.49,0,0,1-3.48-.56L31.87,17A7.76,7.76,0,0,1,36.11,18.43Z"/><path class="cls-3" d="M31,25v4a18,18,0,0,1-5-.67v-4A18,18,0,0,0,31,25Z"/><path class="cls-6" d="M29.48,20h0a.8.8,0,0,1-.48-.65c0-.55.9-1,2-1s2,.45,2,1a.8.8,0,0,1-.48.65h0l1.2,1.5H28.28Z"/><path class="cls-4" d="M41,20v4c0,1.85-2,3.46-5,4.33v-4C39,23.46,41,21.85,41,20Z"/><path class="cls-2" d="M41,29c0,2.76-4.48,5-10,5s-10-2.24-10-5V25c0,2.76,4.48,5,10,5s10-2.24,10-5Z"/><path class="cls-3" d="M31,30v4a18,18,0,0,1-5-.67v-4A18,18,0,0,0,31,30Z"/><path class="cls-4" d="M41,25v4c0,1.85-2,3.46-5,4.33v-4C39,28.46,41,26.85,41,25Z"/><path class="cls-2" d="M40,34c0,2.76-4.48,5-10,5s-10-2.24-10-5V30c0,2.76,4.48,5,10,5s10-2.24,10-5Z"/><path class="cls-3" d="M30,35v4a18,18,0,0,1-5-.67v-4A18,18,0,0,0,30,35Z"/><path class="cls-4" d="M40,30v4c0,1.85-2,3.46-5,4.33v-4C38,33.46,40,31.85,40,30Z"/><ellipse class="cls-1" cx="10" cy="30" rx="10" ry="5"/><ellipse class="cls-5" cx="11" cy="25" rx="10" ry="5"/><ellipse class="cls-6" cx="11" cy="25" rx="7" ry="3.5"/><ellipse class="cls-5" cx="11" cy="25" rx="6" ry="3"/><path class="cls-7" d="M12.21,28.44,11,30a18,18,0,0,1-5-.67l1.14-1.41A12.28,12.28,0,0,0,11,28.5,12,12,0,0,0,12.21,28.44Z"/><path class="cls-7" d="M17.75,21.32l-1.21,1.55a9.45,9.45,0,0,0-4.28-1.31l1.13-1.41A14.54,14.54,0,0,1,17.75,21.32Z"/><path class="cls-2" d="M21,29c0,2.76-4.48,5-10,5S1,31.76,1,29V25c0,2.76,4.48,5,10,5s10-2.24,10-5Z"/><path class="cls-7" d="M16.11,23.43l-3.46,4.45A11,11,0,0,1,11,28a10.49,10.49,0,0,1-3.48-.56L11.87,22A7.76,7.76,0,0,1,16.11,23.43Z"/><path class="cls-3" d="M11,30v4a18,18,0,0,1-5-.67v-4A18,18,0,0,0,11,30Z"/><path class="cls-6" d="M9.48,25h0A.8.8,0,0,1,9,24.35c0-.55.9-1,2-1s2,.45,2,1a.8.8,0,0,1-.48.65h0l1.2,1.5H8.28Z"/><path class="cls-4" d="M21,25v4c0,1.85-2,3.46-5,4.33v-4C19,28.46,21,26.85,21,25Z"/><path class="cls-2" d="M20,34c0,2.76-4.48,5-10,5S0,36.76,0,34V30c0,2.76,4.48,5,10,5s10-2.24,10-5Z"/><path class="cls-3" d="M10,35v4a18,18,0,0,1-5-.67v-4A18,18,0,0,0,10,35Z"/><path class="cls-4" d="M20,30v4c0,1.85-2,3.46-5,4.33v-4C18,33.46,20,31.85,20,30Z"/></svg>