<svg id="Layer_1" data-name="Layer 1" xmlns="http://www.w3.org/2000/svg" viewBox="0 0 122 93"><defs><style>.cls-1{fill:#5938b2;}.cls-2{fill:#7544e0;}.cls-3{fill:#9169e6;}.cls-4{fill:#6640cc;}.cls-5{fill:#8958e1;}.cls-6{fill:#fff;}.cls-7{fill:#a179e7;}.cls-8{fill:#00ccae;}.cls-9{fill:#00997c;}.cls-10{fill:#00ecd2;}.cls-11{fill:#00b294;}</style></defs><ellipse class="cls-1" cx="40" cy="45" rx="10" ry="5"/><path class="cls-2" d="M50,49c0,2.76-4.48,5-10,5s-10-2.24-10-5V45c0,2.76,4.48,5,10,5s10-2.24,10-5Z"/><path class="cls-3" d="M40,50v4a18,18,0,0,1-5-.67v-4A18,18,0,0,0,40,50Z"/><path class="cls-4" d="M50,45v4c0,1.85-2,3.46-5,4.33v-4C48,48.46,50,46.85,50,45Z"/><ellipse class="cls-1" cx="40" cy="40" rx="10" ry="5"/><path class="cls-2" d="M50,44c0,2.76-4.48,5-10,5s-10-2.24-10-5V40c0,2.76,4.48,5,10,5s10-2.24,10-5Z"/><path class="cls-3" d="M40,45v4a18,18,0,0,1-5-.67v-4A18,18,0,0,0,40,45Z"/><path class="cls-4" d="M50,40v4c0,1.85-2,3.46-5,4.33v-4C48,43.46,50,41.85,50,40Z"/><ellipse class="cls-1" cx="40" cy="35" rx="10" ry="5"/><path class="cls-2" d="M50,39c0,2.76-4.48,5-10,5s-10-2.24-10-5V35c0,2.76,4.48,5,10,5s10-2.24,10-5Z"/><path class="cls-3" d="M40,40v4a18,18,0,0,1-5-.67v-4A18,18,0,0,0,40,40Z"/><path class="cls-4" d="M50,35v4c0,1.85-2,3.46-5,4.33v-4C48,38.46,50,36.85,50,35Z"/><ellipse class="cls-1" cx="41" cy="30" rx="10" ry="5"/><path class="cls-2" d="M51,34c0,2.76-4.48,5-10,5s-10-2.24-10-5V30c0,2.76,4.48,5,10,5s10-2.24,10-5Z"/><path class="cls-3" d="M41,35v4a18,18,0,0,1-5-.67v-4A18,18,0,0,0,41,35Z"/><path class="cls-4" d="M51,30v4c0,1.85-2,3.46-5,4.33v-4C49,33.46,51,31.85,51,30Z"/><ellipse class="cls-1" cx="40" cy="25" rx="10" ry="5"/><path class="cls-2" d="M50,29c0,2.76-4.48,5-10,5s-10-2.24-10-5V25c0,2.76,4.48,5,10,5s10-2.24,10-5Z"/><path class="cls-3" d="M40,30v4a18,18,0,0,1-5-.67v-4A18,18,0,0,0,40,30Z"/><path class="cls-4" d="M50,25v4c0,1.85-2,3.46-5,4.33v-4C48,28.46,50,26.85,50,25Z"/><ellipse class="cls-1" cx="40" cy="20" rx="10" ry="5"/><path class="cls-2" d="M50,24c0,2.76-4.48,5-10,5s-10-2.24-10-5V20c0,2.76,4.48,5,10,5s10-2.24,10-5Z"/><path class="cls-3" d="M40,25v4a18,18,0,0,1-5-.67v-4A18,18,0,0,0,40,25Z"/><path class="cls-4" d="M50,20v4c0,1.85-2,3.46-5,4.33v-4C48,23.46,50,21.85,50,20Z"/><ellipse class="cls-1" cx="41" cy="10" rx="10" ry="5"/><ellipse class="cls-1" cx="41" cy="15" rx="10" ry="5"/><ellipse class="cls-5" cx="40" cy="5" rx="10" ry="5"/><ellipse class="cls-6" cx="40" cy="5" rx="7" ry="3.5"/><ellipse class="cls-5" cx="40" cy="5" rx="6" ry="3"/><path class="cls-7" d="M41.21,8.44,40,10a18,18,0,0,1-5-.67l1.14-1.41A12.28,12.28,0,0,0,40,8.5,12,12,0,0,0,41.21,8.44Z"/><path class="cls-7" d="M46.75,1.32,45.54,2.87a9.45,9.45,0,0,0-4.28-1.31L42.39.15A14.54,14.54,0,0,1,46.75,1.32Z"/><path class="cls-2" d="M50,9c0,2.76-4.48,5-10,5S30,11.76,30,9V5c0,2.76,4.48,5,10,5S50,7.76,50,5Z"/><path class="cls-7" d="M45.11,3.43,41.65,7.88A11,11,0,0,1,40,8a10.49,10.49,0,0,1-3.48-.56L40.87,2A7.76,7.76,0,0,1,45.11,3.43Z"/><path class="cls-3" d="M40,10v4a18,18,0,0,1-5-.67v-4A18,18,0,0,0,40,10Z"/><path class="cls-6" d="M38.48,5h0A.8.8,0,0,1,38,4.35c0-.55.9-1,2-1s2,.45,2,1a.8.8,0,0,1-.48.65h0l1.2,1.5H37.28Z"/><path class="cls-4" d="M50,5V9c0,1.85-2,3.46-5,4.33v-4C48,8.46,50,6.85,50,5Z"/><path class="cls-2" d="M51,14c0,2.76-4.48,5-10,5s-10-2.24-10-5V10c0,2.76,4.48,5,10,5s10-2.24,10-5Z"/><path class="cls-3" d="M41,15v4a18,18,0,0,1-5-.67v-4A18,18,0,0,0,41,15Z"/><path class="cls-4" d="M51,10v4c0,1.85-2,3.46-5,4.33v-4C49,13.46,51,11.85,51,10Z"/><path class="cls-2" d="M51,19c0,2.76-4.48,5-10,5s-10-2.24-10-5V15c0,2.76,4.48,5,10,5s10-2.24,10-5Z"/><path class="cls-3" d="M41,20v4a18,18,0,0,1-5-.67v-4A18,18,0,0,0,41,20Z"/><path class="cls-4" d="M51,15v4c0,1.85-2,3.46-5,4.33v-4C49,18.46,51,16.85,51,15Z"/><rect class="cls-8" x="21" y="55" width="80" height="9"/><rect class="cls-8" x="21" y="64" width="80" height="8"/><rect class="cls-9" x="21" y="56" width="80" height="1"/><rect class="cls-9" x="21" y="58" width="80" height="1"/><rect class="cls-9" x="21" y="60" width="80" height="1"/><rect class="cls-9" x="21" y="62" width="80" height="1"/><rect class="cls-9" x="21" y="64" width="80" height="1"/><rect class="cls-9" x="21" y="66" width="80" height="1"/><rect class="cls-9" x="21" y="68" width="80" height="1"/><rect class="cls-9" x="21" y="70" width="80" height="1"/><polygon class="cls-10" points="99.5 53.5 25.5 53.5 42.5 36.5 116.5 36.5 99.5 53.5"/><ellipse class="cls-9" cx="71" cy="45" rx="11.44" ry="4.37" transform="translate(-8.44 17.52) rotate(-13.28)"/><path class="cls-6" d="M68.47,45h0c-.21-.29-.13-.67.28-1.08a8.12,8.12,0,0,1,5-1.67c1.84,0,2.59.75,1.67,1.67A5.5,5.5,0,0,1,73.53,45h0L73,47.5H64Z"/><ellipse class="cls-9" cx="48" cy="45" rx="3.43" ry="1.31" transform="translate(-9.05 12.23) rotate(-13.28)"/><path class="cls-6" d="M41,35,21,55h80l20-20Zm61.12,14.88A30,30,0,0,0,92.76,53H33.24c.3-1.42-.83-2.56-3.12-3.12l9.76-9.76A30,30,0,0,0,49.24,37h59.52c-.3,1.42.83,2.56,3.12,3.12Z"/><path class="cls-9" d="M41,35,21,55h80l20-20Zm61.77,15.23A26.71,26.71,0,0,0,93,53.5H32c.58-1.55-.65-2.78-3.27-3.27L39.23,39.77A26.71,26.71,0,0,0,49,36.5H110c-.58,1.55.65,2.78,3.27,3.27Z"/><ellipse class="cls-9" cx="94" cy="45" rx="3.43" ry="1.31" transform="translate(-7.82 22.8) rotate(-13.28)"/><polygon class="cls-11" points="101 64 101 55 121 35 121 44 101 64"/><polygon class="cls-11" points="101 72 101 64 121 44 121 52 101 72"/><polygon class="cls-9" points="101 56 121 36 121 37 101 57 101 56"/><polygon class="cls-9" points="101 58 121 38 121 39 101 59 101 58"/><polygon class="cls-9" points="101 60 121 40 121 41 101 61 101 60"/><polygon class="cls-9" points="101 62 121 42 121 43 101 63 101 62"/><polygon class="cls-9" points="101 64 121 44 121 45 101 65 101 64"/><polygon class="cls-9" points="101 66 121 46 121 47 101 67 101 66"/><polygon class="cls-9" points="101 68 121 48 121 49 101 69 101 68"/><polygon class="cls-9" points="101 70 121 50 121 51 101 71 101 70"/><rect class="cls-8" y="76" width="80" height="9"/><rect class="cls-8" y="85" width="80" height="8"/><rect class="cls-9" y="77" width="80" height="1"/><rect class="cls-9" y="79" width="80" height="1"/><rect class="cls-9" y="81" width="80" height="1"/><rect class="cls-9" y="83" width="80" height="1"/><rect class="cls-9" y="85" width="80" height="1"/><rect class="cls-9" y="87" width="80" height="1"/><rect class="cls-9" y="89" width="80" height="1"/><rect class="cls-9" y="91" width="80" height="1"/><polygon class="cls-10" points="78.5 74.5 4.5 74.5 21.5 57.5 95.5 57.5 78.5 74.5"/><ellipse class="cls-9" cx="50" cy="66" rx="11.44" ry="4.37" transform="translate(-13.83 13.25) rotate(-13.28)"/><path class="cls-6" d="M47.47,66h0c-.21-.29-.13-.67.28-1.08a8.12,8.12,0,0,1,5-1.67c1.84,0,2.59.75,1.67,1.67A5.5,5.5,0,0,1,52.53,66h0L52,68.5H43Z"/><ellipse class="cls-9" cx="27" cy="66" rx="3.43" ry="1.31" transform="translate(-14.44 7.97) rotate(-13.28)"/><path class="cls-6" d="M20,56,0,76H80l20-20ZM81.12,70.88A30,30,0,0,0,71.76,74H12.24c.3-1.42-.83-2.56-3.12-3.12l9.76-9.76A30,30,0,0,0,28.24,58H87.76c-.3,1.42.83,2.56,3.12,3.12Z"/><path class="cls-9" d="M20,56,0,76H80l20-20ZM81.77,71.23A26.71,26.71,0,0,0,72,74.5H11c.58-1.55-.65-2.78-3.27-3.27L18.23,60.77A26.71,26.71,0,0,0,28,57.5H89c-.58,1.55.65,2.78,3.27,3.27Z"/><ellipse class="cls-9" cx="73" cy="66" rx="3.43" ry="1.31" transform="translate(-13.21 18.54) rotate(-13.28)"/><polygon class="cls-11" points="80 85 80 76 100 56 100 65 80 85"/><polygon class="cls-11" points="80 93 80 85 100 65 100 73 80 93"/><polygon class="cls-9" points="80 77 100 57 100 58 80 78 80 77"/><polygon class="cls-9" points="80 79 100 59 100 60 80 80 80 79"/><polygon class="cls-9" points="80 81 100 61 100 62 80 82 80 81"/><polygon class="cls-9" points="80 83 100 63 100 64 80 84 80 83"/><polygon class="cls-9" points="80 85 100 65 100 66 80 86 80 85"/><polygon class="cls-9" points="80 87 100 67 100 68 80 88 80 87"/><polygon class="cls-9" points="80 89 100 69 100 70 80 90 80 89"/><polygon class="cls-9" points="80 91 100 71 100 72 80 92 80 91"/><ellipse class="cls-1" cx="112" cy="72" rx="10" ry="5"/><path class="cls-2" d="M122,76c0,2.76-4.48,5-10,5s-10-2.24-10-5V72c0,2.76,4.48,5,10,5s10-2.24,10-5Z"/><path class="cls-3" d="M112,77v4a18,18,0,0,1-5-.67v-4A18,18,0,0,0,112,77Z"/><path class="cls-4" d="M122,72v4c0,1.85-2,3.46-5,4.33v-4C120,75.46,122,73.85,122,72Z"/><ellipse class="cls-1" cx="112" cy="67" rx="10" ry="5"/><path class="cls-2" d="M122,71c0,2.76-4.48,5-10,5s-10-2.24-10-5V67c0,2.76,4.48,5,10,5s10-2.24,10-5Z"/><path class="cls-3" d="M112,72v4a18,18,0,0,1-5-.67v-4A18,18,0,0,0,112,72Z"/><path class="cls-4" d="M122,67v4c0,1.85-2,3.46-5,4.33v-4C120,70.46,122,68.85,122,67Z"/><ellipse class="cls-1" cx="111" cy="62" rx="10" ry="5"/><path class="cls-2" d="M121,66c0,2.76-4.48,5-10,5s-10-2.24-10-5V62c0,2.76,4.48,5,10,5s10-2.24,10-5Z"/><path class="cls-3" d="M111,67v4a18,18,0,0,1-5-.67v-4A18,18,0,0,0,111,67Z"/><path class="cls-4" d="M121,62v4c0,1.85-2,3.46-5,4.33v-4C119,65.46,121,63.85,121,62Z"/><ellipse class="cls-1" cx="112" cy="57" rx="10" ry="5"/><path class="cls-2" d="M122,61c0,2.76-4.48,5-10,5s-10-2.24-10-5V57c0,2.76,4.48,5,10,5s10-2.24,10-5Z"/><path class="cls-3" d="M112,62v4a18,18,0,0,1-5-.67v-4A18,18,0,0,0,112,62Z"/><path class="cls-4" d="M122,57v4c0,1.85-2,3.46-5,4.33v-4C120,60.46,122,58.85,122,57Z"/><ellipse class="cls-1" cx="112" cy="52" rx="10" ry="5"/><path class="cls-2" d="M122,56c0,2.76-4.48,5-10,5s-10-2.24-10-5V52c0,2.76,4.48,5,10,5s10-2.24,10-5Z"/><path class="cls-3" d="M112,57v4a18,18,0,0,1-5-.67v-4A18,18,0,0,0,112,57Z"/><path class="cls-4" d="M122,52v4c0,1.85-2,3.46-5,4.33v-4C120,55.46,122,53.85,122,52Z"/><ellipse class="cls-1" cx="111" cy="42" rx="10" ry="5"/><ellipse class="cls-1" cx="111" cy="47" rx="10" ry="5"/><ellipse class="cls-5" cx="112" cy="37" rx="10" ry="5"/><ellipse class="cls-6" cx="112" cy="37" rx="7" ry="3.5"/><ellipse class="cls-5" cx="112" cy="37" rx="6" ry="3"/><path class="cls-7" d="M113.21,40.44,112,42a18,18,0,0,1-5-.67l1.14-1.41a12.28,12.28,0,0,0,3.86.58A12,12,0,0,0,113.21,40.44Z"/><path class="cls-7" d="M118.75,33.32l-1.21,1.55a9.45,9.45,0,0,0-4.28-1.31l1.13-1.41A14.54,14.54,0,0,1,118.75,33.32Z"/><path class="cls-2" d="M122,41c0,2.76-4.48,5-10,5s-10-2.24-10-5V37c0,2.76,4.48,5,10,5s10-2.24,10-5Z"/><path class="cls-7" d="M117.11,35.43l-3.46,4.45A11,11,0,0,1,112,40a10.49,10.49,0,0,1-3.48-.56l4.35-5.4A7.76,7.76,0,0,1,117.11,35.43Z"/><path class="cls-3" d="M112,42v4a18,18,0,0,1-5-.67v-4A18,18,0,0,0,112,42Z"/><path class="cls-6" d="M110.48,37h0a.8.8,0,0,1-.48-.65c0-.55.9-1,2-1s2,.45,2,1a.8.8,0,0,1-.48.65h0l1.2,1.5h-5.44Z"/><path class="cls-4" d="M122,37v4c0,1.85-2,3.46-5,4.33v-4C120,40.46,122,38.85,122,37Z"/><path class="cls-2" d="M121,46c0,2.76-4.48,5-10,5s-10-2.24-10-5V42c0,2.76,4.48,5,10,5s10-2.24,10-5Z"/><path class="cls-3" d="M111,47v4a18,18,0,0,1-5-.67v-4A18,18,0,0,0,111,47Z"/><path class="cls-4" d="M121,42v4c0,1.85-2,3.46-5,4.33v-4C119,45.46,121,43.85,121,42Z"/><path class="cls-2" d="M121,51c0,2.76-4.48,5-10,5s-10-2.24-10-5V47c0,2.76,4.48,5,10,5s10-2.24,10-5Z"/><path class="cls-3" d="M111,52v4a18,18,0,0,1-5-.67v-4A18,18,0,0,0,111,52Z"/><path class="cls-4" d="M121,47v4c0,1.85-2,3.46-5,4.33v-4C119,50.46,121,48.85,121,47Z"/></svg>