<svg width="304" height="422" viewBox="0 0 304 422" fill="none" xmlns="http://www.w3.org/2000/svg">
<g filter="url(#filter0_d_83_9855)">
<path d="M163.219 347.881C198.781 347.881 227.61 333.425 227.61 315.593C227.61 297.761 198.781 283.305 163.219 283.305C127.658 283.305 98.8291 297.761 98.8291 315.593C98.8291 333.425 127.658 347.881 163.219 347.881Z" fill="#5938B2"/>
<path d="M227.61 341.424C227.61 359.247 198.763 373.712 163.219 373.712C127.676 373.712 98.8291 359.247 98.8291 341.424V315.593C98.8291 333.416 127.676 347.881 163.219 347.881C198.763 347.881 227.61 333.416 227.61 315.593V341.424Z" fill="#7544E0"/>
<path d="M163.22 347.881V373.712C152.339 373.792 141.5 372.336 131.024 369.385V343.555C141.5 346.506 152.339 347.962 163.22 347.881Z" fill="#9169E6"/>
<path d="M227.61 315.593V341.424C227.61 353.37 214.732 363.767 195.415 369.385V343.555C214.732 337.937 227.61 327.54 227.61 315.593Z" fill="#6640CC"/>
<path d="M163.219 315.593C198.781 315.593 227.61 301.137 227.61 283.305C227.61 265.473 198.781 251.017 163.219 251.017C127.658 251.017 98.8291 265.473 98.8291 283.305C98.8291 301.137 127.658 315.593 163.219 315.593Z" fill="#5938B2"/>
<path d="M227.61 309.136C227.61 326.959 198.763 341.424 163.219 341.424C127.676 341.424 98.8291 326.959 98.8291 309.136V283.305C98.8291 301.128 127.676 315.593 163.219 315.593C198.763 315.593 227.61 301.128 227.61 283.305V309.136Z" fill="#7544E0"/>
<path d="M163.22 315.593V341.424C152.339 341.504 141.5 340.048 131.024 337.097V311.267C141.5 314.217 152.339 315.674 163.22 315.593Z" fill="#9169E6"/>
<path d="M227.61 283.305V309.136C227.61 321.082 214.732 331.479 195.415 337.097V311.267C214.732 305.649 227.61 295.252 227.61 283.305Z" fill="#6640CC"/>
<path d="M163.219 283.305C198.781 283.305 227.61 268.849 227.61 251.017C227.61 233.185 198.781 218.729 163.219 218.729C127.658 218.729 98.8291 233.185 98.8291 251.017C98.8291 268.849 127.658 283.305 163.219 283.305Z" fill="#5938B2"/>
<path d="M227.61 276.847C227.61 294.671 198.763 309.136 163.219 309.136C127.676 309.136 98.8291 294.671 98.8291 276.847V251.017C98.8291 268.84 127.676 283.305 163.219 283.305C198.763 283.305 227.61 268.84 227.61 251.017V276.847Z" fill="#7544E0"/>
<path d="M163.22 283.305V309.136C152.339 309.216 141.5 307.76 131.024 304.809V278.978C141.5 281.929 152.339 283.386 163.22 283.305Z" fill="#9169E6"/>
<path d="M227.61 251.017V276.847C227.61 288.794 214.732 299.191 195.415 304.809V278.979C214.732 273.36 227.61 262.964 227.61 251.017Z" fill="#6640CC"/>
<path d="M169.658 251.017C205.22 251.017 234.049 236.561 234.049 218.729C234.049 200.897 205.22 186.441 169.658 186.441C134.097 186.441 105.268 200.897 105.268 218.729C105.268 236.561 134.097 251.017 169.658 251.017Z" fill="#5938B2"/>
<path d="M234.049 244.559C234.049 262.382 205.202 276.847 169.658 276.847C134.115 276.847 105.268 262.382 105.268 244.559V218.729C105.268 236.552 134.115 251.017 169.658 251.017C205.202 251.017 234.049 236.552 234.049 218.729V244.559Z" fill="#7544E0"/>
<path d="M169.659 251.017V276.847C158.777 276.928 147.939 275.472 137.463 272.521V246.69C147.939 249.641 158.777 251.098 169.659 251.017Z" fill="#9169E6"/>
<path d="M234.049 218.729V244.559C234.049 256.506 221.171 266.903 201.854 272.521V246.69C221.171 241.072 234.049 230.675 234.049 218.729Z" fill="#6640CC"/>
<path d="M163.219 218.729C198.781 218.729 227.61 204.273 227.61 186.441C227.61 168.608 198.781 154.153 163.219 154.153C127.658 154.153 98.8291 168.608 98.8291 186.441C98.8291 204.273 127.658 218.729 163.219 218.729Z" fill="#5938B2"/>
<path d="M227.61 212.271C227.61 230.094 198.763 244.559 163.219 244.559C127.676 244.559 98.8291 230.094 98.8291 212.271V186.441C98.8291 204.264 127.676 218.729 163.219 218.729C198.763 218.729 227.61 204.264 227.61 186.441V212.271Z" fill="#7544E0"/>
<path d="M163.22 218.729V244.559C152.339 244.64 141.5 243.183 131.024 240.233V214.402C141.5 217.353 152.339 218.809 163.22 218.729Z" fill="#9169E6"/>
<path d="M227.61 186.441V212.271C227.61 224.218 214.732 234.615 195.415 240.233V214.402C214.732 208.784 227.61 198.387 227.61 186.441Z" fill="#6640CC"/>
<path d="M163.219 186.441C198.781 186.441 227.61 171.985 227.61 154.153C227.61 136.32 198.781 121.864 163.219 121.864C127.658 121.864 98.8291 136.32 98.8291 154.153C98.8291 171.985 127.658 186.441 163.219 186.441Z" fill="#5938B2"/>
<path d="M227.61 179.983C227.61 197.806 198.763 212.271 163.219 212.271C127.676 212.271 98.8291 197.806 98.8291 179.983V154.153C98.8291 171.976 127.676 186.441 163.219 186.441C198.763 186.441 227.61 171.976 227.61 154.153V179.983Z" fill="#7544E0"/>
<path d="M163.22 186.441V212.271C152.339 212.352 141.5 210.895 131.024 207.945V182.114C141.5 185.065 152.339 186.521 163.22 186.441Z" fill="#9169E6"/>
<path d="M227.61 154.153V179.983C227.61 191.93 214.732 202.326 195.415 207.945V182.114C214.732 176.496 227.61 166.099 227.61 154.153Z" fill="#6640CC"/>
<path d="M169.658 121.864C205.22 121.864 234.049 107.409 234.049 89.5763C234.049 71.744 205.22 57.2881 169.658 57.2881C134.097 57.2881 105.268 71.744 105.268 89.5763C105.268 107.409 134.097 121.864 169.658 121.864Z" fill="#5938B2"/>
<path d="M169.658 154.153C205.22 154.153 234.049 139.697 234.049 121.864C234.049 104.032 205.22 89.5763 169.658 89.5763C134.097 89.5763 105.268 104.032 105.268 121.864C105.268 139.697 134.097 154.153 169.658 154.153Z" fill="#5938B2"/>
<path d="M163.219 89.5763C198.781 89.5763 227.61 75.1204 227.61 57.2881C227.61 39.4559 198.781 25 163.219 25C127.658 25 98.8291 39.4559 98.8291 57.2881C98.8291 75.1204 127.658 89.5763 163.219 89.5763Z" fill="#8958E1"/>
<path d="M163.22 79.8899C188.113 79.8899 208.293 69.7707 208.293 57.2882C208.293 44.8056 188.113 34.6865 163.22 34.6865C138.326 34.6865 118.146 44.8056 118.146 57.2882C118.146 69.7707 138.326 79.8899 163.22 79.8899Z" fill="white"/>
<path d="M163.22 76.661C184.557 76.661 201.854 67.9874 201.854 57.2881C201.854 46.5888 184.557 37.9152 163.22 37.9152C141.883 37.9152 124.585 46.5888 124.585 57.2881C124.585 67.9874 141.883 76.661 163.22 76.661Z" fill="#8958E1"/>
<path d="M171.011 79.5024L163.22 89.5763C152.339 89.6569 141.5 88.2004 131.024 85.2497L138.365 76.1445C146.398 78.7139 154.789 79.9783 163.22 79.8899C165.821 79.8923 168.422 79.763 171.011 79.5024Z" fill="#A179E7"/>
<path d="M206.682 33.524L198.891 43.5334C190.512 38.5409 181.061 35.6397 171.332 35.0739L178.608 25.9686C188.301 27.006 197.773 29.5551 206.682 33.524Z" fill="#A179E7"/>
<path d="M227.61 83.1187C227.61 100.942 198.763 115.407 163.219 115.407C127.676 115.407 98.8291 100.942 98.8291 83.1187V57.2881C98.8291 75.1112 127.676 89.5763 163.219 89.5763C198.763 89.5763 227.61 75.1112 227.61 57.2881V83.1187Z" fill="#7544E0"/>
<path d="M196.123 47.1497L173.844 75.8862C170.327 76.4116 166.775 76.6706 163.219 76.661C155.6 76.7318 148.024 75.5091 140.812 73.0448L168.821 38.1736C178.602 38.4205 188.095 41.5416 196.123 47.1497Z" fill="#A179E7"/>
<path d="M163.22 89.5762V115.407C152.339 115.487 141.5 114.031 131.024 111.08V85.2496C141.5 88.2003 152.339 89.6568 163.22 89.5762Z" fill="#9169E6"/>
<path d="M153.431 57.2882C152.602 56.9105 151.883 56.3267 151.342 55.5921C150.801 54.8575 150.456 53.9965 150.34 53.0907C150.34 49.4745 156.135 46.6331 163.218 46.6331C170.301 46.6331 176.096 49.4745 176.096 53.0907C175.98 53.9965 175.636 54.8575 175.095 55.5921C174.554 56.3267 173.835 56.9105 173.006 57.2882L180.732 66.9746H145.704L153.431 57.2882Z" fill="white"/>
<path d="M227.61 57.2881V83.1187C227.61 95.0653 214.732 105.462 195.415 111.08V85.2497C214.732 79.6316 227.61 69.2348 227.61 57.2881Z" fill="#6640CC"/>
<path d="M234.049 115.407C234.049 133.23 205.202 147.695 169.658 147.695C134.115 147.695 105.268 133.23 105.268 115.407V89.5762C105.268 107.399 134.115 121.864 169.658 121.864C205.202 121.864 234.049 107.399 234.049 89.5762V115.407Z" fill="#7544E0"/>
<path d="M169.659 121.864V147.695C158.777 147.775 147.939 146.319 137.463 143.368V117.538C147.939 120.488 158.777 121.945 169.659 121.864Z" fill="#9169E6"/>
<path d="M234.049 89.5762V115.407C234.049 127.353 221.171 137.75 201.854 143.368V117.538C221.171 111.92 234.049 101.523 234.049 89.5762Z" fill="#6640CC"/>
<path d="M234.049 147.695C234.049 165.518 205.202 179.983 169.658 179.983C134.115 179.983 105.268 165.518 105.268 147.695V121.864C105.268 139.687 134.115 154.153 169.658 154.153C205.202 154.153 234.049 139.687 234.049 121.864V147.695Z" fill="#7544E0"/>
<path d="M169.659 154.152V179.983C158.777 180.064 147.939 178.607 137.463 175.656V149.826C147.939 152.777 158.777 154.233 169.659 154.152Z" fill="#9169E6"/>
<path d="M234.049 121.864V147.695C234.049 159.642 221.171 170.038 201.854 175.656V149.826C221.171 144.208 234.049 133.811 234.049 121.864Z" fill="#6640CC"/>
<path d="M98.8292 347.881C134.391 347.881 163.219 333.425 163.219 315.593C163.219 297.761 134.391 283.305 98.8292 283.305C63.2675 283.305 34.439 297.761 34.439 315.593C34.439 333.425 63.2675 347.881 98.8292 347.881Z" fill="#5938B2"/>
<path d="M98.8292 380.17C134.391 380.17 163.219 365.714 163.219 347.881C163.219 330.049 134.391 315.593 98.8292 315.593C63.2675 315.593 34.439 330.049 34.439 347.881C34.439 365.714 63.2675 380.17 98.8292 380.17Z" fill="#5938B2"/>
<path d="M92.3902 315.593C127.952 315.593 156.78 301.137 156.78 283.305C156.78 265.473 127.952 251.017 92.3902 251.017C56.8285 251.017 28 265.473 28 283.305C28 301.137 56.8285 315.593 92.3902 315.593Z" fill="#8958E1"/>
<path d="M92.3901 305.907C117.283 305.907 137.463 295.788 137.463 283.305C137.463 270.822 117.283 260.703 92.3901 260.703C67.4968 260.703 47.3169 270.822 47.3169 283.305C47.3169 295.788 67.4968 305.907 92.3901 305.907Z" fill="white"/>
<path d="M92.39 302.678C113.727 302.678 131.024 294.004 131.024 283.305C131.024 272.606 113.727 263.932 92.39 263.932C71.053 263.932 53.7559 272.606 53.7559 283.305C53.7559 294.004 71.053 302.678 92.39 302.678Z" fill="#8958E1"/>
<path d="M100.182 305.519L92.3904 315.593C81.5094 315.674 70.6713 314.217 60.1953 311.267L67.5358 302.161C75.5686 304.731 83.9594 305.995 92.3904 305.907C94.9923 305.909 97.5927 305.78 100.182 305.519Z" fill="#A179E7"/>
<path d="M135.852 259.541L128.061 269.55C119.683 264.558 110.231 261.657 100.502 261.091L107.778 251.986C117.471 253.023 126.943 255.572 135.852 259.541Z" fill="#A179E7"/>
<path d="M156.78 309.136C156.78 326.959 127.934 341.424 92.3902 341.424C56.8468 341.424 28 326.959 28 309.136V283.305C28 301.128 56.8468 315.593 92.3902 315.593C127.934 315.593 156.78 301.128 156.78 283.305V309.136Z" fill="#7544E0"/>
<path d="M125.294 273.167L103.015 301.903C99.4976 302.428 95.9461 302.688 92.3902 302.678C84.771 302.749 77.1948 301.526 69.9824 299.062L97.9922 264.191C107.773 264.438 117.266 267.559 125.294 273.167Z" fill="#A179E7"/>
<path d="M92.3904 315.593V341.424C81.5094 341.504 70.6713 340.048 60.1953 337.097V311.267C70.6713 314.217 81.5094 315.674 92.3904 315.593Z" fill="#9169E6"/>
<path d="M82.6018 283.305C81.7728 282.927 81.0537 282.344 80.5128 281.609C79.9719 280.874 79.6271 280.013 79.5111 279.108C79.5111 275.491 85.3062 272.65 92.3892 272.65C99.4721 272.65 105.267 275.491 105.267 279.108C105.151 280.013 104.806 280.874 104.266 281.609C103.725 282.344 103.006 282.927 102.176 283.305L109.903 292.992H74.875L82.6018 283.305Z" fill="white"/>
<path d="M156.781 283.305V309.136C156.781 321.082 143.903 331.479 124.585 337.097V311.267C143.903 305.649 156.781 295.252 156.781 283.305Z" fill="#6640CC"/>
<path d="M163.219 341.424C163.219 359.247 134.373 373.712 98.8292 373.712C63.2858 373.712 34.439 359.247 34.439 341.424V315.593C34.439 333.416 63.2858 347.881 98.8292 347.881C134.373 347.881 163.219 333.416 163.219 315.593V341.424Z" fill="#7544E0"/>
<path d="M98.8294 347.881V373.712C87.9484 373.792 77.1103 372.336 66.6343 369.385V343.555C77.1103 346.506 87.9484 347.962 98.8294 347.881Z" fill="#9169E6"/>
<path d="M163.22 315.593V341.424C163.22 353.37 150.341 363.767 131.024 369.385V343.555C150.341 337.937 163.22 327.54 163.22 315.593Z" fill="#6640CC"/>
<path d="M163.219 373.712C163.219 391.535 134.373 406 98.8292 406C63.2858 406 34.439 391.535 34.439 373.712V347.881C34.439 365.704 63.2858 380.169 98.8292 380.169C134.373 380.169 163.219 365.704 163.219 347.881V373.712Z" fill="#7544E0"/>
<path d="M98.8294 380.17V406C87.9484 406.081 77.1103 404.624 66.6343 401.674V375.843C77.1103 378.794 87.9484 380.25 98.8294 380.17Z" fill="#9169E6"/>
<path d="M163.22 347.881V373.712C163.22 385.658 150.341 396.055 131.024 401.673V375.843C150.341 370.225 163.22 359.828 163.22 347.881Z" fill="#6640CC"/>
<path d="M227.61 378.038C263.172 378.038 292 363.582 292 345.75C292 327.918 263.172 313.462 227.61 313.462C192.048 313.462 163.22 327.918 163.22 345.75C163.22 363.582 192.048 378.038 227.61 378.038Z" fill="#5938B2"/>
<path d="M292 371.581C292 389.404 263.153 403.869 227.61 403.869C192.067 403.869 163.22 389.404 163.22 371.581V345.75C163.22 363.573 192.067 378.039 227.61 378.039C263.153 378.039 292 363.573 292 345.75V371.581Z" fill="#7544E0"/>
<path d="M227.61 378.039V403.869C216.729 403.95 205.891 402.493 195.415 399.542V373.712C205.891 376.663 216.729 378.119 227.61 378.039Z" fill="#9169E6"/>
<path d="M292 345.75V371.581C292 383.527 279.122 393.924 259.805 399.542V373.712C279.122 368.094 292 357.697 292 345.75Z" fill="#6640CC"/>
<path d="M227.61 345.75C263.172 345.75 292 331.294 292 313.462C292 295.63 263.172 281.174 227.61 281.174C192.048 281.174 163.22 295.63 163.22 313.462C163.22 331.294 192.048 345.75 227.61 345.75Z" fill="#5938B2"/>
<path d="M292 339.293C292 357.116 263.153 371.581 227.61 371.581C192.067 371.581 163.22 357.116 163.22 339.293V313.462C163.22 331.285 192.067 345.75 227.61 345.75C263.153 345.75 292 331.285 292 313.462V339.293Z" fill="#7544E0"/>
<path d="M227.61 345.75V371.581C216.729 371.661 205.891 370.205 195.415 367.254V341.424C205.891 344.374 216.729 345.831 227.61 345.75Z" fill="#9169E6"/>
<path d="M292 313.462V339.293C292 351.239 279.122 361.636 259.805 367.254V341.424C279.122 335.806 292 325.409 292 313.462Z" fill="#6640CC"/>
<path d="M221.171 313.462C256.732 313.462 285.561 299.006 285.561 281.174C285.561 263.342 256.732 248.886 221.171 248.886C185.609 248.886 156.78 263.342 156.78 281.174C156.78 299.006 185.609 313.462 221.171 313.462Z" fill="#5938B2"/>
<path d="M285.561 307.005C285.561 324.828 256.714 339.293 221.171 339.293C185.627 339.293 156.78 324.828 156.78 307.005V281.174C156.78 298.997 185.627 313.462 221.171 313.462C256.714 313.462 285.561 298.997 285.561 281.174V307.005Z" fill="#7544E0"/>
<path d="M221.171 313.462V339.293C210.29 339.373 199.452 337.917 188.976 334.966V309.136C199.452 312.086 210.29 313.543 221.171 313.462Z" fill="#9169E6"/>
<path d="M285.561 281.174V307.005C285.561 318.951 272.683 329.348 253.366 334.966V309.136C272.683 303.518 285.561 293.121 285.561 281.174Z" fill="#6640CC"/>
<path d="M227.61 281.174C263.172 281.174 292 266.718 292 248.886C292 231.054 263.172 216.598 227.61 216.598C192.048 216.598 163.22 231.054 163.22 248.886C163.22 266.718 192.048 281.174 227.61 281.174Z" fill="#5938B2"/>
<path d="M292 274.716C292 292.54 263.153 307.005 227.61 307.005C192.067 307.005 163.22 292.54 163.22 274.716V248.886C163.22 266.709 192.067 281.174 227.61 281.174C263.153 281.174 292 266.709 292 248.886V274.716Z" fill="#7544E0"/>
<path d="M227.61 281.174V307.005C216.729 307.085 205.891 305.629 195.415 302.678V276.847C205.891 279.798 216.729 281.255 227.61 281.174Z" fill="#9169E6"/>
<path d="M292 248.886V274.716C292 286.663 279.122 297.06 259.805 302.678V276.847C279.122 271.229 292 260.833 292 248.886Z" fill="#6640CC"/>
<path d="M227.61 248.886C263.172 248.886 292 234.43 292 216.598C292 198.766 263.172 184.31 227.61 184.31C192.048 184.31 163.22 198.766 163.22 216.598C163.22 234.43 192.048 248.886 227.61 248.886Z" fill="#5938B2"/>
<path d="M292 242.428C292 260.251 263.153 274.717 227.61 274.717C192.067 274.717 163.22 260.251 163.22 242.428V216.598C163.22 234.421 192.067 248.886 227.61 248.886C263.153 248.886 292 234.421 292 216.598V242.428Z" fill="#7544E0"/>
<path d="M227.61 248.886V274.716C216.729 274.797 205.891 273.341 195.415 270.39V244.559C205.891 247.51 216.729 248.967 227.61 248.886Z" fill="#9169E6"/>
<path d="M292 216.598V242.428C292 254.375 279.122 264.772 259.805 270.39V244.559C279.122 238.941 292 228.544 292 216.598Z" fill="#6640CC"/>
<path d="M221.171 184.31C256.732 184.31 285.561 169.854 285.561 152.022C285.561 134.189 256.732 119.733 221.171 119.733C185.609 119.733 156.78 134.189 156.78 152.022C156.78 169.854 185.609 184.31 221.171 184.31Z" fill="#5938B2"/>
<path d="M221.171 216.598C256.732 216.598 285.561 202.142 285.561 184.31C285.561 166.477 256.732 152.022 221.171 152.022C185.609 152.022 156.78 166.477 156.78 184.31C156.78 202.142 185.609 216.598 221.171 216.598Z" fill="#5938B2"/>
<path d="M227.61 152.022C263.172 152.022 292 137.566 292 119.733C292 101.901 263.172 87.4453 227.61 87.4453C192.048 87.4453 163.22 101.901 163.22 119.733C163.22 137.566 192.048 152.022 227.61 152.022Z" fill="#8958E1"/>
<path d="M227.61 142.335C252.503 142.335 272.683 132.216 272.683 119.733C272.683 107.251 252.503 97.1318 227.61 97.1318C202.717 97.1318 182.537 107.251 182.537 119.733C182.537 132.216 202.717 142.335 227.61 142.335Z" fill="white"/>
<path d="M227.61 139.106C248.947 139.106 266.244 130.433 266.244 119.733C266.244 109.034 248.947 100.361 227.61 100.361C206.273 100.361 188.976 109.034 188.976 119.733C188.976 130.433 206.273 139.106 227.61 139.106Z" fill="#8958E1"/>
<path d="M235.401 141.948L227.61 152.022C216.729 152.102 205.891 150.646 195.415 147.695L202.755 138.783C210.788 141.353 219.179 142.617 227.61 142.529C230.215 142.467 232.815 142.273 235.401 141.948Z" fill="#A179E7"/>
<path d="M271.072 95.9694L263.281 105.979C254.902 100.986 245.451 98.085 235.722 97.5192L242.998 88.4139C252.691 89.4513 262.163 92.0005 271.072 95.9694Z" fill="#A179E7"/>
<path d="M292 145.564C292 163.387 263.153 177.852 227.61 177.852C192.067 177.852 163.22 163.387 163.22 145.564V119.733C163.22 137.557 192.067 152.022 227.61 152.022C263.153 152.022 292 137.557 292 119.733V145.564Z" fill="#7544E0"/>
<path d="M260.513 109.595L238.234 138.331C234.717 138.857 231.166 139.116 227.61 139.106C219.991 139.177 212.415 137.954 205.202 135.49L233.212 100.619C242.992 100.866 252.485 103.987 260.513 109.595Z" fill="#A179E7"/>
<path d="M227.61 152.022V177.852C216.729 177.933 205.891 176.476 195.415 173.525V147.695C205.891 150.646 216.729 152.102 227.61 152.022Z" fill="#9169E6"/>
<path d="M217.822 119.733C216.993 119.356 216.273 118.772 215.733 118.037C215.192 117.303 214.847 116.442 214.731 115.536C214.731 111.92 220.526 109.078 227.609 109.078C234.692 109.078 240.487 111.92 240.487 115.536C240.371 116.442 240.026 117.303 239.485 118.037C238.944 118.772 238.225 119.356 237.396 119.733L245.123 129.42H210.095L217.822 119.733Z" fill="white"/>
<path d="M292 119.733V145.564C292 157.511 279.122 167.907 259.805 173.525V147.695C279.122 142.077 292 131.68 292 119.733Z" fill="#6640CC"/>
<path d="M285.561 177.852C285.561 195.675 256.714 210.14 221.171 210.14C185.627 210.14 156.78 195.675 156.78 177.852V152.022C156.78 169.845 185.627 184.31 221.171 184.31C256.714 184.31 285.561 169.845 285.561 152.022V177.852Z" fill="#7544E0"/>
<path d="M221.171 184.31V210.14C210.29 210.221 199.452 208.764 188.976 205.814V179.983C199.452 182.934 210.29 184.39 221.171 184.31Z" fill="#9169E6"/>
<path d="M285.561 152.022V177.852C285.561 189.799 272.683 200.195 253.366 205.814V179.983C272.683 174.365 285.561 163.968 285.561 152.022Z" fill="#6640CC"/>
<path d="M285.561 210.14C285.561 227.963 256.714 242.428 221.171 242.428C185.627 242.428 156.78 227.963 156.78 210.14V184.31C156.78 202.133 185.627 216.598 221.171 216.598C256.714 216.598 285.561 202.133 285.561 184.31V210.14Z" fill="#7544E0"/>
<path d="M221.171 216.598V242.428C210.29 242.509 199.452 241.052 188.976 238.102V212.271C199.452 215.222 210.29 216.678 221.171 216.598Z" fill="#9169E6"/>
<path d="M285.561 184.31V210.14C285.561 222.087 272.683 232.484 253.366 238.102V212.271C272.683 206.653 285.561 196.256 285.561 184.31Z" fill="#6640CC"/>
</g>
<defs>
<filter id="filter0_d_83_9855" x="0" y="0" width="304" height="421.003" filterUnits="userSpaceOnUse" color-interpolation-filters="sRGB">
<feFlood flood-opacity="0" result="BackgroundImageFix"/>
<feColorMatrix in="SourceAlpha" type="matrix" values="0 0 0 0 0 0 0 0 0 0 0 0 0 0 0 0 0 0 127 0" result="hardAlpha"/>
<feOffset dx="-8" dy="-5"/>
<feGaussianBlur stdDeviation="10"/>
<feComposite in2="hardAlpha" operator="out"/>
<feColorMatrix type="matrix" values="0 0 0 0 0 0 0 0 0 0 0 0 0 0 0 0 0 0 0.05 0"/>
<feBlend mode="normal" in2="BackgroundImageFix" result="effect1_dropShadow_83_9855"/>
<feBlend mode="normal" in="SourceGraphic" in2="effect1_dropShadow_83_9855" result="shape"/>
</filter>
</defs>
</svg>
