<svg width="389" height="400" viewBox="0 0 389 400" fill="none" xmlns="http://www.w3.org/2000/svg">
<g filter="url(#filter0_d_83_8617)">
<path d="M132.954 249.348C169.126 249.348 198.45 234.726 198.45 216.69C198.45 198.653 169.126 184.031 132.954 184.031C96.7816 184.031 67.458 198.653 67.458 216.69C67.458 234.726 96.7816 249.348 132.954 249.348Z" fill="#5938B2"/>
<path d="M198.45 242.816C198.45 260.844 169.108 275.474 132.954 275.474C96.8002 275.474 67.458 260.844 67.458 242.816V216.69C67.458 234.717 96.8002 249.348 132.954 249.348C169.108 249.348 198.45 234.717 198.45 216.69V242.816Z" fill="#7544E0"/>
<path d="M132.954 249.348V275.474C121.886 275.556 110.862 274.083 100.206 271.098V244.972C110.862 247.956 121.886 249.429 132.954 249.348V249.348Z" fill="#9169E6"/>
<path d="M198.45 216.69V242.816C198.45 254.9 185.351 265.416 165.702 271.098V244.972C185.351 239.289 198.45 228.773 198.45 216.69Z" fill="#6640CC"/>
<path d="M132.954 216.69C169.126 216.69 198.45 202.068 198.45 184.031C198.45 165.995 169.126 151.373 132.954 151.373C96.7816 151.373 67.458 165.995 67.458 184.031C67.458 202.068 96.7816 216.69 132.954 216.69Z" fill="#5938B2"/>
<path d="M198.45 210.158C198.45 228.185 169.108 242.816 132.954 242.816C96.8002 242.816 67.458 228.185 67.458 210.158V184.031C67.458 202.059 96.8002 216.69 132.954 216.69C169.108 216.69 198.45 202.059 198.45 184.031V210.158Z" fill="#7544E0"/>
<path d="M132.954 216.69V242.816C121.886 242.898 110.862 241.425 100.206 238.44V212.313C110.862 215.298 121.886 216.771 132.954 216.69V216.69Z" fill="#9169E6"/>
<path d="M198.45 184.031V210.158C198.45 222.242 185.351 232.758 165.702 238.44V212.313C185.351 206.631 198.45 196.115 198.45 184.031Z" fill="#6640CC"/>
<path d="M132.954 184.031C169.126 184.031 198.45 169.41 198.45 151.373C198.45 133.337 169.126 118.715 132.954 118.715C96.7816 118.715 67.458 133.337 67.458 151.373C67.458 169.41 96.7816 184.031 132.954 184.031Z" fill="#5938B2"/>
<path d="M198.45 177.5C198.45 195.527 169.108 210.158 132.954 210.158C96.8002 210.158 67.458 195.527 67.458 177.5V151.373C67.458 169.401 96.8002 184.031 132.954 184.031C169.108 184.031 198.45 169.401 198.45 151.373V177.5Z" fill="#7544E0"/>
<path d="M132.954 184.032V210.158C121.886 210.24 110.862 208.766 100.206 205.782V179.655C110.862 182.64 121.886 184.113 132.954 184.032V184.032Z" fill="#9169E6"/>
<path d="M198.45 151.373V177.5C198.45 189.583 185.351 200.099 165.702 205.782V179.655C185.351 173.973 198.45 163.457 198.45 151.373Z" fill="#6640CC"/>
<path d="M139.504 151.373C175.677 151.373 205 136.752 205 118.715C205 100.679 175.677 86.057 139.504 86.057C103.332 86.057 74.0083 100.679 74.0083 118.715C74.0083 136.752 103.332 151.373 139.504 151.373Z" fill="#5938B2"/>
<path d="M205 144.842C205 162.869 175.658 177.5 139.504 177.5C103.35 177.5 74.0083 162.869 74.0083 144.842V118.715C74.0083 136.742 103.35 151.373 139.504 151.373C175.658 151.373 205 136.742 205 118.715V144.842Z" fill="#7544E0"/>
<path d="M139.503 151.373V177.5C128.435 177.581 117.411 176.108 106.755 173.124V146.997C117.411 149.982 128.435 151.455 139.503 151.373Z" fill="#9169E6"/>
<path d="M205 118.715V144.842C205 156.925 191.901 167.441 172.252 173.124V146.997C191.901 141.315 205 130.799 205 118.715Z" fill="#6640CC"/>
<path d="M132.954 118.715C169.126 118.715 198.45 104.094 198.45 86.0571C198.45 68.0204 169.126 53.3989 132.954 53.3989C96.7816 53.3989 67.458 68.0204 67.458 86.0571C67.458 104.094 96.7816 118.715 132.954 118.715Z" fill="#5938B2"/>
<path d="M198.45 112.184C198.45 130.211 169.108 144.842 132.954 144.842C96.8002 144.842 67.458 130.211 67.458 112.184V86.057C67.458 104.084 96.8002 118.715 132.954 118.715C169.108 118.715 198.45 104.084 198.45 86.057V112.184Z" fill="#7544E0"/>
<path d="M132.954 118.715V144.842C121.886 144.923 110.862 143.45 100.206 140.466V114.339C110.862 117.324 121.886 118.797 132.954 118.715V118.715Z" fill="#9169E6"/>
<path d="M198.45 86.057V112.184C198.45 124.267 185.351 134.783 165.702 140.466V114.339C185.351 108.656 198.45 98.1405 198.45 86.057Z" fill="#6640CC"/>
<path d="M132.954 86.0573C169.126 86.0573 198.45 71.4358 198.45 53.3992C198.45 35.3626 169.126 20.741 132.954 20.741C96.7816 20.741 67.458 35.3626 67.458 53.3992C67.458 71.4358 96.7816 86.0573 132.954 86.0573Z" fill="#5938B2"/>
<path d="M198.45 79.5254C198.45 97.5527 169.108 112.184 132.954 112.184C96.8002 112.184 67.458 97.5527 67.458 79.5254V53.3989C67.458 71.4262 96.8002 86.057 132.954 86.057C169.108 86.057 198.45 71.4262 198.45 53.3989V79.5254Z" fill="#7544E0"/>
<path d="M132.954 86.057V112.184C121.886 112.265 110.862 110.792 100.206 107.807V81.6808C110.862 84.6653 121.886 86.1385 132.954 86.057V86.057Z" fill="#9169E6"/>
<path d="M198.45 53.3989V79.5254C198.45 91.6089 185.351 102.125 165.702 107.807V81.6808C185.351 75.9983 198.45 65.4824 198.45 53.3989Z" fill="#6640CC"/>
<path d="M132.954 86.0293C169.126 86.0293 198.45 71.4077 198.45 53.3711C198.45 35.3345 169.126 20.7129 132.954 20.7129C96.7816 20.7129 67.458 35.3345 67.458 53.3711C67.458 71.4077 96.7816 86.0293 132.954 86.0293Z" fill="#8958E1"/>
<path d="M132.954 76.2318C158.275 76.2318 178.802 65.9967 178.802 53.3711C178.802 40.7455 158.275 30.5104 132.954 30.5104C107.634 30.5104 87.1072 40.7455 87.1072 53.3711C87.1072 65.9967 107.634 76.2318 132.954 76.2318Z" fill="white"/>
<path d="M132.955 72.966C154.658 72.966 172.252 64.1931 172.252 53.3711C172.252 42.5492 154.658 33.7762 132.955 33.7762C111.251 33.7762 93.6572 42.5492 93.6572 53.3711C93.6572 64.1931 111.251 72.966 132.955 72.966Z" fill="#8958E1"/>
<path d="M140.879 75.8399L132.954 86.0293C121.886 86.1108 110.862 84.6376 100.206 81.6531L107.673 72.4435C115.844 75.0424 124.378 76.3213 132.954 76.2318C135.601 76.2343 138.246 76.1035 140.879 75.8399V75.8399Z" fill="#A179E7"/>
<path d="M177.163 29.3346L169.238 39.4587C160.716 34.409 151.102 31.4745 141.206 30.9022L148.607 21.6926C158.467 22.7418 168.102 25.3203 177.163 29.3346V29.3346Z" fill="#A179E7"/>
<path d="M166.423 43.1165L143.762 72.1822C140.184 72.7136 136.572 72.9757 132.955 72.966C125.205 73.0376 117.498 71.8009 110.162 69.3083L138.653 33.7762C148.628 34.1028 158.287 37.3513 166.423 43.1165Z" fill="#A179E7"/>
<path d="M122.998 53.3711C122.143 53.0054 121.402 52.4194 120.849 51.6733C120.297 50.9271 119.953 50.0478 119.854 49.1256C119.854 45.5332 125.749 42.5939 132.953 42.5939C140.158 42.5939 146.053 45.5332 146.053 49.1256C145.953 50.0478 145.61 50.9271 145.058 51.6733C144.505 52.4194 143.763 53.0054 142.909 53.3711V53.3711L150.768 63.1686H115.138L122.998 53.3711Z" fill="white"/>
<path d="M289.2 285.917H10V317.241H289.2V285.917Z" fill="#00CCAE"/>
<path d="M289.2 317.241H10V345.084H289.2V317.241Z" fill="#00CCAE"/>
<path d="M289.2 289.398H10V292.878H289.2V289.398Z" fill="#00997C"/>
<path d="M289.2 296.358H10V299.839H289.2V296.358Z" fill="#00997C"/>
<path d="M289.2 303.319H10V306.8H289.2V303.319Z" fill="#00997C"/>
<path d="M289.2 310.28H10V313.761H289.2V310.28Z" fill="#00997C"/>
<path d="M289.2 317.241H10V320.721H289.2V317.241Z" fill="#00997C"/>
<path d="M289.2 324.202H10V327.682H289.2V324.202Z" fill="#00997C"/>
<path d="M289.2 331.163H10V334.643H289.2V331.163Z" fill="#00997C"/>
<path d="M289.2 338.124H10V341.604H289.2V338.124Z" fill="#00997C"/>
<path d="M283.965 280.697H25.7051L85.0351 221.529H343.295L283.965 280.697Z" fill="#00ECD2"/>
<path d="M188.001 265.908C209.462 260.856 225.29 250.134 223.355 241.959C221.421 233.783 202.455 231.251 180.994 236.302C159.534 241.353 143.705 252.076 145.64 260.251C147.574 268.426 166.54 270.959 188.001 265.908Z" fill="#00997C"/>
<path d="M175.67 251.113C174.937 250.104 175.216 248.781 176.647 247.354C181.654 243.535 187.794 241.49 194.097 241.542C200.519 241.542 203.136 244.152 199.926 247.354C198 249.033 195.757 250.311 193.329 251.113V251.113L191.48 259.814H160.07L175.67 251.113Z" fill="white"/>
<path d="M105.26 255.554C111.694 254.039 116.44 250.825 115.86 248.374C115.28 245.923 109.594 245.164 103.16 246.679C96.7252 248.193 91.9792 251.408 92.5592 253.859C93.1393 256.309 98.8256 257.068 105.26 255.554Z" fill="#00997C"/>
<path d="M79.8 216.309L10 285.917H289.2L359 216.309H79.8ZM293.109 268.097C281.694 269.894 270.656 273.564 260.442 278.956H52.7176C53.7646 274.014 49.8209 270.046 41.8288 268.097L75.8912 234.128C87.3063 232.331 98.3443 228.662 108.558 223.27H316.282C315.235 228.212 319.179 232.179 327.171 234.128L293.109 268.097Z" fill="white"/>
<path d="M79.8 216.309L10 285.917H289.2L359 216.309H79.8ZM295.377 269.316C283.379 270.867 271.797 274.732 261.28 280.697H48.39C50.4142 275.302 46.1215 271.021 36.9777 269.316L73.6227 232.91C85.6214 231.359 97.2025 227.494 107.72 221.529H320.61C318.586 226.924 322.878 231.205 332.022 232.91L295.377 269.316Z" fill="#00997C"/>
<path d="M265.8 255.565C272.234 254.051 276.98 250.836 276.4 248.386C275.82 245.935 270.134 245.176 263.699 246.691C257.265 248.205 252.519 251.42 253.099 253.87C253.679 256.321 259.365 257.08 265.8 255.565Z" fill="#00997C"/>
<path d="M289.2 317.241V285.917L359 216.309V247.632L289.2 317.241Z" fill="#00B294"/>
<path d="M289.2 345.084V317.241L359 247.632V275.476L289.2 345.084Z" fill="#00B294"/>
<path d="M289.2 289.398L359 219.789V223.269L289.2 292.878V289.398Z" fill="#00997C"/>
<path d="M289.2 296.358L359 226.75V230.23L289.2 299.839V296.358Z" fill="#00997C"/>
<path d="M289.2 303.319L359 233.711V237.191L289.2 306.8V303.319Z" fill="#00997C"/>
<path d="M289.2 310.28L359 240.672V244.152L289.2 313.761V310.28Z" fill="#00997C"/>
<path d="M289.2 317.241L359 247.632V251.113L289.2 320.721V317.241Z" fill="#00997C"/>
<path d="M289.2 324.202L359 254.593V258.074L289.2 327.682V324.202Z" fill="#00997C"/>
<path d="M289.2 331.163L359 261.554V265.035L289.2 334.643V331.163Z" fill="#00997C"/>
<path d="M289.2 338.124L359 268.515V271.995L289.2 341.604V338.124Z" fill="#00997C"/>
<path d="M238.615 353.917C274.571 353.917 303.719 339.383 303.719 321.454C303.719 303.525 274.571 288.991 238.615 288.991C202.658 288.991 173.51 303.525 173.51 321.454C173.51 339.383 202.658 353.917 238.615 353.917Z" fill="#5938B2"/>
<path d="M303.719 347.424C303.719 365.344 274.552 379.887 238.615 379.887C202.677 379.887 173.51 365.344 173.51 347.424V321.454C173.51 339.374 202.677 353.917 238.615 353.917C274.552 353.917 303.719 339.374 303.719 321.454V347.424Z" fill="#7544E0"/>
<path d="M238.615 353.917V379.887C227.613 379.968 216.655 378.504 206.062 375.537V349.567C216.655 352.534 227.613 353.998 238.615 353.917V353.917Z" fill="#9169E6"/>
<path d="M303.72 321.454V347.424C303.72 359.436 290.699 369.889 271.167 375.537V349.567C290.699 343.918 303.72 333.465 303.72 321.454Z" fill="#6640CC"/>
<path d="M238.615 321.454C274.571 321.454 303.719 306.92 303.719 288.991C303.719 271.062 274.571 256.528 238.615 256.528C202.658 256.528 173.51 271.062 173.51 288.991C173.51 306.92 202.658 321.454 238.615 321.454Z" fill="#5938B2"/>
<path d="M303.719 314.961C303.719 332.881 274.552 347.424 238.615 347.424C202.677 347.424 173.51 332.881 173.51 314.961V288.991C173.51 306.911 202.677 321.454 238.615 321.454C274.552 321.454 303.719 306.911 303.719 288.991V314.961Z" fill="#7544E0"/>
<path d="M238.615 321.454V347.424C227.613 347.505 216.655 346.041 206.062 343.074V317.104C216.655 320.071 227.613 321.535 238.615 321.454V321.454Z" fill="#9169E6"/>
<path d="M303.72 288.991V314.961C303.72 326.973 290.699 337.426 271.167 343.074V317.104C290.699 311.455 303.72 301.002 303.72 288.991Z" fill="#6640CC"/>
<path d="M238.615 256.528C274.571 256.528 303.719 241.994 303.719 224.065C303.719 206.137 274.571 191.602 238.615 191.602C202.658 191.602 173.51 206.137 173.51 224.065C173.51 241.994 202.658 256.528 238.615 256.528Z" fill="#5938B2"/>
<path d="M238.615 288.991C274.571 288.991 303.719 274.457 303.719 256.528C303.719 238.599 274.571 224.065 238.615 224.065C202.658 224.065 173.51 238.599 173.51 256.528C173.51 274.457 202.658 288.991 238.615 288.991Z" fill="#5938B2"/>
<path d="M232.104 224.065C268.061 224.065 297.209 209.531 297.209 191.602C297.209 173.674 268.061 159.139 232.104 159.139C196.148 159.139 167 173.674 167 191.602C167 209.531 196.148 224.065 232.104 224.065Z" fill="#8958E1"/>
<path d="M232.104 214.326C257.274 214.326 277.677 204.153 277.677 191.602C277.677 179.052 257.274 168.878 232.104 168.878C206.935 168.878 186.531 179.052 186.531 191.602C186.531 204.153 206.935 214.326 232.104 214.326Z" fill="white"/>
<path d="M232.105 211.08C253.678 211.08 271.167 202.36 271.167 191.602C271.167 180.845 253.678 172.125 232.105 172.125C210.531 172.125 193.042 180.845 193.042 191.602C193.042 202.36 210.531 211.08 232.105 211.08Z" fill="#8958E1"/>
<path d="M239.981 213.937L232.104 224.065C221.102 224.146 210.143 222.682 199.551 219.715L206.973 210.561C215.095 213.144 223.579 214.415 232.104 214.326C234.734 214.329 237.364 214.199 239.981 213.937V213.937Z" fill="#A179E7"/>
<path d="M276.049 167.71L268.171 177.773C259.7 172.754 250.144 169.837 240.307 169.268L247.663 160.113C257.464 161.156 267.041 163.719 276.049 167.71V167.71Z" fill="#A179E7"/>
<path d="M297.209 217.573C297.209 235.492 268.042 250.036 232.104 250.036C196.167 250.036 167 235.492 167 217.573V191.602C167 209.522 196.167 224.065 232.104 224.065C268.042 224.065 297.209 209.522 297.209 191.602V217.573Z" fill="#7544E0"/>
<path d="M265.372 181.409L242.846 210.301C239.29 210.829 235.699 211.09 232.104 211.08C224.4 211.151 216.74 209.922 209.448 207.444L237.768 172.125C247.684 172.449 257.285 175.678 265.372 181.409V181.409Z" fill="#A179E7"/>
<path d="M232.103 224.065V250.036C221.102 250.117 210.143 248.652 199.551 245.686V219.715C210.143 222.682 221.102 224.146 232.103 224.065V224.065Z" fill="#9169E6"/>
<path d="M222.208 191.602C221.358 191.239 220.621 190.656 220.072 189.915C219.522 189.173 219.181 188.299 219.083 187.382C219.083 183.811 224.942 180.89 232.103 180.89C239.265 180.89 245.124 183.811 245.124 187.382C245.026 188.299 244.685 189.173 244.135 189.915C243.586 190.656 242.849 191.239 241.999 191.602L249.812 201.341H214.395L222.208 191.602Z" fill="white"/>
<path d="M297.208 191.602V217.573C297.208 229.584 284.187 240.037 264.656 245.686V219.715C284.187 214.067 297.208 203.614 297.208 191.602Z" fill="#6640CC"/>
<path d="M303.719 250.036C303.719 267.955 274.552 282.499 238.615 282.499C202.677 282.499 173.51 267.955 173.51 250.036V224.065C173.51 241.985 202.677 256.528 238.615 256.528C274.552 256.528 303.719 241.985 303.719 224.065V250.036Z" fill="#7544E0"/>
<path d="M238.615 256.528V282.499C227.613 282.58 216.655 281.115 206.062 278.149V252.178C216.655 255.145 227.613 256.609 238.615 256.528V256.528Z" fill="#9169E6"/>
<path d="M303.72 224.065V250.036C303.72 262.047 290.699 272.5 271.167 278.148V252.178C290.699 246.53 303.72 236.077 303.72 224.065Z" fill="#6640CC"/>
<path d="M303.719 282.499C303.719 300.418 274.552 314.961 238.615 314.961C202.677 314.961 173.51 300.418 173.51 282.499V256.528C173.51 274.448 202.677 288.991 238.615 288.991C274.552 288.991 303.719 274.448 303.719 256.528V282.499Z" fill="#7544E0"/>
<path d="M238.615 288.991V314.961C227.613 315.042 216.655 313.578 206.062 310.611V284.641C216.655 287.608 227.613 289.072 238.615 288.991V288.991Z" fill="#9169E6"/>
<path d="M303.72 256.528V282.499C303.72 294.51 290.699 304.963 271.167 310.611V284.641C290.699 278.993 303.72 268.54 303.72 256.528Z" fill="#6640CC"/>
</g>
<defs>
<filter id="filter0_d_83_8617" x="0" y="0.712921" width="389" height="399.178" filterUnits="userSpaceOnUse" color-interpolation-filters="sRGB">
<feFlood flood-opacity="0" result="BackgroundImageFix"/>
<feColorMatrix in="SourceAlpha" type="matrix" values="0 0 0 0 0 0 0 0 0 0 0 0 0 0 0 0 0 0 127 0" result="hardAlpha"/>
<feOffset dx="10"/>
<feGaussianBlur stdDeviation="10"/>
<feComposite in2="hardAlpha" operator="out"/>
<feColorMatrix type="matrix" values="0 0 0 0 0 0 0 0 0 0 0 0 0 0 0 0 0 0 0.05 0"/>
<feBlend mode="normal" in2="BackgroundImageFix" result="effect1_dropShadow_83_8617"/>
<feBlend mode="normal" in="SourceGraphic" in2="effect1_dropShadow_83_8617" result="shape"/>
</filter>
</defs>
</svg>
