<svg id="Layer_1" data-name="Layer 1" xmlns="http://www.w3.org/2000/svg" viewBox="0 0 100 84"><defs><style>.cls-1{fill:#5938b2;}.cls-2{fill:#7544e0;}.cls-3{fill:#9169e6;}.cls-4{fill:#6640cc;}.cls-5{fill:#8958e1;}.cls-6{fill:#fff;}.cls-7{fill:#a179e7;}.cls-8{fill:#00ccae;}.cls-9{fill:#00997c;}.cls-10{fill:#00ecd2;}.cls-11{fill:#00b294;}</style></defs><ellipse class="cls-1" cx="19" cy="45" rx="10" ry="5"/><path class="cls-2" d="M29,49c0,2.76-4.48,5-10,5S9,51.76,9,49V45c0,2.76,4.48,5,10,5s10-2.24,10-5Z"/><path class="cls-3" d="M19,50v4a18,18,0,0,1-5-.67v-4A18,18,0,0,0,19,50Z"/><path class="cls-4" d="M29,45v4c0,1.85-2,3.46-5,4.33v-4C27,48.46,29,46.85,29,45Z"/><ellipse class="cls-1" cx="19" cy="40" rx="10" ry="5"/><path class="cls-2" d="M29,44c0,2.76-4.48,5-10,5S9,46.76,9,44V40c0,2.76,4.48,5,10,5s10-2.24,10-5Z"/><path class="cls-3" d="M19,45v4a18,18,0,0,1-5-.67v-4A18,18,0,0,0,19,45Z"/><path class="cls-4" d="M29,40v4c0,1.85-2,3.46-5,4.33v-4C27,43.46,29,41.85,29,40Z"/><ellipse class="cls-1" cx="19" cy="35" rx="10" ry="5"/><path class="cls-2" d="M29,39c0,2.76-4.48,5-10,5S9,41.76,9,39V35c0,2.76,4.48,5,10,5s10-2.24,10-5Z"/><path class="cls-3" d="M19,40v4a18,18,0,0,1-5-.67v-4A18,18,0,0,0,19,40Z"/><path class="cls-4" d="M29,35v4c0,1.85-2,3.46-5,4.33v-4C27,38.46,29,36.85,29,35Z"/><ellipse class="cls-1" cx="20" cy="30" rx="10" ry="5"/><path class="cls-2" d="M30,34c0,2.76-4.48,5-10,5s-10-2.24-10-5V30c0,2.76,4.48,5,10,5s10-2.24,10-5Z"/><path class="cls-3" d="M20,35v4a18,18,0,0,1-5-.67v-4A18,18,0,0,0,20,35Z"/><path class="cls-4" d="M30,30v4c0,1.85-2,3.46-5,4.33v-4C28,33.46,30,31.85,30,30Z"/><ellipse class="cls-1" cx="19" cy="25" rx="10" ry="5"/><path class="cls-2" d="M29,29c0,2.76-4.48,5-10,5S9,31.76,9,29V25c0,2.76,4.48,5,10,5s10-2.24,10-5Z"/><path class="cls-3" d="M19,30v4a18,18,0,0,1-5-.67v-4A18,18,0,0,0,19,30Z"/><path class="cls-4" d="M29,25v4c0,1.85-2,3.46-5,4.33v-4C27,28.46,29,26.85,29,25Z"/><ellipse class="cls-1" cx="19" cy="20" rx="10" ry="5"/><path class="cls-2" d="M29,24c0,2.76-4.48,5-10,5S9,26.76,9,24V20c0,2.76,4.48,5,10,5s10-2.24,10-5Z"/><path class="cls-3" d="M19,25v4a18,18,0,0,1-5-.67v-4A18,18,0,0,0,19,25Z"/><path class="cls-4" d="M29,20v4c0,1.85-2,3.46-5,4.33v-4C27,23.46,29,21.85,29,20Z"/><ellipse class="cls-1" cx="20" cy="10" rx="10" ry="5"/><ellipse class="cls-1" cx="20" cy="15" rx="10" ry="5"/><ellipse class="cls-5" cx="19" cy="5" rx="10" ry="5"/><ellipse class="cls-6" cx="19" cy="5" rx="7" ry="3.5"/><ellipse class="cls-5" cx="19" cy="5" rx="6" ry="3"/><path class="cls-7" d="M20.21,8.44,19,10a18,18,0,0,1-5-.67l1.14-1.41A12.28,12.28,0,0,0,19,8.5,12,12,0,0,0,20.21,8.44Z"/><path class="cls-7" d="M25.75,1.32,24.54,2.87a9.45,9.45,0,0,0-4.28-1.31L21.39.15A14.54,14.54,0,0,1,25.75,1.32Z"/><path class="cls-2" d="M29,9c0,2.76-4.48,5-10,5S9,11.76,9,9V5c0,2.76,4.48,5,10,5S29,7.76,29,5Z"/><path class="cls-7" d="M24.11,3.43,20.65,7.88A11,11,0,0,1,19,8a10.49,10.49,0,0,1-3.48-.56L19.87,2A7.76,7.76,0,0,1,24.11,3.43Z"/><path class="cls-3" d="M19,10v4a18,18,0,0,1-5-.67v-4A18,18,0,0,0,19,10Z"/><path class="cls-6" d="M17.48,5h0A.8.8,0,0,1,17,4.35c0-.55.9-1,2-1s2,.45,2,1a.8.8,0,0,1-.48.65h0l1.2,1.5H16.28Z"/><path class="cls-4" d="M29,5V9c0,1.85-2,3.46-5,4.33v-4C27,8.46,29,6.85,29,5Z"/><path class="cls-2" d="M30,14c0,2.76-4.48,5-10,5s-10-2.24-10-5V10c0,2.76,4.48,5,10,5s10-2.24,10-5Z"/><path class="cls-3" d="M20,15v4a18,18,0,0,1-5-.67v-4A18,18,0,0,0,20,15Z"/><path class="cls-4" d="M30,10v4c0,1.85-2,3.46-5,4.33v-4C28,13.46,30,11.85,30,10Z"/><path class="cls-2" d="M30,19c0,2.76-4.48,5-10,5s-10-2.24-10-5V15c0,2.76,4.48,5,10,5s10-2.24,10-5Z"/><path class="cls-3" d="M20,20v4a18,18,0,0,1-5-.67v-4A18,18,0,0,0,20,20Z"/><path class="cls-4" d="M30,15v4c0,1.85-2,3.46-5,4.33v-4C28,18.46,30,16.85,30,15Z"/><rect class="cls-8" y="57" width="80" height="9"/><rect class="cls-8" y="66" width="80" height="8"/><rect class="cls-9" y="58" width="80" height="1"/><rect class="cls-9" y="60" width="80" height="1"/><rect class="cls-9" y="62" width="80" height="1"/><rect class="cls-9" y="64" width="80" height="1"/><rect class="cls-9" y="66" width="80" height="1"/><rect class="cls-9" y="68" width="80" height="1"/><rect class="cls-9" y="70" width="80" height="1"/><rect class="cls-9" y="72" width="80" height="1"/><polygon class="cls-10" points="78.5 55.5 4.5 55.5 21.5 38.5 95.5 38.5 78.5 55.5"/><ellipse class="cls-9" cx="50" cy="47" rx="11.44" ry="4.37" transform="translate(-9.46 12.74) rotate(-13.28)"/><path class="cls-6" d="M47.47,47h0c-.21-.29-.13-.67.28-1.08a8.12,8.12,0,0,1,5-1.67c1.84,0,2.59.75,1.67,1.67A5.5,5.5,0,0,1,52.53,47h0L52,49.5H43Z"/><ellipse class="cls-9" cx="27" cy="47" rx="3.43" ry="1.31" transform="translate(-10.08 7.46) rotate(-13.28)"/><path class="cls-6" d="M20,37,0,57H80l20-20ZM81.12,51.88A30,30,0,0,0,71.76,55H12.24c.3-1.42-.83-2.56-3.12-3.12l9.76-9.76A30,30,0,0,0,28.24,39H87.76c-.3,1.42.83,2.56,3.12,3.12Z"/><path class="cls-9" d="M20,37,0,57H80l20-20ZM81.77,52.23A26.71,26.71,0,0,0,72,55.5H11c.58-1.55-.65-2.78-3.27-3.27L18.23,41.77A26.71,26.71,0,0,0,28,38.5H89c-.58,1.55.65,2.78,3.27,3.27Z"/><ellipse class="cls-9" cx="73" cy="47" rx="3.43" ry="1.31" transform="translate(-8.85 18.03) rotate(-13.28)"/><polygon class="cls-11" points="80 66 80 57 100 37 100 46 80 66"/><polygon class="cls-11" points="80 74 80 66 100 46 100 54 80 74"/><polygon class="cls-9" points="80 58 100 38 100 39 80 59 80 58"/><polygon class="cls-9" points="80 60 100 40 100 41 80 61 80 60"/><polygon class="cls-9" points="80 62 100 42 100 43 80 63 80 62"/><polygon class="cls-9" points="80 64 100 44 100 45 80 65 80 64"/><polygon class="cls-9" points="80 66 100 46 100 47 80 67 80 66"/><polygon class="cls-9" points="80 68 100 48 100 49 80 69 80 68"/><polygon class="cls-9" points="80 70 100 50 100 51 80 71 80 70"/><polygon class="cls-9" points="80 72 100 52 100 53 80 73 80 72"/><ellipse class="cls-1" cx="80" cy="75" rx="10" ry="5"/><path class="cls-2" d="M90,79c0,2.76-4.48,5-10,5s-10-2.24-10-5V75c0,2.76,4.48,5,10,5s10-2.24,10-5Z"/><path class="cls-3" d="M80,80v4a18,18,0,0,1-5-.67v-4A18,18,0,0,0,80,80Z"/><path class="cls-4" d="M90,75v4c0,1.85-2,3.46-5,4.33v-4C88,78.46,90,76.85,90,75Z"/><ellipse class="cls-1" cx="80" cy="70" rx="10" ry="5"/><path class="cls-2" d="M90,74c0,2.76-4.48,5-10,5s-10-2.24-10-5V70c0,2.76,4.48,5,10,5s10-2.24,10-5Z"/><path class="cls-3" d="M80,75v4a18,18,0,0,1-5-.67v-4A18,18,0,0,0,80,75Z"/><path class="cls-4" d="M90,70v4c0,1.85-2,3.46-5,4.33v-4C88,73.46,90,71.85,90,70Z"/><ellipse class="cls-1" cx="80" cy="60" rx="10" ry="5"/><ellipse class="cls-1" cx="80" cy="65" rx="10" ry="5"/><ellipse class="cls-5" cx="79" cy="55" rx="10" ry="5"/><ellipse class="cls-6" cx="79" cy="55" rx="7" ry="3.5"/><ellipse class="cls-5" cx="79" cy="55" rx="6" ry="3"/><path class="cls-7" d="M80.21,58.44,79,60a18,18,0,0,1-5-.67l1.14-1.41A12.28,12.28,0,0,0,79,58.5,12,12,0,0,0,80.21,58.44Z"/><path class="cls-7" d="M85.75,51.32l-1.21,1.55a9.45,9.45,0,0,0-4.28-1.31l1.13-1.41A14.54,14.54,0,0,1,85.75,51.32Z"/><path class="cls-2" d="M89,59c0,2.76-4.48,5-10,5s-10-2.24-10-5V55c0,2.76,4.48,5,10,5s10-2.24,10-5Z"/><path class="cls-7" d="M84.11,53.43l-3.46,4.45A11,11,0,0,1,79,58a10.49,10.49,0,0,1-3.48-.56L79.87,52A7.76,7.76,0,0,1,84.11,53.43Z"/><path class="cls-3" d="M79,60v4a18,18,0,0,1-5-.67v-4A18,18,0,0,0,79,60Z"/><path class="cls-6" d="M77.48,55h0a.8.8,0,0,1-.48-.65c0-.55.9-1,2-1s2,.45,2,1a.8.8,0,0,1-.48.65h0l1.2,1.5H76.28Z"/><path class="cls-4" d="M89,55v4c0,1.85-2,3.46-5,4.33v-4C87,58.46,89,56.85,89,55Z"/><path class="cls-2" d="M90,64c0,2.76-4.48,5-10,5s-10-2.24-10-5V60c0,2.76,4.48,5,10,5s10-2.24,10-5Z"/><path class="cls-3" d="M80,65v4a18,18,0,0,1-5-.67v-4A18,18,0,0,0,80,65Z"/><path class="cls-4" d="M90,60v4c0,1.85-2,3.46-5,4.33v-4C88,63.46,90,61.85,90,60Z"/><path class="cls-2" d="M90,69c0,2.76-4.48,5-10,5s-10-2.24-10-5V65c0,2.76,4.48,5,10,5s10-2.24,10-5Z"/><path class="cls-3" d="M80,70v4a18,18,0,0,1-5-.67v-4A18,18,0,0,0,80,70Z"/><path class="cls-4" d="M90,65v4c0,1.85-2,3.46-5,4.33v-4C88,68.46,90,66.85,90,65Z"/></svg>