<svg id="Layer_1" data-name="Layer 1" xmlns="http://www.w3.org/2000/svg" viewBox="0 0 100 55.33"><defs><style>.cls-1{fill:#5938b2;}.cls-2{fill:#7544e0;}.cls-3{fill:#9169e6;}.cls-4{fill:#6640cc;}.cls-5{fill:#8958e1;}.cls-6{fill:#fff;}.cls-7{fill:#a179e7;}.cls-8{fill:#00ccae;}.cls-9{fill:#00997c;}.cls-10{fill:#00ecd2;}.cls-11{fill:#00b294;}</style></defs><ellipse class="cls-1" cx="20" cy="25" rx="10" ry="5"/><path class="cls-2" d="M30,29c0,2.76-4.48,5-10,5s-10-2.24-10-5V25c0,2.76,4.48,5,10,5s10-2.24,10-5Z"/><path class="cls-3" d="M20,30v4a18,18,0,0,1-5-.67v-4A18,18,0,0,0,20,30Z"/><path class="cls-4" d="M30,25v4c0,1.85-2,3.46-5,4.33v-4C28,28.46,30,26.85,30,25Z"/><ellipse class="cls-1" cx="20" cy="20" rx="10" ry="5"/><path class="cls-2" d="M30,24c0,2.76-4.48,5-10,5s-10-2.24-10-5V20c0,2.76,4.48,5,10,5s10-2.24,10-5Z"/><path class="cls-3" d="M20,25v4a18,18,0,0,1-5-.67v-4A18,18,0,0,0,20,25Z"/><path class="cls-4" d="M30,20v4c0,1.85-2,3.46-5,4.33v-4C28,23.46,30,21.85,30,20Z"/><ellipse class="cls-1" cx="20" cy="10" rx="10" ry="5"/><ellipse class="cls-1" cx="20" cy="15" rx="10" ry="5"/><ellipse class="cls-5" cx="19" cy="5" rx="10" ry="5"/><ellipse class="cls-6" cx="19" cy="5" rx="7" ry="3.5"/><ellipse class="cls-5" cx="19" cy="5" rx="6" ry="3"/><path class="cls-7" d="M20.21,8.44,19,10a18,18,0,0,1-5-.67l1.14-1.41A12.28,12.28,0,0,0,19,8.5,12,12,0,0,0,20.21,8.44Z"/><path class="cls-7" d="M25.75,1.32,24.54,2.87a9.45,9.45,0,0,0-4.28-1.31L21.39.15A14.54,14.54,0,0,1,25.75,1.32Z"/><path class="cls-2" d="M29,9c0,2.76-4.48,5-10,5S9,11.76,9,9V5c0,2.76,4.48,5,10,5S29,7.76,29,5Z"/><path class="cls-7" d="M24.11,3.43,20.65,7.88A11,11,0,0,1,19,8a10.49,10.49,0,0,1-3.48-.56L19.87,2A7.76,7.76,0,0,1,24.11,3.43Z"/><path class="cls-3" d="M19,10v4a18,18,0,0,1-5-.67v-4A18,18,0,0,0,19,10Z"/><path class="cls-6" d="M17.48,5h0A.8.8,0,0,1,17,4.35c0-.55.9-1,2-1s2,.45,2,1a.8.8,0,0,1-.48.65h0l1.2,1.5H16.28Z"/><path class="cls-4" d="M29,5V9c0,1.85-2,3.46-5,4.33v-4C27,8.46,29,6.85,29,5Z"/><path class="cls-2" d="M30,14c0,2.76-4.48,5-10,5s-10-2.24-10-5V10c0,2.76,4.48,5,10,5s10-2.24,10-5Z"/><path class="cls-3" d="M20,15v4a18,18,0,0,1-5-.67v-4A18,18,0,0,0,20,15Z"/><path class="cls-4" d="M30,10v4c0,1.85-2,3.46-5,4.33v-4C28,13.46,30,11.85,30,10Z"/><path class="cls-2" d="M30,19c0,2.76-4.48,5-10,5s-10-2.24-10-5V15c0,2.76,4.48,5,10,5s10-2.24,10-5Z"/><path class="cls-3" d="M20,20v4a18,18,0,0,1-5-.67v-4A18,18,0,0,0,20,20Z"/><path class="cls-4" d="M30,15v4c0,1.85-2,3.46-5,4.33v-4C28,18.46,30,16.85,30,15Z"/><rect class="cls-8" y="36.33" width="80" height="9"/><rect class="cls-9" y="37.33" width="80" height="1"/><rect class="cls-9" y="39.33" width="80" height="1"/><rect class="cls-9" y="41.33" width="80" height="1"/><rect class="cls-9" y="43.33" width="80" height="1"/><polygon class="cls-10" points="78.5 34.83 4.5 34.83 21.5 17.83 95.5 17.83 78.5 34.83"/><ellipse class="cls-9" cx="50" cy="26.33" rx="11.44" ry="4.37" transform="translate(-4.71 12.19) rotate(-13.28)"/><path class="cls-6" d="M47.47,26.33h0c-.21-.29-.13-.67.28-1.08a8.12,8.12,0,0,1,5-1.67c1.84,0,2.59.75,1.67,1.67a5.5,5.5,0,0,1-1.89,1.08h0l-.5,2.5H43Z"/><ellipse class="cls-9" cx="27" cy="26.33" rx="3.43" ry="1.31" transform="translate(-5.33 6.91) rotate(-13.28)"/><path class="cls-6" d="M20,16.33l-20,20H80l20-20ZM81.12,31.21a30,30,0,0,0-9.36,3.12H12.24c.3-1.42-.83-2.56-3.12-3.12l9.76-9.76a30,30,0,0,0,9.36-3.12H87.76c-.3,1.42.83,2.56,3.12,3.12Z"/><path class="cls-9" d="M20,16.33l-20,20H80l20-20ZM81.77,31.56A26.71,26.71,0,0,0,72,34.83H11c.58-1.55-.65-2.78-3.27-3.27L18.23,21.1A26.71,26.71,0,0,0,28,17.83H89c-.58,1.55.65,2.78,3.27,3.27Z"/><ellipse class="cls-9" cx="73" cy="26.33" rx="3.43" ry="1.31" transform="translate(-4.1 17.48) rotate(-13.28)"/><polygon class="cls-11" points="80 45.33 80 36.33 100 16.33 100 25.33 80 45.33"/><polygon class="cls-9" points="80 37.33 100 17.33 100 18.33 80 38.33 80 37.33"/><polygon class="cls-9" points="80 39.33 100 19.33 100 20.33 80 40.33 80 39.33"/><polygon class="cls-9" points="80 41.33 100 21.33 100 22.33 80 42.33 80 41.33"/><polygon class="cls-9" points="80 43.33 100 23.33 100 24.33 80 44.33 80 43.33"/><ellipse class="cls-1" cx="81" cy="41.33" rx="10" ry="5"/><ellipse class="cls-1" cx="81" cy="46.33" rx="10" ry="5"/><ellipse class="cls-5" cx="80" cy="36.33" rx="10" ry="5"/><ellipse class="cls-6" cx="80" cy="36.33" rx="7" ry="3.5"/><ellipse class="cls-5" cx="80" cy="36.33" rx="6" ry="3"/><path class="cls-7" d="M81.21,39.77,80,41.33a18,18,0,0,1-5-.67l1.14-1.41a12.28,12.28,0,0,0,3.86.58A12,12,0,0,0,81.21,39.77Z"/><path class="cls-7" d="M86.75,32.65,85.54,34.2a9.45,9.45,0,0,0-4.28-1.31l1.13-1.41A14.54,14.54,0,0,1,86.75,32.65Z"/><path class="cls-2" d="M90,40.33c0,2.76-4.48,5-10,5s-10-2.24-10-5v-4c0,2.76,4.48,5,10,5s10-2.24,10-5Z"/><path class="cls-7" d="M85.11,34.76l-3.46,4.45a11,11,0,0,1-1.65.12,10.49,10.49,0,0,1-3.48-.56l4.35-5.4A7.76,7.76,0,0,1,85.11,34.76Z"/><path class="cls-3" d="M80,41.33v4a18,18,0,0,1-5-.67v-4A18,18,0,0,0,80,41.33Z"/><path class="cls-6" d="M78.48,36.33h0a.81.81,0,0,1-.48-.65c0-.55.9-1,2-1s2,.45,2,1a.81.81,0,0,1-.48.65h0l1.2,1.5H77.28Z"/><path class="cls-4" d="M90,36.33v4c0,1.85-2,3.46-5,4.33v-4C88,39.79,90,38.18,90,36.33Z"/><path class="cls-2" d="M91,45.33c0,2.76-4.48,5-10,5s-10-2.24-10-5v-4c0,2.76,4.48,5,10,5s10-2.24,10-5Z"/><path class="cls-3" d="M81,46.33v4a18,18,0,0,1-5-.67v-4A18,18,0,0,0,81,46.33Z"/><path class="cls-4" d="M91,41.33v4c0,1.85-2,3.46-5,4.33v-4C89,44.79,91,43.18,91,41.33Z"/><path class="cls-2" d="M91,50.33c0,2.76-4.48,5-10,5s-10-2.24-10-5v-4c0,2.76,4.48,5,10,5s10-2.24,10-5Z"/><path class="cls-3" d="M81,51.33v4a18,18,0,0,1-5-.67v-4A18,18,0,0,0,81,51.33Z"/><path class="cls-4" d="M91,46.33v4c0,1.85-2,3.46-5,4.33v-4C89,49.79,91,48.18,91,46.33Z"/></svg>