<svg id="Layer_1" data-name="Layer 1" xmlns="http://www.w3.org/2000/svg" viewBox="0 0 41 59"><defs><style>.cls-1{fill:#5938b2;}.cls-2{fill:#7544e0;}.cls-3{fill:#9169e6;}.cls-4{fill:#6640cc;}.cls-5{fill:#8958e1;}.cls-6{fill:#fff;}.cls-7{fill:#a179e7;}</style></defs><ellipse class="cls-1" cx="21" cy="45" rx="10" ry="5"/><path class="cls-2" d="M31,49c0,2.76-4.48,5-10,5s-10-2.24-10-5V45c0,2.76,4.48,5,10,5s10-2.24,10-5Z"/><path class="cls-3" d="M21,50v4a18,18,0,0,1-5-.67v-4A18,18,0,0,0,21,50Z"/><path class="cls-4" d="M31,45v4c0,1.85-2,3.46-5,4.33v-4C29,48.46,31,46.85,31,45Z"/><ellipse class="cls-1" cx="21" cy="40" rx="10" ry="5"/><path class="cls-2" d="M31,44c0,2.76-4.48,5-10,5s-10-2.24-10-5V40c0,2.76,4.48,5,10,5s10-2.24,10-5Z"/><path class="cls-3" d="M21,45v4a18,18,0,0,1-5-.67v-4A18,18,0,0,0,21,45Z"/><path class="cls-4" d="M31,40v4c0,1.85-2,3.46-5,4.33v-4C29,43.46,31,41.85,31,40Z"/><ellipse class="cls-1" cx="21" cy="35" rx="10" ry="5"/><path class="cls-2" d="M31,39c0,2.76-4.48,5-10,5s-10-2.24-10-5V35c0,2.76,4.48,5,10,5s10-2.24,10-5Z"/><path class="cls-3" d="M21,40v4a18,18,0,0,1-5-.67v-4A18,18,0,0,0,21,40Z"/><path class="cls-4" d="M31,35v4c0,1.85-2,3.46-5,4.33v-4C29,38.46,31,36.85,31,35Z"/><ellipse class="cls-1" cx="22" cy="30" rx="10" ry="5"/><path class="cls-2" d="M32,34c0,2.76-4.48,5-10,5s-10-2.24-10-5V30c0,2.76,4.48,5,10,5s10-2.24,10-5Z"/><path class="cls-3" d="M22,35v4a18,18,0,0,1-5-.67v-4A18,18,0,0,0,22,35Z"/><path class="cls-4" d="M32,30v4c0,1.85-2,3.46-5,4.33v-4C30,33.46,32,31.85,32,30Z"/><ellipse class="cls-1" cx="21" cy="25" rx="10" ry="5"/><path class="cls-2" d="M31,29c0,2.76-4.48,5-10,5s-10-2.24-10-5V25c0,2.76,4.48,5,10,5s10-2.24,10-5Z"/><path class="cls-3" d="M21,30v4a18,18,0,0,1-5-.67v-4A18,18,0,0,0,21,30Z"/><path class="cls-4" d="M31,25v4c0,1.85-2,3.46-5,4.33v-4C29,28.46,31,26.85,31,25Z"/><ellipse class="cls-1" cx="21" cy="20" rx="10" ry="5"/><path class="cls-2" d="M31,24c0,2.76-4.48,5-10,5s-10-2.24-10-5V20c0,2.76,4.48,5,10,5s10-2.24,10-5Z"/><path class="cls-3" d="M21,25v4a18,18,0,0,1-5-.67v-4A18,18,0,0,0,21,25Z"/><path class="cls-4" d="M31,20v4c0,1.85-2,3.46-5,4.33v-4C29,23.46,31,21.85,31,20Z"/><ellipse class="cls-1" cx="22" cy="10" rx="10" ry="5"/><ellipse class="cls-1" cx="22" cy="15" rx="10" ry="5"/><ellipse class="cls-5" cx="21" cy="5" rx="10" ry="5"/><ellipse class="cls-6" cx="21" cy="5" rx="7" ry="3.5"/><ellipse class="cls-5" cx="21" cy="5" rx="6" ry="3"/><path class="cls-7" d="M22.21,8.44,21,10a18,18,0,0,1-5-.67l1.14-1.41A12.28,12.28,0,0,0,21,8.5,12,12,0,0,0,22.21,8.44Z"/><path class="cls-7" d="M27.75,1.32,26.54,2.87a9.45,9.45,0,0,0-4.28-1.31L23.39.15A14.54,14.54,0,0,1,27.75,1.32Z"/><path class="cls-2" d="M31,9c0,2.76-4.48,5-10,5S11,11.76,11,9V5c0,2.76,4.48,5,10,5S31,7.76,31,5Z"/><path class="cls-7" d="M26.11,3.43,22.65,7.88A11,11,0,0,1,21,8a10.49,10.49,0,0,1-3.48-.56L21.87,2A7.76,7.76,0,0,1,26.11,3.43Z"/><path class="cls-3" d="M21,10v4a18,18,0,0,1-5-.67v-4A18,18,0,0,0,21,10Z"/><path class="cls-6" d="M19.48,5h0A.8.8,0,0,1,19,4.35c0-.55.9-1,2-1s2,.45,2,1a.8.8,0,0,1-.48.65h0l1.2,1.5H18.28Z"/><path class="cls-4" d="M31,5V9c0,1.85-2,3.46-5,4.33v-4C29,8.46,31,6.85,31,5Z"/><path class="cls-2" d="M32,14c0,2.76-4.48,5-10,5s-10-2.24-10-5V10c0,2.76,4.48,5,10,5s10-2.24,10-5Z"/><path class="cls-3" d="M22,15v4a18,18,0,0,1-5-.67v-4A18,18,0,0,0,22,15Z"/><path class="cls-4" d="M32,10v4c0,1.85-2,3.46-5,4.33v-4C30,13.46,32,11.85,32,10Z"/><path class="cls-2" d="M32,19c0,2.76-4.48,5-10,5s-10-2.24-10-5V15c0,2.76,4.48,5,10,5s10-2.24,10-5Z"/><path class="cls-3" d="M22,20v4a18,18,0,0,1-5-.67v-4A18,18,0,0,0,22,20Z"/><path class="cls-4" d="M32,15v4c0,1.85-2,3.46-5,4.33v-4C30,18.46,32,16.85,32,15Z"/><ellipse class="cls-1" cx="11" cy="45" rx="10" ry="5"/><ellipse class="cls-1" cx="11" cy="50" rx="10" ry="5"/><ellipse class="cls-5" cx="10" cy="40" rx="10" ry="5"/><ellipse class="cls-6" cx="10" cy="40" rx="7" ry="3.5"/><ellipse class="cls-5" cx="10" cy="40" rx="6" ry="3"/><path class="cls-7" d="M11.21,43.44,10,45a18,18,0,0,1-5-.67l1.14-1.41A12.28,12.28,0,0,0,10,43.5,12,12,0,0,0,11.21,43.44Z"/><path class="cls-7" d="M16.75,36.32l-1.21,1.55a9.45,9.45,0,0,0-4.28-1.31l1.13-1.41A14.54,14.54,0,0,1,16.75,36.32Z"/><path class="cls-2" d="M20,44c0,2.76-4.48,5-10,5S0,46.76,0,44V40c0,2.76,4.48,5,10,5s10-2.24,10-5Z"/><path class="cls-7" d="M15.11,38.43l-3.46,4.45A11,11,0,0,1,10,43a10.49,10.49,0,0,1-3.48-.56L10.87,37A7.76,7.76,0,0,1,15.11,38.43Z"/><path class="cls-3" d="M10,45v4a18,18,0,0,1-5-.67v-4A18,18,0,0,0,10,45Z"/><path class="cls-6" d="M8.48,40h0A.81.81,0,0,1,8,39.35c0-.55.9-1,2-1s2,.45,2,1a.81.81,0,0,1-.48.65h0l1.2,1.5H7.28Z"/><path class="cls-4" d="M20,40v4c0,1.85-2,3.46-5,4.33v-4C18,43.46,20,41.85,20,40Z"/><path class="cls-2" d="M21,49c0,2.76-4.48,5-10,5S1,51.76,1,49V45c0,2.76,4.48,5,10,5s10-2.24,10-5Z"/><path class="cls-3" d="M11,50v4a18,18,0,0,1-5-.67v-4A18,18,0,0,0,11,50Z"/><path class="cls-4" d="M21,45v4c0,1.85-2,3.46-5,4.33v-4C19,48.46,21,46.85,21,45Z"/><path class="cls-2" d="M21,54c0,2.76-4.48,5-10,5S1,56.76,1,54V50c0,2.76,4.48,5,10,5s10-2.24,10-5Z"/><path class="cls-3" d="M11,55v4a18,18,0,0,1-5-.67v-4A18,18,0,0,0,11,55Z"/><path class="cls-4" d="M21,50v4c0,1.85-2,3.46-5,4.33v-4C19,53.46,21,51.85,21,50Z"/><ellipse class="cls-1" cx="31" cy="49.67" rx="10" ry="5"/><path class="cls-2" d="M41,53.67c0,2.76-4.48,5-10,5s-10-2.24-10-5v-4c0,2.76,4.48,5,10,5s10-2.24,10-5Z"/><path class="cls-3" d="M31,54.67v4A18,18,0,0,1,26,58V54A18,18,0,0,0,31,54.67Z"/><path class="cls-4" d="M41,49.67v4c0,1.85-2,3.46-5,4.33V54C39,53.13,41,51.52,41,49.67Z"/><ellipse class="cls-1" cx="31" cy="44.67" rx="10" ry="5"/><path class="cls-2" d="M41,48.67c0,2.76-4.48,5-10,5s-10-2.24-10-5v-4c0,2.76,4.48,5,10,5s10-2.24,10-5Z"/><path class="cls-3" d="M31,49.67v4A18,18,0,0,1,26,53V49A18,18,0,0,0,31,49.67Z"/><path class="cls-4" d="M41,44.67v4c0,1.85-2,3.46-5,4.33V49C39,48.13,41,46.52,41,44.67Z"/><ellipse class="cls-1" cx="30" cy="39.67" rx="10" ry="5"/><path class="cls-2" d="M40,43.67c0,2.76-4.48,5-10,5s-10-2.24-10-5v-4c0,2.76,4.48,5,10,5s10-2.24,10-5Z"/><path class="cls-3" d="M30,44.67v4A18,18,0,0,1,25,48V44A18,18,0,0,0,30,44.67Z"/><path class="cls-4" d="M40,39.67v4c0,1.85-2,3.46-5,4.33V44C38,43.13,40,41.52,40,39.67Z"/><ellipse class="cls-1" cx="31" cy="34.67" rx="10" ry="5"/><path class="cls-2" d="M41,38.67c0,2.76-4.48,5-10,5s-10-2.24-10-5v-4c0,2.76,4.48,5,10,5s10-2.24,10-5Z"/><path class="cls-3" d="M31,39.67v4A18,18,0,0,1,26,43V39A18,18,0,0,0,31,39.67Z"/><path class="cls-4" d="M41,34.67v4c0,1.85-2,3.46-5,4.33V39C39,38.13,41,36.52,41,34.67Z"/><ellipse class="cls-1" cx="31" cy="29.67" rx="10" ry="5"/><path class="cls-2" d="M41,33.67c0,2.76-4.48,5-10,5s-10-2.24-10-5v-4c0,2.76,4.48,5,10,5s10-2.24,10-5Z"/><path class="cls-3" d="M31,34.67v4A18,18,0,0,1,26,38V34A18,18,0,0,0,31,34.67Z"/><path class="cls-4" d="M41,29.67v4c0,1.85-2,3.46-5,4.33V34C39,33.13,41,31.52,41,29.67Z"/><ellipse class="cls-1" cx="30" cy="19.67" rx="10" ry="5"/><ellipse class="cls-1" cx="30" cy="24.67" rx="10" ry="5"/><ellipse class="cls-5" cx="31" cy="14.67" rx="10" ry="5"/><ellipse class="cls-6" cx="31" cy="14.67" rx="7" ry="3.5"/><ellipse class="cls-5" cx="31" cy="14.67" rx="6" ry="3"/><path class="cls-7" d="M32.21,18.11,31,19.67A18,18,0,0,1,26,19l1.14-1.41a12.28,12.28,0,0,0,3.86.58A12,12,0,0,0,32.21,18.11Z"/><path class="cls-7" d="M37.75,11l-1.21,1.55a9.45,9.45,0,0,0-4.28-1.31l1.13-1.41A14.54,14.54,0,0,1,37.75,11Z"/><path class="cls-2" d="M41,18.67c0,2.76-4.48,5-10,5s-10-2.24-10-5v-4c0,2.76,4.48,5,10,5s10-2.24,10-5Z"/><path class="cls-7" d="M36.11,13.1l-3.46,4.45a11,11,0,0,1-1.65.12,10.49,10.49,0,0,1-3.48-.56l4.35-5.4A7.76,7.76,0,0,1,36.11,13.1Z"/><path class="cls-3" d="M31,19.67v4A18,18,0,0,1,26,23V19A18,18,0,0,0,31,19.67Z"/><path class="cls-6" d="M29.48,14.67h0A.8.8,0,0,1,29,14c0-.55.9-1,2-1s2,.45,2,1a.8.8,0,0,1-.48.65h0l1.2,1.5H28.28Z"/><path class="cls-4" d="M41,14.67v4c0,1.85-2,3.46-5,4.33V19C39,18.13,41,16.52,41,14.67Z"/><path class="cls-2" d="M40,23.67c0,2.76-4.48,5-10,5s-10-2.24-10-5v-4c0,2.76,4.48,5,10,5s10-2.24,10-5Z"/><path class="cls-3" d="M30,24.67v4A18,18,0,0,1,25,28V24A18,18,0,0,0,30,24.67Z"/><path class="cls-4" d="M40,19.67v4c0,1.85-2,3.46-5,4.33V24C38,23.13,40,21.52,40,19.67Z"/><path class="cls-2" d="M40,28.67c0,2.76-4.48,5-10,5s-10-2.24-10-5v-4c0,2.76,4.48,5,10,5s10-2.24,10-5Z"/><path class="cls-3" d="M30,29.67v4A18,18,0,0,1,25,33V29A18,18,0,0,0,30,29.67Z"/><path class="cls-4" d="M40,24.67v4c0,1.85-2,3.46-5,4.33V29C38,28.13,40,26.52,40,24.67Z"/></svg>