<svg id="Layer_1" data-name="Layer 1" xmlns="http://www.w3.org/2000/svg" viewBox="0 0 31 29"><defs><style>.cls-1{fill:#5938b2;}.cls-2{fill:#8958e1;}.cls-3{fill:#fff;}.cls-4{fill:#a179e7;}.cls-5{fill:#7544e0;}.cls-6{fill:#9169e6;}.cls-7{fill:#6640cc;}</style></defs><ellipse class="cls-1" cx="11" cy="10" rx="10" ry="5"/><ellipse class="cls-1" cx="11" cy="15" rx="10" ry="5"/><ellipse class="cls-2" cx="10" cy="5" rx="10" ry="5"/><ellipse class="cls-3" cx="10" cy="5" rx="7" ry="3.5"/><ellipse class="cls-2" cx="10" cy="5" rx="6" ry="3"/><path class="cls-4" d="M11.21,8.44,10,10a18,18,0,0,1-5-.67L6.14,7.92A12.28,12.28,0,0,0,10,8.5,12,12,0,0,0,11.21,8.44Z"/><path class="cls-4" d="M16.75,1.32,15.54,2.87a9.45,9.45,0,0,0-4.28-1.31L12.39.15A14.54,14.54,0,0,1,16.75,1.32Z"/><path class="cls-5" d="M20,9c0,2.76-4.48,5-10,5S0,11.76,0,9V5c0,2.76,4.48,5,10,5S20,7.76,20,5Z"/><path class="cls-4" d="M15.11,3.43,11.65,7.88A11,11,0,0,1,10,8a10.49,10.49,0,0,1-3.48-.56L10.87,2A7.76,7.76,0,0,1,15.11,3.43Z"/><path class="cls-6" d="M10,10v4a18,18,0,0,1-5-.67v-4A18,18,0,0,0,10,10Z"/><path class="cls-3" d="M8.48,5h0A.8.8,0,0,1,8,4.35c0-.55.9-1,2-1s2,.45,2,1a.8.8,0,0,1-.48.65h0l1.2,1.5H7.28Z"/><path class="cls-7" d="M20,5V9c0,1.85-2,3.46-5,4.33v-4C18,8.46,20,6.85,20,5Z"/><path class="cls-5" d="M21,14c0,2.76-4.48,5-10,5S1,16.76,1,14V10c0,2.76,4.48,5,10,5s10-2.24,10-5Z"/><path class="cls-6" d="M11,15v4a18,18,0,0,1-5-.67v-4A18,18,0,0,0,11,15Z"/><path class="cls-7" d="M21,10v4c0,1.85-2,3.46-5,4.33v-4C19,13.46,21,11.85,21,10Z"/><path class="cls-5" d="M21,19c0,2.76-4.48,5-10,5S1,21.76,1,19V15c0,2.76,4.48,5,10,5s10-2.24,10-5Z"/><path class="cls-6" d="M11,20v4a18,18,0,0,1-5-.67v-4A18,18,0,0,0,11,20Z"/><path class="cls-7" d="M21,15v4c0,1.85-2,3.46-5,4.33v-4C19,18.46,21,16.85,21,15Z"/><ellipse class="cls-2" cx="21" cy="20" rx="10" ry="5"/><ellipse class="cls-3" cx="21" cy="20" rx="7" ry="3.5"/><ellipse class="cls-2" cx="21" cy="20" rx="6" ry="3"/><path class="cls-4" d="M22.21,23.44,21,25a18,18,0,0,1-5-.67l1.14-1.41A12.28,12.28,0,0,0,21,23.5,12,12,0,0,0,22.21,23.44Z"/><path class="cls-4" d="M27.75,16.32l-1.21,1.55a9.45,9.45,0,0,0-4.28-1.31l1.13-1.41A14.54,14.54,0,0,1,27.75,16.32Z"/><path class="cls-5" d="M31,24c0,2.76-4.48,5-10,5s-10-2.24-10-5V20c0,2.76,4.48,5,10,5s10-2.24,10-5Z"/><path class="cls-4" d="M26.11,18.43l-3.46,4.45A11,11,0,0,1,21,23a10.49,10.49,0,0,1-3.48-.56L21.87,17A7.76,7.76,0,0,1,26.11,18.43Z"/><path class="cls-6" d="M21,25v4a18,18,0,0,1-5-.67v-4A18,18,0,0,0,21,25Z"/><path class="cls-3" d="M19.48,20h0a.81.81,0,0,1-.48-.65c0-.55.9-1,2-1s2,.45,2,1a.81.81,0,0,1-.48.65h0l1.2,1.5H18.28Z"/><path class="cls-7" d="M31,20v4c0,1.85-2,3.46-5,4.33v-4C29,23.46,31,21.85,31,20Z"/></svg>