<svg width="34" height="24" viewBox="0 0 34 24" fill="none" xmlns="http://www.w3.org/2000/svg">
<rect width="34" height="24" rx="4" fill="white"/>
<path d="M8.8796 8.79834H4.12156C3.50193 8.79834 3 9.30489 3 9.92916V14.7275C3 15.3518 3.50193 15.8584 4.12156 15.8584H8.8796C9.49923 15.8584 10.0005 15.3518 10.0005 14.7275V9.92916C10.0012 9.30423 9.49923 8.79834 8.8796 8.79834Z" fill="#1677FF"/>
<path d="M8.76404 13.2315C8.48431 13.1369 8.10803 12.9921 7.68943 12.8393C7.94072 12.3983 8.14175 11.8963 8.27401 11.3508H6.89389V10.8495H8.58416V10.5698H6.89389V9.73389H6.20415C6.08314 9.73389 6.08314 9.85424 6.08314 9.85424V10.5691H4.37368V10.8488H6.08314V11.3501H4.67127V11.6298H7.40904C7.30918 11.9777 7.17428 12.305 7.0149 12.6019C6.12678 12.3063 5.17848 12.0669 4.58331 12.2144C4.20241 12.309 3.95706 12.4776 3.8129 12.6548C3.1516 13.4662 3.62575 14.6989 5.02241 14.6989C5.84837 14.6989 6.64392 14.2347 7.26024 13.4696C8.18011 13.9153 10.0007 14.6811 10.0007 14.6811V13.5899C10.0013 13.5899 9.77251 13.5714 8.76404 13.2315ZM4.89214 14.2274C3.80298 14.2274 3.48093 13.3624 4.01923 12.8889C4.1991 12.7289 4.5271 12.6509 4.70169 12.6337C5.34843 12.5695 5.94757 12.8182 6.6545 13.166C6.15786 13.8194 5.525 14.2274 4.89214 14.2274Z" fill="white"/>
<path d="M18.2012 9.83174C18.2012 10.1968 18.4683 10.4428 18.8406 10.4428C19.213 10.4428 19.4801 10.1968 19.4801 9.83174C19.4801 9.47332 19.213 9.2207 18.8406 9.2207C18.4683 9.2207 18.2012 9.47332 18.2012 9.83174Z" fill="#1677FF"/>
<path d="M17.5267 9.375H16.417V14.5027H17.5267V9.375Z" fill="black"/>
<path d="M14.4716 9.55078H12.9824L11.3179 14.5032H12.3435L12.6246 13.5338H14.3876L14.6548 14.5032H15.9681L14.4716 9.55078ZM12.856 12.7257L13.516 10.4429H13.5438L14.1687 12.7257H12.856Z" fill="black"/>
<path d="M19.3953 10.7378H18.2856V14.5032H19.3953V10.7378Z" fill="black"/>
<path d="M30.9933 10.7451L31 10.7378H29.9538L29.2931 13.0279H29.2581L28.4996 10.7378H27.2563L28.7522 14.5171L28.1273 15.6691V15.6969H29.1034L30.9933 10.7451Z" fill="black"/>
<path d="M22.1564 10.6606C21.749 10.6606 21.4329 10.8154 21.0745 11.1103V10.738H19.9648V15.6971H21.0745V14.4677C21.2855 14.5239 21.4819 14.5524 21.7206 14.5524C22.7112 14.5524 23.6033 13.8216 23.6033 12.5222C23.6033 11.3563 22.9572 10.6606 22.1564 10.6606ZM21.4534 13.8567C21.3271 13.8567 21.2074 13.8428 21.0738 13.8005V11.7637C21.306 11.6023 21.4951 11.525 21.7338 11.525C22.1484 11.525 22.4784 11.8549 22.4784 12.5579C22.4791 13.4566 21.9944 13.8567 21.4534 13.8567Z" fill="black"/>
<path d="M27.038 13.5618V11.9885C27.038 11.1315 26.5321 10.6606 25.64 10.6606C25.0707 10.6606 24.6779 10.7592 23.961 10.9767L24.1574 11.8411C24.8108 11.5461 25.0984 11.4198 25.4007 11.4198C25.7657 11.4198 25.9277 11.6797 25.9277 12.0805V12.1082C24.656 12.347 24.2626 12.4805 24.0172 12.7265C23.8347 12.9091 23.7573 13.1689 23.7573 13.4712C23.7573 14.1946 24.3194 14.5808 24.8458 14.5808C25.2393 14.5808 25.5554 14.4333 25.9839 14.11L26.0613 14.5034H27.1709L27.038 13.5618ZM25.9284 13.5902C25.6334 13.7515 25.4648 13.815 25.2684 13.815C25.0012 13.815 24.8326 13.6391 24.8326 13.3587C24.8326 13.2536 24.8538 13.1478 24.9377 13.0638C25.0713 12.9302 25.3312 12.8317 25.9284 12.6915V13.5902Z" fill="black"/>
</svg>
