<svg width="34" height="24" viewBox="0 0 34 24" fill="none" xmlns="http://www.w3.org/2000/svg">
<rect width="34" height="24" rx="4" fill="white"/>
<path fill-rule="evenodd" clip-rule="evenodd" d="M27.2932 13.9481H28.1318H28.1325C28.2202 13.9499 28.2931 13.8774 28.2964 13.7852V11.3417C28.2964 11.0348 28.312 10.7577 28.4297 10.4805C28.5105 10.2697 28.7008 10.1277 28.9167 10.1172C29.4532 10.1172 29.448 10.7352 29.444 11.2206C29.4436 11.2616 29.4433 11.3016 29.4433 11.3402V13.8056C29.4537 13.8847 29.5164 13.9447 29.5922 13.9481H30.4383C30.5185 13.9499 30.5876 13.889 30.5999 13.8056V10.9487C30.5999 10.5095 30.5999 9.89802 30.3802 9.53474C30.1426 9.14328 29.7747 9 29.3979 9C28.8169 9 28.487 9.29595 28.2517 9.91681H28.2353V9.22235C28.2183 9.14975 28.1574 9.09791 28.0863 9.09552H27.3058C27.2234 9.09338 27.1531 9.15806 27.1442 9.24427V13.7852C27.1453 13.8723 27.2105 13.9436 27.2932 13.9481ZM26.5038 11.5664C26.5038 10.1337 25.8283 9.00626 24.5793 9.00626C23.3624 9.00626 22.6869 10.1149 22.6869 11.5187C22.6869 12.9225 23.3542 14.0499 24.5793 14.0499C25.759 14.0499 26.5038 12.9514 26.5038 11.5664ZM23.9276 11.3754C23.9276 10.8211 23.9671 9.93325 24.5875 9.93325C24.8541 9.93325 25.0425 10.0593 25.1371 10.3725C25.2473 10.735 25.263 11.1938 25.263 11.5758C25.263 12.1583 25.2384 13.1135 24.5793 13.1135C23.9274 13.1135 23.9275 11.9554 23.9276 11.3938L23.9276 11.3754ZM8.19093 13.9575H9.03177H9.03251C9.07471 13.9585 9.11557 13.9419 9.14604 13.9111C9.17652 13.8804 9.19409 13.8382 9.19487 13.7938V11.3879L9.19485 11.3503C9.19451 10.8271 9.19405 10.1352 9.77578 10.1352C10.3136 10.1352 10.3053 10.7431 10.2985 11.2341V11.2341V11.2341V11.2341V11.2341C10.2978 11.287 10.2971 11.3386 10.2971 11.3879V13.7946C10.2985 13.8815 10.3635 13.9526 10.4461 13.9575H11.2891C11.3312 13.9583 11.3719 13.9415 11.4022 13.9109C11.4325 13.8802 11.45 13.8381 11.4507 13.7938V11.3879L11.4507 11.3307V11.3307C11.4502 11.0758 11.4495 10.7318 11.5297 10.5181C11.6115 10.2996 11.8092 10.1534 12.0324 10.1462C12.2759 10.1462 12.4644 10.2323 12.5269 10.5377C12.5588 10.6846 12.5547 11.0253 12.552 11.2512V11.2512L12.552 11.2513C12.5513 11.3046 12.5507 11.3515 12.5507 11.3879V13.7946C12.5518 13.8817 12.617 13.9529 12.6997 13.9575H13.5405C13.5827 13.9585 13.6236 13.9419 13.6541 13.9111C13.6845 13.8804 13.7021 13.8382 13.7029 13.7938V10.9291C13.7029 10.8593 13.704 10.788 13.7052 10.7159V10.7159V10.7158V10.7158V10.7157C13.7121 10.288 13.7194 9.83268 13.4906 9.50576C13.2133 9.13493 12.7673 8.95015 12.3239 9.02235C11.8805 9.09455 11.5086 9.41252 11.3509 9.85416C11.1149 9.28028 10.7775 9.0133 10.2591 9.0133C9.74078 9.0133 9.35574 9.28028 9.15167 9.85416H9.13603V9.26149C9.1316 9.17701 9.06744 9.10956 8.98708 9.1049H8.20285C8.11625 9.104 8.04481 9.17597 8.04198 9.26697V13.8079C8.04961 13.8897 8.11293 13.9532 8.19093 13.9575ZM6.72748 13.992C6.6721 14.0424 6.59251 14.0509 6.52863 14.0131C6.29034 13.8047 6.21849 13.692 6.10816 13.519L6.10816 13.519L6.10815 13.519C6.08918 13.4892 6.06906 13.4577 6.04677 13.4235C5.58428 13.9184 5.25733 14.0663 4.65929 14.0663C3.95102 14.0663 3.3999 13.6068 3.3999 12.6876C3.3999 11.9697 3.77228 11.4819 4.29361 11.2423C4.67857 11.0647 5.1922 11.0096 5.63627 10.962C5.71883 10.9531 5.79899 10.9445 5.87548 10.9354V10.8211C5.87548 10.7993 5.87564 10.777 5.87581 10.7545C5.87729 10.5596 5.87892 10.3426 5.77344 10.1791C5.67067 10.0163 5.47554 9.9497 5.30127 9.9497C4.98028 9.9497 4.69429 10.1227 4.62428 10.4805C4.61541 10.564 4.55432 10.6308 4.47533 10.6434L3.66653 10.5502C3.62617 10.5441 3.58994 10.5209 3.5663 10.486C3.54265 10.4511 3.53366 10.4075 3.54141 10.3654C3.72834 9.32571 4.62205 9.01176 5.42266 9.01176C5.83228 9.01176 6.36702 9.12606 6.68875 9.45176C7.06644 9.8235 7.06411 10.3101 7.06155 10.842C7.06134 10.8859 7.06113 10.9301 7.06113 10.9746V12.3517C7.06113 12.7226 7.19203 12.9071 7.32992 13.1014C7.3463 13.1245 7.36277 13.1478 7.37914 13.1714C7.43276 13.2497 7.44468 13.3476 7.37914 13.4063C7.2071 13.5574 6.90175 13.8361 6.73418 13.9935L6.72748 13.992ZM5.87919 11.8358L5.87921 11.8786C5.87951 12.2043 5.87976 12.4804 5.72204 12.7753C5.58799 13.0242 5.37573 13.1777 5.1389 13.1777C4.81642 13.1777 4.628 12.9193 4.628 12.5357C4.628 11.7825 5.27072 11.6455 5.87919 11.6455V11.8358ZM18.3567 13.0982C18.3731 13.1213 18.3896 13.1446 18.406 13.1683C18.4626 13.2497 18.4746 13.3452 18.4023 13.3993C18.2303 13.5504 17.9249 13.8299 17.7574 13.9865C17.7016 14.0363 17.6223 14.0444 17.5585 14.0068C17.3192 13.7975 17.2483 13.6865 17.1364 13.5112L17.1363 13.5111C17.1176 13.4818 17.0978 13.4508 17.0759 13.4173C16.6142 13.9121 16.285 14.0601 15.6892 14.0601C14.9809 14.0601 14.4298 13.6005 14.4298 12.6821C14.4298 11.9634 14.7999 11.4756 15.3272 11.236C15.713 11.0578 16.2295 11.0029 16.6749 10.9556C16.7557 10.947 16.8342 10.9387 16.9091 10.9299V10.818C16.9091 10.7962 16.9092 10.7741 16.9094 10.7517C16.9109 10.5567 16.9125 10.3397 16.8063 10.1767C16.7065 10.0139 16.5077 9.94656 16.3341 9.94656C16.0131 9.94656 15.7286 10.1196 15.6579 10.4774C15.6488 10.5607 15.5878 10.6274 15.5089 10.6402L14.6934 10.5478C14.6528 10.542 14.6162 10.5188 14.5924 10.4836C14.5686 10.4485 14.5596 10.4046 14.5676 10.3623C14.7552 9.32179 15.6489 9.00862 16.4496 9.00862C16.8584 9.00862 17.3932 9.12292 17.7157 9.44862C18.0941 9.81843 18.0915 10.3013 18.0885 10.8304C18.0883 10.8771 18.088 10.9241 18.088 10.9714V12.3494C18.088 12.7195 18.2189 12.9039 18.3567 13.0982ZM16.1703 13.173C16.4064 13.173 16.6194 13.0195 16.7527 12.7713C16.9109 12.4749 16.9108 12.1974 16.9106 11.8677L16.9106 11.8326V11.6416C16.3021 11.6416 15.6594 11.7778 15.6594 12.5318C15.6594 12.9146 15.8478 13.173 16.1703 13.173ZM19.118 9.25131V9.898C19.1175 9.94237 19.1344 9.98498 19.1647 10.0159C19.1949 10.0468 19.2359 10.0634 19.2781 10.0616H20.7259L19.0659 12.567C18.9901 12.7014 18.9543 12.8565 18.9631 13.0125V13.6741C18.9631 13.7696 19.0636 13.8784 19.1597 13.8244C20.0753 13.3253 21.1641 13.3233 22.0814 13.8189C22.1864 13.8761 22.2854 13.7657 22.2854 13.6701V12.9749C22.2826 12.8686 22.2258 12.7721 22.1365 12.722C21.6531 12.4363 21.0909 12.3525 20.5591 12.3658L21.992 10.2159C22.1253 10.0233 22.1998 9.90114 22.1998 9.80797V9.25131C22.2002 9.20709 22.1834 9.1646 22.1534 9.1337C22.1233 9.10281 22.0825 9.08618 22.0404 9.08768H19.2751C19.233 9.08519 19.1919 9.10157 19.162 9.13277C19.132 9.16396 19.116 9.20703 19.118 9.25131Z" fill="black"/>
<path fill-rule="evenodd" clip-rule="evenodd" d="M20.5009 16.845C20.6923 16.3447 21.1183 15.2236 20.9157 14.9519H20.9172C20.7155 14.6796 19.5835 14.8225 19.0743 14.8868L19.0732 14.8869C18.9183 14.9065 18.8945 14.7648 19.0337 14.6622C19.9379 13.9944 21.4192 14.1854 21.5912 14.4109C21.7633 14.6364 21.5443 16.1975 20.6975 16.9429C20.5672 17.0572 20.4428 16.9961 20.5009 16.845ZM14.417 17.617C16.3861 17.617 18.6792 16.9632 20.2589 15.738V15.7403C20.5203 15.5336 20.2961 15.2298 20.0295 15.3489C18.3052 16.1134 16.4544 16.5125 14.5831 16.5232C11.9868 16.5232 9.47551 15.7748 7.44381 14.5323C7.26582 14.4234 7.13325 14.6153 7.2822 14.7554C9.23816 16.6106 11.7826 17.6311 14.417 17.617Z" fill="#FF9900"/>
</svg>
