<svg width="34" height="24" viewBox="0 0 34 24" fill="none" xmlns="http://www.w3.org/2000/svg">
<rect width="34" height="24" rx="4" fill="white"/>
<path fill-rule="evenodd" clip-rule="evenodd" d="M15.8382 19.2998H18.4343C22.4868 19.2998 25.716 16.0848 25.8427 12.1133V12.0503C25.7794 8.01572 22.4868 4.73766 18.4343 4.8007H15.5216C11.6592 4.92678 8.61986 8.20484 8.74649 12.1133C8.74649 16.0217 11.9125 19.2368 15.8382 19.2998ZM10.0129 12.0502C10.0129 8.77216 12.7356 6.06146 16.0282 6.06146C19.3208 6.06146 22.0435 8.77216 22.0435 12.0502C22.0435 15.3283 19.3208 18.039 16.0282 18.039C12.7356 18.039 10.0129 15.3283 10.0129 12.0502ZM16.978 16.0848V8.07874C19.1942 8.64609 20.5872 10.8525 20.0173 13.0589C19.6374 14.5718 18.4977 15.7065 16.978 16.0848ZM12.1024 11.0416C11.5325 13.248 12.8622 15.5174 15.0784 16.0848V8.07874C13.6221 8.45697 12.4823 9.59169 12.1024 11.0416Z" fill="#0079BE"/>
</svg>
