<svg width="34" height="24" viewBox="0 0 34 24" fill="none" xmlns="http://www.w3.org/2000/svg">
<rect width="34" height="24" rx="4" fill="white"/>
<path fill-rule="evenodd" clip-rule="evenodd" d="M6.18117 7.74278C5.57833 7.74376 5.09059 8.1883 5.08942 8.73765V8.73766V15.3427V15.3427C5.08956 15.4114 5.09732 15.4784 5.11194 15.5431C5.13027 15.6242 5.15941 15.7017 5.19793 15.7743C5.3745 16.1072 5.74813 16.3368 6.18117 16.3376H17.5403V16.3376V7.74279V7.74278H6.18117ZM6.18116 7H27.9209C28.974 7.00016 29.8273 7.77758 29.8276 8.73765V15.3427C29.8273 16.3024 28.974 17.0799 27.9209 17.0803H6.18116C5.12793 17.0799 4.27477 16.3024 4.27441 15.3427V8.73765C4.27477 7.77758 5.12793 7.00016 6.18116 7Z" fill="#0F3365"/>
<path fill-rule="evenodd" clip-rule="evenodd" d="M19.3994 14.2624H18.4458V10.7322H19.3254V11.1862H19.336C19.5267 10.8337 19.9296 10.6743 20.3641 10.6743C21.1272 10.6743 21.5455 11.336 21.5455 11.9443C21.5455 12.6881 21.1058 13.3062 20.2844 13.3062C19.9507 13.3062 19.5903 13.1953 19.4101 12.8959H19.3994V14.2624ZM19.9827 12.6398C20.3428 12.6398 20.5601 12.3647 20.5601 11.9637C20.5601 11.6304 20.3534 11.3407 19.9827 11.3407C19.6328 11.3407 19.3994 11.6209 19.3994 11.9975C19.3994 12.3647 19.6646 12.6398 19.9827 12.6398ZM25.1999 14.2624C25.3961 14.3012 25.5921 14.3205 25.7935 14.3205C26.6184 14.3205 26.8489 13.7745 27.0991 13.182C27.1142 13.1463 27.1293 13.1106 27.1446 13.0747L28.1569 10.7322H27.203L26.6359 12.3741H26.6254L26.0318 10.7322H25.0042L26.1217 13.3062C26.0533 13.5284 25.8731 13.654 25.6402 13.654C25.5074 13.654 25.3907 13.6398 25.2638 13.6008L25.1999 14.2624ZM24.8445 13.3301C24.8022 13.1321 24.7914 12.9343 24.7914 12.7361V11.7993C24.7914 11.0314 24.1821 10.7563 23.4774 10.7563C23.0692 10.7563 22.7142 10.8092 22.3752 10.935L22.3908 11.5241C22.656 11.389 22.9633 11.3357 23.2704 11.3357C23.615 11.3357 23.896 11.4275 23.9012 11.7705C23.7794 11.751 23.61 11.7363 23.4563 11.7363C22.9475 11.7363 22.0308 11.8284 22.0308 12.5962C22.0308 13.1421 22.5183 13.3883 23.0641 13.3883C23.4563 13.3883 23.7212 13.2481 23.9383 12.9343H23.9487C23.9487 13.0108 23.9543 13.0874 23.9599 13.165L23.9599 13.165C23.9639 13.2195 23.9679 13.2744 23.9701 13.3301H24.8445ZM22.9209 12.5335C22.9209 12.292 23.1751 12.2003 23.4984 12.2003C23.5998 12.2003 23.6985 12.2051 23.7907 12.2096L23.7907 12.2096C23.8287 12.2115 23.8656 12.2133 23.9012 12.2147C23.9012 12.5092 23.6735 12.809 23.3129 12.809C23.0904 12.809 22.9209 12.7071 22.9209 12.5335Z" fill="#FFFFFE"/>
<path fill-rule="evenodd" clip-rule="evenodd" d="M10.1564 13.248H11.1102V10.7321H10.1564V13.248ZM10.1564 10.3215H11.1102V9.68408H10.1564V10.3215ZM13.4428 10.6742C13.5539 10.6742 13.6705 10.6887 13.7659 10.7029L13.7181 11.4273C13.6123 11.3985 13.5062 11.3985 13.3951 11.3985C12.95 11.3985 12.7009 11.6931 12.7009 12.1858V13.248H11.7471V10.7321H12.6162V11.1956H12.6266C12.791 10.877 13.0295 10.6742 13.4428 10.6742ZM17.0135 11.9926C17.0135 12.8233 16.3193 13.3061 15.4081 13.3061C14.4968 13.3061 13.8026 12.8233 13.8026 11.9926C13.8026 11.157 14.4968 10.6742 15.4081 10.6742C16.3193 10.6742 17.0135 11.157 17.0135 11.9926ZM14.7882 11.9926C14.7882 12.3645 14.9683 12.6976 15.4082 12.6976C15.8479 12.6976 16.0281 12.3645 16.0281 11.9926C16.0281 11.6159 15.8479 11.2827 15.4082 11.2827C14.9683 11.2827 14.7882 11.6159 14.7882 11.9926ZM8.63443 10.7321H9.49832V12.9537C9.49832 13.987 8.94726 14.3204 7.83449 14.3204C7.37887 14.3204 7.00262 14.2332 6.78 14.1611L6.82781 13.4752C7.11917 13.6057 7.3629 13.6828 7.76034 13.6828C8.31149 13.6828 8.60809 13.4463 8.60809 12.9537V12.8182H8.59735C8.36968 13.1132 8.05179 13.248 7.67032 13.248C6.91251 13.248 6.44092 12.7269 6.44092 11.9829C6.44092 11.2342 6.82781 10.6742 7.6861 10.6742C8.09401 10.6742 8.42263 10.877 8.62405 11.1859H8.63443V10.7321ZM7.96703 11.3406C7.61199 11.3406 7.42653 11.6255 7.42653 11.9683C7.42653 12.3593 7.6809 12.5817 7.96703 12.5817C8.30602 12.5817 8.57637 12.321 8.57637 11.9345C8.57637 11.6542 8.39614 11.3406 7.96703 11.3406Z" fill="#D8232A"/>
</svg>
