<svg width="34" height="24" viewBox="0 0 34 24" fill="none" xmlns="http://www.w3.org/2000/svg">
<rect width="34" height="24" rx="4" fill="white"/>
<path fill-rule="evenodd" clip-rule="evenodd" d="M9.24121 4.95605H17.3319C22.8298 4.95605 24.9425 8.049 24.9425 11.9585C24.9425 16.635 21.9895 18.9857 17.3319 18.9857H9.24121V4.95605ZM10.0094 5.79734V18.1939H17.3319C21.7493 18.1939 24.1501 16.0659 24.1501 11.9832C24.1501 7.77682 21.5573 5.79734 17.3319 5.79734H10.0094ZM12.1702 12.2059C12.979 12.2059 13.6347 11.5301 13.6347 10.6965C13.6347 9.86295 12.979 9.18719 12.1702 9.18719C11.3614 9.18719 10.7057 9.86295 10.7057 10.6965C10.7057 11.5301 11.3614 12.2059 12.1702 12.2059ZM10.9938 12.8493H13.3466V17.1546H10.9938V12.8493Z" fill="black"/>
<path fill-rule="evenodd" clip-rule="evenodd" d="M21.4853 9.31079H22.1575V11.3893H23.1418C22.8778 7.60349 19.9728 6.76221 17.3319 6.76221H14.523V9.31079H14.9311C15.6993 9.31079 16.1555 9.83041 16.1555 10.6964C16.1555 11.5625 15.6993 12.0821 14.9551 12.0821H14.523V17.1545H17.3319C21.6293 17.1545 23.0938 15.1008 23.1658 12.0821H21.4853V9.31079ZM18.2442 11.3893V12.0821H16.5636V9.3108H18.1962V10.0036H17.2359V10.3253H18.1482V11.0181H17.2599V11.3893H18.2442ZM18.5322 12.0821L19.3485 9.3108H20.3088L21.1251 12.0821H20.4289L20.2848 11.5625H19.3965L19.2525 12.0821H18.5322ZM19.5961 10.8449H19.5886V10.8696L19.5961 10.8449ZM19.5961 10.8449H20.0688L19.8527 10.0778H19.8287L19.5961 10.8449ZM14.5229 11.3893V10.0036H14.9311C15.1952 10.0036 15.4833 10.0778 15.4833 10.6964C15.4833 11.315 15.2192 11.3893 14.9311 11.3893H14.5229Z" fill="#D50072"/>
</svg>
