<svg width="34" height="24" viewBox="0 0 34 24" fill="none" xmlns="http://www.w3.org/2000/svg">
<rect width="34" height="24" rx="4" fill="white"/>
<path fill-rule="evenodd" clip-rule="evenodd" d="M19.3415 11.488H20.4547C20.8077 11.4749 21.0223 11.4469 21.0996 11.4031C21.2051 11.3432 21.276 11.2235 21.3112 11.0438C21.3338 10.9242 21.345 10.7464 21.345 10.5102C21.345 10.2209 21.3227 10.0064 21.2777 9.86629C21.2134 9.67008 21.0596 9.55056 20.816 9.50715C20.7678 9.5006 20.6525 9.49711 20.4698 9.49711H19.3415V11.488ZM17.5559 14.8414V8H20.8826C21.3389 8 21.6871 8.03843 21.9263 8.1152C22.4735 8.29199 22.8406 8.65395 23.0287 9.20099C23.1257 9.48808 23.1743 9.92034 23.1743 10.4975C23.1743 11.1915 23.1204 11.6902 23.0139 11.9938C22.8005 12.5942 22.3613 12.9401 21.6981 13.0297C21.6201 13.0432 21.2882 13.0552 20.7025 13.0648L20.406 13.075H19.3415V14.8414H17.5559ZM8.58975 10.1824H10.2509C10.2616 10.0312 10.267 9.91818 10.267 9.84257C10.267 8.9207 9.9056 8.35971 9.18272 8.15944C8.88652 8.07752 8.38965 8.03619 7.69244 8.03619C7.24959 8.03619 6.84697 8.05287 6.48404 8.08549C6.04787 8.12167 5.68952 8.24277 5.4095 8.44902C5.21833 8.5834 5.07981 8.77985 4.99385 9.03864C4.90796 9.29735 4.86498 9.6413 4.86498 10.0702C4.86498 10.6335 4.94451 11.0545 5.10348 11.3328C5.28434 11.6603 5.64678 11.876 6.19066 11.9809C6.39719 12.0174 6.766 12.055 7.29691 12.0941C7.95806 12.14 8.32848 12.1762 8.40808 12.2021C8.62098 12.2679 8.72763 12.4511 8.72763 12.7523C8.72763 12.8868 8.71499 12.9967 8.68956 13.0816C8.64166 13.2195 8.54145 13.3192 8.38876 13.3811C8.30296 13.4142 8.10407 13.4306 7.79241 13.4306H7.18173C7.01914 13.4269 6.88086 13.3961 6.76632 13.3375C6.60108 13.2524 6.51825 13.0613 6.51825 12.7643L6.51809 12.622H4.85693C4.85693 13.1787 4.89645 13.5763 4.9763 13.8151C5.11965 14.2441 5.41586 14.5289 5.86515 14.6695C6.23122 14.7843 6.87957 14.8414 7.80988 14.8414C8.36719 14.8414 8.78156 14.8151 9.05241 14.7625C9.6989 14.6381 10.1144 14.3418 10.2994 13.8728C10.4014 13.6172 10.4524 13.2138 10.4524 12.663C10.4524 12.4241 10.4413 12.209 10.4189 12.019C10.3807 11.7012 10.2608 11.4439 10.0598 11.2471C9.80443 10.9948 9.3928 10.839 8.82502 10.78C8.64617 10.7604 8.19776 10.7258 7.47979 10.6766L7.14479 10.6522C6.99773 10.6424 6.87981 10.6096 6.79055 10.5539C6.66595 10.4753 6.60381 10.3113 6.60381 10.0622C6.60381 9.78704 6.674 9.60834 6.81421 9.52618C6.95451 9.44426 7.24202 9.40334 7.6757 9.40334C8.12226 9.40334 8.39512 9.47447 8.49397 9.61656C8.55771 9.71259 8.58975 9.90125 8.58975 10.1824ZM4.86323 16.1982L5.11227 16.1723C5.12724 16.2589 5.15767 16.3223 5.20347 16.363C5.24934 16.4036 5.31116 16.4239 5.389 16.4239C5.47142 16.4239 5.53348 16.4058 5.57533 16.3698C5.6171 16.3337 5.63795 16.2916 5.63795 16.2432C5.63795 16.2123 5.62918 16.186 5.61171 16.1642C5.59417 16.1424 5.56358 16.1236 5.51987 16.1074C5.48993 16.0968 5.42184 16.0779 5.31551 16.0507C5.17859 16.0158 5.08265 15.9728 5.02743 15.9218C4.94984 15.8501 4.91104 15.7626 4.91104 15.6594C4.91104 15.593 4.92932 15.5309 4.96594 15.4731C5.00248 15.4153 5.05528 15.3712 5.1241 15.341C5.193 15.3108 5.27615 15.2956 5.37354 15.2956C5.53259 15.2956 5.65228 15.3317 5.73269 15.4037C5.8131 15.4758 5.85528 15.572 5.8593 15.6924L5.60278 15.7028C5.59183 15.6355 5.56833 15.5872 5.53227 15.5577C5.49629 15.5282 5.44228 15.5134 5.37024 15.5134C5.29587 15.5134 5.23775 15.5292 5.19566 15.5608C5.16853 15.5809 5.15501 15.608 5.15501 15.6418C5.15501 15.6728 5.16773 15.6992 5.19308 15.7213C5.22528 15.7492 5.3036 15.7783 5.42803 15.8084C5.55239 15.8386 5.64439 15.8699 5.70403 15.9025C5.7636 15.9349 5.81028 15.9793 5.84401 16.0356C5.87765 16.092 5.89455 16.1616 5.89455 16.2444C5.89455 16.3196 5.87435 16.3899 5.83395 16.4555C5.79354 16.521 5.73647 16.5698 5.66266 16.6016C5.58885 16.6335 5.49685 16.6495 5.38666 16.6495C5.22632 16.6495 5.10317 16.6111 5.01721 16.5342C4.93133 16.4574 4.87998 16.3454 4.86323 16.1982ZM6.1605 15.6794H6.40446V16.6261H6.1605V15.6794ZM6.1605 15.3189H6.40446V15.5498H6.1605V15.3189ZM7.29917 16.6261H7.54314V16.0366C7.54314 15.9634 7.53863 15.9071 7.5297 15.8678C7.52076 15.8285 7.5049 15.7934 7.48213 15.7624C7.45935 15.7315 7.42578 15.706 7.38143 15.6861C7.33708 15.6662 7.28806 15.6561 7.23446 15.6561C7.11292 15.6561 7.01198 15.7102 6.93189 15.8185V15.6794H6.70555V16.6261H6.94952V16.1964C6.94952 16.0904 6.95564 16.0177 6.96803 15.9785C6.98035 15.9391 7.00313 15.9076 7.03645 15.8838C7.06977 15.86 7.10736 15.848 7.1493 15.848C7.18198 15.848 7.20999 15.8564 7.23325 15.873C7.25651 15.8897 7.27325 15.9132 7.28364 15.9432C7.29394 15.9733 7.29917 16.0395 7.29917 16.1419V16.6261ZM8.03653 16.1324C8.03653 16.2331 8.05521 16.3069 8.09272 16.3536C8.13014 16.4005 8.17635 16.4239 8.23132 16.4239C8.29016 16.4239 8.3399 16.3999 8.38055 16.3519C8.42112 16.3039 8.44148 16.2328 8.44148 16.1386C8.44148 16.0403 8.422 15.9673 8.38313 15.9196C8.34417 15.8719 8.29507 15.848 8.23559 15.848C8.1778 15.848 8.13014 15.8715 8.09272 15.9182C8.05521 15.9651 8.03653 16.0364 8.03653 16.1324ZM7.81773 16.6884L8.09437 16.7195C8.09904 16.7548 8.10974 16.779 8.12649 16.7923C8.14967 16.8112 8.18613 16.8207 8.23587 16.8207C8.29954 16.8207 8.34727 16.8109 8.37915 16.7913C8.40048 16.7782 8.41673 16.7571 8.42776 16.728C8.43525 16.707 8.43903 16.6688 8.43903 16.6128L8.43975 16.4747C8.3678 16.5757 8.27652 16.6261 8.16577 16.6261C8.04221 16.6261 7.9445 16.5723 7.87238 16.4645C7.81579 16.3794 7.78754 16.2733 7.78754 16.1465C7.78754 15.9875 7.82457 15.866 7.8987 15.782C7.97283 15.6981 8.06507 15.6561 8.17526 15.6561C8.28892 15.6561 8.38269 15.7077 8.45658 15.8106V15.6794H8.683V16.5304C8.683 16.6424 8.67406 16.7261 8.65611 16.7813C8.63824 16.8368 8.61313 16.8802 8.58077 16.9117C8.54842 16.9433 8.50527 16.968 8.45126 16.9858C8.39726 17.0037 8.329 17.0126 8.2465 17.0126C8.09059 17.0126 7.97999 16.9849 7.91472 16.9296C7.84944 16.8742 7.81684 16.804 7.81684 16.7189C7.81684 16.7105 7.81716 16.7004 7.81773 16.6884ZM9.21908 15.3189H8.97511V16.6261H9.21908V15.3189ZM10.0685 16.0737C10.0669 16 10.0486 15.944 10.0137 15.9056C9.97896 15.8673 9.93662 15.848 9.88671 15.848C9.83335 15.848 9.78924 15.8684 9.75447 15.9088C9.71962 15.9492 9.70255 16.0042 9.70312 16.0737H10.0685ZM10.056 16.3279L10.2975 16.3694C10.2662 16.4606 10.2169 16.5302 10.1495 16.5779C10.0821 16.6257 9.9978 16.6495 9.89662 16.6495C9.73636 16.6495 9.6178 16.5955 9.54093 16.4875C9.48016 16.401 9.44982 16.2919 9.44982 16.1599C9.44982 16.0026 9.48966 15.8791 9.56951 15.7899C9.64927 15.7007 9.75013 15.6561 9.87207 15.6561C10.0091 15.6561 10.1172 15.7029 10.1964 15.7965C10.2756 15.8902 10.3135 16.0335 10.31 16.2267H9.69886C9.70055 16.3013 9.72035 16.3592 9.75818 16.4007C9.79601 16.442 9.84317 16.4628 9.89968 16.4628C9.93807 16.4628 9.97043 16.4522 9.99659 16.4308C10.0227 16.4096 10.0426 16.3752 10.056 16.3279ZM11.1083 15.3189V16.6261H12.0716V16.4057H11.3649V16.0504H11.9987V15.8299H11.3649V15.5394H12.0465V15.3189H11.1083ZM12.9437 16.6261V16.4843C12.9101 16.5349 12.8661 16.5751 12.8115 16.6049C12.7568 16.6346 12.6992 16.6495 12.6385 16.6495C12.5766 16.6495 12.5212 16.6355 12.472 16.6075C12.4229 16.5795 12.3874 16.5402 12.3654 16.4897C12.3434 16.439 12.3325 16.3691 12.3325 16.2798V15.6794H12.5764V16.1148C12.5764 16.2481 12.5809 16.3298 12.5899 16.3598C12.5988 16.39 12.6151 16.4137 12.6387 16.4313C12.6624 16.4488 12.6923 16.4575 12.7287 16.4575C12.7703 16.4575 12.8075 16.4459 12.8404 16.4223C12.8733 16.3989 12.8957 16.3697 12.9079 16.3349C12.92 16.3001 12.9261 16.2149 12.9261 16.0792V15.6794H13.17V16.6261H12.9437ZM13.4622 16.6261H13.7062V16.3334C13.7062 16.1722 13.713 16.0662 13.7266 16.0157C13.7402 15.9651 13.7589 15.9302 13.7827 15.9108C13.8064 15.8915 13.8353 15.8818 13.8695 15.8818C13.9048 15.8818 13.9431 15.8955 13.9841 15.9228L14.0583 15.7036C14.007 15.672 13.9535 15.6561 13.8982 15.6561C13.8589 15.6561 13.8239 15.6666 13.793 15.6874C13.7621 15.7083 13.7273 15.7505 13.6886 15.8141V15.6794H13.4622V16.6261ZM14.4058 16.1528C14.4058 16.2472 14.4274 16.3193 14.4708 16.3694C14.5142 16.4196 14.5676 16.4446 14.6313 16.4446C14.6949 16.4446 14.7482 16.4196 14.7913 16.3694C14.8344 16.3193 14.8559 16.2465 14.8559 16.1511C14.8559 16.058 14.8344 15.9863 14.7913 15.9363C14.7482 15.8861 14.6949 15.8611 14.6313 15.8611C14.5676 15.8611 14.5142 15.8861 14.4708 15.9363C14.4274 15.9863 14.4058 16.0586 14.4058 16.1528ZM14.1567 16.1393C14.1567 16.0558 14.1766 15.975 14.2165 15.8968C14.2562 15.8187 14.3126 15.759 14.3856 15.7179C14.4585 15.6767 14.54 15.6561 14.63 15.6561C14.769 15.6561 14.8829 15.7028 14.9718 15.7961C15.0606 15.8895 15.105 16.0075 15.105 16.1501C15.105 16.2939 15.0601 16.4131 14.9704 16.5077C14.8807 16.6022 14.7678 16.6495 14.6317 16.6495C14.5475 16.6495 14.4672 16.6298 14.3908 16.5905C14.3143 16.5511 14.2562 16.4934 14.2165 16.4173C14.1766 16.3412 14.1567 16.2486 14.1567 16.1393ZM16.1559 15.9129V15.5394H16.2792C16.3713 15.5394 16.4325 15.5424 16.463 15.5484C16.5044 15.5562 16.5386 15.5756 16.5656 15.6067C16.5927 15.6379 16.6062 15.6774 16.6062 15.7253C16.6062 15.7642 16.5965 15.7983 16.5773 15.8276C16.5581 15.857 16.5314 15.8786 16.4975 15.8923C16.4636 15.9061 16.3963 15.9129 16.2957 15.9129H16.1559ZM15.8994 15.3189V16.6261H16.1559V16.1334H16.3227C16.4384 16.1334 16.5268 16.1271 16.5879 16.1146C16.6328 16.1045 16.677 16.0839 16.7204 16.0526C16.7639 16.0214 16.7998 15.9784 16.828 15.9238C16.8562 15.8689 16.8703 15.8015 16.8703 15.7213C16.8703 15.6172 16.8458 15.5323 16.7968 15.4666C16.7478 15.4009 16.687 15.3582 16.6144 15.3386C16.5672 15.3255 16.4657 15.3189 16.3101 15.3189H15.8994ZM17.6368 16.1723C17.6056 16.1831 17.5565 16.1959 17.4892 16.2108C17.4219 16.2257 17.3779 16.2404 17.3573 16.2546C17.3255 16.278 17.3098 16.3075 17.3098 16.3433C17.3098 16.3785 17.3224 16.4089 17.3477 16.4347C17.373 16.4603 17.4052 16.4732 17.4444 16.4732C17.4881 16.4732 17.5297 16.4582 17.5695 16.4284C17.5988 16.4057 17.6181 16.378 17.6273 16.3451C17.6336 16.3236 17.6368 16.2827 17.6368 16.2223V16.1723ZM17.3099 15.9674L17.091 15.9259C17.1158 15.8342 17.1585 15.7663 17.219 15.7223C17.2796 15.6782 17.3696 15.6561 17.489 15.6561C17.5974 15.6561 17.6782 15.6694 17.7312 15.6958C17.7843 15.7224 17.8217 15.7561 17.8433 15.7968C17.8649 15.8376 17.8758 15.9125 17.8758 16.0215L17.8733 16.3145C17.8733 16.3978 17.8772 16.4594 17.8849 16.4989C17.8927 16.5385 17.9073 16.5809 17.9286 16.6261H17.6871C17.6807 16.6098 17.673 16.5855 17.6637 16.5533C17.6597 16.5386 17.6568 16.5289 17.6552 16.5242C17.6136 16.5659 17.5693 16.5973 17.522 16.6182C17.4748 16.6391 17.4245 16.6495 17.3709 16.6495C17.2764 16.6495 17.2019 16.623 17.1474 16.57C17.093 16.517 17.0658 16.4499 17.0658 16.3689C17.0658 16.3154 17.0782 16.2676 17.1029 16.2256C17.1278 16.1836 17.1626 16.1514 17.2072 16.129C17.252 16.1068 17.3165 16.0871 17.4007 16.0704C17.5142 16.0485 17.593 16.028 17.6368 16.0089V15.9835C17.6368 15.9347 17.6252 15.9 17.6021 15.8791C17.5788 15.8584 17.5351 15.848 17.4707 15.848C17.4272 15.848 17.3933 15.8569 17.3689 15.8745C17.3446 15.8922 17.3248 15.9231 17.3099 15.9674ZM18.31 15.6794H18.051L18.401 16.6288C18.3865 16.6822 18.3657 16.7263 18.3384 16.761C18.3111 16.7955 18.2692 16.8129 18.2123 16.8129C18.1816 16.8129 18.147 16.809 18.1087 16.8012L18.1314 16.9974C18.1764 17.0076 18.2225 17.0126 18.2692 17.0126C18.3154 17.0126 18.3569 17.0076 18.3936 16.9974C18.4303 16.9873 18.4611 16.973 18.4862 16.9549C18.5114 16.9368 18.5337 16.913 18.553 16.8839C18.5723 16.8547 18.5927 16.8124 18.6141 16.757L18.9967 15.6794H18.7452L18.5301 16.3516L18.31 15.6794ZM19.1869 15.6794H19.4108V15.8088C19.4912 15.707 19.5869 15.6561 19.698 15.6561C19.7569 15.6561 19.8081 15.6686 19.8514 15.6936C19.8948 15.7186 19.9304 15.7565 19.9581 15.807C19.9985 15.7565 20.0422 15.7186 20.0889 15.6936C20.1357 15.6686 20.1856 15.6561 20.2387 15.6561C20.3063 15.6561 20.3634 15.6702 20.4102 15.6986C20.457 15.7268 20.492 15.7683 20.5151 15.8232C20.5318 15.8636 20.5401 15.9291 20.5401 16.0197V16.6261H20.2962V16.0839C20.2962 15.9898 20.2878 15.9291 20.2711 15.9017C20.2486 15.8659 20.2141 15.848 20.1675 15.848C20.1334 15.848 20.1014 15.8587 20.0714 15.8802C20.0415 15.9017 20.0199 15.9331 20.0067 15.9745C19.9934 16.0158 19.9868 16.0812 19.9868 16.1705V16.6261H19.7428V16.1063C19.7428 16.0138 19.7385 15.9544 19.7298 15.9275C19.7212 15.9007 19.7079 15.8808 19.6897 15.8677C19.6715 15.8547 19.6469 15.848 19.6158 15.848C19.5783 15.848 19.5446 15.8585 19.5147 15.8793C19.4847 15.9001 19.4633 15.9303 19.4503 15.9695C19.4373 16.0089 19.4309 16.074 19.4309 16.1651V16.6261H19.1869V15.6794ZM21.3257 15.9056C21.3606 15.944 21.3788 16 21.3806 16.0737H21.0151C21.0146 16.0042 21.0316 15.9492 21.0665 15.9088C21.1012 15.8684 21.1454 15.848 21.1986 15.848C21.2485 15.848 21.291 15.8673 21.3257 15.9056ZM21.6095 16.3694L21.368 16.3279C21.3546 16.3752 21.3348 16.4096 21.3085 16.4308C21.2824 16.4522 21.2501 16.4628 21.2117 16.4628C21.1551 16.4628 21.1079 16.442 21.0702 16.4007C21.0324 16.3592 21.0126 16.3013 21.0108 16.2267H21.622C21.6255 16.0335 21.5876 15.8902 21.5084 15.7965C21.4292 15.7029 21.3211 15.6561 21.1841 15.6561C21.0621 15.6561 20.9613 15.7007 20.8814 15.7899C20.8017 15.8791 20.7617 16.0026 20.7617 16.1599C20.7617 16.2919 20.7921 16.401 20.8529 16.4875C20.9298 16.5955 21.0484 16.6495 21.2085 16.6495C21.3098 16.6495 21.3941 16.6257 21.4615 16.5779C21.5289 16.5302 21.5782 16.4606 21.6095 16.3694ZM22.7078 16.6261H22.4638V16.1419C22.4638 16.0395 22.4586 15.9733 22.4483 15.9432C22.4379 15.9132 22.4211 15.8897 22.3979 15.873C22.3746 15.8564 22.3466 15.848 22.3139 15.848C22.2721 15.848 22.2344 15.86 22.2011 15.8838C22.1678 15.9076 22.145 15.9391 22.1326 15.9785C22.1203 16.0177 22.1141 16.0904 22.1141 16.1964V16.6261H21.8702V15.6794H22.0965V15.8185C22.1767 15.7102 22.2775 15.6561 22.3991 15.6561C22.4527 15.6561 22.5018 15.6662 22.546 15.6861C22.5904 15.706 22.624 15.7315 22.6468 15.7624C22.6696 15.7934 22.6854 15.8285 22.6943 15.8678C22.7033 15.9071 22.7078 15.9634 22.7078 16.0366V16.6261ZM23.4276 15.8791V15.6794H23.2616V15.3423L23.0176 15.4901V15.6794H22.9069V15.8791H23.0176V16.293C23.0176 16.3817 23.0201 16.4407 23.0253 16.4699C23.0316 16.511 23.0429 16.5436 23.0592 16.5677C23.0756 16.5918 23.1013 16.6116 23.1362 16.6267C23.1713 16.6419 23.2105 16.6495 23.2542 16.6495C23.3252 16.6495 23.3889 16.637 23.4452 16.612L23.4238 16.418C23.3818 16.434 23.3499 16.442 23.3277 16.442C23.3119 16.442 23.2985 16.4378 23.2874 16.4295C23.2764 16.4211 23.2693 16.4106 23.2662 16.3977C23.2631 16.3849 23.2616 16.3397 23.2616 16.2622V15.8791H23.4276ZM23.5648 16.359L23.8088 16.3201C23.8191 16.3685 23.8401 16.4052 23.8718 16.4303C23.9035 16.4555 23.9478 16.4679 24.0048 16.4679C24.0676 16.4679 24.1149 16.456 24.1465 16.4321C24.1678 16.4152 24.1785 16.3929 24.1785 16.3647C24.1785 16.3456 24.1727 16.3297 24.1611 16.3172C24.1488 16.3052 24.1216 16.2941 24.0793 16.2839C23.8822 16.239 23.7572 16.1981 23.7045 16.1612C23.6314 16.11 23.595 16.0387 23.595 15.9476C23.595 15.8653 23.6264 15.7961 23.6896 15.7402C23.7529 15.6842 23.8509 15.6561 23.9836 15.6561C24.11 15.6561 24.2038 15.6771 24.2653 15.719C24.3267 15.761 24.3691 15.823 24.3923 15.9051L24.1634 15.9492C24.1535 15.9124 24.1347 15.8841 24.107 15.8645C24.0792 15.8449 24.0397 15.8351 23.9884 15.8351C23.9237 15.8351 23.8773 15.8443 23.8493 15.863C23.8306 15.8761 23.8213 15.8931 23.8213 15.914C23.8213 15.932 23.8294 15.9473 23.8456 15.9599C23.8676 15.9766 23.9437 16.0002 24.0737 16.0308C24.2036 16.0613 24.2944 16.0987 24.346 16.1429C24.3969 16.1877 24.4225 16.2502 24.4225 16.3303C24.4225 16.4175 24.3872 16.4926 24.317 16.5553C24.2465 16.6182 24.1426 16.6495 24.0048 16.6495C23.8798 16.6495 23.7807 16.6234 23.7078 16.5713C23.6349 16.5191 23.5872 16.4485 23.5648 16.359ZM25.7301 15.625L25.9074 16.1101H25.5588L25.7301 15.625ZM26.1016 16.6261H26.3778L25.8659 15.3189H25.5961L25.105 16.6261H25.3765L25.481 16.3305H25.992L26.1016 16.6261ZM26.7966 16.6261H26.5526V15.6794H26.7789V15.8141C26.8177 15.7505 26.8523 15.7083 26.8833 15.6874C26.9142 15.6666 26.9492 15.6561 26.9885 15.6561C27.0439 15.6561 27.0973 15.672 27.1487 15.7036L27.0745 15.9228C27.0334 15.8955 26.9951 15.8818 26.9599 15.8818C26.9256 15.8818 26.8967 15.8915 26.873 15.9108C26.8492 15.9302 26.8305 15.9651 26.817 16.0157C26.8033 16.0662 26.7966 16.1722 26.7966 16.3334V16.6261ZM27.7985 15.9056C27.8332 15.944 27.8515 16 27.8533 16.0737H27.4879C27.4872 16.0042 27.5044 15.9492 27.5392 15.9088C27.574 15.8684 27.618 15.848 27.6715 15.848C27.7213 15.848 27.7636 15.8673 27.7985 15.9056ZM28.0822 16.3694L27.8407 16.3279C27.8273 16.3752 27.8075 16.4096 27.7813 16.4308C27.7551 16.4522 27.7228 16.4628 27.6843 16.4628C27.6279 16.4628 27.5807 16.442 27.5428 16.4007C27.5051 16.3592 27.4853 16.3013 27.4835 16.2267H28.0947C28.0982 16.0335 28.0603 15.8902 27.9812 15.7965C27.9019 15.7029 27.7938 15.6561 27.6568 15.6561C27.5348 15.6561 27.4339 15.7007 27.3542 15.7899C27.2744 15.8791 27.2345 16.0026 27.2345 16.1599C27.2345 16.2919 27.2648 16.401 27.3256 16.4875C27.4024 16.5955 27.5211 16.6495 27.6813 16.6495C27.7825 16.6495 27.8669 16.6257 27.9342 16.5779C28.0016 16.5302 28.0509 16.4606 28.0822 16.3694ZM28.851 16.1723C28.8199 16.1831 28.7707 16.1959 28.7034 16.2108C28.6361 16.2257 28.5921 16.2404 28.5715 16.2546C28.5397 16.278 28.524 16.3075 28.524 16.3433C28.524 16.3785 28.5366 16.4089 28.562 16.4347C28.5872 16.4603 28.6194 16.4732 28.6586 16.4732C28.7023 16.4732 28.7439 16.4582 28.7837 16.4284C28.813 16.4057 28.8323 16.378 28.8415 16.3451C28.8478 16.3236 28.851 16.2827 28.851 16.2223V16.1723ZM28.524 15.9674L28.3052 15.9259C28.33 15.8342 28.3726 15.7663 28.4331 15.7223C28.4937 15.6782 28.5837 15.6561 28.7031 15.6561C28.8115 15.6561 28.8923 15.6694 28.9454 15.6958C28.9984 15.7224 29.0358 15.7561 29.0574 15.7968C29.0791 15.8376 29.0899 15.9125 29.0899 16.0215L29.0874 16.3145C29.0874 16.3978 29.0913 16.4594 29.099 16.4989C29.1068 16.5385 29.1214 16.5809 29.1427 16.6261H28.9013C28.8948 16.6098 28.8872 16.5855 28.8778 16.5533C28.8739 16.5386 28.8709 16.5289 28.8693 16.5242C28.8278 16.5659 28.7835 16.5973 28.7363 16.6182C28.689 16.6391 28.6386 16.6495 28.585 16.6495C28.4905 16.6495 28.416 16.623 28.3616 16.57C28.3073 16.517 28.28 16.4499 28.28 16.3689C28.28 16.3154 28.2924 16.2676 28.3172 16.2256C28.3419 16.1836 28.3767 16.1514 28.4214 16.129C28.4661 16.1068 28.5306 16.0871 28.6148 16.0704C28.7284 16.0485 28.8071 16.028 28.851 16.0089V15.9835C28.851 15.9347 28.8394 15.9 28.8162 15.8791C28.793 15.8584 28.7492 15.848 28.6848 15.848C28.6414 15.848 28.6075 15.8569 28.5831 15.8745C28.5588 15.8922 28.539 15.9231 28.524 15.9674ZM25.7945 9.36059L26.6311 12.3262H24.9826L25.7945 9.36059ZM24.5984 13.659H26.9858L27.3264 14.8414H29.135L27.1172 8H24.4236L22.4302 14.8414H24.2776L24.5984 13.659Z" fill="#10298E"/>
<path fill-rule="evenodd" clip-rule="evenodd" d="M15.0912 8.96265C15.8277 8.96265 16.485 9.31249 16.917 9.86044L17.3019 9.00946C16.6999 8.42274 15.8806 8.06104 14.977 8.06104C13.57 8.06104 12.3664 8.93725 11.8725 10.1776H11.1219L10.6787 11.1573H11.6443C11.637 11.2482 11.6324 11.3391 11.6324 11.4319C11.6324 11.5442 11.638 11.6552 11.6488 11.7648H11.1635L10.7204 12.7449H11.8955C12.4035 13.9538 13.5921 14.8026 14.977 14.8026C15.6749 14.8026 16.3225 14.587 16.8588 14.2186V13.0175C16.4269 13.5245 15.7953 13.8449 15.0912 13.8449C14.2681 13.8449 13.5441 13.4072 13.1225 12.7449H15.5831L16.0262 11.7648H12.7604C12.7436 11.6469 12.7346 11.5264 12.7346 11.4036C12.7346 11.3206 12.7388 11.2385 12.7465 11.1573H16.3009L16.744 10.1776H13.0539C13.462 9.45134 14.2214 8.96265 15.0912 8.96265Z" fill="#FFBE00"/>
</svg>
