<svg width="34" height="24" viewBox="0 0 34 24" fill="none" xmlns="http://www.w3.org/2000/svg">
<rect width="34" height="24" rx="4" fill="white"/>
<path d="M10.5185 5.00098H15.8767C16.6247 5.00098 17.0899 5.62855 16.9154 6.40106L14.4208 17.4264C14.2447 18.1962 13.4959 18.8244 12.7474 18.8244H7.38973C6.64282 18.8244 6.17657 18.1962 6.35106 17.4264L8.84672 6.40106C9.0212 5.62855 9.76968 5.00098 10.5185 5.00098Z" fill="#E21836"/>
<path d="M15.4308 5H21.5926C22.3404 5 22.0032 5.62758 21.8273 6.40009L19.333 17.4255C19.158 18.1953 19.2126 18.8234 18.4632 18.8234H12.3015C11.5521 18.8234 11.0883 18.1953 11.2644 17.4255L13.7585 6.40009C13.9356 5.62758 14.6825 5 15.4308 5Z" fill="#00447C"/>
<path d="M21.348 5H26.7062C27.4552 5 27.9204 5.62758 27.7445 6.40009L25.2503 17.4255C25.0742 18.1953 24.3248 18.8234 23.576 18.8234H18.2203C17.4709 18.8234 17.0061 18.1953 17.1816 17.4255L19.6762 6.40009C19.8507 5.62758 20.5986 5 21.348 5Z" fill="#007B84"/>
<path d="M11.9176 8.53314C11.3666 8.53892 11.2038 8.53314 11.1519 8.5205C11.1319 8.61824 10.7601 10.3839 10.759 10.3854C10.679 10.7426 10.6207 10.9972 10.4228 11.1616C10.3105 11.2572 10.1794 11.3033 10.0274 11.3033C9.78303 11.3033 9.64068 11.1784 9.61678 10.9415L9.6122 10.8602C9.6122 10.8602 9.68665 10.3817 9.68665 10.379C9.68665 10.379 10.0769 8.77003 10.1468 8.55734C10.1504 8.54524 10.1515 8.53892 10.1524 8.53314C9.39279 8.54 9.25814 8.53314 9.24887 8.5205C9.24378 8.53784 9.22497 8.6376 9.22497 8.6376L8.82651 10.4511L8.79229 10.6049L8.72607 11.108C8.72607 11.2572 8.75455 11.379 8.81123 11.482C8.99276 11.8086 9.5106 11.8575 9.80354 11.8575C10.181 11.8575 10.535 11.775 10.7743 11.6242C11.1896 11.3716 11.2983 10.9768 11.3952 10.6259L11.4401 10.4459C11.4401 10.4459 11.8421 8.77473 11.9104 8.55734C11.913 8.54524 11.9141 8.53892 11.9176 8.53314ZM13.2853 9.88125C13.1884 9.88125 13.0113 9.90545 12.8523 9.98571C12.7945 10.0162 12.7399 10.0515 12.6823 10.0865L12.7343 9.89335L12.7059 9.86081C12.3685 9.93113 12.293 9.94054 11.9814 9.98571L11.9553 10.0036C11.9191 10.3124 11.887 10.5446 11.7529 11.1516C11.7018 11.3753 11.6488 11.6012 11.5956 11.8243L11.61 11.8527C11.9293 11.8354 12.0262 11.8354 12.3037 11.8401L12.3262 11.8149C12.3615 11.629 12.366 11.5854 12.4441 11.2089C12.4808 11.0303 12.5574 10.638 12.5951 10.4983C12.6644 10.4653 12.7329 10.4327 12.7982 10.4327C12.9537 10.4327 12.9348 10.5724 12.9288 10.6281C12.9221 10.7215 12.8654 11.0267 12.8073 11.2887L12.7685 11.4579C12.7415 11.5828 12.7119 11.7042 12.6848 11.828L12.6966 11.8527C13.0113 11.8354 13.1073 11.8354 13.3761 11.8401L13.4077 11.8149C13.4563 11.5245 13.4705 11.4468 13.5567 11.024L13.6001 10.8297C13.6843 10.4495 13.7266 10.2567 13.6629 10.0997C13.5955 9.92373 13.4338 9.88125 13.2853 9.88125ZM14.8133 10.2793C14.646 10.3124 14.5393 10.3344 14.4332 10.3487C14.3281 10.366 14.2256 10.3818 14.0639 10.4049L14.0511 10.4169L14.0393 10.4264C14.0225 10.5504 14.0107 10.6575 13.9884 10.7835C13.9694 10.9138 13.9403 11.0618 13.8929 11.2745C13.8562 11.4373 13.8373 11.494 13.8164 11.5513C13.796 11.6086 13.7735 11.6642 13.7323 11.8243L13.7419 11.8391L13.75 11.8527C13.9011 11.8453 14 11.8401 14.1016 11.8391C14.2031 11.8354 14.3082 11.8391 14.471 11.8401L14.4852 11.8281L14.5005 11.8149C14.524 11.6705 14.5275 11.6317 14.5419 11.5612C14.5561 11.4857 14.5807 11.3811 14.6409 11.1017C14.6693 10.9705 14.7011 10.8397 14.7306 10.7058C14.7613 10.5724 14.7934 10.4411 14.824 10.3098L14.8194 10.294L14.8133 10.2793ZM14.8168 9.7426C14.6648 9.65024 14.398 9.67954 14.2184 9.80713C14.0394 9.93216 14.019 10.1096 14.1705 10.2032C14.3199 10.293 14.5878 10.2663 14.7658 10.1376C14.9444 10.0099 14.9668 9.83402 14.8168 9.7426ZM15.7362 11.8816C16.0438 11.8816 16.359 11.7944 16.5963 11.5355C16.7789 11.3255 16.8626 11.013 16.8916 10.8844C16.986 10.4579 16.9125 10.2588 16.8202 10.1375C16.6799 9.95266 16.432 9.89338 16.1749 9.89338C16.0203 9.89338 15.652 9.90911 15.3642 10.1822C15.1576 10.3791 15.0622 10.6464 15.0046 10.9026C14.9464 11.1637 14.8796 11.6337 15.2995 11.8086C15.429 11.8659 15.6158 11.8816 15.7362 11.8816ZM15.7122 10.9221C15.7831 10.5992 15.8668 10.3282 16.0805 10.3282C16.2479 10.3282 16.26 10.5298 16.1856 10.8538C16.1723 10.9258 16.1112 11.1932 16.0285 11.307C15.9708 11.3911 15.9024 11.442 15.827 11.442C15.8045 11.442 15.6709 11.442 15.6688 11.2378C15.6678 11.137 15.6877 11.034 15.7122 10.9221ZM17.6605 11.8401L17.6845 11.815C17.7186 11.629 17.7242 11.5853 17.7997 11.2089C17.8374 11.0304 17.9155 10.6381 17.9522 10.4984C18.0217 10.4652 18.089 10.4326 18.1564 10.4326C18.3109 10.4326 18.2921 10.5723 18.2859 10.628C18.2803 10.7216 18.2236 11.0266 18.1645 11.2886L18.1278 11.4578C18.0997 11.5828 18.0691 11.7041 18.0421 11.828L18.0538 11.8528C18.3696 11.8354 18.462 11.8354 18.7323 11.8401L18.765 11.815C18.8124 11.5244 18.8252 11.4467 18.914 11.0241L18.9563 10.8296C19.0409 10.4494 19.0838 10.2568 19.0211 10.0998C18.9517 9.92377 18.789 9.88129 18.6426 9.88129C18.5456 9.88129 18.3675 9.90535 18.2094 9.98575C18.1528 10.0163 18.0962 10.0514 18.0405 10.0866L18.089 9.89339L18.063 9.86072C17.7258 9.93117 17.6487 9.94058 17.3375 9.98575L17.3136 10.0036C17.2759 10.3124 17.2452 10.5445 17.111 11.1516C17.06 11.3753 17.0069 11.6012 16.9539 11.8244L16.9682 11.8528C17.288 11.8354 17.3835 11.8354 17.6605 11.8401ZM19.9807 11.8527C20.0005 11.7529 20.1185 11.1617 20.1195 11.1617C20.1195 11.1617 20.2199 10.7278 20.2261 10.7121C20.2261 10.7121 20.2577 10.6669 20.2893 10.649H20.3358C20.7745 10.649 21.2698 10.649 21.6581 10.355C21.9223 10.1533 22.1029 9.85554 22.1835 9.49362C22.2044 9.40489 22.2198 9.29935 22.2198 9.19382C22.2198 9.05521 22.1928 8.91807 22.1147 8.81092C21.9167 8.52577 21.5224 8.52053 21.0673 8.51838C21.0658 8.51838 20.8429 8.52053 20.8429 8.52053C20.2603 8.52792 20.0266 8.52577 19.9307 8.51367C19.9226 8.55737 19.9073 8.63507 19.9073 8.63507C19.9073 8.63507 19.6986 9.63076 19.6986 9.63237C19.6986 9.63237 19.1992 11.7493 19.1756 11.8491C19.6843 11.8427 19.8929 11.8427 19.9807 11.8527ZM20.3674 10.084C20.3674 10.084 20.5893 9.0903 20.5882 9.09406L20.5954 9.04311L20.5985 9.00425L20.6872 9.01366C20.6872 9.01366 21.1449 9.05413 21.1556 9.05521C21.3362 9.12713 21.4106 9.31253 21.3586 9.55453C21.3112 9.77568 21.1719 9.96162 20.9928 10.0514C20.8454 10.1275 20.6648 10.1338 20.4787 10.1338H20.3582L20.3674 10.084ZM21.7489 10.9405C21.6903 11.1979 21.6229 11.6679 22.0407 11.8354C22.1739 11.8937 22.2933 11.9111 22.4146 11.9048C22.5427 11.8976 22.6614 11.8315 22.7714 11.7363C22.7615 11.7754 22.7516 11.8145 22.7416 11.8538L22.7606 11.8789C23.0611 11.8659 23.1543 11.8659 23.4799 11.8685L23.5094 11.8453C23.557 11.5576 23.6018 11.2783 23.7253 10.7278C23.7855 10.4642 23.8456 10.2031 23.9074 9.94055L23.8977 9.91165C23.5616 9.97578 23.4717 9.98949 23.1483 10.0367L23.1238 10.0572C23.1205 10.084 23.1171 10.1097 23.114 10.1354C23.0637 10.0517 22.9908 9.98035 22.8784 9.93585C22.7346 9.87763 22.3969 9.95265 22.1065 10.2248C21.9025 10.419 21.8046 10.6852 21.7489 10.9405ZM22.455 10.9563C22.5269 10.6391 22.6096 10.3708 22.8238 10.3708C22.9592 10.3708 23.0305 10.4994 23.016 10.7188C23.0045 10.7736 22.9921 10.8312 22.9774 10.8964C22.956 10.9907 22.9327 11.0841 22.9101 11.1777C22.8871 11.2417 22.8604 11.3021 22.831 11.3422C22.7759 11.4226 22.6447 11.4725 22.5692 11.4725C22.5478 11.4725 22.4157 11.4725 22.4111 11.2719C22.41 11.172 22.43 11.0692 22.455 10.9563ZM26.1419 9.90908L26.1159 9.87856C25.7833 9.94793 25.7231 9.95896 25.4175 10.0014L25.395 10.0246C25.394 10.0283 25.393 10.0341 25.3915 10.0394L25.3904 10.0341C25.1629 10.5744 25.1696 10.4579 24.9844 10.8832C24.9833 10.8639 24.9833 10.8518 24.9823 10.8312L24.9359 9.90908L24.9068 9.87856C24.5584 9.94793 24.5501 9.95896 24.2283 10.0014L24.2033 10.0246C24.1997 10.0356 24.1997 10.0477 24.1976 10.0609L24.1997 10.0656C24.24 10.2772 24.2303 10.23 24.2707 10.5639C24.2895 10.7278 24.3145 10.8927 24.3333 11.0545C24.3651 11.3254 24.3828 11.4588 24.4216 11.8722C24.2043 12.2414 24.1529 12.3811 23.9436 12.7051L23.9451 12.7083L23.7977 12.9482C23.7809 12.9734 23.7656 12.9908 23.7442 12.9982C23.7207 13.0101 23.6901 13.0123 23.6477 13.0123H23.5661L23.4447 13.4277L23.861 13.4351C24.1053 13.434 24.2589 13.3164 24.3416 13.1583L24.6033 12.6966H24.5991L24.6267 12.6641C24.8027 12.2739 26.1419 9.90908 26.1419 9.90908ZM21.7489 15.3651H21.5724L22.2259 13.1399H22.4427L22.5115 12.9107L22.5182 13.1656C22.5101 13.3232 22.6305 13.4629 22.9468 13.4397H23.3126L23.4385 13.0113H23.3009C23.2217 13.0113 23.185 12.9907 23.1896 12.9466L23.1829 12.6873H22.5055V12.6886C22.2865 12.6933 21.6324 12.7103 21.5 12.7466C21.3398 12.789 21.1709 12.9141 21.1709 12.9141L21.2372 12.6846H20.6035L20.4715 13.1399L19.8092 15.3991H19.6807L19.5547 15.8245H20.8168L20.7745 15.9663H21.3964L21.4377 15.8245H21.6122L21.7489 15.3651ZM21.2311 13.5921C21.1296 13.621 20.9408 13.7086 20.9408 13.7086L21.1087 13.1399H21.6122L21.4907 13.5543C21.4907 13.5543 21.3352 13.5637 21.2311 13.5921ZM21.2408 14.4045C21.2408 14.4045 21.0826 14.4249 20.9785 14.4491C20.876 14.4811 20.6837 14.582 20.6837 14.582L20.8572 13.9901H21.3633L21.2408 14.4045ZM20.9587 15.3703H20.4536L20.6 14.8709H21.1035L20.9587 15.3703ZM22.1749 13.9901H22.9029L22.7983 14.3389H22.0606L21.9499 14.7202H22.5953L22.1066 15.4286C22.0724 15.4806 22.0417 15.499 22.0076 15.5137C21.9734 15.5315 21.9284 15.5525 21.8765 15.5525H21.6974L21.5744 15.9701H22.0427C22.2862 15.9701 22.43 15.8561 22.5361 15.7064L22.8713 15.2343L22.9432 15.7137C22.9585 15.8035 23.0212 15.8561 23.0636 15.8765C23.1105 15.9007 23.159 15.9423 23.2274 15.9484C23.3008 15.9517 23.3538 15.9542 23.3891 15.9542H23.6192L23.7574 15.4869H23.6666C23.6145 15.4869 23.5248 15.4779 23.5095 15.4611C23.4942 15.4407 23.4942 15.4092 23.486 15.3613L23.413 14.8808H23.114L23.2452 14.7202H23.9814L24.0946 14.3389H23.413L23.5192 13.9901H24.1987L24.3247 13.5601H22.2988L22.1749 13.9901ZM16.0264 15.4674L16.1963 14.8856H16.8947L17.0223 14.4528H16.3233L16.43 14.0947H17.113L17.2396 13.6756H15.5305L15.4066 14.0947H15.7949L15.6913 14.4528H15.302L15.1729 14.893H15.5611L15.3346 15.6628C15.3041 15.7647 15.349 15.8036 15.3775 15.8509C15.4066 15.897 15.4361 15.9275 15.5024 15.9449C15.5709 15.9606 15.6178 15.97 15.6815 15.97H16.4688L16.609 15.4906L16.2601 15.5399C16.1927 15.5399 16.006 15.5316 16.0264 15.4674ZM16.1065 12.682L15.9295 13.0112C15.8917 13.0831 15.8576 13.1278 15.8269 13.1483C15.7999 13.1657 15.7463 13.1729 15.6687 13.1729H15.5764L15.453 13.5941H15.7596C15.9071 13.5941 16.0203 13.5385 16.0744 13.5107C16.1325 13.4787 16.1478 13.4969 16.1927 13.4523L16.2963 13.36H17.2538L17.3809 12.9214H16.68L16.8024 12.682H16.1065ZM17.5202 15.4759C17.5039 15.4517 17.5156 15.4091 17.5406 15.3204L17.8023 14.4286H18.7334C18.869 14.4266 18.967 14.425 19.0307 14.4203C19.0992 14.4129 19.1736 14.3877 19.2547 14.3426C19.3384 14.2952 19.3813 14.2453 19.4174 14.1881C19.4578 14.1309 19.5226 14.0059 19.5782 13.8131L19.9072 12.6846L18.941 12.6904C18.941 12.6904 18.6435 12.7356 18.5125 12.7854C18.3803 12.8411 18.1915 12.9965 18.1915 12.9965L18.2787 12.6872H17.6819L16.8463 15.5399C16.8166 15.6507 16.7968 15.7311 16.7922 15.7793C16.7907 15.8314 16.856 15.8829 16.8983 15.9217C16.9483 15.9606 17.0222 15.9542 17.0931 15.9606C17.1677 15.9663 17.2738 15.97 17.4202 15.97H17.8788L18.0196 15.4806L17.609 15.5205C17.5651 15.5205 17.5334 15.4963 17.5202 15.4759ZM17.9712 13.8263H18.9491L18.8869 14.0269C18.8782 14.0316 18.8573 14.0169 18.7578 14.029H17.911L17.9712 13.8263ZM18.1671 13.1535H19.1532L19.0823 13.3951C19.0823 13.3951 18.6175 13.3904 18.5431 13.4045C18.2155 13.4629 18.0242 13.643 18.0242 13.643L18.1671 13.1535ZM18.9088 14.6986C18.9007 14.7286 18.8879 14.7469 18.87 14.7606C18.8502 14.7737 18.8181 14.7785 18.7701 14.7785H18.6308L18.639 14.5342H18.0594L18.0359 15.7284C18.035 15.8146 18.0431 15.8645 18.1043 15.9044C18.1656 15.9543 18.3543 15.9606 18.6083 15.9606H18.9715L19.1026 15.5136L18.7865 15.5315L18.6813 15.5378C18.667 15.5315 18.6532 15.5257 18.638 15.51C18.6246 15.4964 18.6022 15.5047 18.6058 15.4185L18.6083 15.1124L18.9399 15.0983C19.119 15.0983 19.1955 15.0383 19.2608 14.9812C19.3231 14.9265 19.3435 14.8636 19.367 14.7785L19.4226 14.5074H18.9669L18.9088 14.6986Z" fill="#FEFEFE"/>
</svg>
