<svg width="34" height="24" viewBox="0 0 34 24" fill="none" xmlns="http://www.w3.org/2000/svg">
<rect width="34" height="24" rx="4" fill="white"/>
<path d="M15.1903 13.8559C15.1223 13.892 15.0458 13.9129 14.9645 13.9129C14.7762 13.9129 14.6126 13.8038 14.5267 13.6423L14.4938 13.5664L13.1232 10.3968C13.1084 10.3623 13.0992 10.3233 13.0992 10.2854C13.0992 10.1393 13.2116 10.021 13.3502 10.021C13.4065 10.021 13.4585 10.0406 13.5004 10.0734L15.1178 11.287C15.2359 11.3684 15.3771 11.4162 15.5289 11.4162C15.6195 11.4162 15.7058 11.3984 15.7864 11.3675L23.3925 7.80001C22.0291 6.10671 19.7837 5 17.2428 5C13.0848 5 9.71436 7.96007 9.71436 11.6118C9.71436 13.6038 10.7284 15.3971 12.3156 16.6093C12.4429 16.7051 12.5263 16.8625 12.5263 17.0401C12.5263 17.0989 12.5144 17.1525 12.4998 17.2085C12.373 17.7068 12.1701 18.5049 12.1607 18.5423C12.1449 18.6048 12.1202 18.6702 12.1202 18.7356C12.1202 18.8817 12.2325 19 12.3713 19C12.4257 19 12.4702 18.9786 12.5162 18.9508L14.1643 17.9479C14.2883 17.8727 14.4196 17.8258 14.5642 17.8258C14.6411 17.8258 14.7155 17.8384 14.7854 17.8609C15.5543 18.094 16.3838 18.2235 17.2428 18.2235C21.4006 18.2235 24.7715 15.2633 24.7715 11.6118C24.7715 10.5057 24.4605 9.46407 23.9139 8.54777L15.2454 13.8223L15.1903 13.8559Z" fill="#1AAD19"/>
</svg>
