<svg width="16" height="16" viewBox="0 0 16 16" fill="none" xmlns="http://www.w3.org/2000/svg">
<g clip-path="url(#clip0)">
<path fill-rule="evenodd" clip-rule="evenodd" d="M3.5459 9.66912L3.54594 9.66899C3.35078 9.14989 3.24441 8.58724 3.24434 7.99999C3.24434 7.45889 3.33491 6.93889 3.50106 6.45449L2.70719 4.65311L0.894938 4.32086H0.8945C0.322625 5.42239 0 6.67339 0 7.99999C0 9.37186 0.345063 10.6628 0.953406 11.7912L0.953538 11.7912L0.953491 11.7912C2.30471 14.2971 4.95349 16 8.00008 16C9.8959 16 11.6375 15.3406 13.0084 14.2387L13.0084 14.2387C14.4181 13.1055 15.4357 11.5042 15.8251 9.67032C15.9398 9.13142 16 8.57273 16 7.99998C16 7.4892 15.9521 6.98942 15.8602 6.50548H12.5161H8.1759V9.67032H12.4537C12.0687 10.698 11.3377 11.5565 10.4023 12.105L10.4023 12.1051L10.4023 12.1051C9.69768 12.5187 8.87655 12.7556 8.00008 12.7556C5.96096 12.7556 4.22162 11.4721 3.54602 9.66902L3.5459 9.66912Z" fill="black"/>
<path d="M13.1064 1.84175L10.5148 3.9635C9.78553 3.50769 8.92353 3.24437 8.00003 3.24437C5.91475 3.24437 4.14288 4.58678 3.50113 6.4545L0.894969 4.32088H0.894531C2.22597 1.75384 4.90816 0 8.00003 0C9.94112 0 11.7209 0.691437 13.1064 1.84175Z" fill="black"/>
</g>
<defs>
<clipPath id="clip0">
<rect width="16" height="16" fill="white"/>
</clipPath>
</defs>
</svg>
