<svg width="16" height="16" viewBox="0 0 16 16" fill="none" xmlns="http://www.w3.org/2000/svg">
<g clip-path="url(#clip0)">
<path d="M8.00006 1.44184C10.1374 1.44184 10.3883 1.45137 11.2331 1.48948C12.0144 1.52441 12.4368 1.65462 12.7194 1.76578C13.0942 1.91187 13.361 2.08337 13.6404 2.36284C13.9199 2.64232 14.0946 2.90909 14.2375 3.28384C14.3455 3.56649 14.4789 3.98888 14.5138 4.77015C14.5519 5.61493 14.5614 5.86582 14.5614 8.00318C14.5614 10.1405 14.5519 10.3914 14.5138 11.2362C14.4789 12.0175 14.3487 12.4399 14.2375 12.7225C14.0914 13.0973 13.9199 13.364 13.6404 13.6435C13.361 13.923 13.0942 14.0977 12.7194 14.2406C12.4368 14.3486 12.0144 14.4819 11.2331 14.5169C10.3883 14.555 10.1374 14.5645 8.00006 14.5645C5.86269 14.5645 5.61179 14.555 4.76701 14.5169C3.98574 14.4819 3.56335 14.3517 3.28069 14.2406C2.90594 14.0945 2.63916 13.923 2.35968 13.6435C2.08021 13.364 1.90553 13.0973 1.76262 12.7225C1.65464 12.4399 1.52125 12.0175 1.48632 11.2362C1.4482 10.3914 1.43868 10.1405 1.43868 8.00318C1.43868 5.86582 1.4482 5.61493 1.48632 4.77015C1.52125 3.98888 1.65146 3.56649 1.76262 3.28384C1.90871 2.90909 2.08021 2.64232 2.35968 2.36284C2.63916 2.08337 2.90594 1.90869 3.28069 1.76578C3.56335 1.6578 3.98574 1.52441 4.76701 1.48948C5.61179 1.44819 5.86586 1.44184 8.00006 1.44184ZM8.00006 0C5.82775 0 5.55463 0.00952759 4.70031 0.047638C3.84918 0.0857483 3.26799 0.22231 2.75985 0.419214C2.23265 0.622469 1.78802 0.898769 1.3434 1.34339C0.898776 1.78801 0.62565 2.23581 0.419217 2.75983C0.222312 3.26796 0.085749 3.84915 0.0476383 4.70345C0.00952766 5.55459 0 5.82771 0 8C0 10.1723 0.00952766 10.4454 0.0476383 11.2997C0.085749 12.1509 0.222312 12.732 0.419217 13.2434C0.622474 13.7705 0.898776 14.2152 1.3434 14.6598C1.78802 15.1044 2.23582 15.3775 2.75985 15.584C3.26799 15.7809 3.84918 15.9174 4.70349 15.9555C5.5578 15.9936 5.82775 16.0032 8.00324 16.0032C10.1787 16.0032 10.4487 15.9936 11.303 15.9555C12.1541 15.9174 12.7353 15.7809 13.2466 15.584C13.7738 15.3807 14.2184 15.1044 14.6631 14.6598C15.1077 14.2152 15.3808 13.7674 15.5873 13.2434C15.7842 12.7352 15.9207 12.154 15.9588 11.2997C15.9969 10.4454 16.0065 10.1755 16.0065 8C16.0065 5.82453 15.9969 5.55459 15.9588 4.70028C15.9207 3.84915 15.7842 3.26796 15.5873 2.75665C15.384 2.22946 15.1077 1.78484 14.6631 1.34021C14.2184 0.895594 13.7706 0.622469 13.2466 0.416038C12.7385 0.219135 12.1573 0.0825725 11.303 0.0444621C10.4455 0.00952759 10.1724 0 8.00006 0Z" fill="black"/>
<path d="M7.99995 3.89362C5.73238 3.89362 3.89038 5.73243 3.89038 8.00317C3.89038 10.2739 5.72921 12.1127 7.99995 12.1127C10.2707 12.1127 12.1095 10.2739 12.1095 8.00317C12.1095 5.73243 10.2707 3.89362 7.99995 3.89362ZM7.99995 10.6677C6.52635 10.6677 5.33222 9.47359 5.33222 7.99999C5.33222 6.5264 6.52635 5.33228 7.99995 5.33228C9.47355 5.33228 10.6677 6.5264 10.6677 7.99999C10.6677 9.47359 9.47355 10.6677 7.99995 10.6677Z" fill="black"/>
<path d="M12.2719 4.68757C12.8016 4.68757 13.231 4.25816 13.231 3.72846C13.231 3.19876 12.8016 2.76935 12.2719 2.76935C11.7422 2.76935 11.3127 3.19876 11.3127 3.72846C11.3127 4.25816 11.7422 4.68757 12.2719 4.68757Z" fill="black"/>
</g>
<defs>
<clipPath id="clip0">
<rect width="16" height="16" fill="white"/>
</clipPath>
</defs>
</svg>
