<svg width="16" height="14" viewBox="0 0 16 14" fill="none" xmlns="http://www.w3.org/2000/svg">
<path d="M16 7.12402C16 6.17323 15.2127 5.40157 14.2425 5.40157C13.7645 5.40157 13.3427 5.58071 13.0334 5.88386C11.8383 5.04331 10.1793 4.49213 8.35149 4.42323L9.1529 0.744094L11.754 1.2815C11.7821 1.92913 12.3304 2.45276 13.0053 2.45276C13.6942 2.45276 14.2566 1.90157 14.2566 1.22638C14.2566 0.551181 13.6942 0 13.0053 0C12.5132 0 12.0914 0.275591 11.8946 0.688976L8.98418 0.0826772C8.89982 0.0688976 8.81547 0.0826772 8.74517 0.124016C8.67487 0.165354 8.63269 0.234252 8.60457 0.316929L7.7188 4.42323C5.84886 4.47835 4.17575 5.01575 2.96661 5.88386C2.65729 5.59449 2.22144 5.40157 1.75747 5.40157C0.787346 5.40157 0 6.17323 0 7.12402C0 7.82677 0.421793 8.41929 1.04042 8.69488C1.0123 8.86024 0.998243 9.03937 0.998243 9.2185C0.998243 11.8642 4.13357 14 8.01406 14C11.8946 14 15.0299 11.8642 15.0299 9.2185C15.0299 9.03937 15.0158 8.87402 14.9877 8.70866C15.5641 8.43307 16 7.82677 16 7.12402ZM3.97891 8.35039C3.97891 7.6752 4.5413 7.12402 5.23023 7.12402C5.91916 7.12402 6.48155 7.6752 6.48155 8.35039C6.48155 9.02559 5.91916 9.57677 5.23023 9.57677C4.5413 9.57677 3.97891 9.02559 3.97891 8.35039ZM10.9666 11.5886C10.109 12.4291 8.47803 12.4843 8 12.4843C7.52197 12.4843 5.87698 12.4154 5.03339 11.5886C4.90685 11.4646 4.90685 11.2579 5.03339 11.1339C5.15993 11.0098 5.37083 11.0098 5.49736 11.1339C6.03163 11.6575 7.18453 11.8504 8.01406 11.8504C8.84359 11.8504 9.98243 11.6575 10.5308 11.1339C10.6573 11.0098 10.8682 11.0098 10.9947 11.1339C11.0931 11.2717 11.0931 11.4646 10.9666 11.5886ZM10.7417 9.57677C10.0527 9.57677 9.49033 9.02559 9.49033 8.35039C9.49033 7.6752 10.0527 7.12402 10.7417 7.12402C11.4306 7.12402 11.993 7.6752 11.993 8.35039C11.993 9.02559 11.4306 9.57677 10.7417 9.57677Z" fill="black"/>
</svg>
