<?xml version="1.0" encoding="UTF-8" standalone="no"?>
<svg
   xmlns:dc="http://purl.org/dc/elements/1.1/"
   xmlns:cc="http://creativecommons.org/ns#"
   xmlns:rdf="http://www.w3.org/1999/02/22-rdf-syntax-ns#"
   xmlns:svg="http://www.w3.org/2000/svg"
   xmlns="http://www.w3.org/2000/svg"
   xmlns:sodipodi="http://sodipodi.sourceforge.net/DTD/sodipodi-0.dtd"
   xmlns:inkscape="http://www.inkscape.org/namespaces/inkscape"
   version="1.1"
   id="svg2"
   xml:space="preserve"
   width="21.333332"
   height="21.333332"
   viewBox="0 0 21.333332 21.333332"
   sodipodi:docname="Snapchat.ai"><metadata
     id="metadata8"><rdf:RDF><cc:Work
         rdf:about=""><dc:format>image/svg+xml</dc:format><dc:type
           rdf:resource="http://purl.org/dc/dcmitype/StillImage" /></cc:Work></rdf:RDF></metadata><defs
     id="defs6"><clipPath
       clipPathUnits="userSpaceOnUse"
       id="clipPath18"><path
         d="M 0,16 H 16 V 0 H 0 Z"
         id="path16" /></clipPath></defs><sodipodi:namedview
     pagecolor="#ffffff"
     bordercolor="#666666"
     borderopacity="1"
     objecttolerance="10"
     gridtolerance="10"
     guidetolerance="10"
     inkscape:pageopacity="0"
     inkscape:pageshadow="2"
     inkscape:window-width="640"
     inkscape:window-height="480"
     id="namedview4" /><g
     id="g10"
     inkscape:groupmode="layer"
     inkscape:label="Snapchat"
     transform="matrix(1.3333333,0,0,-1.3333333,0,21.333333)"><g
       id="g12"><g
         id="g14"
         clip-path="url(#clipPath18)"><g
           id="g20"
           transform="translate(4.085,7.9888)"><path
             d="m 0,0 c -0.12,0.111 -0.441,0.322 -0.848,0.585 -0.139,0.09 -0.26,0.168 -0.326,0.214 -0.391,0.274 -0.391,0.451 -0.334,0.603 0.061,0.157 0.252,0.214 0.485,0.165 C -0.808,1.52 -0.594,1.436 -0.405,1.362 -0.264,1.307 -0.141,1.26 -0.049,1.238 0.08,1.204 0.227,1.226 0.306,1.311 0.396,1.406 0.388,1.542 0.386,1.586 L 0.378,1.703 C 0.352,2.147 0.307,2.89 0.367,3.585 0.459,4.654 0.813,5.14 1.167,5.546 1.401,5.813 2.288,6.684 3.914,6.684 5.545,6.684 6.429,5.816 6.661,5.551 7.095,5.056 7.379,4.556 7.462,3.59 7.525,2.863 7.475,2.073 7.447,1.648 L 7.444,1.593 C 7.438,1.515 7.44,1.401 7.521,1.315 7.597,1.233 7.747,1.209 7.875,1.242 7.97,1.265 8.094,1.312 8.235,1.368 8.424,1.441 8.638,1.524 8.854,1.572 8.906,1.583 8.959,1.589 9.011,1.589 9.128,1.589 9.28,1.557 9.338,1.408 9.396,1.255 9.395,1.077 9.004,0.804 8.937,0.757 8.814,0.678 8.673,0.586 8.269,0.324 7.95,0.115 7.83,0.005 7.595,-0.213 7.621,-0.415 7.644,-0.592 c 0.002,-0.02 0.317,-1.992 2.92,-3.25 0.063,-0.032 0.091,-0.053 0.103,-0.053 -0.014,-0.019 -0.052,-0.057 -0.15,-0.111 C 10.167,-4.2 9.884,-4.275 9.635,-4.341 9.414,-4.4 9.224,-4.45 9.046,-4.565 8.822,-4.708 8.792,-4.938 8.77,-5.105 8.758,-5.199 8.746,-5.288 8.708,-5.313 8.633,-5.365 8.417,-5.373 8.188,-5.381 7.812,-5.396 7.298,-5.417 6.708,-5.611 6.411,-5.709 6.158,-5.863 5.892,-6.028 5.383,-6.339 4.857,-6.662 3.916,-6.662 c -0.937,0 -1.46,0.321 -1.965,0.631 -0.269,0.165 -0.524,0.323 -0.827,0.422 -0.59,0.194 -1.104,0.215 -1.48,0.23 -0.229,0.008 -0.445,0.017 -0.52,0.067 -0.038,0.026 -0.05,0.115 -0.062,0.209 -0.023,0.167 -0.054,0.395 -0.276,0.54 -0.179,0.114 -0.369,0.166 -0.59,0.224 -0.25,0.065 -0.532,0.141 -0.882,0.334 -0.096,0.052 -0.135,0.09 -0.15,0.095 0.013,0.013 0.041,0.033 0.101,0.063 2.6,1.259 2.919,3.23 2.923,3.265 C 0.209,-0.419 0.235,-0.218 0,0 m 11.848,-3.503 c -0.131,0.359 -0.391,0.542 -0.624,0.671 -0.049,0.029 -0.095,0.052 -0.125,0.066 l -0.215,0.109 c -0.713,0.378 -1.269,0.854 -1.652,1.414 -0.108,0.157 -0.201,0.324 -0.273,0.482 -0.013,0.035 -0.019,0.063 -0.022,0.063 0,0 -10e-4,0 -10e-4,0 0.011,0.019 0.028,0.035 0.044,0.048 0.126,0.083 0.256,0.167 0.369,0.239 0.148,0.097 0.267,0.174 0.343,0.228 0.325,0.227 0.553,0.471 0.698,0.745 0.209,0.394 0.236,0.857 0.075,1.271 C 10.24,2.426 9.684,2.793 9.011,2.793 8.907,2.793 8.803,2.785 8.7,2.769 8.7,3.098 8.688,3.409 8.663,3.695 8.546,5.057 8.067,5.773 7.567,6.347 7.247,6.705 6.872,7.007 6.453,7.243 5.699,7.674 4.845,7.892 3.915,7.892 2.988,7.892 2.135,7.674 1.381,7.243 0.962,7.008 0.586,6.706 0.263,6.344 -0.236,5.772 -0.714,5.055 -0.832,3.693 -0.856,3.408 -0.869,3.097 -0.869,2.767 -0.971,2.784 -1.076,2.792 -1.18,2.792 -1.853,2.792 -2.41,2.424 -2.634,1.833 -2.795,1.418 -2.769,0.954 -2.561,0.56 c 0.145,-0.274 0.373,-0.518 0.698,-0.746 0.064,-0.043 0.155,-0.104 0.269,-0.178 l 0.099,-0.065 c 0.085,-0.054 0.208,-0.135 0.333,-0.217 0.022,-0.014 0.041,-0.034 0.047,-0.041 0.007,-0.014 -0.012,-0.068 -0.013,-0.073 -0.077,-0.168 -0.169,-0.331 -0.275,-0.486 -0.374,-0.546 -0.914,-1.013 -1.602,-1.387 -0.054,-0.03 -0.108,-0.057 -0.162,-0.083 -0.338,-0.169 -0.687,-0.345 -0.851,-0.79 -0.153,-0.418 -0.041,-0.864 0.31,-1.223 0.129,-0.136 0.278,-0.247 0.44,-0.334 0.319,-0.175 0.662,-0.312 1.018,-0.407 0.052,-0.013 0.102,-0.035 0.131,-0.054 0.027,-0.023 0.041,-0.059 0.068,-0.132 0.03,-0.079 0.071,-0.188 0.156,-0.312 0.09,-0.133 0.202,-0.246 0.333,-0.337 0.363,-0.252 0.767,-0.267 1.16,-0.281 0.334,-0.013 0.714,-0.028 1.148,-0.17 0.169,-0.056 0.354,-0.17 0.569,-0.304 0.555,-0.342 1.315,-0.81 2.6,-0.81 1.282,0 2.048,0.47 2.617,0.82 0.21,0.128 0.392,0.24 0.553,0.293 0.43,0.141 0.811,0.156 1.148,0.169 0.392,0.014 0.796,0.029 1.159,0.281 0.155,0.108 0.286,0.25 0.378,0.412 0.053,0.091 0.084,0.17 0.11,0.239 0.027,0.073 0.042,0.109 0.052,0.12 0.043,0.03 0.089,0.05 0.135,0.062 0.361,0.095 0.707,0.232 1.031,0.41 0.175,0.095 0.331,0.217 0.465,0.366 0.332,0.354 0.435,0.788 0.285,1.195"
             style="fill:#000000;fill-opacity:1;fill-rule:nonzero;stroke:none"
             id="path22" /></g></g></g></g></svg>
