<svg width="16" height="16" viewBox="0 0 16 16" fill="none" xmlns="http://www.w3.org/2000/svg">
<path d="M15.01 4.01218C14.0968 4.01218 13.2543 3.70968 12.5778 3.19937C11.8018 2.61437 11.2443 1.75624 11.0475 0.767177C10.9987 0.522802 10.9725 0.270614 10.97 0.0121765H8.36154V7.13968L8.35841 11.0437C8.35841 12.0875 7.67872 12.9725 6.73654 13.2838C6.4631 13.3741 6.16779 13.4169 5.86029 13.4C5.46779 13.3784 5.09997 13.26 4.78029 13.0688C4.09997 12.6619 3.63872 11.9237 3.62622 11.0794C3.60654 9.75969 4.67341 8.68375 5.99216 8.68375C6.25247 8.68375 6.50247 8.72625 6.73654 8.80343V6.85531V6.15499C6.48966 6.11843 6.23841 6.09937 5.98435 6.09937C4.54091 6.09937 3.19091 6.69937 2.22591 7.78031C1.49654 8.59719 1.05904 9.63937 0.991537 10.7322C0.903099 12.1678 1.42841 13.5325 2.44716 14.5394C2.59685 14.6872 2.75404 14.8244 2.91841 14.9509C3.79185 15.6231 4.85966 15.9875 5.98435 15.9875C6.23841 15.9875 6.48966 15.9688 6.73654 15.9322C7.78716 15.7766 8.75654 15.2956 9.52154 14.5394C10.4615 13.6103 10.9809 12.3769 10.9865 11.0641L10.9731 5.23406C11.4215 5.57999 11.9118 5.86624 12.4381 6.08843C13.2565 6.43375 14.1243 6.60875 15.0175 6.60843V4.71437V4.01156C15.0181 4.01218 15.0106 4.01218 15.01 4.01218Z" fill="black"/>
</svg>
