<svg width="16" height="14" viewBox="0 0 16 14" fill="none" xmlns="http://www.w3.org/2000/svg">
<path d="M5.03168 13.5C11.0694 13.5 14.3718 8.49812 14.3718 4.16052C14.3718 4.01845 14.3718 3.87702 14.3622 3.73623C15.0047 3.27156 15.5593 2.69622 16 2.03715C15.4009 2.3026 14.7653 2.47669 14.1146 2.55359C14.7998 2.14337 15.3127 1.49816 15.5578 0.738043C14.9134 1.12039 14.2084 1.38984 13.4733 1.53479C12.4557 0.452876 10.8389 0.188075 9.52931 0.888867C8.21976 1.58966 7.54322 3.08176 7.87904 4.52849C5.23961 4.39618 2.78046 3.1496 1.1136 1.09898C0.242319 2.5988 0.687352 4.51752 2.12992 5.48074C1.60751 5.46526 1.0965 5.32434 0.64 5.06989C0.64 5.08333 0.64 5.09741 0.64 5.11149C0.640428 6.67399 1.74192 8.01978 3.2736 8.32917C2.79032 8.46097 2.28325 8.48023 1.79136 8.38549C2.22141 9.72262 3.45381 10.6386 4.85824 10.665C3.69583 11.5785 2.25988 12.0744 0.78144 12.0729C0.520258 12.0724 0.259331 12.0566 0 12.0255C1.50121 12.9889 3.24794 13.4998 5.03168 13.4974" fill="black"/>
</svg>
