<svg width="36" height="22" viewBox="0 0 36 22" fill="none" xmlns="http://www.w3.org/2000/svg">
<rect width="36" height="22" rx="2" fill="#F7931A"/>
<path d="M23.1991 9.57133C23.4166 8.11737 22.3096 7.33576 20.7959 6.81435L21.2869 4.84479L20.088 4.54601L19.6099 6.46367C19.2948 6.38513 18.9711 6.31103 18.6494 6.23762L19.1309 4.30733L17.9327 4.00854L17.4413 5.97742C17.1804 5.91801 16.9243 5.85928 16.6758 5.79747L16.6771 5.79133L15.0238 5.3785L14.7048 6.65898C14.7048 6.65898 15.5943 6.86284 15.5756 6.87547C16.0611 6.99669 16.1489 7.31801 16.1342 7.57274L15.5749 9.8165C15.6083 9.82503 15.6517 9.83733 15.6995 9.85645C15.6596 9.84654 15.6169 9.83562 15.5728 9.82503L14.7888 12.9682C14.7294 13.1157 14.5788 13.337 14.2394 13.253C14.2514 13.2704 13.368 13.0355 13.368 13.0355L12.7728 14.4078L14.333 14.7967C14.6232 14.8695 14.9077 14.9456 15.1877 15.0173L14.6915 17.0094L15.889 17.3082L16.3804 15.3373C16.7075 15.4261 17.0251 15.508 17.3358 15.5852L16.8461 17.5469L18.045 17.8457L18.5412 15.8573C20.5855 16.2442 22.1228 16.0882 22.7699 14.2391C23.2913 12.7504 22.7439 11.8916 21.6683 11.3316C22.4516 11.1509 23.0417 10.6357 23.1991 9.57133ZM20.4599 13.4124C20.0894 14.9012 17.5827 14.0964 16.77 13.8946L17.4283 11.2554C18.241 11.4583 20.8471 11.8598 20.4599 13.4124ZM20.8307 9.54981C20.4926 10.9041 18.4063 10.216 17.7295 10.0473L18.3264 7.65367C19.0032 7.82235 21.1827 8.13718 20.8307 9.54981Z" fill="white"/>
</svg>
