<svg width="36" height="22" viewBox="0 0 36 22" fill="none" xmlns="http://www.w3.org/2000/svg">
<rect width="36" height="22" rx="2" fill="url(#paint0_linear)"/>
<path d="M15.7647 12.1769L16.4951 7.59683C16.5047 7.53624 16.5242 7.47939 16.5518 7.42772L16.5987 7.35406C16.5458 7.42328 16.5092 7.50576 16.4947 7.59644L15.0846 16.4401H12.3778C12.1469 16.4401 11.9701 16.2359 12.0064 16.0098L13.8317 4.56148C13.8801 4.26011 14.1427 4.03784 14.4513 4.03784H18.8355C20.3459 4.03784 21.5262 4.35349 22.1798 5.08975C22.7732 5.75849 22.9465 6.49668 22.7744 7.58216C22.7747 7.58249 22.7747 7.58283 22.7746 7.58316C23.02 7.71111 23.23 7.86837 23.3991 8.05873C23.9575 8.6881 24.0667 9.58412 23.8556 10.6573C23.3499 13.2253 21.6195 14.1132 19.4094 14.1132H19.068C18.798 14.1132 18.5682 14.3077 18.526 14.5712L18.4983 14.7202L18.0683 17.4152L18.0461 17.5302C18.004 17.7937 17.7741 17.9882 17.5041 17.9882H15.2227C15.0206 17.9882 14.8661 17.8092 14.8977 17.6116L15.7432 12.3104L15.7647 12.1769Z" fill="white"/>
<path d="M16.7998 7.19126C16.872 7.15731 16.9524 7.1384 17.0367 7.1384H20.4735C20.8804 7.1384 21.2601 7.16464 21.607 7.21982C21.7065 7.23564 21.8028 7.25378 21.8965 7.27462C21.9901 7.29507 22.081 7.31822 22.1692 7.34369C22.2133 7.35642 22.2566 7.36954 22.2992 7.38343C22.4697 7.43977 22.6285 7.50537 22.7744 7.58216C22.9465 6.49668 22.7732 5.75849 22.1798 5.08975C21.5262 4.35349 20.3459 4.03784 18.8355 4.03784H14.4513C14.1427 4.03784 13.8801 4.26011 13.8317 4.56148L12.0064 16.0098C11.9701 16.2359 12.1469 16.4401 12.3778 16.4401H15.0846L16.4947 7.59644C16.5236 7.41508 16.6414 7.26651 16.7998 7.19126Z" fill="white"/>
<path d="M22.7295 7.83607C22.1517 10.7715 20.1734 11.7867 17.6469 11.7867H16.3605C16.0518 11.7867 15.7912 12.009 15.7432 12.3104L14.8977 17.6116C14.8661 17.8092 15.0206 17.9882 15.2227 17.9882H17.5041C17.7741 17.9882 18.004 17.7937 18.0461 17.5302L18.0683 17.4152L18.4983 14.7202L18.526 14.5712C18.5682 14.3077 18.798 14.1132 19.068 14.1132H19.4094C21.6194 14.1132 23.3499 13.2253 23.8556 10.6573C24.0667 9.58411 23.9574 8.6881 23.3991 8.05872C23.2297 7.8681 23.0194 7.71066 22.7744 7.58216C22.7611 7.66513 22.7467 7.74925 22.7295 7.83607Z" fill="#B6D5E7"/>
<path d="M22.1696 7.34369C22.0814 7.31822 21.9905 7.29507 21.8969 7.27461C21.8032 7.25416 21.7065 7.23603 21.6074 7.2202C21.2601 7.16464 20.8808 7.1384 20.4735 7.1384H17.0371C16.9524 7.1384 16.872 7.15731 16.8003 7.19165C16.6414 7.2669 16.524 7.41507 16.4951 7.59682L15.7647 12.1769L15.7436 12.3104C15.7916 12.009 16.0523 11.7867 16.3609 11.7867H17.6473C20.1738 11.7867 22.1521 10.7719 22.7299 7.83607C22.7471 7.74925 22.7615 7.66513 22.7748 7.58216C22.6285 7.50576 22.4701 7.43977 22.2996 7.38382C22.257 7.36993 22.2137 7.35642 22.1696 7.34369Z" fill="#E9F1F7"/>
<defs>
<linearGradient id="paint0_linear" x1="0" y1="0" x2="36" y2="22" gradientUnits="userSpaceOnUse">
<stop stop-color="#002E78"/>
<stop offset="1" stop-color="#00A3DF"/>
</linearGradient>
</defs>
</svg>
