<svg width="36" height="22" viewBox="0 0 36 22" fill="none" xmlns="http://www.w3.org/2000/svg">
<rect width="36" height="22" rx="2" fill="url(#paint0_linear)"/>
<path d="M23.2396 8.92241C23.7834 8.92241 24.2246 8.49235 24.2246 7.96209C24.2246 7.43095 23.7834 7 23.2396 7C22.6959 7 22.2555 7.43095 22.2555 7.96121C22.2555 8.49147 22.6959 8.92241 23.2396 8.92241ZM15.6948 9.44114C15.6503 9.55021 15.3303 10.4325 14.5565 11.3458V7.43715L12.4947 7.83529V14.9202H14.5565V12.73C15.1538 13.6043 15.4488 14.9202 15.4488 14.9202H17.918C17.6737 13.9288 16.605 12.1022 16.605 12.1022C17.5641 10.9158 17.9848 9.6513 18.0526 9.44203H15.6948V9.44114ZM21.1145 9.36666C19.2676 9.4243 18.3307 10.233 18.3307 11.8406V14.9193H20.3453V12.409C20.3453 11.4469 20.4745 11.0337 21.6449 10.9947V9.39503C21.4479 9.35425 21.1145 9.36666 21.1145 9.36666ZM9.03788 10.2206C8.78562 10.2046 8.20086 10.1674 8.20086 9.65396C8.20086 9.03414 9.04234 9.03414 9.3579 9.03414C9.91324 9.03414 10.6317 9.19375 11.1451 9.34449C11.1451 9.34449 11.4313 9.44292 11.6755 9.544L11.6987 9.55021V9.52716V7.85214L11.6675 7.84327C11.0614 7.63667 10.3572 7.43715 9.05126 7.43715C6.7978 7.43715 6 8.71758 6 9.81445C6 10.4467 6.27812 11.9346 8.85693 12.1066C9.07532 12.1199 9.65562 12.1519 9.65562 12.683C9.65562 13.121 9.18051 13.38 8.38182 13.38C7.50646 13.38 6.65696 13.1618 6.14084 12.9552V14.7038C6.91279 14.9016 7.78369 15 8.80434 15C11.0061 15 11.9929 13.7887 11.9929 12.5881C11.9929 11.2261 10.8893 10.3421 9.03788 10.2206ZM22.2404 14.9193H24.2389V9.44735H22.2404V14.9193ZM28.0015 7.78652V14.9202H30V7.43715L28.0015 7.78652ZM25.0857 7.78652L27.0825 7.43804V14.9202H25.0857V7.78652Z" fill="white"/>
<defs>
<linearGradient id="paint0_linear" x1="-5.36442e-07" y1="22" x2="36" y2="-1.28421e-06" gradientUnits="userSpaceOnUse">
<stop stop-color="#431447"/>
<stop offset="0.526608" stop-color="#760351"/>
</linearGradient>
</defs>
</svg>
